<?xml version="1.0" encoding="UTF-8" standalone="no"?>
<!DOCTYPE svg PUBLIC "-//W3C//DTD SVG 1.1//EN" "http://www.w3.org/Graphics/SVG/1.1/DTD/svg11.dtd"
[
<!ATTLIST g
  xmlns:vectornator CDATA #FIXED "http://vectornator.io"
  vectornator:layerName CDATA #IMPLIED >
<!ATTLIST g
  xmlns:vectornator CDATA #FIXED "http://vectornator.io"
  vectornator:mask CDATA #IMPLIED >
<!ATTLIST text
  xmlns:vectornator CDATA #FIXED "http://vectornator.io"
  vectornator:width CDATA #IMPLIED >
<!ATTLIST text
  xmlns:vectornator CDATA #FIXED "http://vectornator.io"
  vectornator:text CDATA #IMPLIED >

<!ATTLIST path
  xmlns:vectornator CDATA #FIXED "http://vectornator.io"
  vectornator:blendMode CDATA #IMPLIED >
<!ATTLIST path
  xmlns:vectornator CDATA #FIXED "http://vectornator.io"
  vectornator:shadowColor CDATA #IMPLIED >
<!ATTLIST path
  xmlns:vectornator CDATA #FIXED "http://vectornator.io"
  vectornator:shadowOpacity CDATA #IMPLIED >
<!ATTLIST path
  xmlns:vectornator CDATA #FIXED "http://vectornator.io"
  vectornator:shadowRadius CDATA #IMPLIED >
<!ATTLIST path
  xmlns:vectornator CDATA #FIXED "http://vectornator.io"
  vectornator:shadowOffset CDATA #IMPLIED >
<!ATTLIST path
  xmlns:vectornator CDATA #FIXED "http://vectornator.io"
  vectornator:shadowAngle CDATA #IMPLIED >

<!ATTLIST image
  xmlns:vectornator CDATA #FIXED "http://vectornator.io"
  vectornator:blendMode CDATA #IMPLIED >
<!ATTLIST image
  xmlns:vectornator CDATA #FIXED "http://vectornator.io"
  vectornator:shadowColor CDATA #IMPLIED >
<!ATTLIST image
  xmlns:vectornator CDATA #FIXED "http://vectornator.io"
  vectornator:shadowOpacity CDATA #IMPLIED >
<!ATTLIST image
  xmlns:vectornator CDATA #FIXED "http://vectornator.io"
  vectornator:shadowRadius CDATA #IMPLIED >
<!ATTLIST image
  xmlns:vectornator CDATA #FIXED "http://vectornator.io"
  vectornator:shadowOffset CDATA #IMPLIED >
<!ATTLIST image
  xmlns:vectornator CDATA #FIXED "http://vectornator.io"
  vectornator:shadowAngle CDATA #IMPLIED >

<!ATTLIST g
  xmlns:vectornator CDATA #FIXED "http://vectornator.io"
  vectornator:blendMode CDATA #IMPLIED >
<!ATTLIST g
  xmlns:vectornator CDATA #FIXED "http://vectornator.io"
  vectornator:shadowColor CDATA #IMPLIED >
<!ATTLIST g
  xmlns:vectornator CDATA #FIXED "http://vectornator.io"
  vectornator:shadowOpacity CDATA #IMPLIED >
<!ATTLIST g
  xmlns:vectornator CDATA #FIXED "http://vectornator.io"
  vectornator:shadowRadius CDATA #IMPLIED >
<!ATTLIST g
  xmlns:vectornator CDATA #FIXED "http://vectornator.io"
  vectornator:shadowOffset CDATA #IMPLIED >
<!ATTLIST g
  xmlns:vectornator CDATA #FIXED "http://vectornator.io"
  vectornator:shadowAngle CDATA #IMPLIED >

<!ENTITY % SVG.filter.extra.content  "| feDropShadow" >
<!ELEMENT feDropShadow EMPTY>
<!ATTLIST feDropShadow
  xmlns:svg CDATA #FIXED "http://www.w3.org/Graphics/SVG/1.1/DTD/svg11.dtd"
  dx CDATA #IMPLIED>
<!ATTLIST feDropShadow
  xmlns:svg CDATA #FIXED "http://www.w3.org/Graphics/SVG/1.1/DTD/svg11.dtd"
  dy CDATA #IMPLIED>
<!ATTLIST feDropShadow
  xmlns:svg CDATA #FIXED "http://www.w3.org/Graphics/SVG/1.1/DTD/svg11.dtd"
  stdDeviation CDATA #IMPLIED>
<!ATTLIST feDropShadow
  xmlns:svg CDATA #FIXED "http://www.w3.org/Graphics/SVG/1.1/DTD/svg11.dtd"
  flood-opacity CDATA #IMPLIED>
<!ATTLIST feDropShadow
  xmlns:svg CDATA #FIXED "http://www.w3.org/Graphics/SVG/1.1/DTD/svg11.dtd"
  in CDATA #IMPLIED>
<!ATTLIST feDropShadow
  xmlns:svg CDATA #FIXED "http://www.w3.org/Graphics/SVG/1.1/DTD/svg11.dtd"
  result CDATA #IMPLIED>
<!ATTLIST feDropShadow
  xmlns:svg CDATA #FIXED "http://www.w3.org/Graphics/SVG/1.1/DTD/svg11.dtd"
  flood-color CDATA #IMPLIED>
]
>
<!-- Created with Vectornator (http://vectornator.io/) -->
<svg height="100%" stroke-miterlimit="10" style="fill-rule:nonzero;clip-rule:evenodd;stroke-linecap:round;stroke-linejoin:round;" version="1.1" viewBox="0 0 1620 2160" width="100%" xml:space="preserve" xmlns="http://www.w3.org/2000/svg" xmlns:vectornator="http://vectornator.io" xmlns:xlink="http://www.w3.org/1999/xlink">
<defs>
<filter color-interpolation-filters="sRGB" filterUnits="userSpaceOnUse" height="323.82" id="Filter" width="320.358" x="259.793" y="421.922">
<feGaussianBlur in="SourceGraphic" result="Blur" stdDeviation="49"/>
</filter>
<filter color-interpolation-filters="sRGB" filterUnits="userSpaceOnUse" height="317.351" id="Filter_2" width="304.99" x="265.224" y="411.622">
<feGaussianBlur in="SourceGraphic" result="Blur" stdDeviation="49"/>
</filter>
<filter color-interpolation-filters="sRGB" filterUnits="userSpaceOnUse" height="307.945" id="Filter_3" width="301.711" x="450.543" y="404.363">
<feGaussianBlur in="SourceGraphic" result="Blur" stdDeviation="49"/>
</filter>
<filter color-interpolation-filters="sRGB" filterUnits="userSpaceOnUse" height="296.503" id="Filter_4" width="296.803" x="253.951" y="409.992">
<feGaussianBlur in="SourceGraphic" result="Blur" stdDeviation="49"/>
</filter>
<filter color-interpolation-filters="sRGB" filterUnits="userSpaceOnUse" height="301.977" id="Filter_5" width="299.92" x="456.481" y="406.195">
<feGaussianBlur in="SourceGraphic" result="Blur" stdDeviation="49"/>
</filter>
<filter color-interpolation-filters="sRGB" filterUnits="userSpaceOnUse" height="323.988" id="Filter_6" width="317.687" x="437.104" y="402.131">
<feGaussianBlur in="SourceGraphic" result="Blur" stdDeviation="49"/>
</filter>
<filter color-interpolation-filters="sRGB" filterUnits="userSpaceOnUse" height="282.157" id="Filter_7" width="292.962" x="270.089" y="407.941">
<feGaussianBlur in="SourceGraphic" result="Blur" stdDeviation="49"/>
</filter>
<filter color-interpolation-filters="sRGB" filterUnits="userSpaceOnUse" height="280.09" id="Filter_8" width="268.92" x="472.241" y="438.28">
<feGaussianBlur in="SourceGraphic" result="Blur" stdDeviation="49"/>
</filter>
</defs>
<g id="Layer-1" vectornator:layerName="Layer 1">
<path d="M198.18 177.12C196.38 178.56 195.3 180.36 194.94 182.52C194.58 184.68 191.88 186.84 186.84 189C181.8 191.16 176.76 194.4 171.72 198.72C166.68 203.04 161.28 209.7 155.52 218.7C149.76 227.7 145.44 237.96 142.56 249.48C139.68 261 138.42 273.78 138.78 287.82C139.14 301.86 139.86 309.06 140.94 309.42C142.02 309.78 147.42 308.34 157.14 305.1C162 303.48 166.86 301.86 171.72 300.24C169.56 303.66 167.4 307.08 165.24 310.5C160.92 317.34 158.76 323.1 158.76 327.78C158.76 332.46 161.46 336.42 166.86 339.66C172.26 342.9 193.14 345.6 229.5 347.76C265.86 349.92 284.4 351.36 285.12 352.08C285.84 352.8 286.74 360.9 287.82 376.38C288.9 391.86 289.26 406.8 288.9 421.2C288.54 435.6 287.28 446.76 285.12 454.68C282.96 462.6 277.02 476.64 267.3 496.8C257.58 516.96 245.7 536.4 231.66 555.12C217.62 573.84 207.9 591.12 202.5 606.96C197.1 622.8 194.04 630.9 193.32 631.26C192.6 631.62 190.44 639 186.84 653.4C183.24 667.8 180.54 682.2 178.74 696.6C176.94 711 176.4 729 177.12 750.6C177.84 772.2 180.18 790.74 184.14 806.22C188.1 821.7 192.96 834.84 198.72 845.64C204.48 856.44 210.42 864.9 216.54 871.02C222.66 877.14 231.3 882.9 242.46 888.3C253.62 893.7 263.7 896.94 272.7 898.02C281.7 899.1 290.34 899.46 298.62 899.1C306.9 898.74 312.3 899.1 314.82 900.18C317.34 901.26 322.02 901.98 328.86 902.34C335.7 902.7 341.1 903.6 345.06 905.04C349.02 906.48 370.44 907.56 409.32 908.28C448.2 909 475.56 910.08 491.4 911.52C507.24 912.96 536.22 913.68 578.34 913.68C620.46 913.68 646.56 912.6 656.64 910.44C666.72 908.28 671.94 906.84 672.3 906.12C672.66 905.4 676.44 903.96 683.64 901.8C690.84 899.64 698.76 896.22 707.4 891.54C716.04 886.86 723.24 881.46 729 875.34C734.76 869.22 739.62 863.1 743.58 856.98C747.54 850.86 750.6 845.82 752.76 841.86C754.92 837.9 756.36 833.58 757.08 828.9C757.8 824.22 758.7 821.52 759.78 820.8C760.86 820.08 761.4 819.18 761.4 818.1C761.4 817.02 760.86 815.94 759.78 814.86C758.7 813.78 753.66 812.52 744.66 811.08C735.66 809.64 724.68 808.74 711.72 808.38C698.76 808.02 690.66 805.5 687.42 800.82C684.18 796.14 680.76 792.18 677.16 788.94C673.56 785.7 669.06 777.96 663.66 765.72C658.26 753.48 654.66 743.94 652.86 737.1C651.06 730.26 650.16 723.06 650.16 715.5C650.16 707.94 651.78 695.34 655.02 677.7C658.26 660.06 663.84 640.08 671.76 617.76C679.68 595.44 686.7 578.16 692.82 565.92C698.94 553.68 704.16 537.12 708.48 516.24C712.8 495.36 715.5 478.98 716.58 467.1C717.66 455.22 718.2 442.26 718.2 428.22C718.2 414.18 717.66 403.02 716.58 394.74C715.5 386.46 713.52 377.64 710.64 368.28C707.76 358.92 703.44 349.38 697.68 339.66C691.92 329.94 687.06 322.56 683.1 317.52C679.14 312.48 673.02 306.36 664.74 299.16C656.46 291.96 652.14 287.64 651.78 286.2C651.42 284.76 648.9 284.22 644.22 284.58C639.54 284.94 627.48 284.22 608.04 282.42C588.6 280.62 572.04 279.9 558.36 280.26C544.68 280.62 532.08 280.08 520.56 278.64C509.04 277.2 499.14 276.48 490.86 276.48C482.58 276.48 467.1 275.22 444.42 272.7C421.74 270.18 405.72 267.84 396.36 265.68C387 263.52 380.34 262.44 376.38 262.44C372.42 262.44 370.08 262.08 369.36 261.36C368.64 260.64 353.34 260.28 323.46 260.28C308.52 260.28 293.58 260.28 278.64 260.28C279.54 259.56 280.44 258.84 281.34 258.12C283.14 256.68 288.72 254.16 298.08 250.56C307.44 246.96 322.92 242.46 344.52 237.06C366.12 231.66 379.08 227.88 383.4 225.72C385.56 224.64 387.72 223.56 389.88 222.48C389.16 222.3 388.44 222.12 387.72 221.94C386.28 221.58 374.04 224.46 351 230.58C327.96 236.7 312.66 234.9 305.1 225.18C297.54 215.46 289.26 207.36 280.26 200.88C271.26 194.4 263.7 189.9 257.58 187.38C251.46 184.86 242.46 183.06 230.58 181.98C218.7 180.9 212.22 179.46 211.14 177.66C210.06 175.86 208.08 174.96 205.2 174.96C202.32 174.96 199.98 175.68 198.18 177.12Z" fill="#000000" fill-rule="evenodd" opacity="1" stroke="#000000" stroke-linecap="round" stroke-linejoin="round" stroke-width="1"/>
<path d="M216 184.68C216 185.4 221.22 188.64 231.66 194.4C242.1 200.16 250.2 205.38 255.96 210.06C261.72 214.74 267.12 219.96 272.16 225.72C277.2 231.48 281.16 237.06 284.04 242.46C286.92 247.86 292.32 249.12 300.24 246.24C308.16 243.36 311.76 240.84 311.04 238.68C310.32 236.52 307.26 232.2 301.86 225.72C296.46 219.24 289.8 212.94 281.88 206.82C273.96 200.7 265.86 195.84 257.58 192.24C249.3 188.64 240.3 186.3 230.58 185.22C225.72 184.68 220.86 184.14 216 183.6C216 183.96 216 184.32 216 184.68Z" fill="#ffdac1" fill-rule="evenodd" opacity="1" stroke="#ffffff" stroke-linecap="round" stroke-linejoin="round" stroke-width="1"/>
<path d="M216.54 214.92C220.5 233.64 222.66 248.22 223.02 258.66C223.2 263.88 223.38 269.1 223.56 274.32C233.64 270.72 243.72 267.12 253.8 263.52C263.88 259.92 273.96 256.32 284.04 252.72C282.6 249.66 281.16 246.6 279.72 243.54C276.84 237.42 272.7 231.48 267.3 225.72C261.9 219.96 255.24 214.2 247.32 208.44C239.4 202.68 231.3 197.64 223.02 193.32C218.88 191.16 214.74 189 210.6 186.84C212.58 196.2 214.56 205.56 216.54 214.92Z" fill="#ffdac1" fill-rule="evenodd" opacity="1" stroke="#ffffff" stroke-linecap="round" stroke-linejoin="round" stroke-width="1"/>
<path d="M185.22 194.94C176.94 199.62 170.46 204.66 165.78 210.06C161.1 215.46 157.5 220.5 154.98 225.18C152.46 229.86 149.76 237.78 146.88 248.94C144 260.1 142.92 272.16 143.64 285.12C144 291.6 144.36 298.08 144.72 304.56C150.3 302.58 155.88 300.6 161.46 298.62C172.62 294.66 177.66 290.34 176.58 285.66C175.5 280.98 175.14 272.52 175.5 260.28C175.86 248.04 177.3 237.06 179.82 227.34C182.34 217.62 185.04 210.24 187.92 205.2C190.8 200.16 193.5 196.56 196.02 194.4C198.54 192.24 199.44 190.62 198.72 189.54C198 188.46 193.5 190.26 185.22 194.94Z" fill="#ffdac1" fill-rule="evenodd" opacity="1" stroke="#ffffff" stroke-linecap="round" stroke-linejoin="round" stroke-width="1"/>
<path d="M198.72 196.56C194.4 201.6 190.62 208.08 187.38 216C184.14 223.92 181.98 230.94 180.9 237.06C179.82 243.18 179.28 252 179.28 263.52C179.28 275.04 180 282.42 181.44 285.66C182.88 288.9 189.54 288.18 201.42 283.5C213.3 278.82 219.06 270 218.7 257.04C218.34 244.08 216.9 230.94 214.38 217.62C211.86 204.3 210.06 196.2 208.98 193.32C207.9 190.44 207 189 206.28 189C205.56 189 203.04 191.52 198.72 196.56Z" fill="#ffdac1" fill-rule="evenodd" opacity="1" stroke="#ffffff" stroke-linecap="round" stroke-linejoin="round" stroke-width="1"/>
<path d="M248.94 273.78C248.4 274.32 247.86 274.86 247.32 275.4C249.84 276.3 252.36 277.2 254.88 278.1C259.92 279.9 265.32 283.32 271.08 288.36C276.84 293.4 282.96 302.22 289.44 314.82C295.92 327.42 300.42 341.46 302.94 356.94C305.46 372.42 306.9 386.28 307.26 398.52C307.62 410.76 306.9 422.64 305.1 434.16C303.3 445.68 301.32 453.6 299.16 457.92C297 462.24 295.02 468.18 293.22 475.74C291.42 483.3 285.48 496.44 275.4 515.16C265.32 533.88 254.34 551.16 242.46 567C230.58 582.84 222.3 596.52 217.62 608.04C212.94 619.56 209.52 629.46 207.36 637.74C205.2 646.02 203.76 650.34 203.04 650.7C202.32 651.06 200.88 656.1 198.72 665.82C196.56 675.54 194.58 686.7 192.78 699.3C190.98 711.9 190.62 728.46 191.7 748.98C192.78 769.5 194.22 784.26 196.02 793.26C197.82 802.26 199.8 809.64 201.96 815.4C204.12 821.16 208.44 829.62 214.92 840.78C221.4 851.94 226.8 859.68 231.12 864C235.44 868.32 241.2 872.46 248.4 876.42C255.6 880.38 261 882.9 264.6 883.98C268.2 885.06 274.86 885.96 284.58 886.68C294.3 887.4 301.86 887.22 307.26 886.14C312.66 885.06 320.22 881.46 329.94 875.34C339.66 869.22 348.3 862.38 355.86 854.82C363.42 847.26 368.64 841.14 371.52 836.46C374.4 831.78 376.2 828 376.92 825.12C377.64 822.24 379.26 819.18 381.78 815.94C384.3 812.7 385.92 809.64 386.64 806.76C387.36 803.88 393.3 802.62 404.46 802.98C415.62 803.34 424.8 804.24 432 805.68C439.2 807.12 447.3 807.84 456.3 807.84C465.3 807.84 471.06 808.2 473.58 808.92C476.1 809.64 502.2 810 551.88 810C601.56 810 627.48 809.64 629.64 808.92C631.8 808.2 639.72 807.66 653.4 807.3C660.24 807.12 667.08 806.94 673.92 806.76C671.04 802.8 668.16 798.84 665.28 794.88C659.52 786.96 654.3 778.14 649.62 768.42C644.94 758.7 641.88 750.78 640.44 744.66C639 738.54 638.28 731.16 638.28 722.52C638.28 713.88 639 704.7 640.44 694.98C641.88 685.26 644.22 674.28 647.46 662.04C650.7 649.8 652.68 643.5 653.4 643.14C654.12 642.78 655.92 637.92 658.8 628.56C661.68 619.2 666.9 607.14 674.46 592.38C682.02 577.62 686.52 565.56 687.96 556.2C689.4 546.84 690.48 541.98 691.2 541.62C691.92 541.26 693.36 537.48 695.52 530.28C697.68 523.08 700.38 508.86 703.62 487.62C706.86 466.38 708.48 445.86 708.48 426.06C708.48 406.26 707.76 392.4 706.32 384.48C704.88 376.56 702.9 369.18 700.38 362.34C697.86 355.5 695.52 349.92 693.36 345.6C691.2 341.28 686.52 334.08 679.32 324C672.12 313.92 665.28 305.46 658.8 298.62C652.32 291.78 644.4 288.9 635.04 289.98C625.68 291.06 606.24 291.6 576.72 291.6C547.2 291.6 514.44 290.16 478.44 287.28C442.44 284.4 414 281.16 393.12 277.56C372.24 273.96 343.26 272.16 306.18 272.16C269.1 272.16 250.02 272.7 248.94 273.78Z" fill="#aee4e9" fill-rule="evenodd" opacity="1" stroke="#ffffff" stroke-linecap="round" stroke-linejoin="round" stroke-width="1"/>
<path d="M212.22 287.82C206.1 289.62 199.8 292.86 193.32 297.54C186.84 302.22 181.08 307.8 176.04 314.28C171 320.76 169.02 325.44 170.1 328.32C171.18 331.2 173.52 333.54 177.12 335.34C180.72 337.14 187.56 337.86 197.64 337.5C207.72 337.14 224.64 337.5 248.4 338.58C260.28 339.12 272.16 339.66 284.04 340.2C282.96 336.42 281.88 332.64 280.8 328.86C278.64 321.3 275.04 314.1 270 307.26C264.96 300.42 259.02 295.2 252.18 291.6C245.34 288 238.5 286.02 231.66 285.66C224.82 285.3 218.34 286.02 212.22 287.82Z" fill="#19bdce" fill-rule="evenodd" opacity="1" stroke="#ffffff" stroke-linecap="round" stroke-linejoin="round" stroke-width="1"/>
<path d="M427.14 396.36C421.02 399.24 415.8 403.02 411.48 407.7C407.16 412.38 403.2 419.04 399.6 427.68C396 436.32 393.84 444.78 393.12 453.06C392.4 461.34 393.12 470.7 395.28 481.14C397.44 491.58 400.32 499.86 403.92 505.98C407.52 512.1 412.2 517.5 417.96 522.18C423.72 526.86 428.4 529.74 432 530.82C435.6 531.9 439.38 532.44 443.34 532.44C447.3 532.44 452.34 531.18 458.46 528.66C464.58 526.14 470.16 522 475.2 516.24C480.24 510.48 484.38 502.92 487.62 493.56C490.86 484.2 492.66 474.66 493.02 464.94C493.38 455.22 492.84 447.12 491.4 440.64C489.96 434.16 487.26 427.32 483.3 420.12C479.34 412.92 473.94 406.8 467.1 401.76C460.26 396.72 453.42 393.84 446.58 393.12C439.74 392.4 433.26 393.48 427.14 396.36Z" fill="#000000" fill-rule="evenodd" opacity="1" stroke="#000000" stroke-linecap="round" stroke-linejoin="round" stroke-width="1"/>
<path d="M578.34 396.36C571.5 399.24 565.56 403.56 560.52 409.32C555.48 415.08 551.52 421.74 548.64 429.3C545.76 436.86 543.96 445.14 543.24 454.14C542.52 463.14 543.24 472.32 545.4 481.68C547.56 491.04 550.44 498.6 554.04 504.36C557.64 510.12 562.86 515.52 569.7 520.56C576.54 525.6 583.02 528.48 589.14 529.2C595.26 529.92 601.56 528.84 608.04 525.96C614.52 523.08 620.28 518.76 625.32 513C630.36 507.24 634.32 500.76 637.2 493.56C640.08 486.36 641.88 477.54 642.6 467.1C643.32 456.66 642.6 447.3 640.44 439.02C638.28 430.74 635.04 423.18 630.72 416.34C626.4 409.5 621.18 404.1 615.06 400.14C608.94 396.18 603 393.84 597.24 393.12C591.48 392.4 585.18 393.48 578.34 396.36Z" fill="#000000" fill-rule="evenodd" opacity="1" stroke="#000000" stroke-linecap="round" stroke-linejoin="round" stroke-width="1"/>
<path d="M425.52 409.32C421.2 412.92 417.24 418.32 413.64 425.52C410.04 432.72 408.24 438.48 408.24 442.8C408.24 447.12 409.5 450.36 412.02 452.52C414.54 454.68 418.14 455.76 422.82 455.76C425.16 455.76 427.5 455.76 429.84 455.76C429.84 455.4 429.84 455.04 429.84 454.68C429.84 454.32 429.84 453.96 429.84 453.6C430.56 453.6 431.28 453.6 432 453.6C433.44 453.6 436.14 451.98 440.1 448.74C444.06 445.5 447.12 441.9 449.28 437.94C451.44 433.98 452.7 429.48 453.06 424.44C453.42 419.4 453.06 415.26 451.98 412.02C450.9 408.78 449.46 406.62 447.66 405.54C445.86 404.46 442.8 403.92 438.48 403.92C434.16 403.92 429.84 405.72 425.52 409.32Z" fill="#ffffff" fill-rule="evenodd" opacity="1" stroke="#ffffff" stroke-linecap="round" stroke-linejoin="round" stroke-width="1"/>
<path d="M575.64 409.32C571.32 412.92 567.36 418.32 563.76 425.52C560.16 432.72 558.36 438.3 558.36 442.26C558.36 446.22 559.62 449.46 562.14 451.98C564.66 454.5 568.26 455.76 572.94 455.76C575.28 455.76 577.62 455.76 579.96 455.76C579.96 455.4 579.96 455.04 579.96 454.68C579.96 453.96 581.4 453.24 584.28 452.52C587.16 451.8 589.86 450.18 592.38 447.66C594.9 445.14 597.24 441.9 599.4 437.94C601.56 433.98 602.82 429.48 603.18 424.44C603.54 419.4 603.18 415.26 602.1 412.02C601.02 408.78 599.58 406.62 597.78 405.54C595.98 404.46 592.92 403.92 588.6 403.92C584.28 403.92 579.96 405.72 575.64 409.32Z" fill="#ffffff" fill-rule="evenodd" opacity="1" stroke="#ffffff" stroke-linecap="round" stroke-linejoin="round" stroke-width="1"/>
<path d="M450.36 443.88C447.48 446.04 445.32 448.56 443.88 451.44C442.44 454.32 442.08 457.2 442.8 460.08C443.52 462.96 446.22 464.4 450.9 464.4C455.58 464.4 459.36 462.6 462.24 459C465.12 455.4 466.38 451.8 466.02 448.2C465.66 444.6 465.12 442.44 464.4 441.72C463.68 441 461.88 440.64 459 440.64C456.12 440.64 453.24 441.72 450.36 443.88Z" fill="#ffffff" fill-rule="evenodd" opacity="1" stroke="#ffffff" stroke-linecap="round" stroke-linejoin="round" stroke-width="1"/>
<path d="M599.4 446.04C595.8 449.64 593.64 452.7 592.92 455.22C592.2 457.74 592.38 459.9 593.46 461.7C594.54 463.5 597.24 464.4 601.56 464.4C605.88 464.4 609.48 462.42 612.36 458.46C615.24 454.5 616.5 450.9 616.14 447.66C615.78 444.42 615.24 442.44 614.52 441.72C613.8 441 612 440.64 609.12 440.64C606.24 440.64 603 442.44 599.4 446.04Z" fill="#ffffff" fill-rule="evenodd" opacity="1" stroke="#ffffff" stroke-linecap="round" stroke-linejoin="round" stroke-width="1"/>
<path d="M514.62 555.66C511.38 557.46 509.22 560.16 508.14 563.76C507.06 567.36 507.42 570.42 509.22 572.94C511.02 575.46 514.08 577.08 518.4 577.8C522.72 578.52 526.32 577.8 529.2 575.64C532.08 573.48 533.7 570.78 534.06 567.54C534.42 564.3 533.34 561.24 530.82 558.36C528.3 555.48 525.78 553.86 523.26 553.5C520.74 553.14 517.86 553.86 514.62 555.66Z" fill="#000000" fill-rule="evenodd" opacity="1" stroke="#000000" stroke-linecap="round" stroke-linejoin="round" stroke-width="1"/>
<path d="M516.78 558.36C515.88 558.72 514.98 559.08 514.08 559.44C514.44 559.98 514.8 560.52 515.16 561.06C515.52 561.6 515.88 562.14 516.24 562.68C516.6 562.14 516.96 561.6 517.32 561.06C517.68 560.52 518.04 559.98 518.4 559.44C518.4 561.24 518.4 563.04 518.4 564.84C518.4 566.64 518.4 568.44 518.4 570.24C518.76 569.88 519.12 569.52 519.48 569.16C519.84 568.8 520.2 568.44 520.56 568.08C520.56 568.98 520.56 569.88 520.56 570.78C520.56 572.58 520.02 573.66 518.94 574.02C518.4 574.2 517.86 574.38 517.32 574.56C518.58 574.56 519.84 574.56 521.1 574.56C523.62 574.56 525.78 573.84 527.58 572.4C529.38 570.96 530.46 569.34 530.82 567.54C531.18 565.74 530.46 563.76 528.66 561.6C526.86 559.44 524.88 558.18 522.72 557.82C520.56 557.46 518.58 557.64 516.78 558.36Z" fill="#000000" fill-rule="evenodd" opacity="1" stroke="#ffffff" stroke-linecap="round" stroke-linejoin="round" stroke-width="1"/>
<path d="M511.38 567C511.56 567.36 511.74 567.72 511.92 568.08C511.74 567.72 511.56 567.36 511.38 567C511.2 566.64 511.02 566.28 510.84 565.92C511.02 566.28 511.2 566.64 511.38 567Z" fill="#ffffff" fill-rule="evenodd" opacity="1" stroke="#ffffff" stroke-linecap="round" stroke-linejoin="round" stroke-width="1"/>
<path d="M392.58 819.72C390.06 826.2 386.1 833.4 380.7 841.32C375.3 849.24 368.82 856.98 361.26 864.54C353.7 872.1 346.32 878.22 339.12 882.9C331.92 887.58 328.32 890.64 328.32 892.08C328.32 893.52 330.48 894.42 334.8 894.78C339.12 895.14 341.46 895.68 341.82 896.4C342.18 897.12 372.24 897.84 432 898.56C491.76 899.28 529.92 900.36 546.48 901.8C563.04 903.24 581.04 903.96 600.48 903.96C619.92 903.96 631.98 903.6 636.66 902.88C641.34 902.16 650.88 900 665.28 896.4C679.68 892.8 691.56 888.66 700.92 883.98C710.28 879.3 718.2 873.54 724.68 866.7C731.16 859.86 737.82 850.86 744.66 839.7C751.5 828.54 754.74 822.06 754.38 820.26C754.02 818.46 736.38 817.56 701.46 817.56C666.54 817.56 642.96 818.1 630.72 819.18C618.48 820.26 592.56 820.62 552.96 820.26C513.36 819.9 480.42 818.82 454.14 817.02C427.86 815.22 411.66 813.6 405.54 812.16C399.42 810.72 395.1 813.24 392.58 819.72Z" fill="#8fd2d5" fill-rule="evenodd" opacity="1" stroke="#ffffff" stroke-linecap="round" stroke-linejoin="round" stroke-width="1"/>
<path d="M1192.86 1156.68C1192.68 1157.04 1192.5 1157.4 1192.32 1157.76C1192.68 1157.94 1193.04 1158.12 1193.4 1158.3C1193.76 1158.48 1194.12 1158.66 1194.48 1158.84C1194.3 1158.3 1194.12 1157.76 1193.94 1157.22C1193.76 1156.68 1193.58 1156.14 1193.4 1155.6C1193.22 1155.96 1193.04 1156.32 1192.86 1156.68Z" fill="#000000" fill-rule="evenodd" opacity="1" stroke="#000000" stroke-linecap="round" stroke-linejoin="round" stroke-width="1"/>
<g opacity="1">
<path d="M527.906 559.986C528.298 560.967 529.185 561.649 529.724 562.562C530.211 563.386 530.331 564.331 530.835 565.137" fill="#000000" fill-rule="evenodd" stroke="none"/>
<path d="M527.719 559.562C527.489 559.665 527.397 559.958 527.5 560.188C527.973 560.89 527.65 560.481 527.938 560.906C527.967 560.95 527.972 560.928 528 560.969C528.394 561.531 528.767 562.09 529.156 562.656C529.445 563.076 528.622 561.845 528.156 561.156C528.264 561.279 528.351 561.413 528.469 561.531C529.202 562.267 529.762 562.955 530.188 563.906C530.251 564.049 530.308 564.172 530.375 564.312C530.443 564.454 530.654 564.877 530.562 564.75C530.071 564.069 530.844 565.125 530.844 565.125C530.844 565.125 530.72 564.853 530.656 564.719C530.726 564.856 530.545 564.429 530.5 564.281C530.396 563.937 530.351 563.721 530.25 563.375C529.972 562.421 529.442 561.664 528.906 560.844C528.773 560.64 528.647 560.433 528.531 560.219C528.495 560.152 528.374 559.963 528.406 560.031C528.793 560.846 528.405 560.039 528.312 559.812C528.21 559.583 527.948 559.46 527.719 559.562ZM527.938 560.906C527.829 560.751 527.734 560.592 527.625 560.438C527.568 560.358 527.697 560.605 527.75 560.688C527.801 560.768 527.881 560.829 527.938 560.906Z" fill="#ffffff" stroke="none"/>
</g>
<g opacity="1">
<path d="M529.522 559.582C530.552 561.47 530.601 564.162 530.885 566.248C531.143 568.136 531.308 571.129 529.522 572.357C528.722 572.907 527.743 573.078 526.896 573.519C525.711 574.135 524.52 575.134 523.109 575.134C521.685 575.134 520.876 574.371 519.676 573.771C518.97 573.418 518.16 573.267 517.505 572.812C515.595 571.483 514.952 569.488 513.92 567.51C511.481 562.836 510.874 557.462 517.454 556.603C519.198 556.376 520.787 556.023 522.554 556.199" fill="#000000" fill-rule="evenodd" stroke="none"/>
<path d="M520.844 556.156C519.998 556.199 519.151 556.324 518.312 556.438C516.88 556.631 515.43 556.82 514.188 557.625C511.59 559.307 511.876 562.613 512.75 565.188C513.15 566.366 513.714 567.444 514.25 568.562C514.956 570.034 515.637 571.575 516.906 572.656C517.712 573.342 518.65 573.526 519.562 574C520.207 574.335 520.805 574.765 521.469 575.062C522.013 575.307 522.521 575.401 523 575.406C524.437 575.422 525.645 574.563 527.062 573.844C528.805 572.959 530.344 572.939 531.094 570.781C531.41 569.87 531.503 568.923 531.469 567.969C531.435 567.014 531.287 566.056 531.188 565.125C531.082 564.144 530.988 563.16 530.812 562.188C530.706 561.599 530.57 561.003 530.375 560.438C530.311 560.252 530.353 559.981 530.188 559.875C528.935 559.075 530.183 559.88 529.938 559.375C529.827 559.149 529.538 559.077 529.312 559.188C529.087 559.298 529.014 559.556 529.125 559.781C525.845 557.99 524.51 557.287 525.844 558C527.072 558.656 528.225 559.421 529.344 560.25C529.483 560.353 529.474 560.587 529.531 560.75C529.646 561.076 529.766 561.445 529.844 561.781C530.104 562.907 530.179 564.073 530.312 565.219C530.535 567.131 531.161 570.191 529.656 571.75C528.755 572.683 527.221 572.909 526.125 573.562C525.147 574.146 524.264 574.763 523.094 574.844C521.879 574.928 520.802 574.033 519.781 573.531C519.188 573.239 518.555 573.118 517.969 572.812C516.263 571.924 515.38 570.032 514.562 568.406C513.139 565.575 510.701 560.745 513.844 558.062C515.491 556.656 517.946 556.525 520 556.281C520.278 556.248 520.564 556.206 520.844 556.188C521.126 556.168 521.421 556.06 521.688 556.156C521.416 556.074 521.127 556.142 520.844 556.156ZM521.688 556.156C523.235 556.623 524.771 557.129 526.25 557.781C527.61 558.381 522.562 556.188 522.562 556.188C522.562 556.188 523.11 556.669 521.688 556.156Z" fill="#000000" stroke="none"/>
</g>
<g opacity="1">
<path d="M532.501 564.531C532.59 564.931 532.49 567.175 532.249 567.207C532.01 567.239 531.59 566.538 531.39 566.45C530.707 566.146 529.752 566.592 529.068 566.147C528.394 565.709 528.752 565.306 527.906 565.137" fill="#000000" fill-rule="evenodd" stroke="none"/>
<path d="M532.438 564.094C532.189 564.128 532.028 564.345 532.062 564.594C530.454 564.804 530.403 564.818 530.438 564.812C530.977 564.75 531.521 564.715 532.062 564.719C532.083 564.719 532.094 565.35 532.094 565.375C532.096 565.814 532.058 566.253 532.031 566.688C531.799 566.459 531.613 566.228 531.281 566.156C530.549 565.997 529.841 566.384 529.125 566.062C528.789 565.911 528.722 565.566 528.469 565.344C528.418 565.299 528.29 565.278 528.281 565.25C528.261 565.277 528.361 565.356 528.406 565.406C528.45 565.454 528.468 565.506 528.5 565.562C528.641 565.814 528.767 566.062 529.031 566.219C529.67 566.598 530.318 566.42 531 566.562C531.527 566.672 531.699 567.617 532.281 567.531C532.969 567.43 532.958 565.606 532.969 565.406C532.972 565.347 532.992 564.625 532.969 564.625C532.12 564.609 532.956 564.626 532.938 564.469C532.903 564.22 532.686 564.059 532.438 564.094ZM528.281 565.25C528.917 565.063 529.563 564.94 530.219 564.844C530.136 564.854 530.052 564.864 529.969 564.875C530.146 564.851 529.961 564.853 527.906 565.125C528.252 565.208 528.809 565.04 528.25 565.219C528.237 565.223 528.279 565.244 528.281 565.25ZM530.219 564.844C530.292 564.835 530.365 564.821 530.438 564.812C530.364 564.822 530.292 564.833 530.219 564.844Z" fill="#000000" stroke="none"/>
</g>
<g opacity="1">
<path d="M530.986 564.379C531.493 565.03 531.855 569.169 531.239 569.732C531.022 569.93 530.7 569.967 530.431 570.085" fill="#000000" fill-rule="evenodd" stroke="none"/>
<path d="M530.75 564C530.538 564.135 530.459 564.413 530.594 564.625C530.508 567.355 530.517 568.233 530.531 567.344C530.545 566.455 530.595 565.575 530.656 564.688C530.658 564.655 530.675 564.752 530.688 564.781C530.725 564.868 530.785 564.975 530.812 565.062C530.905 565.358 530.963 565.669 531.031 565.969C531.264 566.986 531.503 568.109 531.375 569.156C531.337 569.462 531.243 569.697 530.969 569.844C530.887 569.888 530.805 569.934 530.719 569.969C530.895 569.923 531.231 569.833 531.281 569.781C531.539 569.515 531.597 569.099 531.656 568.75C531.847 567.633 531.878 566.468 531.75 565.344C531.723 565.11 531.66 564.851 531.594 564.625C531.541 564.445 531.442 564.231 531.438 564.25C531.217 565.19 531.453 564.255 531.375 564.125C531.24 563.913 530.962 563.865 530.75 564ZM530.906 567.125C531.036 566.271 530.603 569.125 530.5 569.781C530.523 569.73 530.537 569.681 530.562 570.031C530.624 569.05 530.759 568.097 530.906 567.125ZM530.5 569.781C530.465 569.859 530.438 570.094 530.438 570.094C530.438 570.094 530.488 569.859 530.5 569.781Z" fill="#000000" stroke="none"/>
</g>
<g opacity="1">
<path d="M521.897 575.942C521.897 575.03 521.181 575.376 520.484 575.488C519.267 575.682 516.25 575.108 515.384 574.175C514.967 573.726 516.292 572.639 516.545 572.105C516.96 571.229 516.918 570.166 517.404 569.328C517.919 568.438 518.576 568.074 518.464 566.955" fill="#000000" fill-rule="evenodd" stroke="none"/>
<path d="M518.469 566.969C518.469 566.969 518.611 567.428 518.688 567.656C518.629 567.414 518.469 566.969 518.469 566.969ZM518.688 567.656C518.727 567.82 518.763 567.985 518.469 567.469C518.458 567.451 518.476 567.529 518.469 567.531C519.041 568.812 519.496 570.148 519.969 571.469C520.406 572.69 519.116 568.929 518.688 567.656ZM518.469 567.531C518.459 567.51 518.447 567.49 518.438 567.469C518.38 567.341 518.398 567.746 518.344 567.875C518.243 568.115 518.063 568.328 517.906 568.531C517.498 569.062 517.132 569.537 516.938 570.188C516.756 570.796 516.711 571.464 516.406 572.031C516.124 572.557 514.866 573.426 515.062 574.125C515.231 574.724 516.215 575.081 516.719 575.281C517.784 575.705 519.004 575.975 520.156 575.938C520.562 575.924 520.974 575.825 521.375 575.781C521.391 575.842 521.437 575.946 521.438 575.969C521.454 576.219 521.687 576.423 521.938 576.406C522.188 576.39 522.361 576.157 522.344 575.906C521.964 575.031 522.248 575.67 521.969 575.031C522.079 575.108 522.124 575.228 522.188 575.344C521.588 574.041 521.016 572.736 520.406 571.438C519.908 570.377 520.816 572.44 521.938 575C521.58 574.776 521.128 574.913 520.75 575C519.398 575.311 517.778 575.018 516.5 574.531C516.302 574.456 515.644 574.216 515.562 573.969C515.466 573.675 516.371 572.716 516.5 572.531C517.064 571.725 516.966 570.678 517.281 569.781C517.487 569.196 517.887 568.779 518.188 568.25C518.255 568.132 518.33 568.003 518.375 567.875C518.416 567.759 518.428 567.543 518.469 567.531Z" fill="#000000" stroke="none"/>
</g>
<g opacity="1">
<path d="M510.991 563.874C511.123 564.598 510.329 566.971 510.587 567.308C510.742 567.511 513.771 568.402 514.223 568.621C516.311 569.634 517.544 571.822 519.777 572.509" fill="#000000" fill-rule="evenodd" stroke="none"/>
<path d="M510.969 563.406C510.718 563.425 510.512 563.656 510.531 563.906C510.636 564.982 509.827 566.45 510.219 567.406C510.416 567.888 511.796 568.14 512.188 568.25C512.466 568.328 512.753 568.42 513.031 568.5C513.785 568.716 514.435 568.939 515.094 569.375C516.351 570.208 517.366 571.403 518.719 572.094C519.058 572.267 519.427 572.361 519.781 572.5C519.105 572.183 518.421 571.849 517.844 571.375C516.542 570.306 515.516 568.86 513.906 568.219C513.148 567.917 512.384 567.642 511.625 567.344C511.427 567.266 511.226 567.212 511.031 567.125C511.001 567.112 510.979 567.122 510.938 567.094C510.922 567.057 510.935 567.03 510.938 567C510.951 566.831 510.967 566.667 511 566.5C511.172 565.629 511.49 564.742 511.438 563.844C511.419 563.593 511.219 563.387 510.969 563.406Z" fill="#000000" stroke="none"/>
</g>
<g opacity="1">
<path d="M510.486 570.136C511.035 569.587 511.208 568.885 511.849 568.419C512.859 567.684 515.062 566.581 515.434 565.339" fill="#000000" fill-rule="evenodd" stroke="none"/>
<path d="M515.438 565.344C515.438 565.344 512.809 567.561 513 567.438C513.63 566.952 514.277 566.474 514.938 566.031C515.025 565.84 515.438 565.344 515.438 565.344ZM514.938 566.031C514.931 566.046 514.94 566.084 514.938 566.094C514.976 566.054 515.154 565.897 515.094 565.938C515.043 565.971 514.988 565.998 514.938 566.031ZM514.938 566.094C514.934 566.092 514.907 566.13 514.906 566.125C514.781 566.247 514.637 566.36 514.5 566.469C514.273 566.648 514.023 566.779 513.781 566.938C513.526 567.104 513.278 567.295 513 567.438C513.016 567.427 512.718 567.643 512.781 567.594C512.146 567.915 511.459 568.182 511 568.719C510.847 568.897 510.729 569.121 510.594 569.312C510.53 569.402 510.288 569.63 510.375 569.562C511.196 568.923 510.396 569.584 510.156 569.844C509.991 570.033 509.998 570.304 510.188 570.469C510.377 570.634 510.679 570.627 510.844 570.438C511.112 570.141 510.87 570.372 511.094 570.125C511.002 570.221 511.243 569.894 511.312 569.781C511.485 569.502 511.601 569.192 511.812 568.938C512.392 568.24 513.29 567.778 513.969 567.188C514.192 566.993 514.42 566.806 514.625 566.594C514.813 566.399 515.362 565.792 515.156 565.969C515.006 566.098 514.96 566.103 514.938 566.094Z" fill="#000000" stroke="none"/>
</g>
<g opacity="1">
<path d="M513.869 571.145C513.41 569.951 512.007 567.95 510.789 567.409" fill="#000000" fill-rule="evenodd" stroke="none"/>
<path d="M510.781 567.406C510.781 567.406 512.485 569.956 512.125 569.375C511.826 568.892 511.494 568.399 511.375 567.844C511.317 567.574 511.767 568.221 511.938 568.438C512.395 569.018 512.718 569.68 513.031 570.344C513.087 570.462 513.134 570.568 513.188 570.688C513.236 570.796 513.418 571.124 513.344 571.031C512.914 570.5 513.322 571.008 513.438 571.312C513.536 571.544 513.8 571.661 514.031 571.562C514.263 571.464 514.379 571.2 514.281 570.969C512.532 569.189 512.12 568.742 512.531 569.188C513.021 569.718 513.558 570.21 514.125 570.656C514.231 570.74 514.008 570.396 513.938 570.281C513.862 570.159 513.771 570.054 513.688 569.938C513.249 569.322 512.698 568.738 512.125 568.25C511.907 568.065 511.324 567.456 511.438 567.719C511.678 568.276 510.781 567.406 510.781 567.406Z" fill="#000000" stroke="none"/>
</g>
<g opacity="1">
<path d="M511.849 569.378C512.227 568.473 511.817 567.733 511.193 567.005" fill="#000000" fill-rule="evenodd" stroke="none"/>
<path d="M511.188 567C511.188 567 511.329 568.438 511.312 568.125C511.3 567.89 511.245 567.578 511.406 567.406C511.505 567.301 511.55 567.675 511.594 567.812C511.689 568.114 511.707 568.414 511.625 568.719C511.625 568.719 511.5 569.032 511.5 569.031C511.399 568.735 511.493 569.026 511.406 569.219C511.322 569.456 511.451 569.728 511.688 569.812C511.924 569.897 512.197 569.768 512.281 569.531C511.739 568.269 511.629 567.984 511.75 568.281C511.899 568.646 512.082 568.987 512.344 569.281C512.405 569.35 512.372 569.093 512.375 569C512.378 568.912 512.386 568.838 512.375 568.75C512.324 568.348 512.126 567.97 511.875 567.656C511.778 567.535 511.596 567.161 511.562 567.312C511.493 567.626 511.188 567 511.188 567Z" fill="#000000" stroke="none"/>
</g>
<g opacity="1">
<path d="M512.556 569.681C512.203 569.199 511.518 567.846 510.789 567.813C510.434 567.797 510.081 567.953 509.729 567.914" fill="#000000" fill-rule="evenodd" stroke="none"/>
<path d="M511.25 567.75C510.895 567.606 510.588 567.71 510.25 567.812C510.137 567.847 509.807 567.842 509.906 567.906C510.36 568.199 509.719 567.906 509.719 567.906C509.719 567.906 511.332 569.245 510.969 568.938C510.603 568.627 510.224 568.297 509.906 567.938C509.826 567.847 510.16 567.944 510.281 567.938C510.566 567.923 510.816 567.903 511.062 568.094C511.247 568.237 511.323 568.476 511.438 568.688C511.429 568.683 511.477 568.722 511.469 568.719C511.918 568.93 512.374 569.121 512.844 569.281C512.974 569.326 512.678 569.078 512.594 568.969C512.481 568.824 512.376 568.697 512.25 568.562C511.963 568.256 511.647 567.911 511.25 567.75ZM511.469 568.719C511.562 568.897 511.697 569.048 511.781 569.219C511.872 569.404 511.9 569.447 512 569.625C512.034 569.685 512.151 569.819 512.094 569.781C511.698 569.517 512.095 569.79 512.188 569.938C512.331 570.144 512.606 570.206 512.812 570.062C513.019 569.919 513.081 569.613 512.938 569.406C511.464 568.712 511.163 568.573 511.469 568.719Z" fill="#000000" stroke="none"/>
</g>
</g>
<g id="Layer-2" vectornator:layerName="Layer 2">
<g filter="url(#Filter)" opacity="1">
<path d="M432.286 558.09C430.091 556.893 428.194 554.703 425.702 554.499C418.136 553.882 410.396 554.175 402.958 555.696C401.156 556.065 400.584 558.507 399.367 559.886C397.591 561.899 395.82 563.917 393.981 565.871C381.082 579.576 379.408 591.232 388.594 607.768C389.508 609.413 390.164 611.323 391.587 612.556C395.295 615.77 400.209 617.288 404.754 619.139C408.65 620.727 414.489 622.916 419.118 622.731C435.392 622.08 440.946 613.545 449.044 601.184C451.047 598.128 456.14 591.273 456.825 586.819C458.176 578.042 455.13 570.033 451.439 562.28C445.849 550.542 431.568 544.923 419.118 544.923C417.312 544.923 415.416 544.867 413.732 545.521C411.72 546.304 410.141 547.916 408.345 549.113" fill="#ffc8c8" fill-rule="evenodd" stroke="none"/>
<path d="M418.719 544.344C416.971 544.356 415.235 544.54 413.594 545.031C411.629 545.619 409.692 547.564 408.062 548.719C407.837 548.878 407.778 549.181 407.938 549.406C408.097 549.632 408.4 549.691 408.625 549.531C409.94 548.599 411.183 547.495 412.562 546.656C412.967 546.41 413.418 546.136 413.875 546C416.107 545.335 418.346 545.353 420.656 545.438C422.232 545.495 423.815 545.645 425.375 545.875C435.392 547.35 445.807 552.463 450.625 561.781C454.349 568.983 457.41 577.441 456.469 585.656C456.106 588.822 454.618 591.575 453 594.281C451.722 596.419 450.288 598.43 448.906 600.5C445.548 605.53 442.365 610.839 437.906 615C432.754 619.808 426.074 622.052 419.094 622.219C413.751 622.347 408.653 620.144 403.781 618.219C400.378 616.874 396.88 615.666 393.812 613.625C392.929 613.037 392.004 612.378 391.312 611.562C390.517 610.624 390.021 609.46 389.469 608.375C388.64 606.749 387.743 605.185 386.969 603.531C385.714 600.85 384.659 598.046 384 595.156C383.55 593.183 383.291 591.151 383.281 589.125C383.248 582.112 386.453 575.802 390.719 570.406C392.427 568.246 394.307 566.286 396.156 564.25C397.46 562.815 398.909 561.372 400.062 559.812C400.864 558.729 401.319 557.058 402.562 556.375C402.712 556.293 402.894 556.22 403.062 556.188C403.68 556.066 404.286 555.953 404.906 555.844C405.526 555.734 406.159 555.624 406.781 555.531C408.653 555.253 410.519 555.043 412.406 554.906C415.558 554.678 418.718 554.656 421.875 554.781C423.39 554.841 425.295 554.749 426.75 555.219C428.701 555.849 430.279 557.508 432.031 558.531C432.27 558.67 432.579 558.582 432.719 558.344C432.858 558.105 432.77 557.795 432.531 557.656C430.702 556.589 429.105 554.939 427.062 554.281C425.459 553.765 423.598 553.847 421.938 553.781C418.105 553.629 414.256 553.689 410.438 554.062C408.531 554.249 406.636 554.51 404.75 554.844C404.011 554.974 402.854 555.084 402.094 555.5C400.668 556.281 400.164 557.981 399.25 559.219C398.119 560.751 396.718 562.154 395.438 563.562C393.097 566.139 390.708 568.647 388.656 571.469C384.888 576.651 382.25 582.662 382.281 589.156C382.291 591.255 382.565 593.33 383.031 595.375C383.788 598.696 385.065 601.885 386.562 604.938C387.208 606.253 387.929 607.538 388.594 608.844C389.183 610 389.713 611.219 390.562 612.219C391.838 613.72 393.69 614.801 395.406 615.719C398.335 617.284 401.488 618.359 404.562 619.594C409.174 621.446 414.076 623.337 419.125 623.219C426.348 623.05 433.233 620.723 438.562 615.75C443.08 611.534 446.316 606.159 449.719 601.062C451.4 598.545 453.16 596.074 454.656 593.438C456.033 591.011 457.15 588.567 457.469 585.781C458.433 577.36 455.351 568.698 451.531 561.312C446.306 551.209 434.791 545.895 423.906 544.688C422.219 544.5 420.466 544.332 418.719 544.344Z" fill="#f2b3b3" stroke="none"/>
</g>
<g filter="url(#Filter_2)" opacity="1">
<path d="M432.884 562.28C429.083 550.875 415.602 542.208 404.754 551.507C399.792 555.76 396.585 562.046 394.579 568.265C389.151 585.092 400.005 602.362 417.323 605.373C420.522 605.93 426.951 606.385 430.49 605.373C442.937 601.817 449.207 586.521 446.65 574.25C445.65 569.446 442.687 565.232 440.067 561.083C437.637 557.236 433.833 553.006 429.293 552.704C425.623 552.459 421.944 553.753 418.52 555.098C409.373 558.691 403.068 568.731 399.367 577.243C398.259 579.791 395.772 582.311 396.375 585.024C396.82 587.029 399.732 587.696 401.761 588.016C406.747 588.804 411.645 585.552 416.126 583.228C432.219 574.884 445.36 560.667 429.892 543.726C414.904 527.31 401.953 541.073 393.382 555.098C391.423 558.303 388.905 562.576 388.594 566.47C388.355 569.459 387.649 572.876 389.192 575.447C390.958 578.391 394.455 579.994 397.572 581.433C405.037 584.878 414.648 580.807 420.315 576.046C428.353 569.294 428.951 559.201 424.505 550.31C420.805 542.909 416.864 538.175 408.944 535.347C398.96 531.781 388.174 542.018 388.594 552.105C388.707 554.816 390.19 557.292 390.988 559.886" fill="#ffc8c8" fill-rule="evenodd" stroke="none"/>
<path d="M404.562 534.125C401.081 534.179 397.713 535.643 395.031 537.812C393.483 539.065 392.132 540.559 391.031 542.219C389.818 544.049 388.913 546.104 388.438 548.25C388.056 549.973 387.914 551.789 388.25 553.531C388.66 555.657 389.641 557.659 390.375 559.688C389.619 561.209 388.839 562.725 388.438 564.375C388.034 566.035 387.945 567.83 387.812 569.531C387.67 571.359 387.649 573.289 388.406 575C389.121 576.614 390.43 577.895 391.844 578.906C392.195 579.158 392.6 579.337 392.969 579.562C393.642 587.108 397.16 594.242 402.969 599.188C405.358 601.221 408.064 602.877 410.969 604.062C415.046 605.726 419.403 606.369 423.781 606.469C425.383 606.505 426.971 606.457 428.562 606.25C430.872 605.95 433.114 605.097 435.125 603.938C442.728 599.556 446.954 590.729 447.625 582.219C447.795 580.059 447.722 577.863 447.406 575.719C446.705 570.956 444.358 566.905 441.812 562.906C440.427 560.73 438.864 558.268 436.938 556.25C436.756 555.08 436.617 553.897 436.219 552.781C435.425 550.558 434.256 548.472 432.875 546.562C431.067 544.063 428.919 541.764 426.5 539.844C424.832 538.52 422.972 537.392 420.969 536.656C419.818 536.233 418.627 535.934 417.406 535.812C415.571 535.631 413.841 535.901 412.156 536.375C411.451 536.023 410.835 535.541 410.094 535.25C408.304 534.547 406.496 534.095 404.562 534.125ZM404.562 535.125C406.797 535.091 408.895 535.782 410.906 536.688C404.881 538.913 399.91 544.677 396.375 549.625C395.566 550.757 394.813 551.922 394.062 553.094C392.977 554.789 391.927 556.51 390.969 558.281C390.327 556.657 389.581 555.052 389.25 553.344C388.977 551.935 389.06 550.468 389.312 549.062C389.791 546.399 390.987 543.862 392.625 541.719C393.769 540.222 395.11 538.921 396.656 537.844C398.969 536.233 401.724 535.169 404.562 535.125ZM415.094 536.781C416.081 536.709 417.094 536.766 418.125 536.938C419.285 537.131 420.422 537.469 421.5 537.938C423.077 538.624 424.53 539.557 425.875 540.625C428.222 542.488 430.308 544.73 432.062 547.156C433.388 548.989 434.519 550.991 435.281 553.125C435.526 553.809 435.558 554.541 435.719 555.25C434.046 553.777 432.202 552.561 429.938 552.25C428.966 552.117 427.977 552.321 427 552.406C426.398 551.835 425.813 551.247 425.156 550.75C424.782 549.919 424.434 549.082 424 548.281C422.955 546.352 421.81 544.465 420.438 542.75C418.523 540.359 416.081 538.593 413.469 537.094C414.013 536.984 414.535 536.822 415.094 536.781ZM412.156 537.344C415.051 538.833 417.615 540.825 419.656 543.375C421.199 545.302 422.459 547.438 423.594 549.625C423.626 549.687 423.656 549.751 423.688 549.812C420.359 547.712 416.512 546.613 412.406 547.281C411.137 547.488 409.892 547.851 408.719 548.375C406.901 549.186 405.276 550.346 403.812 551.688C400.295 554.91 397.723 559.087 395.844 563.438C394.17 567.311 392.947 571.361 392.719 575.594C392.668 576.531 392.863 577.444 392.906 578.375C392.754 578.274 392.586 578.2 392.438 578.094C391.169 577.187 389.957 576.042 389.312 574.594C388.516 572.804 388.694 570.707 388.875 568.812C389.008 567.412 389.072 565.995 389.406 564.625C389.772 563.125 390.477 561.733 391.156 560.344C391.417 560.254 391.559 559.98 391.469 559.719C391.461 559.697 391.445 559.678 391.438 559.656C391.572 559.394 391.642 559.102 391.781 558.844C392.904 556.757 394.169 554.73 395.469 552.75C396.409 551.317 397.369 549.896 398.406 548.531C401.794 544.077 406.545 539.041 412.156 537.344ZM413.25 548.156C417.385 547.696 421.201 549.114 424.406 551.5C424.557 551.841 424.706 552.186 424.844 552.531C423.206 552.873 421.621 553.409 420.094 553.969C417.922 554.764 415.834 555.675 413.906 556.969C407.88 561.013 403.62 567.377 400.438 573.781C399.903 574.857 399.403 575.938 398.906 577.031C398.366 578.22 397.623 579.355 396.969 580.531C396.453 580.296 395.92 580.102 395.406 579.844C394.895 579.587 394.433 579.255 393.938 578.969C393.834 577.521 393.649 576.087 393.781 574.625C394.169 570.342 395.631 566.178 397.469 562.312C399.209 558.651 401.465 555.159 404.469 552.406C405.853 551.138 407.406 550.048 409.125 549.281C410.433 548.698 411.826 548.315 413.25 548.156ZM430.312 553.344C432.586 553.823 434.422 555.232 436.062 556.906C436.1 557.214 436.23 557.503 436.25 557.812C436.917 568.389 427.067 576.384 418.844 581.156C417.501 581.935 416.118 582.643 414.75 583.375C410.294 585.758 406.001 588.439 400.781 587.344C399.594 587.095 398.363 586.727 397.438 585.906C396.491 585.068 396.709 583.588 397.094 582.531C397.183 582.285 397.359 582.08 397.469 581.844C399.054 582.499 400.671 583.024 402.438 583.156C405.626 583.395 408.81 582.755 411.781 581.625C418.353 579.125 424.577 574.326 426.812 567.438C428.343 562.72 427.829 557.896 426.25 553.375C426.292 553.369 426.333 553.381 426.375 553.375C429.039 555.956 431.23 559.089 432.406 562.438C432.498 562.698 432.802 562.842 433.062 562.75C433.323 562.658 433.435 562.386 433.344 562.125C432.236 558.975 430.377 555.913 428 553.375C428.777 553.361 429.558 553.185 430.312 553.344ZM425.281 553.5C426.851 557.881 427.349 562.583 425.875 567.125C423.637 574.021 417.129 578.795 410.469 581.031C407.916 581.888 405.198 582.389 402.5 582.188C400.882 582.067 399.391 581.562 397.938 580.969C398.472 580.017 399.007 579.062 399.5 578.094C400.333 576.456 401.026 574.758 401.875 573.125C404.912 567.282 408.927 561.532 414.469 557.812C416.585 556.392 418.883 555.424 421.281 554.594C422.535 554.16 423.915 553.777 425.281 553.5ZM437.219 558.125C438.911 560.156 440.362 562.454 441.625 564.469C443.849 568.016 445.82 571.681 446.438 575.875C446.742 577.945 446.789 580.071 446.625 582.156C445.96 590.582 441.664 599.408 433.938 603.469C432.222 604.37 430.364 605.032 428.438 605.281C426.499 605.532 424.543 605.499 422.594 605.406C418.739 605.222 414.935 604.622 411.344 603.156C408.537 602.011 405.902 600.403 403.594 598.438C398.139 593.794 394.769 587.164 393.969 580.125C394.576 580.457 395.159 580.857 395.781 581.156C396.062 581.291 396.345 581.373 396.625 581.5C396.307 582.192 395.898 582.859 395.812 583.625C395.689 584.732 395.923 585.893 396.781 586.656C397.981 587.723 399.612 588.128 401.156 588.406C406.706 589.405 411.694 586.15 416.375 583.656C417.714 582.943 419.045 582.222 420.344 581.438C428.496 576.512 437.641 568.555 437.219 558.125Z" fill="#f2b3b3" stroke="none"/>
</g>
<g filter="url(#Filter_3)" opacity="1">
<path d="M607.054 546.719C599.706 551.005 591.499 553.597 584.31 558.09C567.989 568.291 575.142 581.364 590.295 586.819C603.119 591.436 620.598 590.37 626.805 576.046C628.268 572.671 629.006 568.946 629.199 565.273C629.41 561.268 629.023 557.18 628.002 553.302C627.002 549.502 625.058 545.999 623.214 542.529C620.075 536.62 617.477 532.218 611.243 529.361C607.559 527.673 600.342 526.986 596.28 527.566C583.412 529.404 577.556 544.161 574.734 555.098C572.277 564.619 573.322 577.029 580.719 584.425C584.195 587.902 588.654 588.81 593.288 589.213C607.388 590.44 618.969 579.589 621.418 565.871C622.505 559.784 621.783 555.655 617.827 550.908C611.074 542.805 600.696 542.809 592.091 547.317C590.179 548.318 587.984 549.171 586.704 550.908C585.056 553.145 583.063 555.987 583.712 558.689C584.469 561.847 587.521 564.182 590.295 565.871C594.166 568.228 603.809 566.679 607.054 565.273C610.203 563.908 612.835 561.531 615.433 559.287C617.251 557.717 618.625 555.696 620.221 553.901" fill="#ffc8c8" fill-rule="evenodd" stroke="none"/>
<path d="M599.25 526.844C597.676 526.862 596.118 527.016 594.594 527.375C583.937 529.883 578.457 541.16 575.469 550.688C574.646 553.312 573.913 555.996 573.5 558.719C573.236 560.455 573.063 562.22 573.031 564C572.935 569.341 573.965 574.766 576.469 579.469C577.97 582.287 580.044 584.935 582.75 586.688C585.537 588.493 588.831 589.236 592.094 589.594C594.658 589.875 597.174 589.763 599.656 589.344C607.817 590.276 616.583 588.982 622.594 583.125C630.338 575.579 631.228 562.078 628.219 552.219C627.153 548.728 625.368 545.485 623.656 542.281C621.984 539.15 620.276 535.969 617.812 533.375C616.209 531.686 614.297 530.325 612.219 529.281C609.647 527.99 606.81 527.444 603.969 527.125C602.424 526.952 600.824 526.826 599.25 526.844ZM598.188 527.906C600.072 527.798 601.975 527.916 603.844 528.125C606.566 528.43 609.316 528.95 611.781 530.188C617.19 532.902 620.018 537.577 622.781 542.75C624.461 545.896 626.204 549.072 627.25 552.5C630.229 562.26 629.314 575.776 621.281 582.969C616.327 587.405 609.577 588.781 602.906 588.562C604.647 588.023 606.379 587.346 608 586.406C614.9 582.409 619.729 575.391 621.562 567.688C622.473 563.863 622.869 559.694 621.469 555.938C621.244 555.335 620.819 554.851 620.531 554.281C620.55 554.259 620.575 554.241 620.594 554.219C620.774 554.009 620.772 553.711 620.562 553.531C620.435 553.422 620.277 553.525 620.125 553.562C616.956 547.951 610.976 544.087 604.531 543.812C600.084 543.623 595.814 544.895 591.875 546.875C590.553 547.54 589.14 548.158 587.938 549.031C586.005 550.435 583.999 553.532 583.344 555.844C583.099 556.707 583.143 557.492 583.25 558.281C581.99 559.12 580.736 559.975 579.625 561C578.294 562.228 577.068 563.617 576.156 565.188C575.51 566.301 575.026 567.491 574.75 568.75C574.597 569.449 574.667 570.129 574.656 570.812C574.251 568.547 573.993 566.242 574.031 563.969C574.097 560.018 574.859 556.218 575.969 552.438C578.588 543.517 583.264 532.572 592.656 529C594.437 528.323 596.303 528.014 598.188 527.906ZM605 544.844C606.663 544.957 608.33 545.275 609.906 545.844C613.571 547.166 616.569 549.75 618.75 552.938C619.006 553.311 619.118 553.764 619.344 554.156C618.358 555.34 617.396 556.563 616.344 557.688C615.165 558.947 613.831 560.066 612.5 561.156C611.622 561.875 610.726 562.557 609.781 563.188C606.291 565.516 602.211 566.297 598.062 566.531C595.917 566.653 593.577 566.651 591.531 565.906C590.183 565.416 588.953 564.45 587.844 563.562C586.272 562.304 584.82 560.644 584.344 558.719C585.648 557.875 586.991 557.064 588.219 556.406C589.145 555.91 590.09 555.468 591.031 555C592.292 554.373 593.595 553.806 594.875 553.219C596.806 552.333 598.733 551.465 600.656 550.562C602.914 549.503 605.138 548.377 607.312 547.156C607.553 547.021 607.635 546.709 607.5 546.469C607.365 546.228 607.053 546.146 606.812 546.281C601.257 549.4 595.353 551.762 589.656 554.594C587.819 555.507 585.977 556.47 584.219 557.562C584.211 557.083 584.168 556.6 584.312 556.094C584.634 554.965 585.237 553.944 585.875 552.969C586.435 552.113 587.011 551.182 587.75 550.469C589.015 549.247 590.765 548.528 592.312 547.75C594.763 546.518 597.319 545.561 600.031 545.094C601.675 544.811 603.337 544.73 605 544.844ZM619.812 555.156C620.18 555.911 620.653 556.624 620.875 557.438C622.045 561.727 621.098 566.597 619.625 570.688C616.5 579.368 609.21 586.579 600 588.375C599.751 588.423 599.499 588.398 599.25 588.438C596.769 588.121 594.324 587.616 592.062 586.906C587.595 585.504 583.181 583.313 579.812 580C578.597 578.805 577.53 577.458 576.75 575.938C576.248 574.959 575.853 573.896 575.656 572.812C574.585 566.921 578.795 562.49 583.469 559.281C584.245 561.796 586.454 563.887 588.625 565.375C589.442 565.935 590.283 566.502 591.219 566.844C594.148 567.914 597.592 567.694 600.625 567.312C604.144 566.87 607.345 566.011 610.312 564.031C611.769 563.06 613.141 561.918 614.469 560.781C615.378 560.003 616.276 559.249 617.094 558.375C618.054 557.349 618.919 556.241 619.812 555.156ZM577.312 578.688C578.024 579.634 578.847 580.489 579.719 581.281C583.991 585.165 589.614 587.502 595.188 588.75C593.809 588.735 592.438 588.661 591.062 588.469C588.154 588.063 585.234 587.281 582.812 585.562C581.154 584.386 579.802 582.825 578.656 581.156C578.123 580.38 577.745 579.519 577.312 578.688Z" fill="#f2b3b3" stroke="none"/>
</g>
<g filter="url(#Filter_4)" opacity="1">
<path d="M402.36 559.886C401.362 562.679 399.099 565.312 399.367 568.265C399.559 570.377 401.66 572.105 403.557 573.053C405.528 574.039 408.003 574.186 410.141 573.652C416.308 572.11 420.024 563.792 417.323 558.09C414.658 552.465 405.6 546.719 399.367 546.719C397.475 546.719 395.143 547.02 393.981 548.514C392.044 551.004 390.597 554.362 390.988 557.492C391.286 559.876 393.44 562.318 395.776 562.879C399.125 563.682 403.196 563.149 405.951 561.083C408.593 559.102 410.702 555.36 410.141 552.105C409.516 548.48 405.998 545.798 402.958 543.726C395.766 538.822 382.972 552.806 387.397 559.886C390.861 565.429 403.084 566.452 407.747 562.28C409.942 560.316 411.847 557.444 411.936 554.499C412.062 550.335 409.542 546.519 408.345 542.529" fill="#ffc8c8" fill-rule="evenodd" stroke="none"/>
<path d="M409.188 532.531C407.888 532.419 406.568 532.54 405.25 532.969C404.857 533.097 404.584 533.393 404.219 533.562C401.493 532.746 398.633 532.464 395.844 533.062C387.672 534.816 380.465 542.012 377.688 549.719C375.729 555.153 376.039 561.256 379.438 566.062C382.083 569.804 386.146 572.266 390.625 573.625C391.36 575.246 392.339 576.753 393.594 578.062C398.817 583.514 407.111 585.418 414.219 582.906C422.698 579.909 428.249 571.132 428.25 562.281C428.25 561.017 428.141 559.75 427.906 558.5C426.987 553.61 424.05 549.41 420.344 545.969C419.545 543.777 418.622 541.66 417.906 539.438C416.621 535.484 413.085 532.867 409.188 532.531Z" fill="#f2b3b3" stroke="none"/>
</g>
<g filter="url(#Filter_5)" opacity="1">
<path d="M611.842 562.879C614.037 561.282 617.066 560.439 618.426 558.09C619.525 556.191 619.441 553.452 618.426 551.507C616.86 548.505 614.441 545.437 611.243 544.324C609.038 543.557 606.573 545.379 604.66 546.719C602.461 548.258 600.515 550.324 599.273 552.704C598.042 555.064 596.489 558.013 597.477 560.484C598.788 563.762 602.076 566.139 605.258 567.667C607.417 568.703 610.15 568.364 612.44 567.667C619.17 565.618 626.034 557.114 623.214 549.711C620.793 543.357 610.136 538.663 604.061 542.529C601.432 544.202 599.709 547.057 598.076 549.711C596.483 552.299 595.081 555.111 594.485 558.09C594.053 560.251 593.625 563.022 595.083 564.674C597.094 566.953 600.468 567.749 603.463 568.265C608.946 569.211 615.192 567.788 619.024 563.477C629.745 551.417 610.384 532.785 598.076 542.529C595.385 544.659 593.668 547.859 592.091 550.908C589.882 555.178 587.481 561.608 590.295 566.47C594.151 573.13 605.389 576.492 612.44 575.447C615.006 575.067 617.893 574.388 619.623 572.455C622.997 568.684 623.549 558.818 622.017 554.499C620.321 549.721 613.329 541.417 608.251 539.536C605.632 538.566 602.408 538.366 599.872 539.536C596.797 540.955 594.567 543.901 592.689 546.719C591.289 548.818 589.21 551.622 590.295 553.901C591.723 556.899 595.881 557.492 598.675 559.287" fill="#ffc8c8" fill-rule="evenodd" stroke="none"/>
<path d="M603.688 528.688C602.459 528.698 601.233 528.805 600.031 529.031C597.434 529.521 595.009 530.566 592.812 532.031C590.869 533.328 589.144 534.951 587.625 536.719C586.285 538.278 585.143 539.95 584 541.656C581.46 545.448 579.697 549.6 580.188 554.031C579.957 554.835 579.64 555.612 579.469 556.438C579.137 558.039 578.969 559.665 578.969 561.312C578.968 562.96 579.158 564.622 579.531 566.219C582.312 578.097 595.453 584.523 606.688 585.531C609.09 585.747 611.518 585.726 613.906 585.375C617.221 584.888 620.538 584.002 623.406 582.219C630.761 577.646 632.937 568.199 632.75 559.906C633.429 557.78 633.903 555.59 633.906 553.344C633.909 551.569 633.674 549.788 633.188 548C632.7 546.206 631.969 544.491 631 542.906C627.655 537.437 621.574 533.409 615.062 531.844C614.798 531.689 614.582 531.457 614.312 531.312C611.086 529.582 607.373 528.655 603.688 528.688Z" fill="#f2b3b3" stroke="none"/>
</g>
<g filter="url(#Filter_6)" opacity="1">
<path d="M604.66 543.726C601.326 554.838 592.584 561.544 587.303 571.856C585.49 575.394 583.84 579.255 583.712 583.228C583.628 585.82 584.87 588.577 586.704 590.41C588.538 592.244 591.323 593.009 593.886 593.403C604.317 595.008 612.947 585.485 616.63 576.645C621.846 564.125 618.343 551.695 608.849 542.529C606.063 539.838 602.914 537.269 599.273 535.945C596.08 534.784 592.246 534.068 589.098 535.347C585.306 536.887 582.816 540.645 580.12 543.726C577.203 547.06 574.366 550.56 572.34 554.499C563.36 571.959 578.182 590.14 596.28 591.608C600.08 591.916 604.165 591.949 607.652 590.41C611.275 588.812 614.301 585.832 616.63 582.63C619.204 579.091 621.263 574.969 622.017 570.659C623.358 562.995 618.832 554.307 613.039 549.113C610.236 546.6 607.023 544.351 603.463 543.127C600.438 542.088 596.93 541.547 593.886 542.529C587.664 544.536 582.054 551.843 579.522 557.492C574.915 567.769 577.404 576.399 585.507 583.827C590.198 588.127 595.128 591.009 601.667 591.009C603.56 591.009 606.308 590.953 607.054 589.213C607.95 587.123 605.857 584.824 605.258 582.63" fill="#ffc8c8" fill-rule="evenodd" stroke="none"/>
<path d="M590.438 524.75C586.167 525.236 582.312 527.136 579.094 529.938C576.062 532.576 573.585 535.872 571 538.938C565.67 545.258 561.135 552.35 559.938 560.688C559.718 562.216 559.592 563.769 559.594 565.312C559.595 566.856 559.716 568.409 559.938 569.938C561.55 581.087 568.823 590.381 578.312 596C579.667 597.652 581.228 599.079 583.062 600.188C585.896 601.9 589.149 602.863 592.406 603.344C594.151 603.601 595.926 603.665 597.688 603.562C601.144 603.361 604.346 602.396 607.375 600.969C608.322 600.744 609.274 600.549 610.188 600.219C614.904 598.515 618.979 595.352 622.281 591.625C627.911 585.27 632.08 576.905 632.281 568.312C632.31 567.085 632.234 565.857 632.094 564.625C631.359 558.189 628.539 552.248 624.594 547.125C621.617 541.382 617.368 536.26 612.281 532.125C606.257 527.229 598.336 523.851 590.438 524.75ZM608.062 559.312C609.207 562.847 609.347 566.681 608.156 570.625C607.922 571.399 607.571 572.166 607.25 572.938C605.609 572.597 603.897 572.514 602.188 573.062C599.114 574.049 596.994 576.435 595.969 579.25C595.702 579.091 595.415 578.956 595.156 578.781C595.384 578.26 595.587 577.737 595.844 577.219C597.785 573.291 600.426 569.822 603.062 566.344C604.797 564.056 606.476 561.702 608.062 559.312Z" fill="#f2b3b3" stroke="none"/>
</g>
<g filter="url(#Filter_7)" opacity="1">
<path d="M410.739 548.514C408.944 548.315 406.784 546.814 405.352 547.916C403.502 549.339 401.914 552.411 402.958 554.499C404.118 556.819 407.564 557.195 410.141 557.492C414.811 558.031 422.576 555.311 426.301 552.704C428.038 551.488 430.243 550.022 430.49 547.916C430.73 545.876 429.057 543.866 427.498 542.529C426.061 541.297 423.992 540.942 422.111 540.733C420.315 540.534 418.002 540.054 416.724 541.332C414.389 543.667 412.236 547.021 412.535 550.31C412.741 552.575 415.796 553.689 417.921 554.499C420.166 555.354 423.004 556.264 425.104 555.098C427.289 553.884 427.498 550.709 428.695 548.514" fill="#ffc8c8" fill-rule="evenodd" stroke="none"/>
<path d="M419.656 530.438C418.581 530.414 417.478 530.477 416.406 530.688C412.287 531.496 409.486 533.968 407.031 537.219C406.941 537.339 406.87 537.472 406.781 537.594C404.98 537.582 403.21 537.805 401.531 538.562C400.77 538.906 400.063 539.371 399.375 539.844C398.093 540.726 396.964 541.983 396.031 543.219C393.661 546.361 392.218 550.407 392.656 554.375C393.052 557.961 394.825 561.289 397.656 563.531C400.484 565.771 403.917 566.795 407.438 567.281C412.507 567.982 417.501 567.216 422.281 565.625C422.493 565.63 422.694 565.691 422.906 565.688C425.275 565.653 427.58 565.123 429.688 564.031C432.017 562.824 433.691 560.825 435.031 558.625C437.852 556.146 439.982 553.178 440.469 549.125C441.275 542.404 436.638 535.679 430.75 532.75C428.264 531.513 425.602 531.051 422.875 530.719C421.802 530.588 420.732 530.461 419.656 530.438Z" fill="#f2b3b3" stroke="none"/>
</g>
<g filter="url(#Filter_8)" opacity="1">
<path d="M607.054 571.258C605.291 568.807 606.231 577.24 605.857 580.236C605.633 582.028 603.981 586.9 605.258 585.622C608.67 582.21 609.871 575.175 607.054 571.258Z" fill="#ffc8c8" fill-rule="evenodd" stroke="none"/>
<path d="M606.406 560.781C605.307 560.811 604.197 560.991 603.156 561.344C602.163 561.68 601.239 562.218 600.375 562.812C599.727 563.259 599.182 563.852 598.656 564.438C596.594 566.736 596.004 569.866 595.906 572.844C595.858 574.31 595.901 575.784 595.906 577.25C595.908 577.627 595.928 578.441 595.906 578.875C595.901 578.903 595.912 578.941 595.906 578.969C595.903 578.985 595.91 578.984 595.906 579C595.907 579.011 595.906 579.021 595.906 579.031C595.432 581.212 594.577 583.46 594.75 585.719C594.819 586.616 594.812 587.531 595.125 588.375C595.634 589.747 596.108 591.293 597.188 592.281C598.876 593.827 600.907 595.152 603.125 595.719C604.9 596.172 606.813 595.62 608.594 595.188C609.55 594.955 610.368 594.295 611.188 593.75C611.654 593.44 612.033 593.012 612.438 592.625C613.605 591.507 614.584 590.166 615.406 588.781C617.906 584.571 616.762 586.274 615.969 578.719C616.005 577.66 616.015 576.621 616 575.562C617.441 572.545 617.29 568.972 615.438 566C615.437 565.873 615.437 565.848 615.438 565.719C615.37 565.616 615.258 565.568 615.188 565.469C615.118 565.371 615.105 565.253 615.031 565.156C611.605 562.113 613.082 562.899 611.594 562.125C610.872 561.75 610.131 561.391 609.344 561.188C608.38 560.939 607.401 560.754 606.406 560.781Z" fill="#f2b3b3" stroke="none"/>
</g>
</g>
</svg>
