<?xml version="1.0" encoding="UTF-8" standalone="no"?>
<!DOCTYPE svg PUBLIC "-//W3C//DTD SVG 1.1//EN" "http://www.w3.org/Graphics/SVG/1.1/DTD/svg11.dtd"
[
<!ATTLIST g
  xmlns:vectornator CDATA #FIXED "http://vectornator.io"
  vectornator:layerName CDATA #IMPLIED >
<!ATTLIST g
  xmlns:vectornator CDATA #FIXED "http://vectornator.io"
  vectornator:mask CDATA #IMPLIED >
<!ATTLIST text
  xmlns:vectornator CDATA #FIXED "http://vectornator.io"
  vectornator:width CDATA #IMPLIED >
<!ATTLIST text
  xmlns:vectornator CDATA #FIXED "http://vectornator.io"
  vectornator:text CDATA #IMPLIED >

<!ATTLIST path
  xmlns:vectornator CDATA #FIXED "http://vectornator.io"
  vectornator:blendMode CDATA #IMPLIED >
<!ATTLIST path
  xmlns:vectornator CDATA #FIXED "http://vectornator.io"
  vectornator:shadowColor CDATA #IMPLIED >
<!ATTLIST path
  xmlns:vectornator CDATA #FIXED "http://vectornator.io"
  vectornator:shadowOpacity CDATA #IMPLIED >
<!ATTLIST path
  xmlns:vectornator CDATA #FIXED "http://vectornator.io"
  vectornator:shadowRadius CDATA #IMPLIED >
<!ATTLIST path
  xmlns:vectornator CDATA #FIXED "http://vectornator.io"
  vectornator:shadowOffset CDATA #IMPLIED >
<!ATTLIST path
  xmlns:vectornator CDATA #FIXED "http://vectornator.io"
  vectornator:shadowAngle CDATA #IMPLIED >

<!ATTLIST image
  xmlns:vectornator CDATA #FIXED "http://vectornator.io"
  vectornator:blendMode CDATA #IMPLIED >
<!ATTLIST image
  xmlns:vectornator CDATA #FIXED "http://vectornator.io"
  vectornator:shadowColor CDATA #IMPLIED >
<!ATTLIST image
  xmlns:vectornator CDATA #FIXED "http://vectornator.io"
  vectornator:shadowOpacity CDATA #IMPLIED >
<!ATTLIST image
  xmlns:vectornator CDATA #FIXED "http://vectornator.io"
  vectornator:shadowRadius CDATA #IMPLIED >
<!ATTLIST image
  xmlns:vectornator CDATA #FIXED "http://vectornator.io"
  vectornator:shadowOffset CDATA #IMPLIED >
<!ATTLIST image
  xmlns:vectornator CDATA #FIXED "http://vectornator.io"
  vectornator:shadowAngle CDATA #IMPLIED >

<!ATTLIST g
  xmlns:vectornator CDATA #FIXED "http://vectornator.io"
  vectornator:blendMode CDATA #IMPLIED >
<!ATTLIST g
  xmlns:vectornator CDATA #FIXED "http://vectornator.io"
  vectornator:shadowColor CDATA #IMPLIED >
<!ATTLIST g
  xmlns:vectornator CDATA #FIXED "http://vectornator.io"
  vectornator:shadowOpacity CDATA #IMPLIED >
<!ATTLIST g
  xmlns:vectornator CDATA #FIXED "http://vectornator.io"
  vectornator:shadowRadius CDATA #IMPLIED >
<!ATTLIST g
  xmlns:vectornator CDATA #FIXED "http://vectornator.io"
  vectornator:shadowOffset CDATA #IMPLIED >
<!ATTLIST g
  xmlns:vectornator CDATA #FIXED "http://vectornator.io"
  vectornator:shadowAngle CDATA #IMPLIED >

<!ENTITY % SVG.filter.extra.content  "| feDropShadow" >
<!ELEMENT feDropShadow EMPTY>
<!ATTLIST feDropShadow
  xmlns:svg CDATA #FIXED "http://www.w3.org/Graphics/SVG/1.1/DTD/svg11.dtd"
  dx CDATA #IMPLIED>
<!ATTLIST feDropShadow
  xmlns:svg CDATA #FIXED "http://www.w3.org/Graphics/SVG/1.1/DTD/svg11.dtd"
  dy CDATA #IMPLIED>
<!ATTLIST feDropShadow
  xmlns:svg CDATA #FIXED "http://www.w3.org/Graphics/SVG/1.1/DTD/svg11.dtd"
  stdDeviation CDATA #IMPLIED>
<!ATTLIST feDropShadow
  xmlns:svg CDATA #FIXED "http://www.w3.org/Graphics/SVG/1.1/DTD/svg11.dtd"
  flood-opacity CDATA #IMPLIED>
<!ATTLIST feDropShadow
  xmlns:svg CDATA #FIXED "http://www.w3.org/Graphics/SVG/1.1/DTD/svg11.dtd"
  in CDATA #IMPLIED>
<!ATTLIST feDropShadow
  xmlns:svg CDATA #FIXED "http://www.w3.org/Graphics/SVG/1.1/DTD/svg11.dtd"
  result CDATA #IMPLIED>
<!ATTLIST feDropShadow
  xmlns:svg CDATA #FIXED "http://www.w3.org/Graphics/SVG/1.1/DTD/svg11.dtd"
  flood-color CDATA #IMPLIED>
]
>
<!-- Created with Vectornator (http://vectornator.io/) -->
<svg height="100%" stroke-miterlimit="10" style="fill-rule:nonzero;clip-rule:evenodd;stroke-linecap:round;stroke-linejoin:round;" version="1.1" viewBox="0 0 1620 2160" width="100%" xml:space="preserve" xmlns="http://www.w3.org/2000/svg" xmlns:vectornator="http://vectornator.io" xmlns:xlink="http://www.w3.org/1999/xlink">
<defs>
<filter color-interpolation-filters="sRGB" filterUnits="userSpaceOnUse" height="304.578" id="Filter" width="298.252" x="262.762" y="418.922">
<feGaussianBlur in="SourceGraphic" result="Blur" stdDeviation="50"/>
</filter>
<filter color-interpolation-filters="sRGB" filterUnits="userSpaceOnUse" height="320.498" id="Filter_2" width="297.521" x="264.361" y="402.106">
<feGaussianBlur in="SourceGraphic" result="Blur" stdDeviation="50"/>
</filter>
<filter color-interpolation-filters="sRGB" filterUnits="userSpaceOnUse" height="337.382" id="Filter_3" width="324.908" x="249.762" y="378.958">
<feGaussianBlur in="SourceGraphic" result="Blur" stdDeviation="50"/>
</filter>
<filter color-interpolation-filters="sRGB" filterUnits="userSpaceOnUse" height="341.476" id="Filter_4" width="339.585" x="443.428" y="385.804">
<feGaussianBlur in="SourceGraphic" result="Blur" stdDeviation="50"/>
</filter>
<filter color-interpolation-filters="sRGB" filterUnits="userSpaceOnUse" height="359.087" id="Filter_5" width="353.922" x="430.352" y="376.954">
<feGaussianBlur in="SourceGraphic" result="Blur" stdDeviation="50"/>
</filter>
<filter color-interpolation-filters="sRGB" filterUnits="userSpaceOnUse" height="332.611" id="Filter_6" width="321.399" x="254.817" y="392.74">
<feGaussianBlur in="SourceGraphic" result="Blur" stdDeviation="50"/>
</filter>
</defs>
<g id="Layer-1" vectornator:layerName="Layer 1">
<path d="M200.88 178.74C198 180.54 196.38 182.34 196.02 184.14C195.66 185.94 192.96 187.92 187.92 190.08C182.88 192.24 178.74 194.58 175.5 197.1C172.26 199.62 168.84 202.68 165.24 206.28C161.64 209.88 158.04 214.38 154.44 219.78C150.84 225.18 146.7 234.36 142.02 247.32C137.34 260.28 135 273.6 135 287.28C135 300.96 135.18 308.16 135.54 308.88C135.9 309.6 137.16 309.96 139.32 309.96C141.48 309.96 147.42 308.34 157.14 305.1C162 303.48 166.86 301.86 171.72 300.24C169.56 303.66 167.4 307.08 165.24 310.5C160.92 317.34 158.76 323.1 158.76 327.78C158.76 332.46 161.46 336.42 166.86 339.66C172.26 342.9 193.14 345.6 229.5 347.76C265.86 349.92 284.4 351.36 285.12 352.08C285.84 352.8 286.74 360.9 287.82 376.38C288.9 391.86 289.26 406.8 288.9 421.2C288.54 435.6 287.28 446.76 285.12 454.68C282.96 462.6 277.74 475.38 269.46 493.02C261.18 510.66 253.8 524.52 247.32 534.6C240.84 544.68 236.34 550.8 233.82 552.96C231.3 555.12 226.8 560.7 220.32 569.7C213.84 578.7 207.9 591.12 202.5 606.96C197.1 622.8 194.04 630.9 193.32 631.26C192.6 631.62 190.44 639 186.84 653.4C183.24 667.8 180.54 682.2 178.74 696.6C176.94 711 176.4 729 177.12 750.6C177.84 772.2 180.18 790.74 184.14 806.22C188.1 821.7 192.96 834.84 198.72 845.64C204.48 856.44 211.5 865.62 219.78 873.18C228.06 880.74 235.08 885.96 240.84 888.84C246.6 891.72 252.54 894.06 258.66 895.86C264.78 897.66 275.04 898.56 289.44 898.56C303.84 898.56 312.3 899.1 314.82 900.18C317.34 901.26 322.02 901.98 328.86 902.34C335.7 902.7 341.1 903.6 345.06 905.04C349.02 906.48 358.38 907.2 373.14 907.2C387.9 907.2 401.94 907.92 415.26 909.36C428.58 910.8 469.62 911.88 538.38 912.6C607.14 913.32 646.56 912.6 656.64 910.44C666.72 908.28 671.94 906.84 672.3 906.12C672.66 905.4 676.44 903.96 683.64 901.8C690.84 899.64 698.76 896.22 707.4 891.54C716.04 886.86 722.52 882.36 726.84 878.04C731.16 873.72 735.66 868.14 740.34 861.3C745.02 854.46 748.8 848.16 751.68 842.4C754.56 836.64 756.36 831.24 757.08 826.2C757.8 821.16 759.06 818.46 760.86 818.1C762.66 817.74 763.56 817.02 763.56 815.94C763.56 814.86 758.88 813.6 749.52 812.16C740.16 810.72 728.28 809.64 713.88 808.92C699.48 808.2 687.96 802.62 679.32 792.18C670.68 781.74 664.74 772.92 661.5 765.72C658.26 758.52 655.56 751.14 653.4 743.58C651.24 736.02 650.16 727.56 650.16 718.2C650.16 708.84 651.78 695.34 655.02 677.7C658.26 660.06 664.2 639 672.84 614.52C681.48 590.04 688.5 572.76 693.9 562.68C699.3 552.6 704.16 537.12 708.48 516.24C712.8 495.36 715.5 478.98 716.58 467.1C717.66 455.22 718.2 442.26 718.2 428.22C718.2 414.18 717.66 403.02 716.58 394.74C715.5 386.46 713.52 377.64 710.64 368.28C707.76 358.92 703.44 349.38 697.68 339.66C691.92 329.94 685.26 320.76 677.7 312.12C670.14 303.48 662.94 296.46 656.1 291.06C649.26 285.66 640.98 283.32 631.26 284.04C621.54 284.76 615.6 284.76 613.44 284.04C611.28 283.32 596.34 282.6 568.62 281.88C540.9 281.16 523.08 280.08 515.16 278.64C507.24 277.2 499.14 276.48 490.86 276.48C482.58 276.48 469.62 275.58 451.98 273.78C434.34 271.98 418.32 269.64 403.92 266.76C389.52 263.88 380.34 262.44 376.38 262.44C372.42 262.44 370.08 262.08 369.36 261.36C368.64 260.64 354.06 260.28 325.62 260.28C311.4 260.28 297.18 260.28 282.96 260.28C285.48 259.02 288 257.76 290.52 256.5C295.56 253.98 312.3 248.4 340.74 239.76C369.18 231.12 383.76 226.08 384.48 224.64C384.84 223.92 385.2 223.2 385.56 222.48C374.58 225.72 363.6 228.96 352.62 232.2C330.66 238.68 318.78 241.56 316.98 240.84C315.18 240.12 313.92 238.5 313.2 235.98C312.48 233.46 309.42 228.42 304.02 220.86C298.62 213.3 292.5 206.64 285.66 200.88C278.82 195.12 270.9 190.44 261.9 186.84C252.9 183.24 246.06 181.08 241.38 180.36C236.7 179.64 230.76 179.64 223.56 180.36C216.36 181.08 212.4 180.72 211.68 179.28C210.96 177.84 209.7 176.94 207.9 176.58C206.1 176.22 203.76 176.94 200.88 178.74Z" fill="#000000" fill-rule="evenodd" opacity="1" stroke="#000000" stroke-linecap="round" stroke-linejoin="round" stroke-width="1"/>
<path d="M217.62 185.22C217.98 186.3 219.78 187.38 223.02 188.46C226.26 189.54 232.92 193.5 243 200.34C253.08 207.18 260.82 213.66 266.22 219.78C271.62 225.9 276.3 232.74 280.26 240.3C284.22 247.86 286.74 251.82 287.82 252.18C288.9 252.54 293.22 251.28 300.78 248.4C304.56 246.96 308.34 245.52 312.12 244.08C311.4 242.1 310.68 240.12 309.96 238.14C308.52 234.18 306.36 230.04 303.48 225.72C300.6 221.4 297.36 217.26 293.76 213.3C290.16 209.34 285.66 205.38 280.26 201.42C274.86 197.46 267.84 193.68 259.2 190.08C250.56 186.48 241.38 184.5 231.66 184.14C226.8 183.96 221.94 183.78 217.08 183.6C217.26 184.14 217.44 184.68 217.62 185.22Z" fill="#ffdac1" fill-rule="evenodd" opacity="1" stroke="#ffffff" stroke-linecap="round" stroke-linejoin="round" stroke-width="1"/>
<path d="M210.06 193.86C210.42 197.82 211.86 203.22 214.38 210.06C216.9 216.9 219.06 229.32 220.86 247.32C221.76 256.32 222.66 265.32 223.56 274.32C230.22 272.34 236.88 270.36 243.54 268.38C256.86 264.42 266.76 261 273.24 258.12C276.48 256.68 279.72 255.24 282.96 253.8C280.8 249.66 278.64 245.52 276.48 241.38C272.16 233.1 267.12 225.9 261.36 219.78C255.6 213.66 248.58 207.9 240.3 202.5C232.02 197.1 224.82 193.32 218.7 191.16C215.64 190.08 212.58 189 209.52 187.92C209.7 189.9 209.88 191.88 210.06 193.86Z" fill="#ffdac1" fill-rule="evenodd" opacity="1" stroke="#ffffff" stroke-linecap="round" stroke-linejoin="round" stroke-width="1"/>
<path d="M187.92 195.48C180 199.8 172.26 206.28 164.7 214.92C157.14 223.56 151.74 231.3 148.5 238.14C145.26 244.98 142.92 251.28 141.48 257.04C140.04 262.8 139.5 269.28 139.86 276.48C140.04 280.08 140.22 283.68 140.4 287.28C140.04 287.28 139.68 287.28 139.32 287.28C138.6 287.28 138.06 286.02 137.7 283.5C137.52 282.24 137.34 280.98 137.16 279.72C137.34 284.22 137.52 288.72 137.7 293.22C137.88 297.72 138.06 302.22 138.24 306.72C141.3 306 144.36 305.28 147.42 304.56C153.54 303.12 160.74 300.6 169.02 297C177.3 293.4 180.36 288 178.2 280.8C176.04 273.6 175.32 264.42 176.04 253.26C176.76 242.1 178.38 232.2 180.9 223.56C183.42 214.92 187.2 207.54 192.24 201.42C197.28 195.3 199.8 191.7 199.8 190.62C199.8 190.08 199.8 189.54 199.8 189C195.84 191.16 191.88 193.32 187.92 195.48Z" fill="#ffdac1" fill-rule="evenodd" opacity="1" stroke="#ffffff" stroke-linecap="round" stroke-linejoin="round" stroke-width="1"/>
<path d="M195.48 203.58C190.44 211.14 186.66 218.88 184.14 226.8C181.62 234.72 180.18 244.44 179.82 255.96C179.46 267.48 180.18 275.94 181.98 281.34C182.88 284.04 183.78 286.74 184.68 289.44C190.44 287.28 196.2 285.12 201.96 282.96C213.48 278.64 218.52 267.48 217.08 249.48C215.64 231.48 213.48 217.8 210.6 208.44C207.72 199.08 205.74 194.04 204.66 193.32C204.12 192.96 203.58 192.6 203.04 192.24C200.52 196.02 198 199.8 195.48 203.58Z" fill="#ffdac1" fill-rule="evenodd" opacity="1" stroke="#ffffff" stroke-linecap="round" stroke-linejoin="round" stroke-width="1"/>
<path d="M251.1 273.78C250.2 274.32 249.3 274.86 248.4 275.4C250.74 276.3 253.08 277.2 255.42 278.1C260.1 279.9 265.32 283.32 271.08 288.36C276.84 293.4 282.42 301.14 287.82 311.58C293.22 322.02 297.72 336.06 301.32 353.7C304.92 371.34 306.9 386.28 307.26 398.52C307.62 410.76 306.9 422.64 305.1 434.16C303.3 445.68 299.52 459.18 293.76 474.66C288 490.14 280.98 505.44 272.7 520.56C264.42 535.68 254.34 551.16 242.46 567C230.58 582.84 222.3 596.52 217.62 608.04C212.94 619.56 208.44 632.7 204.12 647.46C199.8 662.22 196.38 677.7 193.86 693.9C191.34 710.1 190.26 727.74 190.62 746.82C190.98 765.9 192.6 781.92 195.48 794.88C198.36 807.84 201.6 818.46 205.2 826.74C208.8 835.02 212.22 841.68 215.46 846.72C218.7 851.76 223.2 856.98 228.96 862.38C234.72 867.78 239.94 871.56 244.62 873.72C249.3 875.88 251.64 877.32 251.64 878.04C251.64 878.76 254.7 880.2 260.82 882.36C266.94 884.52 274.68 885.96 284.04 886.68C293.4 887.4 301.14 887.22 307.26 886.14C313.38 885.06 321.12 881.46 330.48 875.34C339.84 869.22 348.3 862.38 355.86 854.82C363.42 847.26 368.64 841.14 371.52 836.46C374.4 831.78 376.2 828 376.92 825.12C377.64 822.24 379.26 819.18 381.78 815.94C384.3 812.7 385.92 809.64 386.64 806.76C387.36 803.88 393.3 802.62 404.46 802.98C415.62 803.34 424.8 804.24 432 805.68C439.2 807.12 447.3 807.84 456.3 807.84C465.3 807.84 471.06 808.2 473.58 808.92C476.1 809.64 495.36 810 531.36 810C567.36 810 600.12 809.46 629.64 808.38C644.4 807.84 659.16 807.3 673.92 806.76C671.04 802.8 668.16 798.84 665.28 794.88C659.52 786.96 654.3 778.14 649.62 768.42C644.94 758.7 641.88 750.78 640.44 744.66C639 738.54 638.28 731.16 638.28 722.52C638.28 713.88 639 704.7 640.44 694.98C641.88 685.26 644.22 674.28 647.46 662.04C650.7 649.8 658.26 629.82 670.14 602.1C682.02 574.38 687.96 558.72 687.96 555.12C687.96 551.52 689.76 544.68 693.36 534.6C696.96 524.52 700.02 512.82 702.54 499.5C705.06 486.18 706.68 476.28 707.4 469.8C708.12 463.32 708.48 449.46 708.48 428.22C708.48 406.98 708.12 394.02 707.4 389.34C706.68 384.66 704.7 377.28 701.46 367.2C698.22 357.12 694.08 347.94 689.04 339.66C684 331.38 679.14 324.9 674.46 320.22C669.78 315.54 665.28 310.14 660.96 304.02C656.64 297.9 653.94 294.84 652.86 294.84C651.78 294.84 650.16 293.76 648 291.6C645.84 289.44 641.34 288.72 634.5 289.44C627.66 290.16 624.06 290.88 623.7 291.6C623.34 292.32 608.04 292.5 577.8 292.14C547.56 291.78 514.44 290.16 478.44 287.28C442.44 284.4 413.46 281.16 391.5 277.56C369.54 273.96 341.1 272.16 306.18 272.16C271.26 272.16 252.9 272.7 251.1 273.78Z" fill="#aee4e9" fill-rule="evenodd" opacity="1" stroke="#ffffff" stroke-linecap="round" stroke-linejoin="round" stroke-width="1"/>
<path d="M210.6 288.36C202.68 291.24 195.12 295.74 187.92 301.86C180.72 307.98 175.68 313.38 172.8 318.06C169.92 322.74 168.48 326.52 168.48 329.4C168.48 332.28 169.02 334.26 170.1 335.34C171.18 336.42 172.62 337.32 174.42 338.04C176.22 338.76 183.06 338.76 194.94 338.04C206.82 337.32 224.64 337.5 248.4 338.58C260.28 339.12 272.16 339.66 284.04 340.2C282.96 336.42 281.88 332.64 280.8 328.86C278.64 321.3 275.04 314.1 270 307.26C264.96 300.42 259.02 295.2 252.18 291.6C245.34 288 238.68 285.84 232.2 285.12C225.72 284.4 218.52 285.48 210.6 288.36Z" fill="#19bdce" fill-rule="evenodd" opacity="1" stroke="#ffffff" stroke-linecap="round" stroke-linejoin="round" stroke-width="1"/>
<path d="M140.4 299.16C140.76 300.24 141.12 301.32 141.48 302.4C141.48 301.32 141.48 300.24 141.48 299.16C141.48 298.08 141.48 297 141.48 295.92C141.12 295.92 140.76 295.92 140.4 295.92C140.04 295.92 139.68 295.92 139.32 295.92C139.68 297 140.04 298.08 140.4 299.16Z" fill="#000000" fill-rule="evenodd" opacity="1" stroke="#000000" stroke-linecap="round" stroke-linejoin="round" stroke-width="1"/>
<path d="M434.16 392.04C430.56 392.76 427.14 394.02 423.9 395.82C420.66 397.62 416.34 401.58 410.94 407.7C405.54 413.82 401.4 420.66 398.52 428.22C395.64 435.78 393.84 443.88 393.12 452.52C392.4 461.16 392.76 469.44 394.2 477.36C395.64 485.28 397.8 492.3 400.68 498.42C403.56 504.54 407.16 509.76 411.48 514.08C415.8 518.4 420.3 521.82 424.98 524.34C429.66 526.86 435.6 528.12 442.8 528.12C450 528.12 456.48 526.5 462.24 523.26C468 520.02 472.68 516.24 476.28 511.92C479.88 507.6 483.3 501.66 486.54 494.1C489.78 486.54 491.76 477.36 492.48 466.56C493.2 455.76 492.84 447.12 491.4 440.64C489.96 434.16 487.44 427.5 483.84 420.66C480.24 413.82 476.1 408.24 471.42 403.92C466.74 399.6 462.6 396.54 459 394.74C455.4 392.94 451.26 391.86 446.58 391.5C441.9 391.14 437.76 391.32 434.16 392.04Z" fill="#000000" fill-rule="evenodd" opacity="1" stroke="#000000" stroke-linecap="round" stroke-linejoin="round" stroke-width="1"/>
<path d="M574.02 397.44C567.18 401.04 561.96 405 558.36 409.32C554.76 413.64 551.34 419.76 548.1 427.68C544.86 435.6 542.88 444.24 542.16 453.6C541.44 462.96 542.16 472.14 544.32 481.14C546.48 490.14 549.18 497.52 552.42 503.28C555.66 509.04 559.08 513.72 562.68 517.32C566.28 520.92 569.88 523.8 573.48 525.96C577.08 528.12 583.02 529.56 591.3 530.28C599.58 531 606.6 530.1 612.36 527.58C618.12 525.06 623.52 520.92 628.56 515.16C633.6 509.4 637.74 501.66 640.98 491.94C644.22 482.22 645.84 472.86 645.84 463.86C645.84 454.86 645.12 447.48 643.68 441.72C642.24 435.96 640.26 430.38 637.74 424.98C635.22 419.58 631.44 414.18 626.4 408.78C621.36 403.38 616.5 399.42 611.82 396.9C607.14 394.38 601.38 392.94 594.54 392.58C587.7 392.22 580.86 393.84 574.02 397.44Z" fill="#000000" fill-rule="evenodd" opacity="1" stroke="#000000" stroke-linecap="round" stroke-linejoin="round" stroke-width="1"/>
<path d="M425.52 409.32C421.2 412.92 417.24 418.32 413.64 425.52C410.04 432.72 408.24 438.48 408.24 442.8C408.24 447.12 409.5 450.36 412.02 452.52C414.54 454.68 418.86 455.4 424.98 454.68C431.1 453.96 436.14 451.98 440.1 448.74C444.06 445.5 447.12 441.9 449.28 437.94C451.44 433.98 452.7 429.48 453.06 424.44C453.42 419.4 453.06 415.26 451.98 412.02C450.9 408.78 449.46 406.62 447.66 405.54C445.86 404.46 442.8 403.92 438.48 403.92C434.16 403.92 429.84 405.72 425.52 409.32Z" fill="#ffffff" fill-rule="evenodd" opacity="1" stroke="#ffffff" stroke-linecap="round" stroke-linejoin="round" stroke-width="1"/>
<path d="M575.64 409.32C571.32 412.92 567.36 418.32 563.76 425.52C560.16 432.72 558.36 438.3 558.36 442.26C558.36 446.22 559.62 449.46 562.14 451.98C564.66 454.5 568.26 455.76 572.94 455.76C575.28 455.76 577.62 455.76 579.96 455.76C579.96 455.4 579.96 455.04 579.96 454.68C579.96 453.96 581.4 453.24 584.28 452.52C587.16 451.8 589.86 450.18 592.38 447.66C594.9 445.14 597.24 441.9 599.4 437.94C601.56 433.98 602.82 429.48 603.18 424.44C603.54 419.4 603.18 415.26 602.1 412.02C601.02 408.78 599.58 406.62 597.78 405.54C595.98 404.46 592.92 403.92 588.6 403.92C584.28 403.92 579.96 405.72 575.64 409.32Z" fill="#ffffff" fill-rule="evenodd" opacity="1" stroke="#ffffff" stroke-linecap="round" stroke-linejoin="round" stroke-width="1"/>
<path d="M450.36 443.88C447.48 446.04 445.32 448.56 443.88 451.44C442.44 454.32 442.26 457.2 443.34 460.08C444.42 462.96 447.12 464.4 451.44 464.4C455.76 464.4 459.36 462.6 462.24 459C465.12 455.4 466.38 451.8 466.02 448.2C465.66 444.6 465.12 442.44 464.4 441.72C463.68 441 461.88 440.64 459 440.64C456.12 440.64 453.24 441.72 450.36 443.88Z" fill="#ffffff" fill-rule="evenodd" opacity="1" stroke="#ffffff" stroke-linecap="round" stroke-linejoin="round" stroke-width="1"/>
<path d="M599.4 446.04C595.8 449.64 593.64 452.7 592.92 455.22C592.2 457.74 592.38 459.9 593.46 461.7C594.54 463.5 597.24 464.4 601.56 464.4C605.88 464.4 609.48 462.42 612.36 458.46C615.24 454.5 616.5 450.9 616.14 447.66C615.78 444.42 615.24 442.44 614.52 441.72C613.8 441 612 440.64 609.12 440.64C606.24 440.64 603 442.44 599.4 446.04Z" fill="#ffffff" fill-rule="evenodd" opacity="1" stroke="#ffffff" stroke-linecap="round" stroke-linejoin="round" stroke-width="1"/>
<path d="M642.06 476.28C642.24 476.64 642.42 477 642.6 477.36C642.42 477 642.24 476.64 642.06 476.28C641.88 475.92 641.7 475.56 641.52 475.2C641.7 475.56 641.88 475.92 642.06 476.28Z" fill="#ffffff" fill-rule="evenodd" opacity="1" stroke="#ffffff" stroke-linecap="round" stroke-linejoin="round" stroke-width="1"/>
<path d="M639.9 485.46C640.08 486 640.26 486.54 640.44 487.08C640.26 486.54 640.08 486 639.9 485.46C639.72 484.92 639.54 484.38 639.36 483.84C639.54 484.38 639.72 484.92 639.9 485.46Z" fill="#ffffff" fill-rule="evenodd" opacity="1" stroke="#ffffff" stroke-linecap="round" stroke-linejoin="round" stroke-width="1"/>
<path d="M637.74 491.94C637.92 492.48 638.1 493.02 638.28 493.56C638.1 493.02 637.92 492.48 637.74 491.94C637.56 491.4 637.38 490.86 637.2 490.32C637.38 490.86 637.56 491.4 637.74 491.94Z" fill="#ffffff" fill-rule="evenodd" opacity="1" stroke="#ffffff" stroke-linecap="round" stroke-linejoin="round" stroke-width="1"/>
<path d="M634.5 497.88C634.32 498.6 634.14 499.32 633.96 500.04C634.32 499.86 634.68 499.68 635.04 499.5C635.76 499.14 635.94 498.42 635.58 497.34C635.4 496.8 635.22 496.26 635.04 495.72C634.86 496.44 634.68 497.16 634.5 497.88Z" fill="#ffffff" fill-rule="evenodd" opacity="1" stroke="#ffffff" stroke-linecap="round" stroke-linejoin="round" stroke-width="1"/>
<path d="M629.64 506.52C627.48 510.12 623.7 514.08 618.3 518.4C615.6 520.56 612.9 522.72 610.2 524.88C611.82 524.16 613.44 523.44 615.06 522.72C618.3 521.28 621.18 519.3 623.7 516.78C626.22 514.26 628.38 511.02 630.18 507.06C631.08 505.08 631.98 503.1 632.88 501.12C631.8 502.92 630.72 504.72 629.64 506.52Z" fill="#ffffff" fill-rule="evenodd" opacity="1" stroke="#ffffff" stroke-linecap="round" stroke-linejoin="round" stroke-width="1"/>
<path d="M605.34 526.5C605.88 526.68 606.42 526.86 606.96 527.04C606.42 526.86 605.88 526.68 605.34 526.5C604.8 526.32 604.26 526.14 603.72 525.96C604.26 526.14 604.8 526.32 605.34 526.5Z" fill="#ffffff" fill-rule="evenodd" opacity="1" stroke="#ffffff" stroke-linecap="round" stroke-linejoin="round" stroke-width="1"/>
<path d="M547.02 552.42C547.38 554.22 548.1 555.48 549.18 556.2C550.26 556.92 550.26 561.24 549.18 569.16C548.1 577.08 545.4 583.92 541.08 589.68C536.76 595.44 532.26 599.76 527.58 602.64C522.9 605.52 516.78 606.6 509.22 605.88C501.66 605.16 495.72 603.18 491.4 599.94C487.08 596.7 483.84 592.2 481.68 586.44C479.52 580.68 478.44 575.28 478.44 570.24C478.44 565.2 480.42 561.78 484.38 559.98C488.34 558.18 490.86 556.56 491.94 555.12C493.02 553.68 493.38 552.6 493.02 551.88C492.84 551.52 492.66 551.16 492.48 550.8C490.14 552.24 487.8 553.68 485.46 555.12C480.78 558 477.18 559.26 474.66 558.9C472.14 558.54 470.16 557.1 468.72 554.58C467.28 552.06 466.02 550.8 464.94 550.8C464.4 550.8 463.86 550.8 463.32 550.8C463.32 551.34 463.32 551.88 463.32 552.42C463.32 553.5 464.22 555.12 466.02 557.28C467.82 559.44 469.62 560.88 471.42 561.6C473.22 562.32 474.66 567.18 475.74 576.18C476.82 585.18 478.44 591.48 480.6 595.08C482.76 598.68 486.36 602.28 491.4 605.88C496.44 609.48 501.48 611.46 506.52 611.82C511.56 612.18 516.78 611.46 522.18 609.66C527.58 607.86 532.62 604.98 537.3 601.02C541.98 597.06 545.58 592.92 548.1 588.6C550.62 584.28 552.24 578.7 552.96 571.86C553.68 565.02 556.02 561.6 559.98 561.6C563.94 561.6 567 560.7 569.16 558.9C571.32 557.1 572.58 555.48 572.94 554.04C573.3 552.6 573.12 551.7 572.4 551.34C571.68 550.98 570.6 551.88 569.16 554.04C567.72 556.2 565.2 557.46 561.6 557.82C558 558.18 554.58 556.92 551.34 554.04C549.72 552.6 548.1 551.16 546.48 549.72C546.66 550.62 546.84 551.52 547.02 552.42Z" fill="#000000" fill-rule="evenodd" opacity="1" stroke="#000000" stroke-linecap="round" stroke-linejoin="round" stroke-width="1"/>
<path d="M392.04 817.02C390.6 821.7 386.28 829.62 379.08 840.78C371.88 851.94 365.22 860.58 359.1 866.7C352.98 872.82 346.32 878.22 339.12 882.9C331.92 887.58 328.32 890.28 328.32 891C328.32 891.72 330.84 892.98 335.88 894.78C340.92 896.58 373.14 897.84 432.54 898.56C491.94 899.28 529.92 900.36 546.48 901.8C563.04 903.24 581.94 903.96 603.18 903.96C624.42 903.96 637.74 903.6 643.14 902.88C648.54 902.16 656.46 900.18 666.9 896.94C677.34 893.7 688.14 888.66 699.3 881.82C710.46 874.98 719.46 868.32 726.3 861.84C733.14 855.36 739.62 847.08 745.74 837C751.86 826.92 754.92 821.16 754.92 819.72C754.92 819 754.92 818.28 754.92 817.56C737.28 817.56 719.64 817.56 702 817.56C666.72 817.56 642.96 818.1 630.72 819.18C618.48 820.26 592.56 820.62 552.96 820.26C513.36 819.9 480.42 818.82 454.14 817.02C427.86 815.22 411.3 813.6 404.46 812.16C397.62 810.72 393.48 812.34 392.04 817.02Z" fill="#8fd2d5" fill-rule="evenodd" opacity="1" stroke="#ffffff" stroke-linecap="round" stroke-linejoin="round" stroke-width="1"/>
<path d="M875.34 1652.4C875.16 1652.76 874.98 1653.12 874.8 1653.48C875.16 1653.66 875.52 1653.84 875.88 1654.02C876.24 1654.2 876.6 1654.38 876.96 1654.56C877.14 1654.2 877.32 1653.84 877.5 1653.48C877.68 1653.12 877.86 1652.76 878.04 1652.4C877.68 1652.22 877.32 1652.04 876.96 1651.86C876.6 1651.68 876.24 1651.5 875.88 1651.32C875.7 1651.68 875.52 1652.04 875.34 1652.4Z" fill="#000000" fill-rule="evenodd" opacity="1" stroke="#000000" stroke-linecap="round" stroke-linejoin="round" stroke-width="1"/>
</g>
<g id="Layer-2" vectornator:layerName="Layer 2">
<g filter="url(#Filter)" opacity="1">
<path d="M408 572.5C411.963 569.103 419.489 573.137 423 577C425.691 579.96 425.219 585.672 423 589C419.923 593.616 414.548 598 409 598C404.757 598 402.06 592.709 400 589C398.534 586.361 398.345 582.947 399 580C399.744 576.65 401.145 572.904 404 571C406.787 569.142 411.299 568.019 414 570C417.494 572.563 420.051 577.796 419 582C418.204 585.185 413.194 586.76 410 586C405.136 584.842 400.972 581.021 398 577C395.055 573.015 391.865 567.824 393 563C393.724 559.922 398.864 559.591 402 560C407.035 560.657 412.035 562.828 416 566C419.035 568.428 422.352 572.129 422 576C421.565 580.788 418.227 585.71 414 588C409.301 590.545 402.818 591.312 398 589C393.249 586.719 390.606 581.02 389 576C387.777 572.177 388.051 567.509 390 564C391.751 560.848 395.528 558.972 399 558C404.146 556.559 409.805 555.746 415 557C419.946 558.194 425.007 560.885 428 565C430.807 568.86 431.818 574.298 431 579C430.349 582.744 426.768 585.395 424 588C421.037 590.789 417.677 593.258 414 595C411.223 596.316 407.844 598.164 405 597C399.746 594.851 395.44 590.515 392 586C388.953 582.001 387.939 569.457 389 565C391.684 553.726 401.059 546.727 412 545C414.963 544.532 418.181 543.975 421 545C425.782 546.739 431.496 548.57 434 553C436.46 557.353 435.524 563.238 434 568C432.699 572.066 429.279 575.267 426 578C423.137 580.386 419.564 584.089 416 583C411.792 581.714 404.659 575.364 408 572.5Z" fill="#f2b3b3" fill-rule="evenodd" stroke="none"/>
<path d="M415.406 544.438C414.262 544.547 413.122 544.752 412 544.938C404.913 546.111 398.178 549.427 393.656 555.125C391.288 558.11 389.446 561.79 388.781 565.562C388.702 566.009 388.738 566.484 388.688 566.938C388.608 567.229 388.437 567.488 388.375 567.781C388.082 569.16 387.962 570.562 388.031 571.969C388.109 573.556 388.492 575.088 388.969 576.594C388.974 576.634 388.963 576.678 388.969 576.719C389.368 579.574 389.922 582.668 391.344 585.219C392.202 586.758 393.485 588.107 394.656 589.406C396.603 591.567 398.739 593.503 401.156 595.125C402.442 595.988 404.014 596.87 405.594 597.25C406.443 597.838 407.375 598.297 408.438 598.406C411.481 598.718 414.761 597.329 417.188 595.594C419.81 593.718 422.12 591.26 423.625 588.438C424.248 587.879 424.909 587.375 425.531 586.812C427.342 585.175 429.272 583.485 430.406 581.281C431.519 579.118 431.593 576.497 431.406 574.125C431.373 573.7 431.245 573.319 431.188 572.906C431.486 572.537 431.821 572.204 432.094 571.812C432.555 571.149 432.816 570.398 433.156 569.688C432.821 570.393 432.524 571.115 432.062 571.781C431.8 572.161 431.444 572.456 431.156 572.812C430.413 567.668 427.857 563.412 423.438 560.438C420.177 558.243 416.314 556.76 412.406 556.312C408.337 555.847 404.199 556.44 400.25 557.438C396.438 558.4 392.225 560.009 390.031 563.5C389.484 564.371 389.25 565.389 388.938 566.375C388.971 566.127 388.926 565.871 388.969 565.625C389.62 561.884 391.47 558.213 393.812 555.25C398.297 549.577 404.957 546.242 412 545.062C414.231 544.689 416.545 544.304 418.812 544.562C420.002 544.698 421.066 545.095 422.188 545.5C423.437 545.952 424.681 546.391 425.906 546.906C427.185 547.444 428.495 548.072 429.688 548.812C428.106 547.822 426.431 546.983 424.719 546.312C422.827 545.571 420.88 544.673 418.844 544.438C417.704 544.306 416.551 544.328 415.406 544.438ZM429.688 548.812C430.88 549.553 431.963 550.426 432.875 551.5C434.517 553.433 435.261 555.768 435.438 558.219C435.261 555.755 434.615 553.352 432.969 551.406C432.056 550.328 430.877 549.558 429.688 548.812ZM435.438 558.219C435.614 560.669 435.219 563.227 434.656 565.531C434.389 566.627 434.088 567.675 433.688 568.688C434.257 567.266 434.717 565.816 435.031 564.281C435.429 562.335 435.583 560.246 435.438 558.219ZM411.031 556.625C415.747 556.895 420.524 558.655 424.281 561.531C428.073 564.434 430.202 568.566 430.812 573.188C429.14 575.165 427.215 576.906 425.25 578.594C425.095 578.727 424.881 578.89 424.719 579.031C424.469 578.344 424.134 577.708 423.688 577.125C423.289 576.604 422.742 576.198 422.25 575.75C422.256 575.511 422.327 575.267 422.312 575.031C422.231 573.672 421.763 572.364 421.094 571.188C419.677 568.697 417.482 566.644 415.188 564.969C411.167 562.034 406.207 559.964 401.219 559.562C398.741 559.363 394.37 559.525 392.969 562.125C392.442 563.101 392.368 564.354 392.406 565.438C392.498 568.065 393.541 570.581 394.812 572.844C395.667 574.364 396.678 575.82 397.719 577.219C398.126 577.766 398.596 578.258 399.031 578.781C398.31 581.488 397.932 584.287 398.719 587C398.936 587.748 399.308 588.467 399.656 589.188C398.955 588.951 398.198 588.822 397.562 588.469C396.048 587.627 394.748 586.391 393.688 585.031C391.866 582.697 390.633 579.966 389.656 577.188C389.374 576.386 389.19 575.562 389 574.75C388.806 572.953 388.726 571.138 388.75 569.312C388.843 568.499 388.871 567.664 389.094 566.875C389.442 565.641 389.915 564.428 390.656 563.375C392.869 560.231 396.767 558.787 400.344 557.875C403.817 556.989 407.439 556.419 411.031 556.625ZM399.375 560.219C399.979 560.203 400.555 560.203 401.156 560.25C401.804 560.3 402.569 560.421 403.188 560.531C408.714 561.514 414.095 564.259 418.031 568.281C419.526 569.808 420.904 571.592 421.469 573.688C421.59 574.139 421.567 574.621 421.594 575.094C421.464 574.986 421.349 574.854 421.219 574.75C419.827 573.635 418.244 572.695 416.562 571.969C415.761 570.96 414.892 570.027 413.875 569.406C410.703 567.471 405.689 568.976 403.031 571.188C401.395 572.549 400.337 574.473 399.594 576.438C399.432 576.864 399.42 577.343 399.281 577.781C398.728 577.095 398.065 576.491 397.562 575.781C396.315 574.019 395.16 572.179 394.312 570.188C393.395 568.032 392.566 565.086 393.438 562.75C394.225 560.638 397.519 560.266 399.375 560.219ZM410.312 569.344C411.027 569.343 411.708 569.445 412.375 569.656C413.415 569.985 414.269 570.714 415.031 571.5C414.33 571.282 413.66 570.938 412.938 570.844C411.566 570.665 410.132 570.79 408.875 571.406C408.669 571.507 408.854 571.378 407.719 572.125C407.519 572.277 407.473 572.581 407.625 572.781C407.654 572.82 407.712 572.786 407.75 572.812C407.606 572.965 407.489 573.054 407.375 573.281C407.08 573.868 407.089 574.531 407.25 575.156C407.56 576.361 408.34 577.432 409.156 578.344C409.341 578.55 409.585 578.707 409.781 578.906C409.11 578.231 408.459 577.546 407.969 576.75C407.447 575.903 407.876 573.369 407.969 572.844C408.079 572.854 408.186 572.947 408.281 572.875C411.542 571.693 410.175 571.729 411.531 571.688C413.084 571.64 414.587 572.129 416.031 572.75C417.812 575.047 419.09 577.957 418.781 580.875C418.72 581.452 418.637 582.07 418.375 582.594C418.296 582.751 418.13 582.854 418.031 583C417.704 583.045 417.395 583.144 417.062 583.125C417.365 583.149 417.662 583.1 417.969 583.062C416.505 585.122 413.188 586.005 410.875 585.75C409.812 585.633 408.76 585.292 407.781 584.875C404.638 583.537 402.153 581.153 399.938 578.562C400.194 577.681 400.36 576.762 400.719 575.938C401.499 574.147 402.612 572.456 404.25 571.344C405.928 570.204 408.168 569.346 410.312 569.344ZM409.781 578.906C410.194 579.321 410.607 579.693 411.062 580.062C410.619 579.69 410.183 579.315 409.781 578.906ZM411.062 580.062C411.599 580.512 412.133 580.929 412.719 581.312C412.146 580.938 411.604 580.502 411.062 580.062ZM412.719 581.312C412.855 581.402 412.988 581.508 413.125 581.594C413.541 581.853 413.979 582.108 414.438 582.344C413.84 582.05 413.283 581.682 412.719 581.312ZM430.844 573.281C430.932 573.976 431.079 574.66 431.094 575.375C431.133 577.32 430.994 579.365 430.094 581.125C428.985 583.293 427.088 584.951 425.312 586.562C424.862 586.971 424.386 587.342 423.938 587.75C424.886 585.724 425.506 583.548 425.219 581.156C425.136 580.466 424.981 579.785 424.75 579.125C425.174 578.755 425.609 578.388 426.031 578.031C427.755 576.576 429.381 575.003 430.844 573.281ZM417.688 573.5C417.857 573.593 418.054 573.654 418.219 573.75C419.401 574.441 420.607 575.327 421.688 576.344C421.465 578.691 420.236 581 418.938 582.875C419.284 582.759 419.578 582.528 419.906 582.375C420.982 580.65 421.875 578.85 422.156 576.906C422.619 577.405 423.159 577.863 423.469 578.438C423.684 578.836 423.771 579.288 423.906 579.719C423.334 580.216 422.761 580.682 422.125 581.156C422.744 580.71 423.354 580.279 423.938 579.781C424.293 580.948 424.461 582.169 424.375 583.375C424.224 585.509 423.345 587.466 422.188 589.25C421.455 589.882 420.779 590.575 420 591.156C417.437 593.07 414.661 594.591 411.75 595.906C410.385 596.523 408.895 596.998 407.375 597.094C404.689 596.076 402.745 592.984 401.469 590.75C401.369 590.576 401.286 590.392 401.188 590.219C407.135 591.513 414.083 589.48 418.062 585.125C418.704 584.423 419.184 583.442 419.75 582.562C419.478 582.681 419.215 582.791 418.938 582.875C418.748 583.149 418.632 583.532 418.438 583.781C418.355 583.886 418.241 583.96 418.156 584.062C418.449 583.746 418.558 583.333 418.75 582.969C418.817 582.948 418.871 582.897 418.938 582.875C418.895 582.888 418.855 582.894 418.812 582.906C419.47 581.606 419.755 580.142 419.562 578.656C419.343 576.961 418.658 575.138 417.688 573.5ZM419.75 582.562C420.588 582.197 421.359 581.727 422.125 581.156C421.438 581.651 420.669 582.02 419.906 582.375C419.862 582.445 419.795 582.493 419.75 582.562ZM389.438 577.906C389.687 578.58 389.905 579.279 390.188 579.938C391.188 582.268 392.429 584.529 394.156 586.406C395.763 588.152 397.792 589.3 400 589.969C400.602 591.091 401.273 592.192 401.938 593.219C402.68 594.365 403.586 595.589 404.656 596.562C403.019 595.929 401.334 594.973 400.125 594.094C397.795 592.4 395.739 590.345 393.875 588.156C393.053 587.191 392.186 586.208 391.562 585.094C390.355 582.937 389.819 580.4 389.438 577.906ZM399.656 579.531C399.843 579.742 399.994 579.982 400.188 580.188C404.035 584.29 409.73 588.145 415.531 585.844C416.246 585.56 416.891 585.129 417.5 584.656C416.685 585.548 415.879 586.453 414.875 587.125C411.08 589.665 405.538 590.712 400.844 589.594C400.223 588.469 399.658 587.341 399.375 586.062C398.899 583.913 399.146 581.695 399.656 579.531ZM414.906 582.594C415.538 582.876 416.209 583.078 416.875 583.156C416.212 583.091 415.532 582.876 414.906 582.594ZM421.719 590.094C420.188 592.173 418.184 593.948 416.094 595.281C413.988 596.624 411.526 597.568 409 597.562C408.635 597.562 408.341 597.361 408 597.281C409.607 597.052 411.187 596.488 412.625 595.812C415.292 594.56 417.819 593.167 420.188 591.406C420.73 591.003 421.201 590.524 421.719 590.094Z" fill="#ffffff" stroke="none"/>
</g>
<g filter="url(#Filter_2)" opacity="1">
<path d="M407 544C410 544.333 414.594 542.329 416 545C418.799 550.318 418.304 557.134 417 563C416.176 566.71 412.841 569.475 410 572C406.752 574.887 403.302 579.615 399 579C395.87 578.553 395.85 573.159 396 570C396.201 565.788 397.019 560.981 400 558C404.216 553.784 410.321 551.817 416 550C418.857 549.086 422.345 548.603 425 550C429.172 552.196 433.049 555.708 435 560C436.655 563.641 435.97 568.119 435 572C433.008 579.969 426.56 588.262 420 593C417.339 594.922 414.213 597.676 411 597C406.823 596.121 403.462 592.487 401 589C399.228 586.489 399.505 583.031 399 580C396.792 566.753 402.186 550.704 417 547C421.861 545.785 427.763 543.324 432 546C435.833 548.421 435.811 554.47 436 559C436.501 571.017 425.316 584.358 415 589C411.9 590.395 408.04 592.52 405 591C400.343 588.671 397.329 583.657 395 579C393.502 576.004 394 572.35 394 569C394 557.242 399.705 548.108 409 541C411.726 538.915 414.595 536.426 418 536C423.005 535.374 429.333 534.537 433 538C436.707 541.501 436.747 547.956 436 553C435.321 557.581 432.014 561.484 429 565C423.104 571.878 415.047 576.766 406 578C402.681 578.453 398.873 578.724 396 577C393.303 575.382 392.047 571.965 391 569C386.029 554.916 398.244 535.806 410 529C415.038 526.083 424.195 527.899 427 533C429.3 537.182 429.809 542.231 430 547C430.149 550.724 428.667 554.333 428 558" fill="#f2b3b3" fill-rule="evenodd" stroke="none"/>
<path d="M414.75 527.594C413.267 527.708 411.838 528.053 410.625 528.625C407.449 530.124 404.44 532.86 402.031 535.375C395.663 542.023 390.37 551.305 389.844 560.656C389.634 564.381 390.395 567.873 391.781 571.312C392.317 572.641 393.027 573.919 393.906 575.062C393.975 575.879 393.994 576.705 394.219 577.5C394.612 578.892 395.369 580.18 396.062 581.438C396.716 582.622 397.385 583.794 398.156 584.906C398.606 585.555 399.15 586.14 399.656 586.75C399.721 586.976 399.732 587.216 399.812 587.438C400.417 589.097 401.615 590.493 402.75 591.812C404.898 594.31 408.268 597.321 411.781 597.469C414.149 597.568 416.284 596.136 418.125 594.812C420.573 593.053 422.963 591.236 425.094 589.094C430.562 583.598 434.712 576.766 436.031 569.062C436.417 566.811 436.402 564.474 435.938 562.219C436.037 561.395 436.282 560.582 436.281 559.75C436.28 558.707 436.207 557.666 436.156 556.625C436.11 555.674 436.02 554.655 435.906 553.656C436.131 552.576 436.356 551.502 436.438 550.406C436.839 545.005 435.912 537.871 429.844 536C426.824 535.069 423.669 535.207 420.562 535.531C418.508 535.745 416.563 535.956 414.688 536.875C412.162 538.112 409.925 540.025 407.75 541.781C401.706 546.66 396.854 553.024 394.875 560.625C394.083 563.668 393.87 566.714 393.812 569.844C393.783 571.463 393.739 573.092 393.844 574.719C392.902 573.425 392.187 571.949 391.625 570.469C390.296 566.966 389.691 563.466 390.031 559.719C390.874 550.434 396.287 541.219 402.781 534.719C405.067 532.431 407.707 530.085 410.656 528.688C415.479 526.402 423.477 527.827 426.594 532.375C424.244 528.956 419.192 527.252 414.75 527.594ZM426.594 532.375C427.174 533.222 427.671 534.166 428.062 535.156C427.673 534.162 427.203 533.222 426.625 532.375C426.621 532.369 426.598 532.381 426.594 532.375ZM425.219 535.594C426.27 535.618 427.31 535.857 428.344 536.062C428.82 536.157 429.311 536.137 429.781 536.281C436.18 538.241 436.651 546.168 436.031 551.688C435.987 552.081 435.874 552.456 435.812 552.844C435.308 549.42 434.08 546.154 430.438 544.969C430.254 544.909 430.06 544.922 429.875 544.875C429.888 545.062 429.863 545.25 429.875 545.438C429.999 545.471 430.127 545.46 430.25 545.5C434.134 546.754 435.156 550.63 435.5 554.375C435.43 554.642 435.433 554.923 435.344 555.188C435.058 556.037 434.54 556.775 434.125 557.562C432.859 555.595 431.13 553.957 429.312 552.5C429.591 551.289 429.859 550.078 429.969 548.844C430.016 548.316 429.907 547.783 429.906 547.25C429.912 547.783 429.984 548.313 429.938 548.844C429.831 550.07 429.555 551.266 429.281 552.469C428.932 552.19 428.64 551.821 428.281 551.562C426.899 550.567 425.377 549.529 423.719 549.062C421.781 548.518 419.833 548.733 417.906 549.156C417.766 548.52 417.58 547.899 417.375 547.281C418.117 547.064 418.82 546.812 419.594 546.594C422.823 545.683 426.477 544.531 429.844 545.438C429.831 545.25 429.858 545.062 429.844 544.875C426.418 544.012 422.725 545.112 419.438 546.031C418.654 546.25 417.939 546.5 417.188 546.719C417.035 546.307 416.936 545.867 416.75 545.469C416.46 544.847 416.15 544.267 415.594 543.844C414.597 543.085 413.252 543.074 412.062 543.156C410.383 543.273 408.721 543.668 407.031 543.531C406.781 543.511 406.551 543.718 406.531 543.969C406.511 544.219 406.718 544.449 406.969 544.469C408.708 544.607 410.397 544.185 412.125 544.062C413.08 543.995 414.251 543.948 415.062 544.562C415.769 545.097 416.086 546.132 416.375 546.969C413.984 547.7 411.667 548.523 409.469 550.031C407.992 551.044 406.737 552.271 405.562 553.562C402.098 555.331 398.864 557.704 397.281 561.312C396.092 564.024 395.712 567.037 395.562 569.969C395.483 571.522 395.478 573.112 395.688 574.656C395.781 575.346 395.936 576.105 396.188 576.812C395.729 576.54 395.208 576.377 394.812 576C394.622 575.818 394.515 575.572 394.344 575.375C394.146 573.544 394.157 571.673 394.188 569.844C394.216 568.131 394.226 566.453 394.438 564.75C394.935 560.75 396.197 556.866 398.156 553.344C400.854 548.495 404.746 544.517 409.094 541.125C411.131 539.535 413.179 537.807 415.594 536.812C417.191 536.155 418.892 536.024 420.594 535.844C422.127 535.681 423.684 535.559 425.219 535.594ZM429.844 544.875C429.854 544.878 429.865 544.872 429.875 544.875C429.868 544.781 429.882 544.687 429.875 544.594C429.864 544.436 429.825 544.254 429.812 544.094C429.835 544.353 429.823 544.614 429.844 544.875ZM429.812 544.094C429.791 543.855 429.803 543.612 429.781 543.375C429.676 542.223 429.433 540.976 429.219 539.75C429.477 541.221 429.704 542.703 429.812 544.094ZM429.219 539.75C429.116 539.166 429.075 538.608 428.938 538.031C429.074 538.61 429.117 539.168 429.219 539.75ZM428.938 538.031C428.777 537.352 428.563 536.717 428.344 536.062C428.563 536.711 428.776 537.356 428.938 538.031ZM429.844 545.438C429.884 546.043 429.905 546.644 429.906 547.25C429.9 546.644 429.915 546.042 429.875 545.438C429.865 545.435 429.854 545.44 429.844 545.438ZM416.531 547.531C416.738 548.148 416.737 548.803 416.875 549.438C416.062 549.654 415.225 549.807 414.438 550.062C412.5 550.69 410.573 551.319 408.688 552.094C408.117 552.328 407.543 552.643 406.969 552.906C407.851 552.046 408.776 551.245 409.812 550.531C411.951 549.057 414.204 548.248 416.531 547.531ZM421.281 549.531C422.025 549.546 422.762 549.638 423.5 549.844C425.42 550.379 427.211 551.718 428.75 552.938C430.686 554.472 432.31 556.437 433.594 558.594C432.44 560.515 431.091 562.336 429.656 564.031C424.048 570.658 416.823 575.744 408.219 577.531C406.86 577.813 405.291 578.026 403.688 578.156C406.181 576.611 408.158 574.263 410.312 572.312C412.265 570.545 414.315 568.883 415.812 566.688C417.466 564.262 417.875 561.37 418.219 558.5C418.5 556.153 418.605 553.79 418.344 551.438C418.287 550.93 418.153 550.44 418.062 549.938C419.124 549.701 420.206 549.509 421.281 549.531ZM417.031 550.219C417.198 551.165 417.516 552.073 417.562 553.031C417.65 554.823 417.556 556.626 417.344 558.406C417.116 560.318 416.882 562.384 416.156 564.188C414.9 567.309 412.107 569.494 409.688 571.688C407.196 573.947 405.043 576.754 401.906 578.156C401.801 578.203 401.647 578.208 401.531 578.25C401.637 578.251 401.738 578.25 401.844 578.25C401.708 578.25 401.573 578.285 401.438 578.281C400.704 578.538 399.905 578.59 399.125 578.438C399.118 578.385 399.1 578.334 399.094 578.281C399.09 578.251 399.097 578.218 399.094 578.188C399.723 578.302 400.354 578.222 401 578.25C400.343 578.216 399.723 578.06 399.094 577.938C398.219 569.91 400.127 561.049 405.344 554.75C407.027 553.851 408.757 552.967 410.406 552.344C411.821 551.809 413.249 551.312 414.688 550.844C415.444 550.598 416.246 550.432 417.031 550.219ZM401 578.25C401.148 578.258 401.289 578.277 401.438 578.281C401.467 578.271 401.502 578.261 401.531 578.25C401.351 578.247 401.18 578.258 401 578.25ZM435.531 555.156C435.596 556.081 435.653 557.004 435.688 557.844C435.724 558.726 435.782 559.617 435.75 560.5C435.744 560.658 435.697 560.811 435.688 560.969C435.618 560.756 435.645 560.522 435.562 560.312C435.219 559.443 434.806 558.61 434.312 557.812C434.776 556.952 435.224 556.087 435.531 555.156ZM404 555.375C399.327 561.663 397.658 570.128 398.438 577.844C398.178 577.777 397.907 577.742 397.656 577.656C396.773 576.573 396.533 574.837 396.438 573.594C396.124 569.495 396.576 564.411 398.531 560.75C399.749 558.47 401.741 556.755 404 555.375ZM433.781 558.906C434.106 559.482 434.57 559.982 434.812 560.594C435.121 561.371 435.312 562.183 435.438 563C434.832 566.857 433.288 570.544 431.25 573.844C427.624 579.715 422.351 585.007 416.188 588.188C414.976 588.812 413.717 589.358 412.469 589.906C410.66 590.7 408.612 591.547 406.594 591.281C405.627 591.154 404.786 590.7 403.969 590.188C402.626 589.346 401.489 588.27 400.438 587.094C399.802 585.303 399.73 583.371 399.531 581.5C399.459 580.82 399.351 580.144 399.25 579.469C400.624 579.614 402.132 579.124 403.25 578.5C403.354 578.442 403.429 578.342 403.531 578.281C403.789 578.263 404.06 578.305 404.312 578.281C406.011 578.12 407.716 577.868 409.375 577.469C415.593 575.972 421.281 572.703 425.938 568.344C427.615 566.773 429.129 565.049 430.594 563.281C431.734 561.905 432.836 560.443 433.781 558.906ZM435.562 564.875C435.599 566.917 435.285 568.993 434.844 570.938C433.235 578.023 428.979 584.359 423.781 589.344C421.511 591.521 418.951 593.549 416.281 595.219C414.953 596.049 413.421 596.816 411.812 596.75C408.174 596.601 404.654 593.139 402.562 590.531C402.06 589.905 401.704 589.181 401.281 588.5C402.056 589.24 402.839 589.958 403.75 590.531C404.49 590.997 405.263 591.442 406.125 591.625C408.648 592.16 411.259 590.956 413.5 589.938C414.927 589.288 416.329 588.663 417.688 587.875C424.279 584.051 429.867 577.989 433.281 571.188C434.286 569.186 435.037 567.068 435.562 564.875ZM394.375 575.688C394.5 575.825 394.584 575.996 394.719 576.125C395.227 576.612 395.809 576.937 396.406 577.25C396.714 577.931 397.091 578.559 397.719 578.969C397.976 579.137 398.277 579.194 398.562 579.281C398.673 580.049 398.795 580.821 398.875 581.594C399.028 583.073 399.183 584.543 399.5 586C398.329 584.508 397.309 582.882 396.406 581.25C395.726 580.021 394.98 578.768 394.594 577.406C394.434 576.845 394.45 576.261 394.375 575.688ZM397.781 577.812C397.997 577.881 398.217 577.946 398.438 578C398.447 578.092 398.427 578.19 398.438 578.281C398.372 578.248 398.28 578.29 398.219 578.25C398.046 578.137 397.921 577.961 397.781 577.812Z" fill="#ffc8c8" stroke="none"/>
</g>
<g filter="url(#Filter_3)" opacity="1">
<path d="M428.26 558.53C429.244 559.514 430.228 562.467 431.213 561.482C432.604 560.091 431.501 557.525 431.213 555.577C430.932 553.686 431.438 550.094 429.525 550.094C427.698 550.094 429.691 553.757 429.525 555.577C429.044 560.876 428.669 566.976 424.042 570.762C422.719 571.845 420.579 572.214 418.981 571.605C417.213 570.932 416.058 569.065 415.185 567.387C412.446 562.12 411.981 548.496 418.137 545.033C420.676 543.605 423.537 544.832 425.308 546.72C429.162 550.831 430.455 558.693 428.682 564.013C428.175 565.534 427.243 567.282 425.729 567.809C423.601 568.55 420.979 568.43 418.981 567.387C417.356 566.539 416.848 564.387 416.029 562.748C415.153 560.996 414.36 559.173 413.92 557.265C413.507 555.478 412.898 553.514 413.498 551.781C414.252 549.602 415.479 546.858 417.716 546.298C420.304 545.651 423.075 547.369 425.308 548.829C430.761 552.395 431.22 561.676 429.104 566.966C428.278 569.029 427.052 571.071 425.308 572.449C424.182 573.337 422.362 573.954 421.09 573.292C418.444 571.916 416.473 569.409 414.763 566.966C412.385 563.568 411.511 558.353 411.811 554.312C412.001 551.747 412.667 547.287 416.45 547.142C434.098 546.463 429.414 572.965 413.92 572.449C412.034 572.386 410.257 571.183 408.858 569.918C404.853 566.295 404.065 562.487 404.219 557.265C404.426 550.231 408.134 541.642 415.607 539.55C426.803 536.415 430.57 560.731 420.668 564.857C416.217 566.711 412.106 563.464 409.28 560.639C403.288 554.647 396.136 541.296 404.64 534.067C409.122 530.258 417.065 532.896 419.825 537.441C423.338 543.228 423.9 555.567 416.872 559.374C413.144 561.393 407.683 557.777 405.484 555.577C400.904 550.997 392.179 535.73 400.423 530.693C403.419 528.862 408.142 529.021 410.967 531.114C415.775 534.676 418.421 540.977 418.981 546.72C419.255 549.533 419.401 552.628 418.137 555.156C417.231 556.969 415.039 558.021 413.076 558.53C404.512 560.75 397.892 551.404 394.94 545.033C391.389 537.371 390.882 527.59 399.579 523.101C404.353 520.637 411.235 521.665 415.607 524.788C421.268 528.832 424.144 534.778 424.464 541.659C424.597 544.523 424.191 547.6 422.777 550.094C421.64 552.101 419.401 553.376 417.294 554.312C413.246 556.111 408.545 555.17 405.062 552.625C396.812 546.596 394.988 533.882 403.375 527.318C404.814 526.192 406.61 525.262 408.436 525.209C411.717 525.116 415.25 525.336 418.137 526.897C420.767 528.318 422.706 530.972 424.042 533.645C427.906 541.372 427.523 552.292 417.294 553.89C415.054 554.24 412.636 553.924 410.545 553.047C408.134 552.035 406.198 550.117 404.219 548.407C403.088 547.43 402.25 546.158 401.266 545.033" fill="#f2b3b3" fill-rule="evenodd" stroke="none"/>
<path d="M404.688 518.125C402.629 518.192 400.59 518.607 398.688 519.406C397.066 520.087 395.477 521.023 394.156 522.188C393.139 523.085 392.247 524.073 391.469 525.188C389.212 528.422 388.346 532.097 388.438 535.875C388.577 541.609 390.99 547.425 393.969 552.156C393.559 554.276 393.257 556.435 393.219 558.594C393.152 562.368 393.647 566.149 395.094 569.656C396.78 573.745 399.658 577.341 403.156 580.031C404.373 580.967 405.701 581.758 407.094 582.406C408.397 583.572 409.783 584.632 411.344 585.438C414.355 586.992 417.728 587.742 421.094 587.688C424.459 587.633 427.838 586.791 430.812 585.188C433.937 583.504 436.592 581.013 438.719 578.188C439.725 576.851 440.579 575.427 441.312 573.969C441.737 573.61 442.188 573.284 442.594 572.906C445.883 569.84 447.784 565.061 448 560.625C448.087 558.85 447.904 557.12 447.594 555.375C447.488 554.783 447.355 554.18 447.219 553.594C447.184 553.444 447.162 553.275 447.125 553.125C447.115 553.086 447.092 552.991 447.094 553.031C446.879 549.541 446.41 546.11 444.625 543C444.09 542.067 443.488 541.15 442.812 540.312C440.838 537.865 438.189 536.096 435.25 535.062C433.777 533.693 432.197 532.456 430.375 531.5C428.395 530.461 426.239 529.693 424.031 529.312C421.021 524.044 416.119 520.004 409.875 518.625C408.185 518.252 406.418 518.069 404.688 518.125Z" fill="#ffc8c8" stroke="none"/>
</g>
<g filter="url(#Filter_4)" opacity="1">
<path d="M613.421 566.122C614.686 565.841 616.93 566.542 617.217 565.278C617.852 562.482 616.547 559.524 615.53 556.843C614.169 553.255 610.135 550.83 606.251 551.36C604.872 551.548 604.144 553.207 603.298 554.312C602.302 555.615 601.011 556.909 600.768 558.53C600.55 559.982 600.754 562.028 602.033 562.748C603.631 563.646 605.777 562.906 607.516 562.326C610.082 561.471 612.499 560.121 614.686 558.53C619.697 554.885 627.101 547.762 620.591 541.659C610.029 531.757 600.178 543.257 597.815 553.89C597.509 555.27 597.635 556.83 598.237 558.108C600.34 562.577 608.387 563.015 612.156 561.061C618.699 557.668 622.776 548.202 619.748 541.237C619.152 539.866 617.823 538.647 616.373 538.285C610.045 536.703 603.337 545.689 600.768 550.094C600.028 551.362 598.846 552.999 599.502 554.312C600.792 556.892 603.249 558.927 605.829 560.217C613.795 564.2 627.004 557.491 627.761 548.407C628.289 542.073 620.521 539.009 615.53 538.706C607.62 538.227 600.142 542.695 596.971 550.094C591.469 562.933 611.839 568.235 620.591 566.122C622.259 565.719 623.982 564.673 624.809 563.17C627.065 559.067 623.554 552.841 621.435 550.094C614.973 541.718 606.132 537.38 596.55 543.768C592.832 546.246 589.264 551.484 588.536 555.999C587.24 564.032 593.357 569.138 600.346 571.605C603.094 572.575 610.947 574.079 613.843 571.183C615.541 569.485 616.253 566.834 616.373 564.435C616.544 561.018 616.05 557.449 614.686 554.312C612.11 548.387 606.379 542.531 600.346 539.972C595.519 537.924 592.397 538.664 589.379 542.924C582.417 552.753 587.623 566.087 597.815 571.183C602.678 573.615 609.005 574.353 613.843 571.183C615.936 569.811 617.71 567.659 618.482 565.278C619.481 562.2 619.689 558.718 618.904 555.577C617.36 549.402 611.82 543.81 605.829 541.659C603.169 540.704 600.13 540.111 597.393 540.815C594.86 541.467 592.916 543.606 591.067 545.455C589.495 547.027 587.909 548.809 587.271 550.938C585.628 556.413 588.062 561.852 591.91 565.7C599.294 573.084 612.389 576.32 622.278 572.87C625.041 571.907 627.794 570.222 629.448 567.809C631.36 565.021 632.471 561.488 632.401 558.108C632.324 554.419 630.904 550.741 629.027 547.564C627.155 544.396 624.496 541.591 621.435 539.55C618.845 537.824 615.681 536.37 612.577 536.597C609.442 536.827 606.397 538.625 604.142 540.815C601.288 543.588 599.22 547.215 597.815 550.938C596.354 554.809 595.706 559.032 595.706 563.17C595.706 566.754 596.403 570.419 597.815 573.714C600.534 580.058 605.405 583.316 612.156 584.258C615.232 584.688 618.591 584.663 621.435 583.415C624.632 582.011 627.598 579.628 629.448 576.666C631.97 572.632 633.651 567.907 634.088 563.17C634.519 558.497 633.847 553.555 631.979 549.251C630.473 545.781 627.547 542.894 624.387 540.815C619.171 537.384 610.769 539.528 605.829 543.346C598.099 549.319 591.025 560.839 596.128 570.762C598.929 576.208 605.639 579.853 611.734 580.462C615.521 580.841 619.588 581.033 623.122 579.619C626.934 578.094 630.359 575.312 632.823 572.027C635.992 567.8 638.602 562.88 639.571 557.686C640.63 552.013 640.499 545.886 638.728 540.393C637.534 536.693 634.347 533.729 631.136 531.536C628.344 529.63 624.812 528.451 621.435 528.584C617.303 528.746 613.252 530.395 609.625 532.38C605.676 534.54 602.133 537.508 599.08 540.815C595.149 545.075 593.141 552.151 594.863 557.686C598.273 568.647 608.037 577.838 619.748 578.775C626.268 579.297 634.218 575.398 637.04 569.496C638.766 565.889 639.525 561.668 639.149 557.686C638.794 553.918 637.287 550.105 634.932 547.142C632.724 544.364 629.475 542.25 626.074 541.237C622.571 540.193 618.603 540.167 615.108 541.237C611.417 542.367 608.05 544.75 605.407 547.564C602.273 550.9 602.229 556.529 602.876 561.061" fill="#f2b3b3" fill-rule="evenodd" stroke="none"/>
<path d="M612.219 522.188C605.927 522.235 600.471 524.649 595.906 528.344C594.845 528.346 593.781 528.39 592.719 528.594C587.722 529.554 583.668 532.782 580.844 536.906C576.961 542.576 575.381 549.516 576.281 556.312C576.139 558.656 576.187 560.993 576.719 563.281C577.377 566.113 578.588 568.815 580.219 571.219C581.963 573.788 584.183 575.986 586.688 577.812C589.772 580.063 593.336 581.762 597 582.875C601.741 587.755 608.41 590.201 615.25 590.188C618.134 590.182 621.012 589.711 623.656 588.531C629.914 585.74 633.96 580.79 636.562 574.562C637.196 573.047 637.674 571.457 638.094 569.875C639.706 567.113 641.113 564.238 641.969 561.156C643.208 556.694 643.505 551.881 643.062 547.281C642.74 543.923 642.08 540.315 640.469 537.312C637.884 532.495 632.412 528.392 627.094 526.844C622.594 523.917 617.347 522.149 612.219 522.188Z" fill="#ffc8c8" stroke="none"/>
</g>
<g filter="url(#Filter_5)" opacity="1">
<path d="M632.823 570.34C633.947 571.464 634.608 573.798 636.197 573.714C638.192 573.609 639.873 571.669 640.836 569.918C641.582 568.563 641.86 566.438 640.836 565.278C639.334 563.575 636.734 562.29 634.51 562.748C631.34 563.4 629.157 566.388 626.496 568.231C623.674 570.185 620.971 572.317 618.06 574.136C616.461 575.135 613.369 578.516 612.999 576.666C612.369 573.517 615.602 570.792 616.795 567.809C620.188 559.326 621.676 555.932 622.7 546.72C622.856 545.316 623.513 543.189 622.278 542.502C621.119 541.858 619.767 543.604 618.904 544.611C616.34 547.602 614.414 551.085 612.156 554.312C609.494 558.115 606.675 561.81 604.142 565.7C602.733 567.863 598.198 571.017 600.346 572.449C602.593 573.947 605.188 569.644 606.672 567.387C610.72 561.235 612.461 550.368 612.156 543.346C612.059 541.125 612.226 536.583 610.047 537.019C606.147 537.799 603.975 542.257 601.611 545.455C597.006 551.686 594.552 558.728 592.754 566.122C592.284 568.054 592.167 570.055 591.91 572.027C591.745 573.289 592.058 576.962 591.488 575.823C589.2 571.246 590.406 563.671 591.91 559.374C592.867 556.641 593.98 553.722 596.128 551.781C598.555 549.59 601.732 547.896 604.985 547.564C608.963 547.158 613.233 547.855 616.795 549.673C620.427 551.526 623.079 554.946 625.652 558.108C628.042 561.044 630.294 564.241 631.557 567.809C632.739 571.146 633.748 574.937 632.823 578.354C631.793 582.156 629.184 585.636 626.074 588.054C622.591 590.763 618.229 592.636 613.843 593.116C608.901 593.656 603.735 592.752 599.08 591.007C594.516 589.295 590.479 586.245 586.849 582.993C581.135 577.875 576.4 569.99 576.726 562.326C576.864 559.083 577.907 555.767 579.679 553.047C581.957 549.548 585.229 546.739 588.536 544.189C592.031 541.496 595.663 538.588 599.924 537.441C603.329 536.524 607.185 537 610.468 538.285C613.925 539.637 616.814 542.3 619.326 545.033C621.675 547.59 623.845 550.554 624.809 553.89C625.745 557.132 626.179 560.93 624.809 564.013C622.615 568.949 619.035 573.462 614.686 576.666C610.712 579.595 605.699 581.489 600.768 581.728C596.503 581.934 592.311 579.926 588.536 577.932C581.251 574.083 575.128 566.235 573.774 558.108C573.034 553.668 573.031 548.959 574.195 544.611C575.206 540.838 577.461 537.368 580.1 534.489C583.75 530.507 588.032 526.989 592.754 524.366C597.029 521.991 601.783 519.646 606.672 519.726C610.955 519.797 615.093 522.169 618.482 524.788C621.508 527.126 623.895 530.483 625.231 534.067C626.662 537.908 627.367 542.293 626.496 546.298C625.186 552.325 622.567 558.209 618.904 563.17C615.642 567.586 611.161 571.259 606.251 573.714C602.426 575.626 597.872 575.905 593.597 575.823C588.022 575.716 581.364 571.859 579.679 566.544C578.613 563.183 578.21 559.47 578.835 555.999C580.2 548.414 586.309 541.363 593.175 537.863C596.823 536.003 600.897 534.266 604.985 534.489C609.078 534.712 613.058 536.717 616.373 539.128C619.445 541.362 621.905 544.559 623.544 547.985C626.726 554.64 625.077 564.062 620.591 569.918C617.92 573.405 614.397 576.389 610.468 578.354C606.595 580.29 602.145 581.381 597.815 581.306C593.722 581.235 589.588 579.914 586.005 577.932C582.785 576.151 579.905 573.483 577.991 570.34C575.842 566.808 574.413 562.659 574.195 558.53C573.977 554.372 574.743 549.959 576.726 546.298C578.573 542.888 581.79 540.202 585.162 538.285C589.143 536.021 593.657 534.067 598.237 534.067C602.816 534.067 607.512 535.728 611.312 538.285C615.526 541.119 618.723 545.378 621.435 549.673C623.86 553.513 625.978 557.813 626.496 562.326C626.999 566.712 626.274 571.41 624.387 575.401C622.471 579.455 619.213 582.968 615.53 585.524C612.095 587.907 607.869 589.232 603.72 589.742C596.173 590.668 587.347 587.755 582.209 582.15C579.957 579.693 578.411 576.517 577.57 573.292C576.682 569.888 575.951 566.056 577.148 562.748C578.507 558.99 581.757 556.128 584.74 553.469C588.291 550.303 592.095 547.125 596.55 545.455C600.245 544.069 604.559 543.547 608.36 544.611C612.042 545.642 615.013 548.579 617.639 551.36C619.89 553.744 621.819 556.637 622.7 559.795C623.569 562.91 623.952 566.515 622.7 569.496C620.838 573.93 617.537 577.806 613.843 580.884C610.606 583.581 606.638 585.865 602.455 586.367C599.099 586.77 595.597 585.243 592.754 583.415C589.491 581.318 586.813 578.257 584.74 574.979C582.381 571.25 580.613 567.06 579.679 562.748C578.755 558.486 578.199 553.903 579.257 549.673C580.117 546.23 582.505 543.168 585.162 540.815C587.61 538.647 590.756 536.815 594.019 536.597C597.526 536.364 601.117 537.76 604.142 539.55C608.171 541.935 611.562 545.342 614.686 548.829C617.653 552.141 620.488 555.726 622.278 559.795C623.656 562.926 624.843 566.612 623.965 569.918C622.875 574.026 619.994 577.663 616.795 580.462C613.054 583.736 608.581 586.597 603.72 587.633C599.558 588.52 595.007 587.551 591.067 585.946C587.161 584.354 583.851 581.41 580.944 578.354C578.283 575.556 575.925 572.285 574.617 568.653C573.324 565.059 572.771 561.04 573.352 557.265C573.936 553.469 575.539 549.675 577.991 546.72C581.188 542.867 585.296 539.623 589.801 537.441C594.497 535.167 599.831 532.835 604.985 533.645C610.464 534.506 615.298 538.268 619.326 542.081C623.376 545.913 626.482 550.843 628.605 555.999C630.506 560.616 631.768 565.809 631.136 570.762C630.833 573.128 628.41 575.336 626.074 575.823C624.162 576.221 622.7 573.855 621.013 572.87" fill="#f2b3b3" fill-rule="evenodd" stroke="none"/>
<path d="M604.844 509.531C599.171 509.837 593.851 512.024 588.875 514.625C583.112 517.637 577.884 521.466 573.312 526.094C569.671 529.781 566.565 534.026 564.656 538.875C563.132 542.748 562.428 546.914 562.281 551.062C562.141 555.036 562.463 559.107 563.438 562.969C563.54 563.375 563.727 563.754 563.844 564.156C564.119 573.337 568.15 582.173 574.094 589.062C576.245 591.556 578.68 593.812 581.219 595.906C584.684 598.765 588.446 601.3 592.562 603.125C596.29 604.777 600.26 605.937 604.281 606.594C606.704 606.989 609.168 607.169 611.625 607.156C614.082 607.144 616.557 606.925 618.969 606.438C629.423 604.325 639.241 597.547 644.219 588.031C653.007 584.012 658.93 573.776 657.375 564.188C656.801 560.646 655.271 557.516 653 554.75C651.845 553.344 650.411 552.089 648.938 551.031C645.851 548.815 642.265 547.503 638.562 546.969C638.795 544.934 638.929 542.894 638.531 540.844C638.347 539.896 638.12 538.935 637.781 538.031C637.356 536.896 636.905 535.771 636.25 534.75C635.982 534.333 635.611 533.991 635.312 533.594C634.034 528.932 631.872 524.516 628.781 520.906C626.293 518 623.216 515.582 619.938 513.625C615.353 510.889 610.211 509.242 604.844 509.531Z" fill="#ffc8c8" stroke="none"/>
</g>
<g filter="url(#Filter_6)" opacity="1">
<path d="M407.171 542.924C412.871 542.544 418.75 542.101 421.09 548.829C422.89 554.005 420.954 562.219 414.341 562.748C409.806 563.111 406.398 559.211 404.219 555.999C402.807 553.918 401.437 551.695 400.844 549.251C400.281 546.928 399.746 544.203 400.844 542.081C402.085 539.682 404.689 538.083 407.171 537.019C409.785 535.899 412.844 535.08 415.607 535.754C418.98 536.577 421.907 538.888 424.464 541.237C427.197 543.748 429.698 546.706 431.213 550.094C432.731 553.493 433.828 557.373 433.321 561.061C432.791 564.923 430.81 568.656 428.26 571.605C426.115 574.085 422.997 575.836 419.825 576.666C416.829 577.451 413.468 577.267 410.545 576.245C404.701 574.199 400.515 567.835 398.736 561.904C397.964 559.331 397.12 556.463 397.892 553.89C398.52 551.796 400.538 550.151 402.532 549.251C407.313 547.091 415.458 547.678 419.825 550.516C423.076 552.63 425.937 555.571 427.838 558.952C429.845 562.52 431.213 566.667 431.213 570.762C431.213 574.185 429.954 577.77 427.838 580.462C426.547 582.106 424.023 582.51 421.933 582.571C419.067 582.656 416.035 582.22 413.498 580.884C407.525 577.74 403.641 570.896 401.688 564.435C400.865 561.713 399.865 558.787 400.423 555.999C400.794 554.145 402.368 552.171 404.219 551.781C405.823 551.444 407.584 552.912 408.436 554.312C409.713 556.41 409.561 559.092 410.124 561.482" fill="#f2b3b3" fill-rule="evenodd" stroke="none"/>
<path d="M411.625 522.406C409.848 522.484 408.094 522.745 406.375 523.125C397.508 525.086 389.142 530.397 386.531 539.562C385.913 541.734 385.693 543.988 385.75 546.25C385.807 548.512 386.165 550.796 386.688 552.969C387.554 556.568 389.074 559.868 390.969 563.031C391.169 563.366 391.447 563.64 391.656 563.969C391.834 564.634 391.955 565.322 392.156 565.969C395.173 575.653 401.969 583.835 412.312 585.781C414.323 586.16 416.395 586.304 418.438 586.188C419.827 586.109 421.176 585.904 422.531 585.594C424.909 585.586 427.267 585.26 429.156 583.906C429.854 583.407 430.406 582.756 430.938 582.094C432.705 580.979 434.326 579.679 435.781 578.156C440.674 573.038 444.141 566.376 444.469 559.219C444.606 556.219 444.2 553.226 443.5 550.312C441.458 541.816 436.436 534.207 429.562 528.812C425.88 525.922 421.586 523.548 416.938 522.719C415.198 522.409 413.402 522.329 411.625 522.406Z" fill="#ffc8c8" stroke="none"/>
</g>
</g>
</svg>
