<?xml version="1.0" encoding="UTF-8" standalone="no"?>
<!DOCTYPE svg PUBLIC "-//W3C//DTD SVG 1.1//EN" "http://www.w3.org/Graphics/SVG/1.1/DTD/svg11.dtd"
[
<!ATTLIST g
  xmlns:vectornator CDATA #FIXED "http://vectornator.io"
  vectornator:layerName CDATA #IMPLIED >
<!ATTLIST g
  xmlns:vectornator CDATA #FIXED "http://vectornator.io"
  vectornator:mask CDATA #IMPLIED >
<!ATTLIST text
  xmlns:vectornator CDATA #FIXED "http://vectornator.io"
  vectornator:width CDATA #IMPLIED >
<!ATTLIST text
  xmlns:vectornator CDATA #FIXED "http://vectornator.io"
  vectornator:text CDATA #IMPLIED >

<!ATTLIST path
  xmlns:vectornator CDATA #FIXED "http://vectornator.io"
  vectornator:blendMode CDATA #IMPLIED >
<!ATTLIST path
  xmlns:vectornator CDATA #FIXED "http://vectornator.io"
  vectornator:shadowColor CDATA #IMPLIED >
<!ATTLIST path
  xmlns:vectornator CDATA #FIXED "http://vectornator.io"
  vectornator:shadowOpacity CDATA #IMPLIED >
<!ATTLIST path
  xmlns:vectornator CDATA #FIXED "http://vectornator.io"
  vectornator:shadowRadius CDATA #IMPLIED >
<!ATTLIST path
  xmlns:vectornator CDATA #FIXED "http://vectornator.io"
  vectornator:shadowOffset CDATA #IMPLIED >
<!ATTLIST path
  xmlns:vectornator CDATA #FIXED "http://vectornator.io"
  vectornator:shadowAngle CDATA #IMPLIED >

<!ATTLIST image
  xmlns:vectornator CDATA #FIXED "http://vectornator.io"
  vectornator:blendMode CDATA #IMPLIED >
<!ATTLIST image
  xmlns:vectornator CDATA #FIXED "http://vectornator.io"
  vectornator:shadowColor CDATA #IMPLIED >
<!ATTLIST image
  xmlns:vectornator CDATA #FIXED "http://vectornator.io"
  vectornator:shadowOpacity CDATA #IMPLIED >
<!ATTLIST image
  xmlns:vectornator CDATA #FIXED "http://vectornator.io"
  vectornator:shadowRadius CDATA #IMPLIED >
<!ATTLIST image
  xmlns:vectornator CDATA #FIXED "http://vectornator.io"
  vectornator:shadowOffset CDATA #IMPLIED >
<!ATTLIST image
  xmlns:vectornator CDATA #FIXED "http://vectornator.io"
  vectornator:shadowAngle CDATA #IMPLIED >

<!ATTLIST g
  xmlns:vectornator CDATA #FIXED "http://vectornator.io"
  vectornator:blendMode CDATA #IMPLIED >
<!ATTLIST g
  xmlns:vectornator CDATA #FIXED "http://vectornator.io"
  vectornator:shadowColor CDATA #IMPLIED >
<!ATTLIST g
  xmlns:vectornator CDATA #FIXED "http://vectornator.io"
  vectornator:shadowOpacity CDATA #IMPLIED >
<!ATTLIST g
  xmlns:vectornator CDATA #FIXED "http://vectornator.io"
  vectornator:shadowRadius CDATA #IMPLIED >
<!ATTLIST g
  xmlns:vectornator CDATA #FIXED "http://vectornator.io"
  vectornator:shadowOffset CDATA #IMPLIED >
<!ATTLIST g
  xmlns:vectornator CDATA #FIXED "http://vectornator.io"
  vectornator:shadowAngle CDATA #IMPLIED >

<!ENTITY % SVG.filter.extra.content  "| feDropShadow" >
<!ELEMENT feDropShadow EMPTY>
<!ATTLIST feDropShadow
  xmlns:svg CDATA #FIXED "http://www.w3.org/Graphics/SVG/1.1/DTD/svg11.dtd"
  dx CDATA #IMPLIED>
<!ATTLIST feDropShadow
  xmlns:svg CDATA #FIXED "http://www.w3.org/Graphics/SVG/1.1/DTD/svg11.dtd"
  dy CDATA #IMPLIED>
<!ATTLIST feDropShadow
  xmlns:svg CDATA #FIXED "http://www.w3.org/Graphics/SVG/1.1/DTD/svg11.dtd"
  stdDeviation CDATA #IMPLIED>
<!ATTLIST feDropShadow
  xmlns:svg CDATA #FIXED "http://www.w3.org/Graphics/SVG/1.1/DTD/svg11.dtd"
  flood-opacity CDATA #IMPLIED>
<!ATTLIST feDropShadow
  xmlns:svg CDATA #FIXED "http://www.w3.org/Graphics/SVG/1.1/DTD/svg11.dtd"
  in CDATA #IMPLIED>
<!ATTLIST feDropShadow
  xmlns:svg CDATA #FIXED "http://www.w3.org/Graphics/SVG/1.1/DTD/svg11.dtd"
  result CDATA #IMPLIED>
<!ATTLIST feDropShadow
  xmlns:svg CDATA #FIXED "http://www.w3.org/Graphics/SVG/1.1/DTD/svg11.dtd"
  flood-color CDATA #IMPLIED>
]
>
<!-- Created with Vectornator (http://vectornator.io/) -->
<svg height="100%" stroke-miterlimit="10" style="fill-rule:nonzero;clip-rule:evenodd;stroke-linecap:round;stroke-linejoin:round;" version="1.1" viewBox="0 0 2048 2048" width="100%" xml:space="preserve" xmlns="http://www.w3.org/2000/svg" xmlns:vectornator="http://vectornator.io" xmlns:xlink="http://www.w3.org/1999/xlink">
<defs>
<filter color-interpolation-filters="sRGB" filterUnits="userSpaceOnUse" height="334.926" id="Filter" width="353.598" x="696.593" y="673">
<feGaussianBlur in="SourceGraphic" result="Blur" stdDeviation="50"/>
</filter>
<filter color-interpolation-filters="sRGB" filterUnits="userSpaceOnUse" height="325.135" id="Filter_2" width="362.5" x="963.996" y="659.291">
<feGaussianBlur in="SourceGraphic" result="Blur" stdDeviation="50"/>
</filter>
</defs>
<g id="Layer-1" vectornator:layerName="Layer 1">
<path d="M944.64 544.256C920.405 545.28 899.072 546.645 880.64 548.352C862.208 550.059 839.168 553.131 811.52 557.568C783.872 562.005 763.733 565.76 751.104 568.832C738.475 571.904 724.48 576.171 709.12 581.632C693.76 587.093 678.4 593.579 663.04 601.088C647.68 608.597 631.637 617.131 614.912 626.688C598.187 636.245 585.045 644.267 575.488 650.752C565.931 657.237 553.813 664.235 539.136 671.744C524.459 679.253 506.368 685.739 484.864 691.2C463.36 696.661 438.101 705.365 409.088 717.312C380.075 729.259 360.107 736.427 349.184 738.816C338.261 741.205 327.851 742.571 317.952 742.912C308.053 743.253 300.885 743.936 296.448 744.96C292.011 745.984 286.549 747.691 280.064 750.08C273.579 752.469 266.923 755.712 260.096 759.808C253.269 763.904 247.637 768 243.2 772.096C238.763 776.192 234.496 780.971 230.4 786.432C226.304 791.893 222.208 799.573 218.112 809.472C214.016 819.371 211.115 829.44 209.408 839.68C207.701 849.92 206.848 861.696 206.848 875.008C206.848 888.32 207.531 898.389 208.896 905.216C210.261 912.043 213.845 922.795 219.648 937.472C225.451 952.149 232.448 965.461 240.64 977.408C248.832 989.355 258.901 1001.47 270.848 1013.76C282.795 1026.05 295.936 1037.65 310.272 1048.58C324.608 1059.5 337.579 1067.52 349.184 1072.64C360.789 1077.76 378.709 1083.56 402.944 1090.05C427.179 1096.53 455.168 1102.51 486.912 1107.97C518.656 1113.43 554.155 1118.38 593.408 1122.82C632.661 1127.25 682.667 1130.33 743.424 1132.03C804.181 1133.74 887.296 1134.59 992.768 1134.59C1098.24 1134.59 1168.21 1133.74 1202.69 1132.03C1237.16 1130.33 1282.22 1128.96 1337.86 1127.94C1393.49 1126.91 1449.3 1123.84 1505.28 1118.72C1561.26 1113.6 1600.85 1109.33 1624.06 1105.92C1647.27 1102.51 1667.24 1098.75 1683.97 1094.66C1700.69 1090.56 1716.57 1085.61 1731.58 1079.81C1746.6 1074.01 1757.87 1068.54 1765.38 1063.42C1772.89 1058.3 1778.35 1054.04 1781.76 1050.62C1785.17 1047.21 1789.1 1042.09 1793.54 1035.26C1797.97 1028.44 1802.41 1020.42 1806.85 1011.2C1811.29 1001.98 1813.85 992.427 1814.53 982.528C1815.21 972.629 1814.36 963.413 1811.97 954.88C1809.58 946.347 1806.34 937.301 1802.24 927.744C1798.14 918.187 1788.42 905.728 1773.06 890.368C1757.7 875.008 1746.26 860.331 1738.75 846.336C1731.24 832.341 1724.25 821.248 1717.76 813.056C1711.27 804.864 1703.77 793.941 1695.23 780.288C1686.7 766.635 1675.78 754.347 1662.46 743.424C1649.15 732.501 1632.09 719.872 1611.26 705.536C1590.44 691.2 1568.6 677.717 1545.73 665.088C1522.86 652.459 1495.21 638.635 1462.78 623.616C1430.36 608.597 1402.54 596.992 1379.33 588.8C1356.12 580.608 1334.1 573.611 1313.28 567.808C1292.46 562.005 1271.47 557.056 1250.3 552.96C1229.14 548.864 1212.93 546.304 1201.66 545.28C1190.4 544.256 1150.81 543.573 1082.88 543.232C1014.95 542.891 968.875 543.232 944.64 544.256Z" fill="#000000" fill-rule="evenodd" opacity="1" stroke="#000000" stroke-linecap="round" stroke-linejoin="round" stroke-width="1"/>
<path d="M960.512 545.28C935.253 546.304 911.189 547.84 888.32 549.888C865.451 551.936 834.56 556.373 795.648 563.2C756.736 570.027 730.112 576 715.776 581.12C701.44 586.24 684.885 593.237 666.112 602.112C647.339 610.987 625.664 622.933 601.088 637.952C576.512 652.971 557.739 663.723 544.768 670.208C531.797 676.693 524.971 680.448 524.288 681.472C523.605 682.496 511.829 685.909 488.96 691.712C466.091 697.515 439.979 706.56 410.624 718.848C381.269 731.136 360.448 738.475 348.16 740.864C335.872 743.253 323.413 744.96 310.784 745.984C298.155 747.008 287.915 749.056 280.064 752.128C272.213 755.2 265.216 758.784 259.072 762.88C252.928 766.976 247.467 771.243 242.688 775.68C237.909 780.117 234.155 784.213 231.424 787.968C228.693 791.723 225.621 797.355 222.208 804.864C218.795 812.373 216.405 818.688 215.04 823.808C213.675 828.928 212.309 836.608 210.944 846.848C209.579 857.088 208.896 866.475 208.896 875.008C208.896 883.541 209.749 892.587 211.456 902.144C213.163 911.701 217.088 923.989 223.232 939.008C229.376 954.027 235.691 966.315 242.176 975.872C248.661 985.429 257.536 996.181 268.8 1008.13C280.064 1020.07 292.011 1031.17 304.64 1041.41C317.269 1051.65 330.581 1060.18 344.576 1067.01C358.571 1073.83 376.491 1080.32 398.336 1086.46C420.181 1092.61 444.757 1098.07 472.064 1102.85C499.371 1107.63 534.699 1112.75 578.048 1118.21C621.397 1123.67 651.093 1126.91 667.136 1127.94C683.179 1128.96 715.605 1129.98 764.416 1131.01C813.227 1132.03 890.027 1132.54 994.816 1132.54C1099.61 1132.54 1169.75 1131.69 1205.25 1129.98C1240.75 1128.28 1286.31 1126.91 1341.95 1125.89C1397.59 1124.86 1443.67 1122.3 1480.19 1118.21C1516.71 1114.11 1543.34 1111.55 1560.06 1110.53C1576.79 1109.5 1597.61 1107.29 1622.53 1103.87C1647.45 1100.46 1667.24 1097.05 1681.92 1093.63C1696.6 1090.22 1712.47 1085.1 1729.54 1078.27C1746.6 1071.45 1759.23 1065.13 1767.42 1059.33C1775.62 1053.53 1782.1 1047.38 1786.88 1040.9C1791.66 1034.41 1796.78 1026.22 1802.24 1016.32C1807.7 1006.42 1811.11 998.571 1812.48 992.768C1813.85 986.965 1814.53 982.016 1814.53 977.92C1814.53 973.824 1813.33 967.168 1810.94 957.952C1808.55 948.736 1804.97 938.837 1800.19 928.256C1795.41 917.675 1785.69 905.216 1771.01 890.88C1756.33 876.544 1745.07 862.037 1737.22 847.36C1729.37 832.683 1722.37 821.589 1716.22 814.08C1710.08 806.571 1704.62 798.549 1699.84 790.016C1695.06 781.483 1690.28 773.973 1685.5 767.488C1680.73 761.003 1671.85 752.64 1658.88 742.4C1645.91 732.16 1630.55 720.896 1612.8 708.608C1595.05 696.32 1573.38 683.008 1547.78 668.672C1522.18 654.336 1498.45 641.877 1476.61 631.296C1454.76 620.715 1432.23 610.816 1409.02 601.6C1385.81 592.384 1363.11 584.363 1340.93 577.536C1318.74 570.709 1296.73 564.907 1274.88 560.128C1253.03 555.349 1233.92 551.765 1217.54 549.376C1201.15 546.987 1185.96 545.451 1171.97 544.768C1157.97 544.085 1125.55 543.744 1074.69 543.744C1023.83 543.744 985.771 544.256 960.512 545.28Z" fill="#8e9090" fill-rule="evenodd" opacity="1" stroke="#908e8e" stroke-linecap="round" stroke-linejoin="round" stroke-width="1"/>
<path d="M932.352 715.776C929.28 717.141 926.208 719.531 923.136 722.944C920.064 726.357 917.504 730.795 915.456 736.256C913.408 741.717 912.384 747.349 912.384 753.152C912.384 758.955 912.896 764.075 913.92 768.512C914.944 772.949 916.821 777.557 919.552 782.336C922.283 787.115 926.037 791.211 930.816 794.624C935.595 798.037 940.203 799.915 944.64 800.256C949.077 800.597 953.003 800.085 956.416 798.72C959.829 797.355 963.243 794.965 966.656 791.552C970.069 788.139 972.629 784.384 974.336 780.288C976.043 776.192 977.237 770.901 977.92 764.416C978.603 757.931 977.92 751.104 975.872 743.936C973.824 736.768 970.581 730.624 966.144 725.504C961.707 720.384 957.952 717.141 954.88 715.776C951.808 714.411 948.053 713.728 943.616 713.728C939.179 713.728 935.424 714.411 932.352 715.776Z" fill="#000000" fill-rule="evenodd" opacity="1" stroke="#000000" stroke-linecap="round" stroke-linejoin="round" stroke-width="1"/>
<path d="M1086.98 720.384C1083.22 722.091 1079.98 724.48 1077.25 727.552C1074.52 730.624 1072.13 734.891 1070.08 740.352C1068.03 745.813 1066.84 751.445 1066.5 757.248C1066.15 763.051 1066.67 768.512 1068.03 773.632C1069.4 778.752 1071.96 784.043 1075.71 789.504C1079.47 794.965 1082.88 798.72 1085.95 800.768C1089.02 802.816 1093.63 804.011 1099.78 804.352C1105.92 804.693 1110.36 804.181 1113.09 802.816C1115.82 801.451 1119.06 798.549 1122.82 794.112C1126.57 789.675 1129.13 785.067 1130.5 780.288C1131.86 775.509 1132.37 769.195 1132.03 761.344C1131.69 753.493 1130.67 747.349 1128.96 742.912C1127.25 738.475 1124.86 734.379 1121.79 730.624C1118.72 726.869 1115.48 723.968 1112.06 721.92C1108.65 719.872 1104.55 718.677 1099.78 718.336C1095 717.995 1090.73 718.677 1086.98 720.384Z" fill="#000000" fill-rule="evenodd" opacity="1" stroke="#000000" stroke-linecap="round" stroke-linejoin="round" stroke-width="1"/>
<path d="M937.984 721.92C934.571 723.285 931.328 725.504 928.256 728.576C925.184 731.648 922.965 734.72 921.6 737.792C920.235 740.864 919.552 743.936 919.552 747.008C919.552 750.08 920.064 752.64 921.088 754.688C922.112 756.736 923.477 758.272 925.184 759.296C926.891 760.32 929.109 760.832 931.84 760.832C934.571 760.832 937.643 759.808 941.056 757.76C942.763 756.736 944.469 755.712 946.176 754.688C946.347 756.053 946.517 757.419 946.688 758.784C947.029 761.515 948.565 763.051 951.296 763.392C954.027 763.733 956.075 763.221 957.44 761.856C958.805 760.491 959.488 758.784 959.488 756.736C959.488 754.688 958.123 752.981 955.392 751.616C952.661 750.251 951.296 749.227 951.296 748.544C951.296 747.861 952.149 746.155 953.856 743.424C955.563 740.693 956.416 737.451 956.416 733.696C956.416 729.941 955.563 727.04 953.856 724.992C952.149 722.944 949.931 721.579 947.2 720.896C944.469 720.213 941.397 720.555 937.984 721.92Z" fill="#ffffff" fill-rule="evenodd" opacity="1" stroke="#ffffff" stroke-linecap="round" stroke-linejoin="round" stroke-width="1"/>
<path d="M1085.44 729.6C1081.34 732.672 1078.27 736.597 1076.22 741.376C1074.18 746.155 1073.49 750.592 1074.18 754.688C1074.86 758.784 1076.39 761.685 1078.78 763.392C1081.17 765.099 1084.76 765.44 1089.54 764.416C1094.31 763.392 1098.24 761.173 1101.31 757.76C1104.38 754.347 1106.43 751.104 1107.46 748.032C1108.48 744.96 1108.65 741.035 1107.97 736.256C1107.29 731.477 1105.92 728.405 1103.87 727.04C1101.82 725.675 1099.26 724.992 1096.19 724.992C1093.12 724.992 1089.54 726.528 1085.44 729.6Z" fill="#ffffff" fill-rule="evenodd" opacity="1" stroke="#ffffff" stroke-linecap="round" stroke-linejoin="round" stroke-width="1"/>
<path d="M1104.9 756.736C1102.85 758.101 1101.82 759.979 1101.82 762.368C1101.82 764.757 1102.68 766.635 1104.38 768C1106.09 769.365 1107.63 770.048 1108.99 770.048C1110.36 770.048 1111.72 769.536 1113.09 768.512C1114.45 767.488 1115.31 765.781 1115.65 763.392C1115.99 761.003 1115.65 759.125 1114.62 757.76C1113.6 756.395 1112.23 755.541 1110.53 755.2C1108.82 754.859 1106.94 755.371 1104.9 756.736Z" fill="#ffffff" fill-rule="evenodd" opacity="1" stroke="#ffffff" stroke-linecap="round" stroke-linejoin="round" stroke-width="1"/>
<path d="M1012.22 837.632C1009.83 838.315 1007.1 839.851 1004.03 842.24C1000.96 844.629 998.912 847.019 997.888 849.408C996.864 851.797 996.693 854.869 997.376 858.624C998.059 862.379 999.424 865.28 1001.47 867.328C1003.52 869.376 1006.25 871.083 1009.66 872.448C1013.08 873.813 1016.83 874.496 1020.93 874.496C1025.02 874.496 1029.29 873.643 1033.73 871.936C1038.17 870.229 1041.58 867.84 1043.97 864.768C1046.36 861.696 1047.21 857.6 1046.53 852.48C1045.85 847.36 1043.11 843.435 1038.34 840.704C1033.56 837.973 1028.61 836.608 1023.49 836.608C1018.37 836.608 1014.61 836.949 1012.22 837.632Z" fill="#000000" fill-rule="evenodd" opacity="1" stroke="#000000" stroke-linecap="round" stroke-linejoin="round" stroke-width="1"/>
</g>
<g id="Layer-2" vectornator:layerName="Layer 2">
<g filter="url(#Filter)" opacity="1">
<path d="M862.815 859.654C861.521 855.773 870.98 855.728 874.825 857.126C879.035 858.657 881.578 863.281 883.674 867.24C885.492 870.673 888.358 875.385 886.202 878.617C883.762 882.278 877.954 882.179 873.56 882.41C869.681 882.614 865.94 880.87 862.183 879.881C857.928 878.762 853.083 878.699 849.541 876.089C844.719 872.536 838.435 868.166 838.163 862.183C837.903 856.457 844.224 852.329 848.277 848.277C854.872 841.681 865.775 837.165 874.825 839.427C879.034 840.479 883.361 842.47 886.202 845.748C889.175 849.178 890.617 853.897 891.259 858.39C891.918 862.998 893.406 869.129 889.995 872.296C885.933 876.068 879.098 875.065 873.56 874.825C869.165 874.634 864.973 872.739 860.919 871.032C856.92 869.348 852.318 868.044 849.541 864.711C845.678 860.076 840.674 854.172 841.956 848.277C843.286 842.155 850.304 838.525 855.862 835.635C861.215 832.851 867.532 832.083 873.56 831.842C878.268 831.654 883.483 831.855 887.467 834.37C892.029 837.252 897.015 841.645 897.58 847.012C898.057 851.545 894.403 857.23 889.995 858.39C884.452 859.849 878.096 856.838 873.56 853.333C868.288 849.259 862.183 843.562 862.183 836.899C862.183 829.163 868.526 822.545 873.56 816.672C876.384 813.378 880.801 811.657 884.938 810.351C888.977 809.075 893.369 808.643 897.58 809.086C901.556 809.505 906.131 810.052 908.958 812.879C911.785 815.706 912.093 820.313 912.751 824.257C913.892 831.107 913.041 841.665 907.694 847.012C904.362 850.344 899.737 853.827 895.052 853.333C890.274 852.83 886.146 848.604 883.674 844.484C880.781 839.663 878.104 833.383 879.881 828.049C881.954 821.83 887.836 816.89 893.788 814.143C899.54 811.488 907.444 809.418 912.751 812.879C919.065 816.997 920.311 826.014 922.864 833.106C924.157 836.697 925.468 840.911 924.128 844.484C922.664 848.39 919.446 853.523 915.279 853.333C908.123 853.008 902.277 847.194 896.316 843.22C892.094 840.405 888.164 837.023 884.938 833.106C882.18 829.757 878.617 826.067 878.617 821.728C878.617 817.017 880.81 811.357 884.938 809.086C890.489 806.033 897.724 806.418 903.901 807.822C907.69 808.683 910.206 812.471 912.751 815.407C915.736 818.852 918.713 822.526 920.336 826.785C925.023 839.088 924.437 856.845 908.958 860.919C893.93 864.873 875.998 853.243 865.975 843.22C863.164 840.409 860.365 837.018 859.654 833.106C858.596 827.287 857.024 819.859 860.919 815.407C864.568 811.236 872.133 811.015 877.353 812.879C884.976 815.602 891.259 821.728 896.316 828.049C899.983 832.633 901.267 838.777 902.637 844.484C903.821 849.418 905.962 855.017 903.901 859.654C902.05 863.82 897.074 866.972 892.523 867.24C888.555 867.473 885.654 863.216 882.41 860.919C875.532 856.047 868.482 851.347 862.183 845.748C857.056 841.191 850.949 836.896 848.277 830.578C845.978 825.144 843.744 816.656 848.277 812.879C854.113 808.016 863.574 810.171 871.032 811.615C877.141 812.797 882.489 816.731 887.467 820.464C892.711 824.397 897.563 829.036 901.373 834.37C904.011 838.064 906.905 842.499 906.43 847.012C905.952 851.545 902.817 856.155 898.844 858.39C895.172 860.456 890.346 859.157 886.202 858.39C878.86 857.03 871.575 855.011 864.711 852.069C852.186 846.701 837.838 839.325 830.578 826.785C828.631 823.423 825.302 818.155 828.049 815.407C833.421 810.036 841.977 808.531 849.541 807.822C855.959 807.221 862.429 809.459 868.504 811.615C881.218 816.126 894.271 824.736 900.109 836.899C902.542 841.967 904.735 847.773 903.901 853.333C903.325 857.175 899.744 860.354 896.316 862.183C892.949 863.978 888.722 863.94 884.938 863.447C871.518 861.697 858.844 855.142 848.277 847.012C843.081 843.015 836.672 839.244 834.37 833.106C832.424 827.916 833.474 821.03 836.899 816.672C839.256 813.671 844.461 815.407 848.277 815.407C853.771 815.407 859.368 815.389 864.711 816.672C875.014 819.144 883.636 823.426 888.731 833.106C890.969 837.358 893.002 842.232 892.523 847.012C892.092 851.329 889.673 855.787 886.202 858.39C882.359 861.273 877.097 861.983 872.296 862.183C859.47 862.717 846.362 855.687 836.899 847.012C832.239 842.741 828.348 837.496 825.521 831.842C821.559 823.918 820.521 811.558 826.785 805.294C832.372 799.707 846.776 798.711 853.333 798.973C858.872 799.194 864.81 799.022 869.768 801.501C876.186 804.711 881.72 809.804 886.202 815.407C890.323 820.558 893.24 826.764 895.052 833.106C896.677 838.793 898.186 845.194 896.316 850.805C894.899 855.055 890.251 857.737 886.202 859.654C881.945 861.671 876.993 862.558 872.296 862.183C852.615 860.608 833.388 845.93 825.521 828.049C823.456 823.357 820.621 817.424 822.993 812.879C826.463 806.227 833.477 801.034 840.691 798.973C846.493 797.315 852.854 800.366 858.39 802.765C872.196 808.748 889.391 823.404 898.844 834.37C903.424 839.682 907.426 845.637 910.222 852.069C911.744 855.569 913.951 860.534 911.486 863.447C908.043 867.516 901.643 868.306 896.316 868.504C889.874 868.742 883.585 866.357 877.353 864.711C872.392 863.401 864.437 864.522 862.815 859.654Z" fill="#f2b3b3" fill-rule="evenodd" stroke="none"/>
<path d="M843.625 798.531C843.442 798.539 843.275 798.609 843.094 798.625C843.585 798.584 844.073 798.586 844.562 798.594C844.249 798.588 843.94 798.518 843.625 798.531ZM844.562 798.594C845.536 798.612 846.512 798.669 847.469 798.844C846.504 798.667 845.537 798.609 844.562 798.594ZM847.469 798.844C847.721 798.89 847.968 798.976 848.219 799.031C847.479 799.06 846.742 799.005 846 799.062C842.941 799.3 839.882 799.83 836.875 800.562C837.268 800.387 837.601 800.096 838 799.938C838.904 799.579 839.847 799.245 840.781 799C838.989 799.451 837.224 800.118 835.594 800.938C834.509 801.241 833.39 801.435 832.344 801.844C829.939 802.784 827.649 804.067 825.969 806.062C824.209 808.152 823.364 810.734 822.844 813.406C822.674 813.816 822.483 814.227 822.375 814.656C822.628 813.603 823.106 812.579 823.688 811.625C823.391 812.109 823.168 812.611 822.938 813.125C823.575 810.218 824.78 807.498 826.844 805.344C828.615 803.494 831.162 802.378 833.531 801.562C834.036 801.389 834.582 801.339 835.094 801.188C833.745 801.891 832.483 802.765 831.25 803.656C832.791 802.541 834.505 801.751 836.219 800.938C840.188 799.887 844.299 799.279 848.375 799.094C848.385 799.093 848.396 799.094 848.406 799.094C851.863 799.882 855.208 801.393 858.375 802.781C863.798 805.159 868.842 808.351 873.656 811.781C873 811.678 872.352 811.599 871.688 811.562C870.204 811.209 868.72 810.93 867.219 810.656C866.739 810.569 866.209 810.554 865.719 810.469C865.644 810.443 865.574 810.4 865.5 810.375C860.386 808.644 854.984 807.143 849.531 807.656C843.451 808.228 837.024 809.191 831.688 812.375C830.162 813.285 827.824 814.756 827.125 816.469C826.4 818.244 827.072 820.309 827.781 821.969C829.158 825.192 831.336 828.662 833.469 831.375C833.651 831.607 833.849 831.809 834.031 832.031C834.587 833.959 835.394 835.821 836.688 837.406C838.714 839.891 841.18 841.845 843.719 843.75C843.36 844.221 842.981 844.699 842.688 845.219C841.999 846.437 841.665 847.64 841.5 848.844C839.758 847.379 838.094 845.822 836.531 844.188C838.117 845.847 839.737 847.463 841.5 848.938C841.427 849.507 841.444 850.062 841.469 850.625C836.15 846.531 831.453 841.682 827.906 835.938C826.882 834.278 825.925 832.562 825.125 830.781C823.831 827.903 823.074 824.482 822.719 821C822.921 821.702 823.213 822.351 823.469 823.031C823.117 822.069 822.869 821.029 822.625 820C822.501 818.166 822.363 816.343 822.625 814.562C822.551 815.088 822.383 815.599 822.344 816.125C822.379 815.635 822.259 815.139 822.375 814.656C822.324 814.86 822.191 815.042 822.156 815.25C821.926 816.649 822.1 818.042 822.375 819.438C822.638 825.385 824.592 830.942 827.75 836.062C831.358 841.912 836.115 846.917 841.562 851.062C841.633 851.883 841.761 852.699 842 853.5C840.678 854.839 839.484 856.288 838.656 857.969C838.229 858.837 837.918 859.758 837.781 860.719C837.005 866.181 841.647 870.575 845.5 873.625C847.294 875.045 849.14 876.605 851.219 877.594C854.618 879.21 858.464 879.38 862.062 880.312C864.921 881.053 867.663 882.231 870.594 882.688C872.352 882.962 874.107 882.841 875.875 882.75C879.224 882.577 883.335 882.367 885.844 879.781C887.348 878.231 887.578 876.367 887.25 874.5C887.259 874.496 887.272 874.504 887.281 874.5C888.156 874.149 889.01 873.68 889.75 873.094C891.355 871.822 892.103 870.109 892.406 868.25C893.463 868.353 894.535 868.464 895.594 868.469C894.534 868.456 893.493 868.231 892.438 868.125C892.474 867.88 892.478 867.624 892.5 867.375C894.512 867.353 896.613 866.678 898.312 865.75C899.4 865.156 900.403 864.436 901.312 863.594C901.83 863.115 902.254 862.556 902.688 862C906.084 862.013 909.407 861.359 912.531 859.875C912.534 860.161 912.53 860.435 912.5 860.719C912.53 860.469 912.596 860.234 912.594 859.969C912.593 859.936 912.563 859.908 912.562 859.875C912.86 859.733 913.175 859.658 913.469 859.5C917.434 857.365 919.899 853.962 921.406 850.094C921.502 849.972 921.628 849.873 921.719 849.75C923.865 846.846 925.348 843.404 924.969 839.75C924.595 836.154 923.048 832.737 922 829.312C920.5 824.414 919.22 819.032 915.781 815.062C914.002 813.008 911.879 811.954 909.625 811.344C908.84 810.498 908.066 809.637 907.125 808.969C904.804 807.32 901.916 807.029 899.156 806.688C893.939 806.043 886.853 806.449 882.812 810.25C882.634 810.418 882.511 810.633 882.344 810.812C882.331 810.817 882.325 810.839 882.312 810.844C880.759 809.242 879.123 807.75 877.375 806.344C874.366 803.924 870.958 801.564 867.25 800.375C863.671 799.227 859.85 799.09 856.125 798.969C853.521 798.884 850.938 798.937 848.344 799.031C848.053 798.966 847.761 798.897 847.469 798.844ZM912.5 860.719C912.467 860.989 912.475 861.279 912.406 861.531C912.42 861.476 912.457 861.431 912.469 861.375C912.514 861.156 912.477 860.94 912.5 860.719ZM912.406 861.531C912.236 862.229 911.838 862.835 911.406 863.406C911.832 862.833 912.214 862.238 912.406 861.531ZM911.406 863.406C911.013 863.936 910.506 864.387 909.969 864.812C910.519 864.388 911.009 863.931 911.406 863.406ZM909.969 864.812C909.644 865.063 909.36 865.345 909 865.562C909.36 865.341 909.645 865.069 909.969 864.812ZM909 865.562C908.558 865.834 908.071 866.028 907.594 866.25C908.077 866.027 908.549 865.834 909 865.562ZM907.594 866.25C907.058 866.497 906.542 866.778 906 866.969C906.557 866.775 907.053 866.502 907.594 866.25ZM895.594 868.469C895.887 868.472 896.176 868.441 896.469 868.438C896.177 868.443 895.886 868.47 895.594 868.469ZM896.469 868.438C897.795 868.411 899.101 868.377 900.438 868.219C901.383 868.106 902.318 867.979 903.25 867.781C903.948 867.633 904.712 867.365 905.469 867.125C904.695 867.373 903.922 867.608 903.25 867.75C901.013 868.224 898.736 868.409 896.469 868.438ZM822.625 814.562C822.659 814.321 822.708 814.085 822.75 813.844C822.706 814.084 822.661 814.32 822.625 814.562ZM823.469 823.031C823.794 823.898 824.059 824.809 824.406 825.625C824.804 826.56 825.261 827.457 825.688 828.375C824.868 826.62 824.127 824.833 823.469 823.031ZM825.688 828.375C826.501 830.124 827.403 831.833 828.375 833.5C827.397 831.849 826.507 830.13 825.688 828.375ZM828.375 833.5C828.792 834.216 829.169 834.959 829.625 835.656C830.156 836.469 830.835 837.182 831.406 837.969C830.34 836.506 829.283 835.034 828.375 833.5ZM831.406 837.969C831.948 838.713 832.514 839.434 833.094 840.156C832.518 839.437 831.947 838.713 831.406 837.969ZM833.094 840.156C834.201 841.539 835.305 842.904 836.531 844.188C835.303 842.903 834.196 841.53 833.094 840.156ZM831.25 803.656C830.981 803.851 830.669 803.985 830.406 804.188C828.364 805.765 826.511 807.584 824.969 809.656C824.506 810.279 824.101 810.949 823.688 811.625C824.269 810.671 824.957 809.768 825.625 808.938C827.241 806.929 829.154 805.174 831.25 803.656ZM840.781 799C841.541 798.801 842.307 798.695 843.094 798.625C842.78 798.651 842.47 798.577 842.156 798.625C841.693 798.696 841.241 798.884 840.781 799ZM848.594 799.094C851.577 798.971 854.55 799.072 857.531 799.188C860.776 799.314 864.074 799.535 867.188 800.531C871.372 801.871 875.362 804.779 878.656 807.625C879.867 808.671 880.932 809.811 882.031 810.938C880.6 811.472 879.237 812.139 877.906 812.875C876.573 812.389 875.202 812.042 873.812 811.812C868.958 808.342 863.88 805.153 858.406 802.75C855.324 801.397 852.006 799.904 848.594 799.094ZM894.281 807.094C896.431 807.028 898.586 807.21 900.688 807.531C902.853 807.862 904.943 808.218 906.75 809.5C907.324 809.907 907.774 810.453 908.281 810.938C907.755 810.853 907.197 810.872 906.656 810.844C906.052 810.537 905.453 810.215 904.812 810C902.816 809.328 900.709 809.049 898.625 808.812C893.473 808.228 888.546 808.841 883.656 810.438C884.906 809.387 886.391 808.664 887.938 808.156C889.979 807.486 892.131 807.159 894.281 807.094ZM849.562 808C854.215 807.56 858.751 808.722 863.188 810.125C859.202 809.572 855.093 809.296 851.375 810.781C849.293 811.613 847.342 812.966 846.344 815.031C846.325 815.07 846.331 815.117 846.312 815.156C846.302 815.155 846.292 815.157 846.281 815.156C843.641 814.909 839.78 814.048 837.469 815.906C836.68 816.54 836.121 817.478 835.625 818.344C833.416 822.196 832.854 826.929 833.875 831.25C833.465 830.733 833.046 830.218 832.688 829.719C830.769 827.044 828.869 823.911 827.719 820.812C827.241 819.524 826.931 817.946 827.469 816.625C827.869 815.643 828.763 814.927 829.562 814.281C830.536 813.494 831.587 812.815 832.688 812.219C837.821 809.435 843.829 808.543 849.562 808ZM894.344 809.344C896.079 809.351 897.823 809.496 899.562 809.719C900.921 809.893 902.27 810.107 903.594 810.469C903.842 810.537 904.066 810.671 904.312 810.75C902.884 810.862 901.453 811.127 900 811.5C895.659 812.616 891.36 814.687 887.688 817.469C886.223 815.369 884.632 813.338 882.875 811.469C884.953 810.719 887.109 810.096 889.156 809.75C890.892 809.456 892.609 809.336 894.344 809.344ZM856.719 810.125C859.726 809.928 862.788 810.394 865.75 810.906C866.128 811.036 866.531 811.119 866.906 811.25C867.305 811.389 867.694 811.605 868.094 811.75C867.731 811.802 867.363 811.768 867 811.844C864.394 812.384 861.872 813.61 860.25 815.781C859.939 815.728 859.627 815.66 859.312 815.625C857.047 815.37 854.685 815.328 852.406 815.312C850.532 815.3 848.652 815.295 846.781 815.156C848.009 812.683 850.738 811.307 853.312 810.656C854.44 810.371 855.563 810.201 856.719 810.125ZM867.594 811.219C868.183 811.325 868.755 811.513 869.344 811.625C869.157 811.638 868.968 811.668 868.781 811.688C868.383 811.537 867.993 811.363 867.594 811.219ZM905.438 811.406C905.638 811.403 905.832 811.434 906.031 811.438C907.273 812.03 908.451 812.772 909.312 813.875C911.384 816.527 911.689 820.103 912.188 823.312C913.266 830.249 913.136 838.484 909.156 844.562C908.659 845.322 908.003 845.986 907.375 846.656C907.089 846.145 906.862 845.598 906.562 845.094C906.178 840.562 903.219 836.396 900.562 832.906C899.471 831.473 898.311 830.122 897.094 828.812C895.896 827.112 894.581 825.493 893.188 823.969C892.087 822.766 890.882 821.676 889.688 820.562C889.174 819.701 888.625 818.86 888.062 818.031C890.109 816.481 892.329 815.178 894.656 814.156C897.987 812.695 901.798 811.468 905.438 811.406ZM882.656 811.562C884.448 813.46 886.12 815.447 887.594 817.562C887.352 817.748 887.111 817.933 886.875 818.125C885.347 816.911 883.798 815.716 882.094 814.75C881.693 814.523 881.255 814.364 880.844 814.156C881.315 813.209 881.955 812.36 882.656 811.562ZM907.906 811.594C908.387 811.663 908.845 811.785 909.312 811.906C910.42 813.115 911.45 814.393 912.5 815.625C914.96 818.511 917.417 821.432 919.125 824.844C921.721 830.03 922.749 836.149 922.562 841.906C922.481 844.418 921.906 846.876 921.062 849.219C920.827 849.536 920.688 849.917 920.438 850.219C919.474 851.38 918.2 852.42 916.719 852.812C914.916 853.29 912.804 852.744 911.094 852.156C910.719 852.027 910.397 851.776 910.031 851.625C909.375 850.179 908.536 848.828 907.781 847.438C907.838 847.381 907.913 847.338 907.969 847.281C912.729 842.449 913.869 834.436 913.531 827.938C913.431 826.002 913.105 824.1 912.812 822.188C912.206 818.216 911.362 814.026 907.906 811.594ZM871.25 812.094C872.397 812.356 873.583 812.488 874.688 812.906C875.171 813.089 875.591 813.385 876.062 813.594C876.151 813.66 876.224 813.746 876.312 813.812C876.121 813.94 875.906 814.022 875.719 814.156C875.628 814.221 875.558 814.307 875.469 814.375C873.666 813.523 871.814 812.879 869.969 812.156C870.396 812.14 870.826 812.08 871.25 812.094ZM869.156 812.188C871.166 812.948 873.182 813.731 875.156 814.656C873.722 815.828 872.523 817.256 871.312 818.656C868.286 817.545 865.184 816.629 862.031 816.094C861.668 816.032 861.3 815.974 860.938 815.906C862.637 813.805 865.22 812.667 867.844 812.25C868.285 812.18 868.717 812.224 869.156 812.188ZM881.219 812.188C880.845 812.727 880.547 813.289 880.25 813.875C879.855 813.687 879.465 813.481 879.062 813.312C879.784 812.932 880.456 812.512 881.219 812.188ZM910.531 812.25C912.25 812.896 913.863 813.961 915.25 815.562C917.66 818.345 918.904 821.846 920 825.375C919.718 824.763 919.478 824.111 919.156 823.531C917.471 820.491 915.244 817.824 913 815.188C912.175 814.219 911.37 813.229 910.531 812.25ZM875.062 812.594C875.804 812.765 876.526 813.003 877.25 813.25C877.126 813.324 876.998 813.392 876.875 813.469C876.268 813.182 875.69 812.839 875.062 812.594ZM878.406 813.656C878.944 813.87 879.475 814.094 880 814.344C879.913 814.53 879.83 814.717 879.75 814.906C879.134 814.545 878.478 814.263 877.844 813.938C878.022 813.831 878.224 813.759 878.406 813.656ZM877.312 814.219C878.062 814.593 878.808 814.95 879.531 815.375C879.509 815.431 879.459 815.475 879.438 815.531C879.374 815.698 879.34 815.864 879.281 816.031C878.558 815.461 877.827 814.9 877.094 814.344C877.163 814.299 877.243 814.263 877.312 814.219ZM877.031 814.375C877.784 814.945 878.539 815.509 879.281 816.094C879.241 816.21 879.194 816.321 879.156 816.438C878.164 815.899 877.203 815.306 876.188 814.812C876.437 814.634 876.771 814.545 877.031 814.375ZM880.531 814.625C881.255 814.988 881.993 815.329 882.688 815.75C884.011 816.553 885.161 817.576 886.375 818.531C886.183 818.695 885.968 818.832 885.781 819C885.531 818.816 885.314 818.589 885.062 818.406C883.526 817.29 881.972 816.207 880.344 815.219C880.421 815.031 880.451 814.807 880.531 814.625ZM841.844 815C843.405 815.021 844.979 815.319 846.25 815.438C845.283 817.738 845.302 820.371 845.688 822.781C846.119 825.476 846.98 828.182 848.062 830.688C849.099 833.086 850.628 835.12 852.344 837.031C851.761 837.365 851.165 837.689 850.594 838.031C848.825 839.089 847.065 840.316 845.531 841.75C843.123 840.112 840.799 838.351 838.656 836.375C837.338 835.159 836.075 833.892 834.906 832.531C834.681 832.269 834.45 831.972 834.219 831.688C833.036 827.307 833.589 822.406 835.844 818.469C836.322 817.633 836.863 816.737 837.625 816.125C838.742 815.227 840.283 814.979 841.844 815ZM875.969 815C877.039 815.517 878.017 816.181 879.062 816.75C878.503 818.568 878.258 820.375 878.406 822.156C876.412 820.905 874.339 819.832 872.125 818.969C873.324 817.567 874.491 816.118 875.969 815ZM846.688 815.438C848.587 815.582 850.503 815.551 852.406 815.562C854.675 815.577 857.025 815.622 859.281 815.875C859.566 815.907 859.842 815.984 860.125 816.031C857.936 819.167 857.961 823.299 858.375 826.938C858.555 828.52 858.812 830.12 859.094 831.688C859.214 832.356 859.412 832.999 859.562 833.656C859.44 833.698 859.309 833.707 859.188 833.75C856.964 834.532 854.847 835.615 852.781 836.781C850.92 834.709 849.289 832.44 848.219 829.781C847.092 826.982 846.251 824.102 845.938 821.094C845.743 819.227 845.913 817.175 846.688 815.438ZM880.188 815.688C881.988 816.786 883.742 818.003 885.438 819.25C885.253 819.421 885.054 819.574 884.875 819.75C883.827 819.035 882.686 818.465 881.594 817.812C881.054 817.37 880.483 816.966 879.938 816.531C880.032 816.252 880.083 815.958 880.188 815.688ZM860.719 816.125C861.136 816.202 861.55 816.273 861.969 816.344C865.08 816.87 868.166 817.754 871.156 818.844C869.877 820.326 868.624 821.817 867.438 823.375C865.294 826.19 863.371 829.484 862.438 832.969C861.657 833.159 860.86 833.287 860.094 833.531C859.808 832.375 859.574 831.208 859.375 830.031C859.11 828.464 858.889 826.899 858.781 825.312C858.569 822.199 858.765 818.761 860.688 816.156C860.696 816.144 860.71 816.137 860.719 816.125ZM879.906 816.562C880.371 816.933 880.852 817.28 881.312 817.656C880.827 817.37 880.337 817.087 879.844 816.812C879.87 816.73 879.879 816.644 879.906 816.562ZM879.719 817.125C880.872 817.769 882.015 818.414 883.125 819.125C883.571 819.5 883.996 819.901 884.438 820.281C883.31 821.453 882.238 822.686 881.375 824.062C880.668 823.499 879.847 823.093 879.094 822.594C878.869 820.772 879.173 818.925 879.719 817.125ZM887.969 818.094C888.411 818.746 888.807 819.421 889.219 820.094C888.632 819.56 888.05 819.034 887.438 818.531C887.616 818.388 887.787 818.233 887.969 818.094ZM822.312 818.375C822.314 818.595 822.337 818.812 822.344 819.031C822.305 818.812 822.341 818.595 822.312 818.375ZM886.969 818.938C888.043 819.813 889.097 820.691 890.094 821.656C890.366 822.137 890.65 822.603 890.906 823.094C889.426 821.846 887.93 820.599 886.375 819.438C886.568 819.266 886.771 819.103 886.969 818.938ZM871.969 819.156C874.259 820.044 876.415 821.164 878.469 822.469C878.638 824.002 879.027 825.517 879.875 827C879.901 827.045 879.942 827.08 879.969 827.125C879.767 827.637 879.452 828.096 879.312 828.625C879.06 829.584 879.018 830.555 879 831.531C877.175 831.396 875.316 831.334 873.531 831.406C870.069 831.547 866.64 832.033 863.25 832.781C863.647 831.421 864.156 830.085 864.812 828.844C866.689 825.296 869.327 822.209 871.938 819.188C871.947 819.176 871.959 819.167 871.969 819.156ZM883.312 819.25C883.741 819.526 884.204 819.744 884.625 820.031C884.557 820.1 884.504 820.181 884.438 820.25C884.057 819.923 883.696 819.574 883.312 819.25ZM886.062 819.688C886.074 819.696 886.082 819.71 886.094 819.719C888.031 821.155 889.793 822.767 891.594 824.344C891.808 824.783 891.985 825.241 892.188 825.688C890.137 823.656 887.873 821.854 885.5 820.188C885.679 820.014 885.878 819.856 886.062 819.688ZM885.281 820.406C887.891 822.236 890.326 824.298 892.531 826.562C892.793 827.168 893.042 827.787 893.281 828.406C892.355 827.477 891.448 826.529 890.5 825.625C888.718 823.926 886.828 822.336 884.969 820.719C885.071 820.613 885.177 820.51 885.281 820.406ZM884.969 820.75C886.822 822.361 888.692 823.963 890.469 825.656C891.504 826.642 892.399 827.765 893.406 828.781C893.756 829.706 894.198 830.578 894.5 831.531C895.686 835.283 896.498 839.211 896.781 843.156C896.739 843.126 896.699 843.092 896.656 843.062C895.186 840.153 892.722 837.627 890.125 835.688C890.053 835.531 890.011 835.375 889.938 835.219C889.022 833.282 887.99 831.406 886.75 829.656C885.389 827.735 883.803 826.066 882.062 824.594C882.35 824.131 882.554 823.624 882.875 823.188C883.511 822.323 884.222 821.52 884.969 820.75ZM890.812 822.406C891.686 823.284 892.555 824.17 893.375 825.094C892.706 824.481 891.941 823.964 891.25 823.375C891.088 823.06 890.981 822.717 890.812 822.406ZM879.094 822.875C879.806 823.351 880.58 823.747 881.25 824.281C880.868 824.906 880.654 825.611 880.344 826.281C879.822 825.315 879.307 824.334 879.094 823.25C879.07 823.129 879.113 822.997 879.094 822.875ZM891.75 824.469C893.708 826.192 895.505 828.062 897.25 830C897.647 830.612 898.084 831.211 898.406 831.875C898.966 833.026 899.3 834.244 899.719 835.438C899.724 835.444 899.714 835.463 899.719 835.469C899.794 835.559 899.894 835.628 899.969 835.719C900.032 835.795 900.063 835.893 900.125 835.969C899.989 835.803 899.856 835.634 899.719 835.469C899.95 836.128 900.237 836.769 900.438 837.438C900.012 836.573 899.619 835.685 899.156 834.875C899.285 835.027 899.435 835.16 899.562 835.312C899.415 835.136 899.274 834.956 899.125 834.781C898.955 834.486 898.83 834.13 898.656 833.844C896.907 830.949 894.8 828.353 892.469 826C892.24 825.484 891.995 824.976 891.75 824.469ZM881.938 824.812C883.654 826.266 885.219 827.887 886.562 829.781C887.795 831.519 888.809 833.42 889.719 835.344C889.733 835.373 889.736 835.408 889.75 835.438C888.753 834.707 887.753 833.973 886.656 833.406C886.249 833.196 885.796 833.109 885.375 832.938C884.604 832.061 883.806 831.226 883.062 830.312C882.218 829.275 881.365 828.167 880.656 827C880.981 826.217 881.497 825.54 881.938 824.812ZM892.875 826.875C894.713 828.802 896.309 830.925 897.75 833.188C896.441 831.715 895.104 830.278 893.719 828.875C893.658 828.711 893.625 828.538 893.562 828.375C893.366 827.858 893.088 827.384 892.875 826.875ZM880.469 827.812C881.497 829.406 882.659 830.892 883.875 832.344C882.514 831.937 881.114 831.701 879.688 831.562C879.688 831.542 879.687 831.521 879.688 831.5C879.71 830.224 880.055 829.001 880.469 827.812ZM893.844 829.219C895.296 830.697 896.727 832.193 898.094 833.75C898.45 834.331 898.861 834.865 899.188 835.469C899.957 836.892 900.581 838.425 901.219 839.938C901.727 841.883 902.184 843.828 902.688 845.781C902.838 846.366 902.933 847.02 903.094 847.625C902.399 847.126 901.682 846.659 901 846.156C899.743 845.229 898.466 844.333 897.188 843.438C896.991 840.417 896.324 837.444 895.531 834.531C895.043 832.735 894.476 830.968 893.844 829.219ZM899.062 832.094C899.743 832.926 900.552 833.624 901.188 834.5C903.295 837.407 905.222 840.542 905.875 843.938C905.883 843.95 905.899 843.956 905.906 843.969C906.161 845.316 906.145 846.717 905.875 848.156C905.572 848.422 905.281 848.686 904.969 848.938C904.65 848.725 904.346 848.5 904.031 848.281C904.007 848.096 904.028 847.901 904 847.719C903.624 845.272 902.827 842.749 901.844 840.312C901.55 839.162 901.161 838.039 900.812 836.906C902.616 839.171 904.354 841.487 905.875 843.938C904.406 841.568 902.83 839.26 901.094 837.062C900.975 836.912 900.839 836.775 900.719 836.625C900.238 835.094 899.746 833.564 899.062 832.094ZM874.75 832.219C876.145 832.187 877.559 832.268 878.969 832.375C879.106 835.657 880.366 838.908 881.812 841.781C880.95 841.29 880.099 840.787 879.188 840.406C877.087 839.529 874.857 838.845 872.594 838.562C869.409 838.166 866.174 838.492 863.062 839.312C862.939 838.766 862.667 838.253 862.625 837.688C862.525 836.332 862.728 835.004 863.031 833.688C866.875 832.785 870.826 832.308 874.75 832.219ZM879.75 832.406C881.557 832.594 883.344 832.953 885.031 833.625C886.04 834.802 887.042 836.006 888.156 837.094C889.159 838.073 890.33 838.833 891.406 839.719C892.046 841.706 892.506 843.725 892.469 845.812C892.433 847.793 891.89 849.703 891.125 851.531C890.557 851.211 890.027 850.842 889.5 850.438C888.747 848.666 887.835 846.974 886.531 845.469C885.5 844.277 884.283 843.269 882.969 842.406C881.301 839.327 879.91 835.935 879.75 832.406ZM922.281 832.406C923.131 834.833 923.984 837.267 924.25 839.812C924.522 842.423 923.602 844.838 922.344 847.094C922.881 844.853 923.233 842.534 923.219 840.188C923.203 837.651 922.835 835.01 922.281 832.406ZM834.375 832.438C834.845 832.997 835.295 833.571 835.812 834.125C836.597 834.965 837.53 835.877 838.375 836.656C840.511 838.628 842.852 840.362 845.25 842C844.755 842.483 844.302 842.991 843.875 843.531C841.355 841.643 838.917 839.682 836.906 837.219C835.74 835.79 834.93 834.158 834.375 832.438ZM862.219 833.906C861.94 835.254 861.899 836.614 862.031 838C861.581 837.298 861.152 836.576 860.812 835.812C860.602 835.339 860.492 834.835 860.344 834.344C860.957 834.147 861.596 834.068 862.219 833.906ZM859.75 834.469C859.813 834.685 859.829 834.911 859.906 835.125C860.441 836.606 861.239 837.941 862.156 839.219C862.181 839.345 862.158 839.467 862.188 839.594C860.615 840.06 859.076 840.617 857.594 841.312C856.153 840.056 854.678 838.848 853.375 837.469C855.347 836.371 857.341 835.281 859.469 834.531C859.56 834.499 859.659 834.5 859.75 834.469ZM886.938 834.656C887.411 834.936 887.917 835.157 888.375 835.469C889.021 835.909 889.709 836.475 890.375 837C890.581 837.483 890.753 837.975 890.938 838.469C889.56 837.247 888.195 835.999 886.938 834.656ZM890.75 837.312C892.394 838.651 893.896 840.193 895.094 841.969C894.875 841.812 894.655 841.659 894.438 841.5C893.332 840.693 892.394 839.727 891.375 838.844C891.199 838.331 890.956 837.824 890.75 837.312ZM852.906 837.719C854.21 839.1 855.688 840.311 857.125 841.562C855.953 842.134 854.774 842.723 853.688 843.406C852.838 843.94 852.116 844.611 851.344 845.219C849.655 844.268 847.96 843.348 846.344 842.281C848.01 840.749 849.905 839.394 851.75 838.344C852.129 838.128 852.525 837.933 852.906 837.719ZM867.375 839.406C869.07 839.235 870.775 839.227 872.469 839.438C874.298 839.665 876.087 840.173 877.812 840.812C879.477 841.429 881.114 842.202 882.594 843.188C884.109 845.922 885.872 848.491 888.25 850.562C888.37 850.667 888.532 850.712 888.656 850.812C889.127 851.907 889.593 853.006 889.906 854.156C889.886 854.188 889.864 854.219 889.844 854.25C889.247 855.186 888.556 856.08 887.781 856.875C887.538 857.124 887.197 857.24 886.938 857.469C884.907 856.548 882.893 855.625 881.094 854.562C879.292 853.499 877.516 852.341 875.812 851.125C873.901 849.761 872.064 848.341 870.281 846.812C868.114 844.954 865.993 842.977 864.125 840.812C863.946 840.605 863.799 840.369 863.625 840.156C864.864 839.846 866.111 839.534 867.375 839.406ZM891.781 840C893.101 841.068 894.35 842.216 895.75 843.188C896.334 844.27 896.85 845.369 897.031 846.562C896.952 848.021 896.661 849.526 896.156 850.906C896.658 849.585 896.989 848.248 897.094 846.812C897.192 847.618 897.205 848.435 897.062 849.281C896.844 850.58 896.335 851.823 895.688 852.969C895.529 852.964 895.375 852.919 895.219 852.906C895.354 852.702 895.567 852.559 895.688 852.344C895.831 852.086 895.848 851.77 895.969 851.5C895.75 852.005 895.456 852.452 895.156 852.906C893.775 852.781 892.498 852.288 891.281 851.625C892.879 847.739 892.912 843.853 891.781 840ZM895.969 851.5C895.997 851.435 896.036 851.378 896.062 851.312C896.114 851.185 896.109 851.036 896.156 850.906C896.082 851.101 896.053 851.311 895.969 851.5ZM862.312 840.406C863.145 843.153 864.826 845.597 866.719 847.719C867.92 849.065 869.259 850.292 870.625 851.469C871.868 852.54 873.158 853.586 874.5 854.531C875.072 854.934 875.789 855.297 876.438 855.688C875.969 855.554 875.497 855.422 875.031 855.281C871.821 853.006 868.573 850.774 865.531 848.281C863.553 846.66 861.665 844.94 859.719 843.281C859.236 842.87 858.795 842.415 858.312 842C859.622 841.403 860.934 840.82 862.312 840.406ZM863.469 840.844C863.778 841.21 864.054 841.617 864.375 841.969C866.762 844.584 869.419 846.924 872.188 849.125C874.078 850.629 876.038 852.057 878.062 853.375C879.841 854.533 881.683 855.639 883.562 856.625C884.441 857.086 885.446 857.448 886.375 857.875C886.257 857.969 886.121 858.035 886 858.125C884.864 857.906 883.724 857.714 882.594 857.469C881.923 857.323 881.291 857.066 880.625 856.906C880.243 856.752 879.834 856.639 879.469 856.469C876.939 855.292 874.663 853.721 872.5 851.969C869.018 849.148 865.094 845.334 863.469 840.844ZM857.812 842.188C858.36 842.658 858.862 843.192 859.406 843.656C861.354 845.318 863.239 847.032 865.219 848.656C867.918 850.871 870.814 852.843 873.656 854.875C867.906 853.055 862.263 850.931 856.812 848.25C855.233 847.473 853.736 846.539 852.188 845.688C852.53 845.428 852.797 845.088 853.156 844.844C854.617 843.851 856.183 842.963 857.812 842.188ZM846.062 842.531C847.662 843.592 849.328 844.522 851 845.469C850.282 846.047 849.529 846.603 848.844 847.219C848.244 846.778 847.63 846.352 847.031 845.906C846.224 845.305 845.433 844.692 844.625 844.094C845.067 843.54 845.54 843.031 846.062 842.531ZM897.156 844.25C898.813 845.423 900.449 846.622 902.094 847.812C902.485 848.096 902.914 848.345 903.312 848.625C903.431 849.083 903.516 849.537 903.625 850C901.555 851.501 899.15 852.721 896.562 852.906C896.947 852.166 897.393 851.457 897.625 850.656C898.28 848.394 897.891 846.311 897.156 844.344C897.155 844.313 897.157 844.281 897.156 844.25ZM844.5 844.312C845.3 844.906 846.076 845.53 846.875 846.125C847.465 846.565 848.065 846.971 848.656 847.406C847.707 848.264 846.775 849.127 845.812 850C845.4 850.374 844.984 850.778 844.562 851.156C843.797 850.589 843.019 850.039 842.281 849.438C842.462 847.496 843.332 845.83 844.5 844.312ZM884.312 844.656C885.663 845.849 886.878 847.157 887.781 848.75C887.86 848.889 887.894 849.047 887.969 849.188C886.54 847.804 885.326 846.242 884.312 844.656ZM906.594 845.281C906.869 845.747 907.08 846.247 907.344 846.719C907.033 847.048 906.77 847.409 906.438 847.719C906.536 847.103 906.696 846.497 906.688 845.875C906.685 845.672 906.607 845.483 906.594 845.281ZM851.875 845.938C853.993 847.107 856.076 848.341 858.25 849.375C862.044 851.18 865.914 852.877 869.875 854.281C871.574 854.883 873.302 855.4 875.031 855.906C876.308 856.811 877.534 857.788 878.812 858.688C879.67 859.291 880.487 859.953 881.344 860.562C880.98 860.68 880.62 860.808 880.25 860.906C878.928 859.242 877.44 857.738 875.531 856.906C874.168 856.312 872.659 856.075 871.188 855.938C868.971 855.73 866.359 855.733 864.25 856.656C862.69 855.892 861.073 855.232 859.562 854.375C856.096 852.407 852.86 850.149 849.656 847.812C850.372 847.164 851.112 846.534 851.875 845.938ZM907.75 847.469C908.478 848.809 909.207 850.14 909.844 851.531C908.551 850.984 907.258 850.399 906.062 849.656C906.156 849.366 906.207 849.076 906.281 848.781C906.772 848.342 907.291 847.928 907.75 847.469ZM849.438 848C852.663 850.356 855.947 852.641 859.438 854.625C860.854 855.43 862.353 856.057 863.812 856.781C862.959 857.223 863.807 856.775 862.375 859.781C862.444 860.023 862.696 860.163 862.938 860.094C862.98 860.082 862.965 860.022 863 860C862.944 859.895 862.813 859.656 862.812 859.656C862.812 859.656 863.007 859.891 863.031 859.938C863.157 859.825 863.299 859.705 863.25 859.531C863.457 858.157 863.073 858.618 863.469 858.156C863.798 857.772 864.285 857.488 864.844 857.281C866.103 857.884 867.304 858.592 868.594 859.125C871.056 860.142 873.595 860.988 876.156 861.719C875.675 861.776 875.199 861.896 874.719 861.938C873.578 862.036 872.448 861.964 871.312 861.969C868.647 861.706 866.007 861.18 863.406 860.469C863.433 860.514 863.47 860.544 863.5 860.594C865.968 861.283 868.463 861.71 871 861.969C868.672 861.96 866.362 861.775 864.062 861.344C864.149 861.452 864.16 861.496 864.25 861.594C864.126 861.486 863.957 861.433 863.844 861.312C863.47 861.24 863.092 861.24 862.719 861.156C856.247 859.695 850.162 856.739 844.688 853.031C844.527 852.923 844.378 852.798 844.219 852.688C845.366 851.643 846.545 850.551 847.531 849.625C848.146 849.048 848.823 848.562 849.438 848ZM863.844 861.312C863.916 861.327 863.99 861.33 864.062 861.344C863.804 861.018 863.68 860.89 863.5 860.594C863.436 860.576 863.376 860.549 863.312 860.531C863.492 860.853 863.619 861.141 863.688 861.219C863.728 861.265 863.802 861.268 863.844 861.312ZM863.312 860.531C863.281 860.474 863.281 860.463 863.25 860.406C862.107 860.09 860.967 859.802 859.844 859.406C860.988 859.816 862.137 860.198 863.312 860.531ZM863.25 860.406C863.304 860.421 863.352 860.454 863.406 860.469C863.295 860.28 863.076 860.021 863.031 859.938C863.012 859.955 863.022 859.986 863 860C863.069 860.128 863.143 860.211 863.25 860.406ZM904.062 849.125C904.186 849.21 904.313 849.291 904.438 849.375C904.32 849.465 904.212 849.568 904.094 849.656C904.081 849.478 904.08 849.302 904.062 849.125ZM905.781 849.219C905.759 849.295 905.711 849.361 905.688 849.438C905.656 849.417 905.625 849.395 905.594 849.375C905.656 849.322 905.719 849.272 905.781 849.219ZM842.25 849.562C842.977 850.152 843.778 850.632 844.531 851.188C844.186 851.497 843.844 851.809 843.5 852.125C843.069 851.819 842.642 851.504 842.219 851.188C842.161 850.625 842.208 850.092 842.25 849.562ZM905.094 849.812C905.208 849.887 905.323 849.958 905.438 850.031C905.189 850.718 904.906 851.387 904.562 852.031C904.477 851.514 904.361 851.016 904.25 850.5C904.544 850.284 904.808 850.042 905.094 849.812ZM905.781 850.281C907.227 851.179 908.758 851.901 910.344 852.5C910.415 852.663 910.524 852.805 910.594 852.969C910.531 852.828 910.5 852.671 910.438 852.531C910.875 852.694 911.268 852.964 911.719 853.094C913.345 853.561 915.199 853.942 916.875 853.5C918.21 853.148 919.306 852.29 920.281 851.312C918.741 854.477 916.442 857.214 913.188 858.969C912.986 859.077 912.766 859.118 912.562 859.219C912.576 859.378 912.526 859.529 912.531 859.688C912.525 859.541 912.481 859.396 912.469 859.25C909.542 860.683 906.406 861.316 903.219 861.375C903.235 861.351 903.265 861.337 903.281 861.312C905.044 858.657 905.131 855.681 904.719 852.688C904.726 852.675 904.743 852.669 904.75 852.656C905.169 851.921 905.478 851.087 905.781 850.281ZM912.469 859.25C912.499 859.235 912.533 859.234 912.562 859.219C912.479 858.275 912.208 857.331 911.906 856.406C912.199 857.343 912.388 858.29 912.469 859.25ZM911.906 856.406C911.535 855.218 911.089 854.088 910.594 852.969C911.052 854.039 911.519 855.217 911.906 856.406ZM903.812 850.75C903.828 850.823 903.829 850.896 903.844 850.969C903.844 851.823 903.764 852.636 903.594 853.469C902.948 854.406 902.316 855.352 901.5 856.156C900.346 857.293 898.893 858.305 897.344 858.812C895.52 859.41 893.599 859.33 891.688 859.094C891.639 858.79 891.583 858.491 891.531 858.188C891.984 857.969 892.449 857.771 892.875 857.469C894.109 856.593 895.138 855.448 895.969 854.188C896.072 854.031 896.122 853.848 896.219 853.688C898.927 853.607 901.477 852.389 903.812 850.75ZM842.344 851.625C842.665 851.862 843.018 852.051 843.344 852.281C843.137 852.473 842.922 852.649 842.719 852.844C842.608 852.43 842.407 852.048 842.344 851.625ZM889.969 851.688C890.248 851.868 890.492 852.09 890.781 852.25C890.673 852.479 890.587 852.714 890.469 852.938C890.337 852.508 890.121 852.109 889.969 851.688ZM845.375 851.781C846.15 852.336 846.92 852.888 847.719 853.406C846.918 852.891 846.151 852.334 845.375 851.781ZM847.719 853.406C849.024 854.247 850.356 855.013 851.719 855.75C850.36 855.011 849.02 854.25 847.719 853.406ZM851.719 855.75C852.804 856.34 853.914 856.857 855.031 857.375C853.917 856.86 852.801 856.335 851.719 855.75ZM855.031 857.375C855.959 857.805 856.833 858.371 857.781 858.75C858.185 858.912 858.622 859.003 859.031 859.156C857.669 858.652 856.356 857.989 855.031 857.375ZM904.156 852.312C904.176 852.438 904.201 852.562 904.219 852.688C904.142 852.816 904.017 852.906 903.938 853.031C903.977 852.781 904.132 852.565 904.156 852.312ZM891 852.375C891.154 852.457 891.281 852.581 891.438 852.656C892.524 853.182 893.594 853.427 894.656 853.562C894.775 853.411 894.921 853.283 895.031 853.125C894.928 853.273 894.83 853.419 894.719 853.562C894.896 853.584 895.074 853.613 895.25 853.625C894.682 854.502 894.058 855.364 893.281 856.062C892.684 856.599 892.012 856.852 891.344 857.188C891.318 857.05 891.277 856.918 891.25 856.781C892.299 856.06 893.21 855.216 894.062 854.281C893.234 855.187 892.234 855.89 891.219 856.594C891.004 855.518 890.929 854.422 890.625 853.375C890.808 853.041 890.843 852.709 891 852.375ZM894.062 854.281C894.281 854.042 894.521 853.818 894.719 853.562C894.698 853.56 894.677 853.565 894.656 853.562C894.465 853.808 894.273 854.051 894.062 854.281ZM844.094 852.812C845.177 853.558 846.249 854.32 847.375 855C852.573 858.138 858.261 860.577 864.25 861.688C864.281 861.693 864.313 861.682 864.344 861.688C864.455 861.799 864.449 861.92 864.562 862C864.851 862.205 865.215 862.281 865.531 862.438C865.135 862.242 864.779 861.99 864.438 861.719C867.104 862.198 869.805 862.281 872.5 862.188C872.824 862.208 873.144 862.301 873.469 862.312C874.875 862.363 876.286 862.292 877.656 862.125C878.41 862.321 879.145 862.552 879.906 862.719C880.144 862.771 880.415 862.792 880.656 862.844C881.371 863.911 881.904 864.981 882.5 866.094C881.829 865.901 881.14 865.755 880.469 865.562C881.144 865.754 881.827 865.927 882.5 866.125C883.071 867.192 883.741 868.282 884.25 869.25C884.927 870.538 885.77 872.195 886.219 873.875C883.976 874.572 881.44 874.731 879.375 874.688C878.44 874.668 877.371 874.615 876.438 874.562C874.409 874.449 872.4 874.396 870.406 873.969C867.168 873.275 864.135 871.892 861.094 870.625C858.087 869.373 854.881 868.384 852.188 866.5C850.464 865.294 849.179 863.659 847.875 862.031C846.215 859.958 844.6 857.791 843.469 855.375C843.237 854.88 843.182 854.33 843 853.812C843.367 853.452 843.717 853.158 844.094 852.812ZM865.531 862.438C865.915 862.627 866.275 862.805 866.688 862.938C866.287 862.806 865.906 862.623 865.531 862.438ZM866.688 862.938C867.319 863.145 867.937 863.32 868.594 863.438C867.963 863.327 867.32 863.141 866.688 862.938ZM904.344 853.219C904.658 855.932 904.433 858.634 902.844 861.031C902.757 861.161 902.623 861.249 902.531 861.375C901.148 861.365 899.764 861.269 898.375 861.062C899.138 860.527 899.904 859.998 900.562 859.375C901.554 858.438 902.442 857.359 903.094 856.156C903.419 855.556 903.445 854.868 903.625 854.219C903.87 853.885 904.125 853.569 904.344 853.219ZM889.938 854.312C890.182 855.228 890.36 856.16 890.531 857.094C890.091 857.376 889.692 857.746 889.25 858C888.913 858.073 888.563 858.086 888.219 858.125C887.842 857.966 887.527 857.76 887.156 857.594C887.397 857.379 887.711 857.263 887.938 857.031C888.728 856.221 889.329 855.266 889.938 854.312ZM842.219 854.531C843.314 857.428 845.289 860.152 847.219 862.562C848.328 863.949 849.401 865.428 850.781 866.562C853.665 868.933 857.359 870.024 860.75 871.438C863.841 872.726 866.928 874.107 870.219 874.812C872.257 875.249 874.332 875.289 876.406 875.406C879.697 875.592 883.178 875.763 886.375 874.75C886.56 875.88 886.579 877.015 886.062 878C884.269 881.417 879.138 881.673 875.844 881.844C874.775 881.899 873.665 881.994 872.594 881.969C869.02 881.885 865.691 880.321 862.281 879.438C858.743 878.521 854.936 878.367 851.594 876.781C850.491 876.258 849.54 875.535 848.562 874.812C847.281 873.865 846 872.935 844.781 871.906C841.607 869.225 838.009 865.387 838.656 860.844C838.994 858.471 840.459 856.394 842.219 854.531ZM903.156 854.844C903.018 855.222 903.006 855.643 902.812 856C902.015 857.473 900.842 858.745 899.562 859.812C899.044 860.245 898.476 860.615 897.906 861C896.133 860.711 894.423 860.134 892.688 859.594C894.673 859.747 896.665 859.674 898.469 858.812C900.047 858.059 901.456 856.881 902.625 855.594C902.832 855.366 902.962 855.084 903.156 854.844ZM876.5 856.375C877.122 856.547 877.75 856.683 878.375 856.844C880.432 857.878 882.681 858.539 884.938 858.875C884.469 859.162 884.093 859.578 883.594 859.812C883.064 860.062 882.486 860.178 881.938 860.375C880.984 859.688 880.053 858.955 879.094 858.281C878.217 857.665 877.377 856.993 876.5 856.375ZM869.688 856.75C871.513 856.802 873.466 857.014 875.156 857.75C876.82 858.475 878.15 859.773 879.344 861.219C878.541 861.399 877.722 861.48 876.906 861.594C874.12 860.833 871.389 859.945 868.719 858.844C867.543 858.359 866.431 857.731 865.281 857.188C866.753 856.76 868.551 856.717 869.688 856.75ZM890.562 857.281C890.581 857.386 890.607 857.489 890.625 857.594C890.272 857.731 889.927 857.846 889.562 857.938C889.902 857.739 890.227 857.495 890.562 857.281ZM886.625 857.969C886.833 858.063 887.04 858.158 887.25 858.25C887.122 858.253 887.003 858.313 886.875 858.312C886.686 858.277 886.501 858.224 886.312 858.188C886.414 858.11 886.526 858.049 886.625 857.969ZM890.812 858.562C890.833 858.696 890.885 858.834 890.906 858.969C890.822 858.956 890.74 858.951 890.656 858.938C890.461 858.867 890.257 858.823 890.062 858.75C890.31 858.678 890.57 858.655 890.812 858.562ZM885.281 858.906C885.891 858.983 886.492 859.066 887.094 859.062C885.626 859.775 884.134 860.367 882.594 860.844C882.462 860.745 882.32 860.66 882.188 860.562C882.685 860.38 883.206 860.257 883.688 860.031C884.281 859.752 884.731 859.258 885.281 858.906ZM887.406 859.062C887.824 859.05 888.246 859.151 888.656 859.094C888.895 859.138 889.137 859.176 889.375 859.219C889.405 859.224 889.439 859.213 889.469 859.219C890 859.423 890.491 859.657 891.031 859.844C891.23 861.023 891.456 862.203 891.594 863.406C889.634 863.669 887.659 863.544 885.656 863.312C885.174 862.861 884.651 862.403 884.188 862C883.75 861.62 883.243 861.32 882.781 860.969C884.368 860.467 885.901 859.81 887.406 859.062ZM891.875 860.062C893.66 860.643 895.472 861.11 897.312 861.438C896.425 861.984 895.505 862.452 894.531 862.781C893.84 863.015 893.093 863.088 892.375 863.219C892.329 862.812 892.305 862.394 892.25 862C892.161 861.354 891.972 860.714 891.875 860.062ZM881.625 860.75C881.759 860.846 881.899 860.933 882.031 861.031C881.582 861.16 881.142 861.299 880.688 861.406C880.617 861.311 880.51 861.25 880.438 861.156C880.841 861.047 881.229 860.882 881.625 860.75ZM882.188 861.156C882.737 861.566 883.327 861.925 883.844 862.375C884.133 862.627 884.457 862.916 884.75 863.188C883.672 863.036 882.603 862.898 881.562 862.688C881.298 862.281 881.035 861.92 880.75 861.531C881.234 861.416 881.71 861.296 882.188 861.156ZM879.5 861.406C879.551 861.47 879.606 861.529 879.656 861.594C879.089 861.706 878.512 861.798 877.938 861.875C877.791 861.838 877.646 861.788 877.5 861.75C878.169 861.645 878.84 861.557 879.5 861.406ZM897.75 861.531C899.166 861.765 900.583 861.96 902 862C901.655 862.412 901.362 862.854 900.969 863.219C899.943 864.169 898.783 864.973 897.531 865.594C896.04 866.334 894.23 866.849 892.5 866.875C892.56 865.771 892.521 864.662 892.406 863.562C893.149 863.429 893.909 863.335 894.625 863.094C895.716 862.726 896.755 862.164 897.75 861.531ZM879.75 861.719C879.96 861.992 880.208 862.215 880.406 862.5C880.266 862.47 880.107 862.468 879.969 862.438C879.422 862.318 878.887 862.135 878.344 862C878.82 861.93 879.279 861.814 879.75 861.719ZM876.812 861.875C876.959 861.915 877.103 861.961 877.25 862C876.196 862.115 875.136 862.136 874.062 862.125C874.697 862.08 875.335 862.104 875.969 862.031C876.253 861.999 876.529 861.914 876.812 861.875ZM881.75 863C882.864 863.222 884.004 863.382 885.156 863.531C887.016 865.264 888.981 867.152 891.531 867.469C891.541 867.47 891.552 867.468 891.562 867.469C891.542 867.654 891.591 867.847 891.562 868.031C890.677 867.921 889.785 867.925 888.906 867.75C889.245 867.82 889.565 867.94 889.906 868C890.456 868.098 891.013 868.088 891.562 868.156C891.557 868.187 891.568 868.219 891.562 868.25C891.44 868.955 891.25 869.634 890.938 870.281C890.141 871.932 888.648 872.876 887 873.531C886.546 871.885 885.777 870.263 885.031 868.844C884.065 867.004 882.98 864.942 881.75 863ZM888.906 867.75C887.267 867.412 885.668 866.995 884.062 866.531C885.484 866.927 886.901 867.378 888.344 867.688C888.529 867.727 888.72 867.713 888.906 867.75ZM886.062 863.688C887.933 863.881 889.764 863.958 891.594 863.719C891.707 864.809 891.639 865.891 891.562 866.969C889.401 866.689 887.682 865.188 886.062 863.688ZM871.75 863.906C873.186 864.054 874.612 864.211 876.031 864.469C875.809 864.427 875.599 864.346 875.375 864.312C874.17 864.131 872.961 864.038 871.75 863.906ZM876.031 864.469C877.354 864.716 878.644 865.064 879.938 865.438C878.868 865.14 877.805 864.799 876.719 864.562C876.492 864.513 876.259 864.51 876.031 864.469Z" fill="#908e8e" stroke="none"/>
</g>
<g filter="url(#Filter_2)" opacity="1">
<path d="M1171.91 833.738C1168.64 837.006 1159.27 832.67 1159.27 828.049C1159.27 823.752 1167.61 825.521 1171.91 825.521C1175.8 825.521 1186.04 825.302 1183.29 828.049C1178.29 833.044 1170.01 833.084 1163.06 834.37C1158.5 835.214 1153.74 835.026 1149.16 834.37C1144.8 833.748 1136.12 834.959 1136.51 830.578C1137.03 824.87 1145.01 822.347 1150.42 820.464C1155.2 818.803 1160.58 819.781 1165.59 820.464C1169.95 821.059 1174.33 822.215 1178.23 824.257C1183.31 826.916 1190.89 828.775 1192.14 834.37C1193.25 839.392 1187.46 844.001 1183.29 847.012C1179.39 849.825 1174.15 850.209 1169.38 850.805C1158.76 852.133 1148.42 851.481 1139.04 845.748C1135.48 843.573 1131.58 840.833 1130.19 836.899C1128.78 832.905 1128.15 826.902 1131.46 824.257C1136.11 820.534 1143.27 820.787 1149.16 821.728C1154.37 822.563 1159.58 825.34 1163.06 829.314C1165.96 832.625 1169.35 838.33 1166.85 841.956C1163.22 847.245 1155.4 848.043 1149.16 849.541C1139.99 851.741 1130.47 849.108 1122.61 844.484C1119.26 842.514 1115.05 840.562 1113.76 836.899C1112.21 832.51 1112.15 826.653 1115.02 822.993C1117.74 819.533 1123.3 819.769 1127.66 819.2C1142.04 817.324 1160.03 820.404 1171.91 829.314C1175.02 831.645 1178.6 834.384 1179.5 838.163C1180.87 843.917 1182.28 851.547 1178.23 855.862C1174.16 860.209 1166.48 858.774 1160.53 858.39C1153.19 857.916 1145.89 856.024 1139.04 853.333C1133.93 851.324 1129.38 847.977 1125.14 844.484C1122.14 842.014 1118.62 839.37 1117.55 835.635C1115.93 829.962 1113.38 822.107 1117.55 817.936C1122.69 812.792 1131.77 814.412 1139.04 814.143C1143.34 813.984 1147.94 814.557 1151.68 816.672C1157.93 820.203 1164.8 824.215 1168.12 830.578C1170.47 835.077 1170.93 842.732 1166.85 845.748C1159.21 851.399 1148.52 851.34 1139.04 852.069C1123.81 853.241 1111.34 848.225 1098.59 840.691C1095.24 838.715 1088.1 836.627 1089.74 833.106C1092.7 826.751 1100.78 823.946 1107.44 821.728C1112.63 819.996 1118.41 821.324 1123.87 821.728C1129.81 822.169 1135.82 822.707 1141.57 824.257C1146.86 825.681 1152.99 826.589 1156.74 830.578C1160.39 834.459 1163.98 840.887 1161.8 845.748C1159.16 851.614 1151.35 853.518 1145.36 855.862C1135.19 859.844 1125.71 856.143 1117.55 849.541C1109 842.619 1102.55 831.429 1101.12 820.464C1100.51 815.849 1100.2 810.672 1102.38 806.558C1104.35 802.834 1108.54 800.43 1112.49 798.973C1116.86 797.364 1121.75 797.709 1126.4 797.709C1142.75 797.709 1152.56 802.834 1159.27 817.936C1160.89 821.589 1163.72 825.37 1163.06 829.314C1162.31 833.81 1159.88 839.506 1155.48 840.691C1147.3 842.893 1138.45 840.05 1130.19 838.163C1120.69 835.99 1105.08 828.952 1098.59 820.464C1096.16 817.289 1092.62 812.443 1094.8 809.086C1098.49 803.382 1106 800.987 1112.49 798.973C1118.54 797.095 1125.15 797.135 1131.46 797.709C1147.75 799.19 1160.51 803.677 1173.18 814.143C1177.34 817.58 1182.59 821.434 1183.29 826.785C1184.05 832.605 1180.97 838.929 1176.97 843.22C1174.32 846.06 1169.46 845.38 1165.59 845.748C1160.56 846.228 1155.37 846.78 1150.42 845.748C1130.93 841.688 1110.49 822.815 1120.08 801.501C1134.44 769.582 1177.85 790.071 1194.67 807.822C1197.65 810.972 1201.19 814.866 1200.99 819.2C1200.72 824.847 1197.66 830.647 1193.4 834.37C1190.17 837.2 1185.02 836.343 1180.76 836.899C1163.15 839.196 1145.12 837.064 1131.46 824.257C1128.56 821.538 1123.88 817.915 1125.14 814.143C1126.76 809.263 1132.75 806.387 1137.78 805.294C1143.19 804.116 1149.07 805.764 1154.21 807.822C1159.86 810.079 1165.96 812.917 1169.38 817.936C1172.39 822.341 1175.68 829.966 1171.91 833.738Z" fill="#f2b3b3" fill-rule="evenodd" stroke="none"/>
<path d="M1143.78 784.781C1138.94 785.077 1134.26 786.353 1130.09 789.094C1128.62 790.061 1127.27 791.215 1126.03 792.469C1124.57 793.957 1123.32 795.634 1122.22 797.406C1121.62 797.43 1121.03 797.485 1120.44 797.531C1119.31 797.558 1118.21 797.651 1117.09 797.781C1117.06 797.787 1117.03 797.807 1117 797.812C1116.22 797.906 1115.45 797.952 1114.69 798.125C1113.95 798.291 1113.28 798.655 1112.56 798.906C1111.98 799.074 1111.39 799.16 1110.81 799.344C1106.39 800.749 1101.8 802.345 1098.12 805.281C1096.72 806.406 1095.25 807.801 1094.44 809.438C1093.22 811.889 1094.63 814.84 1095.91 816.938C1097.46 819.482 1099.41 821.668 1101.53 823.688C1098.03 825.07 1094.6 826.676 1092 829.375C1090.98 830.433 1090.11 831.663 1089.5 833C1089.36 833.311 1089.28 833.595 1089.25 833.938C1089.11 835.674 1090.84 836.947 1092.16 837.719C1093.9 838.742 1095.77 839.512 1097.56 840.438C1099.49 841.432 1101.34 842.596 1103.25 843.625C1104.33 844.204 1105.34 844.739 1106.44 845.281C1110.06 847.074 1113.84 848.51 1117.69 849.719C1118.31 850.226 1118.85 850.84 1119.5 851.312C1122.87 853.764 1126.61 855.787 1130.66 856.875C1133.01 857.509 1135.43 857.797 1137.88 857.688C1140.49 857.57 1142.99 856.97 1145.44 856.062C1145.53 856.028 1145.63 856.003 1145.72 855.969C1146.39 856.161 1147.05 856.384 1147.72 856.562C1150.71 857.364 1153.74 857.983 1156.81 858.375C1158.54 858.596 1160.29 858.704 1162.03 858.844C1167.73 859.303 1175.75 860.531 1179.44 854.906C1179.85 854.279 1180.18 853.61 1180.44 852.906C1180.93 851.553 1181.18 850.131 1181.25 848.688C1181.31 848.659 1181.38 848.654 1181.44 848.625C1182.59 848.068 1183.6 847.327 1184.62 846.562C1187.73 844.238 1191.81 840.988 1192.59 836.938C1192.74 836.174 1192.77 835.454 1192.69 834.781C1193.9 833.954 1195.01 832.941 1195.94 831.812C1198.83 828.284 1200.83 823.785 1201.03 819.188C1201.17 816.168 1199.46 813.554 1197.62 811.25C1199.31 813.367 1200.88 815.868 1200.94 818.656C1201.04 823.496 1198.51 828.739 1195.38 832.312C1194.57 833.229 1193.68 834.031 1192.69 834.719C1192.14 830.502 1187.54 828.056 1183.78 826.344C1183.61 826.191 1183.33 826.111 1183.09 826C1183.01 825.609 1183.07 825.193 1182.94 824.812C1181.46 820.597 1177.64 817.665 1174.31 814.938C1171.91 812.966 1169.46 811.014 1166.88 809.281C1156.47 802.315 1144.85 798.917 1132.47 797.688C1129.14 797.357 1125.79 797.253 1122.44 797.375C1123.52 795.656 1124.7 794.011 1126.12 792.562C1127.35 791.315 1128.73 790.181 1130.19 789.219C1136.56 785.02 1144.15 784.287 1151.66 785.281C1149.02 784.93 1146.39 784.622 1143.78 784.781ZM1151.66 785.281C1153.05 785.467 1154.44 785.701 1155.81 786C1154.43 785.702 1153.05 785.466 1151.66 785.281ZM1155.81 786C1160.54 787.024 1165.13 788.608 1169.25 790.438C1171.63 791.496 1173.94 792.664 1176.22 793.938C1178.99 795.486 1181.69 797.198 1184.28 799.031C1186.72 800.761 1189.09 802.606 1191.34 804.625C1188.64 802.185 1185.82 799.914 1182.81 797.875C1180.16 796.077 1177.39 794.409 1174.56 792.906C1172.25 791.68 1169.91 790.568 1167.5 789.562C1163.88 788.054 1159.88 786.882 1155.81 786ZM1197.62 811.25C1197.38 810.948 1197.21 810.569 1196.97 810.281C1195.28 808.298 1193.4 806.502 1191.47 804.75C1193.69 806.755 1195.77 808.923 1197.62 811.25ZM1125.31 797.5C1125.54 797.503 1125.77 797.526 1126 797.531C1125.63 797.527 1125.25 797.534 1124.88 797.531C1125.02 797.532 1125.17 797.498 1125.31 797.5ZM1124.06 797.875C1127.98 797.912 1131.9 797.931 1135.78 798.594C1137.95 798.965 1140.09 799.53 1142.16 800.312C1146 801.771 1149.25 804.108 1152 807C1152.23 807.081 1152.46 807.135 1152.69 807.219C1150.25 804.486 1147.36 802.167 1143.75 800.562C1141.94 799.758 1140.05 799.201 1138.12 798.75C1142.81 799.481 1147.46 800.45 1151.94 802.031C1157.79 804.096 1163.28 807.014 1168.34 810.594C1170.73 812.282 1173 814.137 1175.25 816C1178.35 818.563 1181.78 821.47 1182.91 825.5C1182.95 825.641 1182.94 825.795 1182.97 825.938C1182.77 825.854 1182.62 825.78 1182.41 825.719C1181.75 825.427 1181.06 825.112 1180.41 824.812C1178.03 823.73 1175.78 822.525 1173.28 821.719C1172.64 821.51 1171.97 821.422 1171.31 821.25C1170.78 820.156 1170.17 819.103 1169.47 818.094C1170.09 819.009 1170.6 820.131 1171.16 821.188C1168.1 820.399 1164.98 819.892 1161.84 819.5C1161.3 819.432 1160.74 819.4 1160.19 819.344C1159.94 818.855 1159.66 818.364 1159.44 817.875C1157.66 814.006 1155.53 810.424 1152.84 807.375C1152.6 807.282 1152.34 807.214 1152.09 807.125C1153.52 808.638 1154.84 810.232 1155.97 812.031C1157.35 814.239 1158.4 816.601 1159.53 818.938C1159.59 819.061 1159.66 819.189 1159.72 819.312C1158.63 819.211 1157.53 819.186 1156.44 819.188C1155.95 818.883 1155.49 818.511 1155 818.219C1152.34 816.641 1149.76 815.162 1146.72 814.469C1142.34 813.47 1137.79 813.89 1133.34 813.812C1132.36 813.795 1131.39 813.772 1130.41 813.781C1128.82 813.795 1127.05 813.953 1125.28 814.219C1125.39 813.823 1125.4 813.406 1125.59 813.031C1125.39 813.426 1125.3 813.83 1125.19 814.25C1122.65 814.643 1120.12 815.34 1118.22 816.844C1118 815.627 1117.76 814.425 1117.72 813.156C1117.67 811.46 1117.8 809.765 1118.09 808.094C1118.62 805.127 1119.7 802.258 1121.09 799.594C1121.4 799.006 1121.78 798.475 1122.12 797.906C1122.77 797.906 1123.42 797.869 1124.06 797.875ZM1125.59 813.031C1125.98 812.268 1126.5 811.574 1127.03 810.969C1126.91 811.102 1126.77 811.205 1126.66 811.344C1126.26 811.842 1125.9 812.432 1125.59 813.031ZM1152.09 807.125C1152.06 807.087 1152.04 807.038 1152 807C1151.45 806.807 1150.9 806.672 1150.34 806.5C1150.94 806.688 1151.51 806.915 1152.09 807.125ZM1150.34 806.5C1149.85 806.342 1149.38 806.108 1148.88 805.969C1148.67 805.912 1148.46 805.897 1148.25 805.844C1148.96 806.021 1149.64 806.282 1150.34 806.5ZM1148.25 805.844C1147.88 805.753 1147.52 805.672 1147.16 805.594C1147.52 805.676 1147.89 805.75 1148.25 805.844ZM1147.16 805.594C1145.66 805.259 1144.15 805.073 1142.62 805C1144.14 805.061 1145.66 805.274 1147.16 805.594ZM1142.62 805C1142.38 804.99 1142.15 804.971 1141.91 804.969C1142.15 804.972 1142.39 804.989 1142.62 805ZM1141.91 804.969C1141.45 804.962 1140.99 804.881 1140.53 804.906C1139.17 804.982 1137.82 805.238 1136.5 805.594C1134.95 806.012 1133.4 806.635 1131.91 807.375C1133.4 806.633 1134.94 806.046 1136.5 805.625C1138.29 805.141 1140.11 804.953 1141.91 804.969ZM1152.84 807.375C1153.52 807.629 1154.2 807.852 1154.88 808.125C1154.14 807.82 1153.44 807.496 1152.69 807.219C1152.74 807.274 1152.8 807.32 1152.84 807.375ZM1154.88 808.125C1155.5 808.387 1156.13 808.631 1156.75 808.906C1156.37 808.743 1156 808.532 1155.62 808.375C1155.38 808.274 1155.12 808.225 1154.88 808.125ZM1156.75 808.906C1157.65 809.293 1158.52 809.757 1159.41 810.188C1159.08 810.03 1158.79 809.807 1158.47 809.656C1157.91 809.396 1157.32 809.16 1156.75 808.906ZM1159.41 810.188C1161.16 811.047 1162.92 811.955 1164.5 813.094C1162.91 811.949 1161.17 811.05 1159.41 810.188ZM1164.5 813.094C1165.44 813.767 1166.3 814.508 1167.12 815.312C1166.3 814.505 1165.43 813.766 1164.5 813.094ZM1167.12 815.312C1167.74 815.91 1168.29 816.568 1168.81 817.25C1168.38 816.688 1167.96 816.099 1167.47 815.594C1167.36 815.487 1167.23 815.417 1167.12 815.312ZM1121.91 797.906C1121.76 798.151 1121.58 798.377 1121.44 798.625C1119.79 801.559 1118.53 804.74 1117.94 808.062C1117.57 810.154 1117.46 812.288 1117.62 814.406C1117.69 815.289 1117.94 816.112 1118.09 816.969C1117.08 817.808 1116.24 818.857 1115.69 820.188C1115.62 820.347 1115.62 820.524 1115.56 820.688C1113.72 820.575 1111.86 820.562 1110.03 820.844C1108.52 821.077 1107.1 821.567 1105.66 822.062C1104.42 822.485 1103.19 823.048 1101.94 823.531C1101.47 821.348 1101.08 819.133 1100.94 816.906C1100.78 814.556 1100.83 812.178 1101.38 809.875C1102.55 804.917 1106.08 802.009 1110.59 799.969C1111.46 799.577 1112.37 799.321 1113.28 799.031C1114.13 798.795 1114.98 798.554 1115.84 798.375C1117.84 798.03 1119.87 797.911 1121.91 797.906ZM1109.09 800.25C1105.05 802.344 1102.08 805.229 1101 809.781C1100.35 812.515 1100.4 815.346 1100.66 818.125C1100.81 819.833 1101.19 821.51 1101.53 823.188C1098.96 820.717 1096.61 817.994 1095.09 814.781C1094.35 813.208 1093.88 811.205 1094.69 809.562C1095.6 807.718 1097.34 806.165 1098.97 804.969C1101.99 802.756 1105.55 801.427 1109.09 800.25ZM1131.44 807.562C1130.71 807.948 1130.01 808.395 1129.34 808.875C1130 808.398 1130.71 807.946 1131.44 807.562ZM1129.06 809.062C1128.49 809.493 1127.99 809.991 1127.5 810.5C1127.99 809.994 1128.5 809.491 1129.06 809.062ZM1129.44 814.438C1130.41 814.412 1131.37 814.426 1132.34 814.438C1133.32 814.449 1134.31 814.456 1135.28 814.469C1139.08 814.518 1142.83 814.213 1146.56 815.062C1149.8 815.798 1152.64 817.493 1155.44 819.219C1154.76 819.246 1154.08 819.22 1153.41 819.312C1152.56 819.429 1151.76 819.676 1150.94 819.906C1148.27 819.343 1145.62 818.887 1142.94 818.625C1139.71 818.308 1136.43 818.212 1133.19 818.344C1130.88 818.438 1128.61 818.736 1126.31 818.969C1126.24 818.865 1126.13 818.794 1126.06 818.688C1126.12 818.777 1126.16 818.881 1126.22 818.969C1125.94 818.997 1125.66 819.036 1125.38 819.062C1123.35 819.251 1121.09 819.432 1119.03 820.062C1118.78 819.257 1118.52 818.458 1118.34 817.625C1120.13 816.065 1122.59 815.285 1125.06 814.875C1125.03 815.107 1124.9 815.328 1124.91 815.562C1124.92 816.072 1125.09 816.526 1125.25 817C1125.09 816.533 1124.95 816.065 1124.94 815.562C1124.93 815.316 1125.09 815.088 1125.12 814.844C1126.61 814.602 1128.1 814.472 1129.44 814.438ZM1126.06 818.688C1125.75 818.211 1125.48 817.71 1125.28 817.188C1125.47 817.707 1125.75 818.211 1126.06 818.688ZM1118.25 817.719C1118.43 818.537 1118.56 819.364 1118.81 820.156C1118.24 820.343 1117.65 820.536 1117.12 820.812C1116.82 820.785 1116.52 820.773 1116.22 820.75C1116.26 820.649 1116.24 820.538 1116.28 820.438C1116.73 819.339 1117.43 818.455 1118.25 817.719ZM1135.12 819.062C1139.02 819.008 1142.9 819.288 1146.75 819.875C1147.59 820.003 1148.41 820.216 1149.25 820.375C1148.61 820.596 1147.98 820.852 1147.34 821.094C1145.39 820.833 1143.42 820.655 1141.41 820.719C1138.95 820.797 1136.04 821.324 1133.59 822.5C1132.06 822.29 1130.53 822.073 1129 821.938C1128.98 821.922 1128.95 821.922 1128.94 821.906C1128.74 821.889 1128.54 821.86 1128.34 821.844C1125.47 821.602 1122.61 821.377 1119.75 821.062C1119.63 821.049 1119.5 821.045 1119.38 821.031C1119.35 820.957 1119.31 820.887 1119.28 820.812C1121.58 820.087 1124.18 819.974 1126.59 819.719C1126.68 819.71 1126.76 819.696 1126.84 819.688C1127.17 820.079 1127.49 820.423 1127.84 820.781C1127.52 820.442 1127.22 820.063 1126.91 819.688C1129.64 819.397 1132.37 819.101 1135.12 819.062ZM1127.84 820.781C1127.98 820.927 1128.11 821.111 1128.25 821.25C1128.35 821.349 1128.46 821.433 1128.56 821.531C1128.32 821.297 1128.09 821.032 1127.84 820.781ZM1158.28 820.031C1158.92 820.069 1159.55 820.184 1160.19 820.25C1160.61 821.06 1161.03 821.856 1161.44 822.688C1160.26 821.754 1159.05 820.89 1157.78 820.062C1157.95 820.07 1158.11 820.021 1158.28 820.031ZM1156.81 820.094C1158.29 821.024 1159.77 821.989 1161.12 823.062C1158.42 821.977 1155.65 821.092 1152.81 820.406C1153.06 820.359 1153.28 820.222 1153.53 820.188C1154.62 820.037 1155.72 820.082 1156.81 820.094ZM1160.66 820.312C1161.44 820.4 1162.22 820.457 1163 820.562C1165.95 820.962 1168.86 821.452 1171.72 822.25C1171.79 822.393 1171.87 822.512 1171.94 822.656C1171.88 822.536 1171.87 822.4 1171.81 822.281C1172.21 822.392 1172.61 822.436 1173 822.562C1175.15 823.257 1177.15 824.256 1179.19 825.219C1179.03 825.206 1178.88 825.198 1178.72 825.188C1176.77 825.059 1174.82 825.077 1172.88 825.062C1172.92 825.22 1172.99 825.373 1173.03 825.531C1172.98 825.368 1172.9 825.225 1172.84 825.062C1172.16 825.057 1171.47 825.063 1170.78 825.031C1168.87 824.944 1166.97 824.801 1165.06 824.781C1164.2 824.351 1163.32 823.976 1162.44 823.594C1162.31 823.488 1162.22 823.354 1162.09 823.25C1161.65 822.248 1161.17 821.284 1160.66 820.312ZM1172.84 825.062C1172.85 825.063 1172.86 825.062 1172.88 825.062C1172.62 824.229 1172.3 823.461 1171.94 822.656C1172.28 823.437 1172.58 824.236 1172.84 825.062ZM1151.38 820.812C1155.07 821.638 1158.66 822.811 1162.12 824.312C1162.21 824.519 1162.3 824.728 1162.38 824.938C1161.44 825.072 1160.53 825.302 1159.84 825.875C1156.73 823.573 1153.09 822.191 1149.25 821.438C1149.95 821.19 1150.66 821.011 1151.38 820.812ZM1119.12 820.906C1119.14 820.937 1119.15 820.969 1119.16 821C1119.07 820.991 1118.99 821.009 1118.91 821C1118.98 820.973 1119.05 820.932 1119.12 820.906ZM1114.91 821.125C1115.1 821.133 1115.28 821.176 1115.47 821.188C1115.36 821.584 1115.22 821.968 1115.16 822.375C1115.02 822.519 1114.84 822.592 1114.72 822.75C1114.09 823.544 1113.58 824.463 1113.22 825.406C1112.77 826.566 1112.53 827.794 1112.41 829.031C1112.34 829.701 1112.43 830.36 1112.44 831.031C1109.87 829.643 1107.37 828.123 1105.03 826.375C1104.06 825.648 1103.22 824.73 1102.31 823.906C1103.5 823.452 1104.67 822.933 1105.84 822.531C1107.26 822.045 1108.64 821.573 1110.12 821.344C1111.71 821.098 1113.3 821.053 1114.91 821.125ZM1116.09 821.219C1116.22 821.228 1116.34 821.271 1116.47 821.281C1116.29 821.399 1116.14 821.554 1115.97 821.688C1116.01 821.529 1116.05 821.375 1116.09 821.219ZM1118 821.406C1118.46 821.453 1118.92 821.481 1119.38 821.531C1121.36 826.781 1124.86 831.4 1129.22 835.188C1129.45 836.129 1129.79 837.043 1130.19 837.906C1127.49 837.236 1124.82 836.516 1122.22 835.531C1120.53 834.892 1118.89 834.125 1117.25 833.375C1117.02 832.584 1116.79 831.799 1116.59 831C1116 828.571 1115.41 825.793 1115.66 823.188C1116.34 822.436 1117.12 821.825 1118 821.406ZM1119.56 821.562C1119.6 821.567 1119.65 821.558 1119.69 821.562C1122.94 821.918 1126.24 822.101 1129.5 822.438C1130.06 822.966 1130.65 823.455 1131.22 823.969C1130.66 823.465 1130.1 822.957 1129.56 822.438C1129.65 822.446 1129.73 822.46 1129.81 822.469C1130.85 822.579 1131.87 822.801 1132.91 822.938C1132.33 823.265 1131.73 823.542 1131.25 823.969C1131.24 823.964 1131.22 823.974 1131.22 823.969C1130.27 824.819 1129.5 825.849 1129.09 827.156C1128.57 828.86 1128.55 830.712 1128.75 832.469C1128.84 833.295 1128.99 834.139 1129.19 834.969C1124.94 831.247 1121.53 826.689 1119.56 821.562ZM1140.66 821.594C1142.3 821.493 1143.91 821.652 1145.53 821.781C1144.07 822.348 1142.52 823.096 1141.06 823.969C1139.3 823.537 1137.56 823.058 1135.78 822.75C1135.67 822.731 1135.55 822.738 1135.44 822.719C1137.12 822.129 1138.88 821.703 1140.66 821.594ZM1147.62 821.906C1151.87 822.529 1155.84 824.064 1159.25 826.562C1159.22 826.615 1159.15 826.632 1159.12 826.688C1158.37 828.136 1159.08 829.933 1160 831.125C1160.52 831.795 1161.15 832.376 1161.84 832.906C1161.72 833.273 1161.59 833.637 1161.44 834C1160.9 834.073 1160.35 834.133 1159.81 834.188C1158.61 832.265 1157.16 830.395 1155.38 829.031C1152.19 826.597 1148.13 825.668 1144.31 824.719C1143.62 824.547 1142.91 824.424 1142.22 824.25C1143.97 823.29 1145.87 822.546 1147.62 821.906ZM1134.34 823.156C1135.28 823.3 1136.23 823.363 1137.16 823.562C1138.23 823.796 1139.3 824.07 1140.38 824.312C1138.79 825.361 1137.55 826.7 1136.78 828.375C1135.79 827.677 1134.76 827.046 1133.81 826.281C1134.75 827.046 1135.77 827.704 1136.75 828.406C1136.65 828.639 1136.46 828.816 1136.38 829.062C1136.2 829.609 1136.13 829.961 1136.06 830.531C1135.67 833.844 1140.09 834.302 1142.41 834.469C1142.89 834.503 1143.36 834.511 1143.84 834.531C1144.32 834.551 1144.8 834.547 1145.28 834.562C1145.78 834.579 1146.16 834.604 1146.66 834.625C1147.75 834.67 1148.85 834.761 1149.94 834.875C1153.13 835.879 1156.39 836.62 1159.72 837.062C1159.15 837.854 1158.64 838.682 1157.88 839.281C1155.59 841.078 1152.04 841.292 1149.25 841.312C1144.26 841.348 1139.37 840.177 1134.53 839C1133.08 838.062 1131.69 837.035 1130.34 835.938C1129.65 833.854 1129.34 831.603 1129.5 829.531C1129.61 828.17 1129.96 826.759 1130.75 825.625C1131.05 825.191 1131.5 824.921 1131.91 824.594C1131.91 824.599 1131.93 824.589 1131.94 824.594C1132.27 824.328 1132.51 823.972 1132.88 823.75C1133.33 823.472 1133.86 823.373 1134.34 823.156ZM1115.06 823.875C1114.94 826.975 1115.64 830.061 1116.47 833.031C1115.92 832.776 1115.35 832.581 1114.81 832.312C1114.3 832.06 1113.82 831.763 1113.31 831.5C1113.28 830.696 1113.08 829.895 1113.16 829.094C1113.31 827.552 1113.69 826.004 1114.41 824.625C1114.58 824.296 1114.86 824.157 1115.06 823.875ZM1102.03 824.094C1103.35 825.303 1104.64 826.523 1106.12 827.562C1108.15 828.98 1110.29 830.236 1112.47 831.406C1112.49 832.087 1112.4 832.762 1112.5 833.438C1112.72 834.962 1113.07 836.588 1113.78 837.969C1115.51 841.31 1119.3 843.022 1122.41 844.812C1124.58 846.065 1126.88 847.12 1129.22 848.031C1131.14 849.439 1133.12 850.72 1135.22 851.844C1132.27 851.877 1129.34 851.794 1126.38 851.344C1123.4 850.892 1120.51 850.121 1117.66 849.219C1110.04 842.955 1104.4 834.105 1102.09 824.531C1102.06 824.388 1102.06 824.237 1102.03 824.094ZM1101.72 824.156C1101.86 824.764 1101.87 825.398 1102.03 826C1104.48 834.866 1109.77 842.933 1116.75 848.938C1112.74 847.606 1108.82 845.942 1105.06 844C1102.6 842.726 1100.28 841.238 1097.81 839.969C1096.03 839.049 1094.17 838.267 1092.44 837.25C1091.32 836.594 1089.63 835.473 1089.75 833.969C1089.79 833.427 1090.12 832.927 1090.38 832.469C1091.06 831.23 1091.97 830.121 1093 829.156C1095.47 826.854 1098.56 825.407 1101.72 824.156ZM1162.62 824.5C1162.66 824.515 1162.68 824.547 1162.72 824.562C1162.82 824.652 1162.9 824.754 1163 824.844C1162.92 824.851 1162.83 824.866 1162.75 824.875C1162.71 824.75 1162.67 824.624 1162.62 824.5ZM1141.62 824.625C1143.41 825.038 1145.2 825.397 1146.97 825.875C1149.61 826.589 1152.29 827.466 1154.56 829.031C1156.46 830.338 1157.94 832.242 1159.22 834.25C1158.57 834.304 1157.94 834.457 1157.28 834.469C1155.35 834.502 1153.42 834.418 1151.5 834.219C1149.89 834.052 1148.31 833.785 1146.69 833.719C1146.64 833.717 1146.58 833.721 1146.53 833.719C1144.18 832.795 1141.89 831.709 1139.69 830.406C1139.97 830.574 1140.22 830.776 1140.5 830.938C1142.41 832.017 1144.42 832.919 1146.44 833.719C1145.58 833.687 1144.73 833.661 1143.88 833.625C1143.4 833.605 1142.94 833.596 1142.47 833.562C1140.82 833.445 1136.92 833.245 1136.94 830.844C1136.94 830.341 1137.06 829.82 1137.22 829.344C1137.27 829.175 1137.4 829.038 1137.47 828.875C1137.94 829.197 1138.39 829.539 1138.88 829.844C1138.39 829.539 1137.95 829.167 1137.47 828.844C1137.65 828.432 1137.83 828.021 1138.09 827.656C1139 826.384 1140.26 825.445 1141.62 824.625ZM1165 825.594C1167.32 826.769 1169.57 828.049 1171.69 829.594C1172.19 829.958 1172.68 830.394 1173.19 830.781C1172.97 831.381 1172.84 831.763 1172.56 832.344C1171.47 832.549 1170.38 832.711 1169.28 832.875C1168.36 830.113 1166.76 827.733 1164.75 825.625C1164.84 825.625 1164.91 825.593 1165 825.594ZM1166.62 825.656C1167.6 825.727 1168.61 825.817 1169.47 825.875C1172.04 826.049 1174.61 825.939 1177.19 826.031C1177.68 826.049 1178.17 826.062 1178.66 826.094C1179.86 826.173 1181.11 826.246 1182.28 826.594C1182.52 826.699 1182.76 826.83 1183 826.938C1183.09 826.995 1183.12 827.054 1183.16 827.125C1183.17 827.208 1183.18 827.291 1183.19 827.375C1183 827.734 1182.56 828.124 1182.34 828.312C1181.92 828.688 1181.5 829.026 1181.03 829.344C1179.36 830.464 1177.44 831.151 1175.5 831.688C1174.86 831.111 1174.21 830.645 1173.53 830.125C1173.54 830.052 1173.49 829.979 1173.5 829.906C1173.49 829.947 1173.45 830.018 1173.44 830.062C1172.48 829.333 1171.51 828.561 1170.59 827.938C1169.33 827.075 1167.97 826.389 1166.62 825.656ZM1173.5 829.906C1173.51 829.834 1173.59 829.685 1173.59 829.625C1173.66 828.42 1173.46 827.199 1173.16 825.969C1173.49 827.253 1173.62 828.595 1173.5 829.906ZM1163.94 825.719C1166.03 827.832 1167.74 830.205 1168.69 833C1167.88 833.118 1167.08 833.256 1166.28 833.375C1165.8 832.535 1165.36 831.626 1164.84 830.906C1164.29 830.148 1163.71 829.478 1163.09 828.812C1163.14 828.319 1163.33 827.841 1163.28 827.344C1163.23 826.83 1163.09 826.34 1162.97 825.844C1163.29 825.799 1163.6 825.737 1163.94 825.719ZM1162.66 825.875C1162.82 826.525 1162.94 827.163 1162.97 827.844C1162.98 828.075 1162.89 828.3 1162.88 828.531C1162.16 827.779 1161.38 827.103 1160.59 826.469C1160.79 826.323 1160.97 826.167 1161.25 826.062C1161.67 825.906 1162.19 825.955 1162.66 825.875ZM1160.03 827.062C1160.97 827.816 1161.86 828.672 1162.69 829.594C1162.57 830.262 1162.56 830.95 1162.38 831.594C1162.33 831.739 1162.26 831.886 1162.22 832.031C1161.33 831.342 1160.56 830.545 1160.09 829.562C1159.65 828.63 1159.63 827.751 1160.03 827.062ZM1184.12 827.438C1184.44 827.583 1184.76 827.725 1185.06 827.875C1188.12 829.394 1191.44 831.841 1191.62 835.375C1191.46 835.455 1191.33 835.589 1191.16 835.656C1188.1 836.841 1184.66 836.576 1181.44 836.844C1182.08 835.512 1182.61 834.15 1182.97 832.719C1183.27 831.503 1183.47 830.254 1183.5 829C1183.5 828.841 1183.44 828.69 1183.44 828.531C1183.77 828.217 1184.04 827.856 1184.12 827.438ZM1183.25 828.719C1183.24 829.299 1183.26 829.869 1183.19 830.438C1182.95 832.44 1182.33 834.415 1181.5 836.25C1181.4 836.465 1181.23 836.632 1181.12 836.844C1181 836.856 1180.87 836.861 1180.75 836.875C1180.3 836.926 1179.85 836.92 1179.41 836.969C1179.31 836.714 1179.28 836.436 1179.16 836.188C1178.48 834.809 1177.42 833.589 1176.25 832.438C1178.67 831.712 1181.02 830.676 1182.94 829C1183.03 828.922 1183.15 828.811 1183.25 828.719ZM1162.94 829.906C1163.49 830.541 1164.04 831.161 1164.53 831.875C1164.84 832.326 1165.09 832.993 1165.41 833.531C1165.3 833.547 1165.2 833.546 1165.09 833.562C1164.21 833.215 1163.27 832.857 1162.47 832.281C1162.53 832.08 1162.66 831.887 1162.72 831.688C1162.88 831.109 1162.83 830.498 1162.94 829.906ZM1173.31 830.875C1173.76 831.219 1174.19 831.569 1174.62 831.938C1174.35 832.003 1174.08 832.098 1173.81 832.156C1173.46 832.231 1173.1 832.276 1172.75 832.344C1173 831.881 1173.16 831.381 1173.31 830.875ZM1113.34 831.844C1114.28 832.334 1115.2 832.861 1116.16 833.312C1116.3 833.38 1116.45 833.433 1116.59 833.5C1117.08 835.213 1117.52 836.923 1118.5 838.438C1120.38 841.345 1123.34 843.482 1126 845.625C1126.07 845.685 1126.14 845.753 1126.22 845.812C1124.48 844.973 1122.76 844.127 1121.06 843.156C1118.72 841.819 1116.15 840.381 1114.72 838C1114.08 836.946 1113.75 835.724 1113.5 834.531C1113.31 833.653 1113.4 832.741 1113.34 831.844ZM1175.5 832.656C1176.71 833.79 1177.81 835.035 1178.53 836.5C1178.61 836.667 1178.62 836.861 1178.69 837.031C1175.85 837.329 1173.02 837.578 1170.16 837.625C1170.13 836.783 1170.05 835.972 1169.91 835.188C1170.34 835.104 1170.79 835.009 1171.19 834.812C1171.4 834.708 1171.18 834.799 1172.22 834.062C1172.4 833.892 1172.42 833.622 1172.25 833.438C1172.21 833.394 1172.14 833.462 1172.09 833.438C1172.12 833.4 1172.18 833.308 1172.22 833.25C1173.31 833.05 1174.43 832.948 1175.5 832.656ZM1162.16 833.094C1162.5 833.338 1162.85 833.574 1163.22 833.781C1162.75 833.854 1162.28 833.903 1161.81 833.969C1161.93 833.675 1162.05 833.389 1162.16 833.094ZM1172.16 833.25C1172.13 833.295 1172.08 833.408 1172.06 833.438C1171.91 833.376 1171.73 833.285 1171.59 833.406C1170.77 833.996 1171.16 833.812 1170.78 834C1170.46 834.158 1170.1 834.275 1169.75 834.344C1169.7 834.127 1169.62 833.931 1169.56 833.719C1170.43 833.59 1171.29 833.407 1172.16 833.25ZM1117.34 833.781C1119.83 834.911 1122.38 835.98 1124.97 836.844C1126.74 837.434 1128.56 837.8 1130.38 838.25C1132.32 842.115 1136.35 844.757 1140 846.812C1142.05 847.966 1144.23 848.828 1146.44 849.562C1145.06 849.77 1143.68 849.943 1142.25 849.938C1139.97 849.929 1137.69 849.661 1135.47 849.188C1133.23 848.711 1131.13 847.913 1129.06 847.062C1127.82 846.131 1126.55 845.201 1125.34 844.219C1122.86 842.193 1120.1 840.14 1118.56 837.25C1118.03 836.247 1117.75 835.177 1117.44 834.094C1117.41 833.989 1117.37 833.886 1117.34 833.781ZM1168.94 833.844C1168.98 834.013 1169.05 834.172 1169.09 834.344C1168.38 834.397 1167.68 834.339 1166.97 834.188C1167.63 834.093 1168.28 833.939 1168.94 833.844ZM1165.19 834.469C1165.47 834.568 1165.74 834.672 1166.03 834.75C1166.49 835.691 1166.9 836.558 1167.09 837.562C1165.18 837.515 1163.25 837.454 1161.34 837.25C1161.19 836.9 1161.05 836.556 1160.88 836.219C1161.09 835.841 1161.19 835.426 1161.38 835.031C1162.65 834.87 1163.91 834.664 1165.19 834.469ZM1150.41 834.938C1152.3 835.141 1154.21 835.356 1156.12 835.375C1157.36 835.387 1158.57 835.242 1159.78 835.125C1159.99 835.48 1160.22 835.831 1160.41 836.188C1160.23 836.492 1159.95 836.712 1159.75 837C1156.57 836.579 1153.46 835.868 1150.41 834.938ZM1161 835.062C1160.88 835.305 1160.85 835.576 1160.72 835.812C1160.6 835.583 1160.53 835.316 1160.41 835.094C1160.6 835.072 1160.8 835.086 1161 835.062ZM1167.28 835.125C1167.47 835.154 1167.66 835.263 1167.84 835.281C1168.33 835.329 1168.82 835.326 1169.31 835.281C1169.45 836.05 1169.57 836.831 1169.59 837.656C1169.07 837.66 1168.55 837.6 1168.03 837.594C1167.89 836.752 1167.62 835.933 1167.28 835.125ZM1191.62 835.469C1191.65 836.075 1191.79 836.637 1191.59 837.312C1190.85 839.877 1188.8 841.975 1186.84 843.688C1185.12 845.196 1183.28 846.716 1181.22 847.75C1181.22 846.597 1181.17 845.436 1181.03 844.312C1180.84 842.716 1180.53 841.132 1180.19 839.562C1180.16 839.423 1180.09 839.295 1180.06 839.156C1180.53 838.41 1181.02 837.697 1181.41 836.906C1184.65 836.634 1188.11 836.94 1191.19 835.75C1191.35 835.686 1191.47 835.544 1191.62 835.469ZM1130.44 836.281C1131.61 837.226 1132.84 838.08 1134.09 838.906C1133.19 838.686 1132.28 838.494 1131.38 838.281C1131.01 837.643 1130.69 836.989 1130.44 836.281ZM1160.66 836.562C1160.75 836.758 1160.78 836.987 1160.88 837.188C1160.67 837.165 1160.48 837.118 1160.28 837.094C1160.4 836.913 1160.54 836.75 1160.66 836.562ZM1180.75 836.938C1180.86 836.925 1180.98 836.948 1181.09 836.938C1180.78 837.585 1180.31 838.132 1179.94 838.75C1179.8 838.167 1179.61 837.592 1179.41 837.031C1179.85 836.983 1180.3 836.988 1180.75 836.938ZM1178.72 837.094C1179.03 837.879 1179.26 838.702 1179.44 839.531C1178.89 840.36 1178.51 841.272 1177.88 842.031C1177.26 842.772 1176.63 843.506 1175.81 844.031C1173.39 845.594 1170.28 845.443 1167.47 845.531C1167.8 845.232 1168.14 844.955 1168.41 844.594C1169.79 842.72 1170.21 840.282 1170.19 838C1170.19 837.902 1170.16 837.816 1170.16 837.719C1173.03 837.674 1175.86 837.391 1178.72 837.094ZM1160.25 837.125C1160.47 837.152 1160.69 837.225 1160.91 837.25C1161.83 839.307 1162.49 841.564 1162.12 843.812C1162.02 844.451 1161.71 844.995 1161.47 845.562C1161.1 845.74 1160.73 845.908 1160.34 846.062C1158.71 846.183 1157.08 846.272 1155.44 846.219C1151.21 846.081 1147.08 845.012 1143.16 843.469C1140.57 842.453 1138.01 841.119 1135.53 839.594C1140.02 840.667 1144.61 841.686 1149.25 841.656C1151.92 841.639 1155.31 841.407 1157.59 839.875C1158.66 839.16 1159.52 838.192 1160.25 837.125ZM1161.38 837.312C1163.29 837.517 1165.21 837.608 1167.12 837.656C1167.33 838.755 1167.36 839.839 1166.97 840.844C1166.31 842.522 1164.7 843.88 1163.22 844.812C1162.9 845.013 1162.52 845.073 1162.19 845.25C1162.34 844.808 1162.52 844.388 1162.59 843.906C1162.96 841.658 1162.29 839.408 1161.38 837.312ZM1168.03 837.688C1168.55 837.694 1169.07 837.754 1169.59 837.75C1169.6 837.837 1169.62 837.912 1169.62 838C1169.65 840.153 1169.24 842.479 1167.94 844.25C1167.55 844.772 1167.02 845.158 1166.5 845.562C1165.31 845.634 1164.12 845.77 1162.94 845.875C1163.64 845.477 1164.34 845.076 1164.97 844.562C1166.39 843.409 1167.71 841.922 1168.03 840.062C1168.17 839.27 1168.15 838.481 1168.03 837.688ZM1131.53 838.562C1132.63 838.827 1133.71 839.145 1134.81 839.406C1137.87 841.343 1141.1 842.927 1144.31 844.094C1147.9 845.397 1151.61 846.28 1155.44 846.406C1156.93 846.456 1158.39 846.35 1159.88 846.25C1157.41 847.186 1154.82 847.889 1152.28 848.438C1151 848.715 1149.74 848.971 1148.47 849.219C1145.26 848.301 1142.12 847.104 1139.25 845.375C1136.58 843.77 1133.86 841.923 1132 839.375C1131.82 839.126 1131.69 838.83 1131.53 838.562ZM1179.56 840C1179.88 841.455 1180.13 842.928 1180.31 844.406C1180.46 845.596 1180.49 846.825 1180.47 848.062C1178.47 848.931 1176.33 849.419 1174.19 849.75C1168.68 850.599 1163.02 851.182 1157.44 850.844C1157.88 850.55 1158.25 850.204 1158.66 849.875C1160.87 849.241 1163.04 848.475 1165.03 847.312C1165.81 846.859 1166.56 846.334 1167.25 845.75C1170.02 845.645 1173.04 845.829 1175.53 844.469C1176.98 843.679 1178.01 842.268 1178.97 840.969C1179.19 840.664 1179.35 840.315 1179.56 840ZM1166.25 845.812C1165.44 846.402 1164.58 846.898 1163.72 847.344C1162.41 848.023 1161.02 848.513 1159.62 848.969C1160.37 848.239 1161.1 847.496 1161.59 846.594C1161.93 846.438 1162.27 846.269 1162.59 846.094C1163.81 845.988 1165.03 845.89 1166.25 845.812ZM1160.91 846.875C1160.31 847.806 1159.55 848.613 1158.69 849.344C1157.1 849.808 1155.47 850.132 1153.84 850.406C1153 850.289 1152.15 850.233 1151.31 850.062C1150.91 849.98 1150.53 849.814 1150.12 849.719C1150.9 849.55 1151.68 849.387 1152.47 849.219C1155.26 848.618 1158.21 847.995 1160.91 846.875ZM1180.5 848.906C1180.41 850.424 1180.12 851.937 1179.5 853.312C1176.49 859.955 1167.96 858.625 1162.09 858.156C1160.98 858.067 1159.83 858.012 1158.72 857.906C1155.06 857.558 1151.46 856.854 1147.91 855.906C1147.53 855.806 1147.16 855.667 1146.78 855.562C1147.91 855.147 1149.03 854.728 1150.16 854.312C1152.06 853.611 1154.17 852.686 1156.16 851.562C1157.5 851.683 1158.84 851.801 1160.19 851.812C1163.69 851.843 1167.15 851.514 1170.62 851.094C1173.96 850.691 1177.38 850.2 1180.5 848.906ZM1131.78 849C1135.53 850.187 1139.43 850.849 1143.41 850.719C1145.06 850.664 1146.68 850.434 1148.28 850.125C1149.07 850.346 1149.85 850.577 1150.66 850.75C1147.58 851.108 1144.49 851.413 1141.41 851.625C1139.77 851.737 1138.15 851.768 1136.53 851.812C1134.87 850.988 1133.32 850.026 1131.78 849ZM1118.41 849.906C1121.01 850.69 1123.62 851.463 1126.31 851.875C1129.29 852.33 1132.27 852.563 1135.28 852.531C1135.62 852.528 1135.95 852.479 1136.28 852.469C1136.31 852.485 1136.34 852.515 1136.38 852.531C1139.08 853.86 1141.97 854.816 1144.88 855.688C1143.77 856.084 1142.69 856.533 1141.53 856.781C1137.96 857.546 1134.27 857.412 1130.75 856.469C1126.34 855.286 1122.32 852.956 1118.72 850.188C1118.61 850.102 1118.52 849.993 1118.41 849.906ZM1157.59 850.156C1157.29 850.368 1157.03 850.618 1156.72 850.812C1156.35 850.785 1155.99 850.692 1155.62 850.656C1156.29 850.522 1156.94 850.323 1157.59 850.156ZM1152.56 851.094C1153.5 851.253 1154.43 851.431 1155.38 851.531C1154.91 851.782 1154.43 852.065 1153.97 852.281C1151.64 853.362 1149.21 854.171 1146.81 855.062C1146.54 855.163 1146.27 855.243 1146 855.344C1143.22 854.545 1140.47 853.567 1137.84 852.375C1139.45 852.287 1141.05 852.198 1142.66 852.094C1145.97 851.879 1149.27 851.566 1152.56 851.094Z" fill="#908e8e" stroke="none"/>
</g>
</g>
</svg>
