<?xml version="1.0" encoding="UTF-8" standalone="no"?>
<!DOCTYPE svg PUBLIC "-//W3C//DTD SVG 1.1//EN" "http://www.w3.org/Graphics/SVG/1.1/DTD/svg11.dtd"
[
<!ATTLIST g
  xmlns:vectornator CDATA #FIXED "http://vectornator.io"
  vectornator:layerName CDATA #IMPLIED >
<!ATTLIST g
  xmlns:vectornator CDATA #FIXED "http://vectornator.io"
  vectornator:mask CDATA #IMPLIED >
<!ATTLIST text
  xmlns:vectornator CDATA #FIXED "http://vectornator.io"
  vectornator:width CDATA #IMPLIED >
<!ATTLIST text
  xmlns:vectornator CDATA #FIXED "http://vectornator.io"
  vectornator:text CDATA #IMPLIED >

<!ATTLIST path
  xmlns:vectornator CDATA #FIXED "http://vectornator.io"
  vectornator:blendMode CDATA #IMPLIED >
<!ATTLIST path
  xmlns:vectornator CDATA #FIXED "http://vectornator.io"
  vectornator:shadowColor CDATA #IMPLIED >
<!ATTLIST path
  xmlns:vectornator CDATA #FIXED "http://vectornator.io"
  vectornator:shadowOpacity CDATA #IMPLIED >
<!ATTLIST path
  xmlns:vectornator CDATA #FIXED "http://vectornator.io"
  vectornator:shadowRadius CDATA #IMPLIED >
<!ATTLIST path
  xmlns:vectornator CDATA #FIXED "http://vectornator.io"
  vectornator:shadowOffset CDATA #IMPLIED >
<!ATTLIST path
  xmlns:vectornator CDATA #FIXED "http://vectornator.io"
  vectornator:shadowAngle CDATA #IMPLIED >

<!ATTLIST image
  xmlns:vectornator CDATA #FIXED "http://vectornator.io"
  vectornator:blendMode CDATA #IMPLIED >
<!ATTLIST image
  xmlns:vectornator CDATA #FIXED "http://vectornator.io"
  vectornator:shadowColor CDATA #IMPLIED >
<!ATTLIST image
  xmlns:vectornator CDATA #FIXED "http://vectornator.io"
  vectornator:shadowOpacity CDATA #IMPLIED >
<!ATTLIST image
  xmlns:vectornator CDATA #FIXED "http://vectornator.io"
  vectornator:shadowRadius CDATA #IMPLIED >
<!ATTLIST image
  xmlns:vectornator CDATA #FIXED "http://vectornator.io"
  vectornator:shadowOffset CDATA #IMPLIED >
<!ATTLIST image
  xmlns:vectornator CDATA #FIXED "http://vectornator.io"
  vectornator:shadowAngle CDATA #IMPLIED >

<!ATTLIST g
  xmlns:vectornator CDATA #FIXED "http://vectornator.io"
  vectornator:blendMode CDATA #IMPLIED >
<!ATTLIST g
  xmlns:vectornator CDATA #FIXED "http://vectornator.io"
  vectornator:shadowColor CDATA #IMPLIED >
<!ATTLIST g
  xmlns:vectornator CDATA #FIXED "http://vectornator.io"
  vectornator:shadowOpacity CDATA #IMPLIED >
<!ATTLIST g
  xmlns:vectornator CDATA #FIXED "http://vectornator.io"
  vectornator:shadowRadius CDATA #IMPLIED >
<!ATTLIST g
  xmlns:vectornator CDATA #FIXED "http://vectornator.io"
  vectornator:shadowOffset CDATA #IMPLIED >
<!ATTLIST g
  xmlns:vectornator CDATA #FIXED "http://vectornator.io"
  vectornator:shadowAngle CDATA #IMPLIED >

<!ENTITY % SVG.filter.extra.content  "| feDropShadow" >
<!ELEMENT feDropShadow EMPTY>
<!ATTLIST feDropShadow
  xmlns:svg CDATA #FIXED "http://www.w3.org/Graphics/SVG/1.1/DTD/svg11.dtd"
  dx CDATA #IMPLIED>
<!ATTLIST feDropShadow
  xmlns:svg CDATA #FIXED "http://www.w3.org/Graphics/SVG/1.1/DTD/svg11.dtd"
  dy CDATA #IMPLIED>
<!ATTLIST feDropShadow
  xmlns:svg CDATA #FIXED "http://www.w3.org/Graphics/SVG/1.1/DTD/svg11.dtd"
  stdDeviation CDATA #IMPLIED>
<!ATTLIST feDropShadow
  xmlns:svg CDATA #FIXED "http://www.w3.org/Graphics/SVG/1.1/DTD/svg11.dtd"
  flood-opacity CDATA #IMPLIED>
<!ATTLIST feDropShadow
  xmlns:svg CDATA #FIXED "http://www.w3.org/Graphics/SVG/1.1/DTD/svg11.dtd"
  in CDATA #IMPLIED>
<!ATTLIST feDropShadow
  xmlns:svg CDATA #FIXED "http://www.w3.org/Graphics/SVG/1.1/DTD/svg11.dtd"
  result CDATA #IMPLIED>
<!ATTLIST feDropShadow
  xmlns:svg CDATA #FIXED "http://www.w3.org/Graphics/SVG/1.1/DTD/svg11.dtd"
  flood-color CDATA #IMPLIED>
]
>
<!-- Created with Vectornator (http://vectornator.io/) -->
<svg height="100%" stroke-miterlimit="10" style="fill-rule:nonzero;clip-rule:evenodd;stroke-linecap:round;stroke-linejoin:round;" version="1.1" viewBox="0 0 2048 2048" width="100%" xml:space="preserve" xmlns="http://www.w3.org/2000/svg" xmlns:vectornator="http://vectornator.io" xmlns:xlink="http://www.w3.org/1999/xlink">
<defs>
<filter color-interpolation-filters="sRGB" filterUnits="userSpaceOnUse" height="269.828" id="Filter" width="264.771" x="480.75" y="219.061">
<feGaussianBlur in="SourceGraphic" result="Blur" stdDeviation="50"/>
</filter>
<filter color-interpolation-filters="sRGB" filterUnits="userSpaceOnUse" height="351.577" id="Filter_2" width="366.802" x="703.922" y="659.426">
<feGaussianBlur in="SourceGraphic" result="Blur" stdDeviation="50"/>
</filter>
<filter color-interpolation-filters="sRGB" filterUnits="userSpaceOnUse" height="318.895" id="Filter_3" width="351.582" x="972.942" y="674.172">
<feGaussianBlur in="SourceGraphic" result="Blur" stdDeviation="50"/>
</filter>
<filter color-interpolation-filters="sRGB" filterUnits="userSpaceOnUse" height="299.059" id="Filter_4" width="326.19" x="1009.42" y="684.463">
<feGaussianBlur in="SourceGraphic" result="Blur" stdDeviation="50"/>
</filter>
</defs>
<g id="Layer-1" vectornator:layerName="Layer 1">
<path d="M1022.98 545.28C982.699 545.621 953.856 546.304 936.448 547.328C919.04 548.352 897.536 550.229 871.936 552.96C846.336 555.691 819.541 559.616 791.552 564.736C763.563 569.856 741.205 575.147 724.48 580.608C707.755 586.069 694.272 591.019 684.032 595.456C673.792 599.893 656.896 608.597 633.344 621.568C609.792 634.539 590.848 645.632 576.512 654.848C562.176 664.064 549.205 671.573 537.6 677.376C525.995 683.179 509.44 688.811 487.936 694.272C466.432 699.733 441.173 708.437 412.16 720.384C383.147 732.331 361.984 739.669 348.672 742.4C335.36 745.131 323.925 746.667 314.368 747.008C304.811 747.349 295.083 749.227 285.184 752.64C275.285 756.053 266.752 760.149 259.584 764.928C252.416 769.707 246.784 774.144 242.688 778.24C238.592 782.336 234.325 787.797 229.888 794.624C225.451 801.451 221.696 809.301 218.624 818.176C215.552 827.051 213.333 835.755 211.968 844.288C210.603 852.821 209.92 863.915 209.92 877.568C209.92 891.221 210.603 901.461 211.968 908.288C213.333 915.115 215.723 923.477 219.136 933.376C222.549 943.275 228.352 955.051 236.544 968.704C244.736 982.357 253.781 994.816 263.68 1006.08C273.579 1017.34 286.037 1029.29 301.056 1041.92C316.075 1054.55 328.533 1063.59 338.432 1069.06C348.331 1074.52 361.643 1079.98 378.368 1085.44C395.093 1090.9 412.501 1095.68 430.592 1099.78C448.683 1103.87 471.211 1108.14 498.176 1112.58C525.141 1117.01 556.203 1121.28 591.36 1125.38C626.517 1129.47 676.352 1132.54 740.864 1134.59C805.376 1136.64 890.368 1137.66 995.84 1137.66C1101.31 1137.66 1170.94 1136.81 1204.74 1135.1C1238.53 1133.4 1283.41 1132.03 1339.39 1131.01C1395.37 1129.98 1451.52 1126.91 1507.84 1121.79C1564.16 1116.67 1599.83 1113.09 1614.85 1111.04C1629.87 1108.99 1646.93 1106.09 1666.05 1102.34C1685.16 1098.58 1703.59 1093.63 1721.34 1087.49C1739.09 1081.34 1753.26 1075.03 1763.84 1068.54C1774.42 1062.06 1782.78 1055.06 1788.93 1047.55C1795.07 1040.04 1801.39 1029.63 1807.87 1016.32C1814.36 1003.01 1817.6 991.232 1817.6 980.992C1817.6 970.752 1816.58 962.219 1814.53 955.392C1812.48 948.565 1809.07 939.861 1804.29 929.28C1799.51 918.699 1790.29 906.923 1776.64 893.952C1762.99 880.981 1753.94 871.083 1749.5 864.256C1745.07 857.429 1740.46 849.237 1735.68 839.68C1730.9 830.123 1725.61 821.76 1719.81 814.592C1714.01 807.424 1707.86 798.379 1701.38 787.456C1694.89 776.533 1688.06 767.317 1680.9 759.808C1673.73 752.299 1660.59 741.547 1641.47 727.552C1622.36 713.557 1603.75 700.928 1585.66 689.664C1567.57 678.4 1545.05 665.771 1518.08 651.776C1491.11 637.781 1462.27 624.299 1431.55 611.328C1400.83 598.357 1371.48 587.605 1343.49 579.072C1315.5 570.539 1288.19 563.541 1261.57 558.08C1234.94 552.619 1214.81 549.205 1201.15 547.84C1187.5 546.475 1164.46 545.621 1132.03 545.28C1099.61 544.939 1063.25 544.939 1022.98 545.28Z" fill="#000000" fill-rule="evenodd" opacity="1" stroke="#000000" stroke-linecap="round" stroke-linejoin="round" stroke-width="1"/>
<path d="M963.072 548.352C938.155 549.376 914.261 550.912 891.392 552.96C868.523 555.008 843.605 558.08 816.64 562.176C789.675 566.272 769.536 569.856 756.224 572.928C742.912 576 728.917 580.267 714.24 585.728C699.563 591.189 685.568 596.992 672.256 603.136C658.944 609.28 636.928 621.568 606.208 640C575.488 658.432 553.984 670.891 541.696 677.376C529.408 683.861 519.168 688.299 510.976 690.688C502.784 693.077 494.421 694.955 485.888 696.32C477.355 697.685 469.504 699.563 462.336 701.952C455.168 704.341 438.955 710.997 413.696 721.92C388.437 732.843 368.64 739.84 354.304 742.912C339.968 745.984 326.997 747.861 315.392 748.544C303.787 749.227 294.229 750.933 286.72 753.664C279.211 756.395 271.872 759.979 264.704 764.416C257.536 768.853 251.221 773.632 245.76 778.752C240.299 783.872 236.373 788.139 233.984 791.552C231.595 794.965 228.864 799.915 225.792 806.4C222.72 812.885 220.331 819.2 218.624 825.344C216.917 831.488 215.381 839.68 214.016 849.92C212.651 860.16 211.968 869.547 211.968 878.08C211.968 886.613 212.821 895.659 214.528 905.216C216.235 914.773 219.819 926.549 225.28 940.544C230.741 954.539 237.056 966.827 244.224 977.408C251.392 987.989 260.608 999.253 271.872 1011.2C283.136 1023.15 295.936 1034.75 310.272 1046.02C324.608 1057.28 337.92 1065.81 350.208 1071.62C362.496 1077.42 378.88 1083.22 399.36 1089.02C419.84 1094.83 444.416 1100.29 473.088 1105.41C501.76 1110.53 539.648 1115.99 586.752 1121.79C633.856 1127.59 688.128 1131.35 749.568 1133.06C811.008 1134.76 893.781 1135.62 997.888 1135.62C1101.99 1135.62 1171.8 1134.76 1207.3 1133.06C1242.79 1131.35 1288.53 1129.98 1344.51 1128.96C1400.49 1127.94 1462.95 1123.84 1531.9 1116.67C1600.85 1109.5 1645.4 1104.04 1665.54 1100.29C1685.67 1096.53 1704.79 1091.41 1722.88 1084.93C1740.97 1078.44 1754.45 1072.47 1763.33 1067.01C1772.2 1061.55 1779.71 1055.23 1785.86 1048.06C1792 1040.9 1797.97 1032.19 1803.78 1021.95C1809.58 1011.71 1813.33 1003.35 1815.04 996.864C1816.75 990.379 1817.6 985.088 1817.6 980.992C1817.6 976.896 1816.92 971.776 1815.55 965.632C1814.19 959.488 1810.94 950.101 1805.82 937.472C1800.7 924.843 1790.46 910.848 1775.1 895.488C1759.74 880.128 1749.85 868.864 1745.41 861.696C1740.97 854.528 1737.05 847.189 1733.63 839.68C1730.22 832.171 1725.44 824.661 1719.3 817.152C1713.15 809.643 1707.35 801.109 1701.89 791.552C1696.43 781.995 1691.65 774.485 1687.55 769.024C1683.46 763.563 1676.12 756.565 1665.54 748.032C1654.95 739.499 1640.45 728.747 1622.02 715.776C1603.58 702.805 1582.08 689.323 1557.5 675.328C1532.93 661.333 1508.35 648.363 1483.78 636.416C1459.2 624.469 1435.31 613.888 1412.1 604.672C1388.89 595.456 1364.31 586.923 1338.37 579.072C1312.43 571.221 1286.49 564.736 1260.54 559.616C1234.6 554.496 1214.98 551.253 1201.66 549.888C1188.35 548.523 1151.49 547.669 1091.07 547.328C1030.66 546.987 987.989 547.328 963.072 548.352Z" fill="#8e9090" fill-rule="evenodd" opacity="1" stroke="#ffffff" stroke-linecap="round" stroke-linejoin="round" stroke-width="1"/>
<path d="M1055.74 683.52C1054.38 683.861 1053.35 684.885 1052.67 686.592C1051.99 688.299 1053.7 692.053 1057.79 697.856C1061.89 703.659 1066.67 708.096 1072.13 711.168C1077.59 714.24 1083.22 715.776 1089.02 715.776C1091.93 715.776 1094.83 715.776 1097.73 715.776C1097.73 715.435 1097.73 715.093 1097.73 714.752C1097.73 714.069 1096.7 713.557 1094.66 713.216C1092.61 712.875 1089.02 710.997 1083.9 707.584C1078.78 704.171 1075.03 699.221 1072.64 692.736C1070.25 686.251 1067.18 683.008 1063.42 683.008C1059.67 683.008 1057.11 683.179 1055.74 683.52Z" fill="#000000" fill-rule="evenodd" opacity="1" stroke="#000000" stroke-linecap="round" stroke-linejoin="round" stroke-width="1"/>
<path d="M954.88 695.296C953.173 700.757 951.296 704.512 949.248 706.56C947.2 708.608 943.104 711.339 936.96 714.752C933.888 716.459 930.816 718.165 927.744 719.872C929.621 720.043 931.499 720.213 933.376 720.384C937.131 720.725 940.544 720.555 943.616 719.872C946.688 719.189 950.101 717.824 953.856 715.776C957.611 713.728 961.195 710.997 964.608 707.584C968.021 704.171 970.581 700.416 972.288 696.32C973.995 692.224 973.824 689.664 971.776 688.64C969.728 687.616 966.827 687.104 963.072 687.104C959.317 687.104 956.587 689.835 954.88 695.296Z" fill="#000000" fill-rule="evenodd" opacity="1" stroke="#000000" stroke-linecap="round" stroke-linejoin="round" stroke-width="1"/>
<path d="M1062.4 729.088C1057.96 730.453 1054.21 732.501 1051.14 735.232C1048.06 737.963 1045.5 741.035 1043.46 744.448C1041.41 747.861 1039.87 753.323 1038.85 760.832C1037.82 768.341 1037.99 774.656 1039.36 779.776C1040.73 784.896 1043.29 790.016 1047.04 795.136C1050.79 800.256 1054.04 803.669 1056.77 805.376C1059.5 807.083 1064.11 808.277 1070.59 808.96C1077.08 809.643 1081.86 809.472 1084.93 808.448C1088 807.424 1091.58 805.035 1095.68 801.28C1099.78 797.525 1103.02 792.747 1105.41 786.944C1107.8 781.141 1108.99 775.68 1108.99 770.56C1108.99 765.44 1108.48 760.661 1107.46 756.224C1106.43 751.787 1103.7 746.837 1099.26 741.376C1094.83 735.915 1090.73 732.331 1086.98 730.624C1083.22 728.917 1079.3 727.893 1075.2 727.552C1071.1 727.211 1066.84 727.723 1062.4 729.088Z" fill="#000000" fill-rule="evenodd" opacity="1" stroke="#000000" stroke-linecap="round" stroke-linejoin="round" stroke-width="1"/>
<path d="M939.52 732.16C935.083 733.525 930.816 736.256 926.72 740.352C922.624 744.448 919.893 748.203 918.528 751.616C917.163 755.029 916.139 759.808 915.456 765.952C914.773 772.096 914.944 777.387 915.968 781.824C916.992 786.261 918.357 790.187 920.064 793.6C921.771 797.013 923.819 799.915 926.208 802.304C928.597 804.693 931.499 806.912 934.912 808.96C938.325 811.008 942.933 812.203 948.736 812.544C954.539 812.885 958.976 812.544 962.048 811.52C965.12 810.496 968.704 808.107 972.8 804.352C976.896 800.597 979.968 796.501 982.016 792.064C984.064 787.627 985.259 782.165 985.6 775.68C985.941 769.195 985.259 763.221 983.552 757.76C981.845 752.299 979.115 747.349 975.36 742.912C971.605 738.475 967.851 735.403 964.096 733.696C960.341 731.989 956.416 730.965 952.32 730.624C948.224 730.283 943.957 730.795 939.52 732.16Z" fill="#000000" fill-rule="evenodd" opacity="1" stroke="#000000" stroke-linecap="round" stroke-linejoin="round" stroke-width="1"/>
<path d="M1054.21 738.304C1049.77 743.083 1047.72 747.349 1048.06 751.104C1048.41 754.859 1049.94 757.76 1052.67 759.808C1055.4 761.856 1058.82 762.539 1062.91 761.856C1067.01 761.173 1070.59 758.613 1073.66 754.176C1076.74 749.739 1078.1 745.984 1077.76 742.912C1077.42 739.84 1076.39 737.28 1074.69 735.232C1072.98 733.184 1070.25 731.989 1066.5 731.648C1062.74 731.307 1058.65 733.525 1054.21 738.304Z" fill="#ffffff" fill-rule="evenodd" opacity="1" stroke="#ffffff" stroke-linecap="round" stroke-linejoin="round" stroke-width="1"/>
<path d="M931.84 741.376C927.061 746.155 924.672 750.08 924.672 753.152C924.672 756.224 926.037 759.125 928.768 761.856C931.499 764.587 935.083 765.611 939.52 764.928C943.957 764.245 947.2 762.88 949.248 760.832C951.296 758.784 952.832 756.395 953.856 753.664C954.88 750.933 955.221 748.203 954.88 745.472C954.539 742.741 953.515 740.352 951.808 738.304C950.101 736.256 947.541 735.061 944.128 734.72C940.715 734.379 936.619 736.597 931.84 741.376Z" fill="#ffffff" fill-rule="evenodd" opacity="1" stroke="#ffffff" stroke-linecap="round" stroke-linejoin="round" stroke-width="1"/>
<path d="M1076.22 756.736C1074.86 758.101 1074.18 759.467 1074.18 760.832C1074.18 762.197 1074.69 763.392 1075.71 764.416C1076.74 765.44 1077.93 765.952 1079.3 765.952C1080.66 765.952 1082.03 765.44 1083.39 764.416C1084.76 763.392 1085.44 762.197 1085.44 760.832C1085.44 759.467 1084.25 758.101 1081.86 756.736C1079.47 755.371 1077.59 755.371 1076.22 756.736Z" fill="#ffffff" fill-rule="evenodd" opacity="1" stroke="#ffffff" stroke-linecap="round" stroke-linejoin="round" stroke-width="1"/>
<path d="M952.832 760.32C951.808 761.344 951.296 762.539 951.296 763.904C951.296 765.269 951.808 766.464 952.832 767.488C953.856 768.512 955.221 769.024 956.928 769.024C958.635 769.024 960 768 961.024 765.952C962.048 763.904 962.048 762.197 961.024 760.832C960 759.467 958.635 758.784 956.928 758.784C955.221 758.784 953.856 759.296 952.832 760.32Z" fill="#ffffff" fill-rule="evenodd" opacity="1" stroke="#ffffff" stroke-linecap="round" stroke-linejoin="round" stroke-width="1"/>
<path d="M1057.28 836.608C1056.94 837.973 1056.09 839.168 1054.72 840.192C1053.35 841.216 1051.48 841.728 1049.09 841.728C1046.7 841.728 1044.31 840.875 1041.92 839.168C1040.73 838.315 1039.53 837.461 1038.34 836.608C1039.7 837.803 1041.07 838.997 1042.43 840.192C1045.16 842.581 1046.02 846.848 1044.99 852.992C1043.97 859.136 1041.58 864.939 1037.82 870.4C1034.07 875.861 1030.31 879.445 1026.56 881.152C1022.81 882.859 1018.71 883.371 1014.27 882.688C1009.83 882.005 1005.57 879.616 1001.47 875.52C997.376 871.424 994.475 866.987 992.768 862.208C991.061 857.429 990.208 853.504 990.208 850.432C990.208 847.36 991.232 845.141 993.28 843.776C995.328 842.411 996.523 840.875 996.864 839.168C997.035 838.315 997.205 837.461 997.376 836.608C996.181 837.803 994.987 838.997 993.792 840.192C991.403 842.581 989.525 843.776 988.16 843.776C986.795 843.776 985.429 843.093 984.064 841.728C983.381 841.045 982.699 840.363 982.016 839.68C981.675 840.021 981.333 840.363 980.992 840.704C980.651 841.045 980.309 841.387 979.968 841.728C981.333 842.411 982.699 843.093 984.064 843.776C986.795 845.141 988.501 848.725 989.184 854.528C989.867 860.331 992.085 865.963 995.84 871.424C999.595 876.885 1003.01 880.469 1006.08 882.176C1009.15 883.883 1012.91 884.736 1017.34 884.736C1021.78 884.736 1026.39 883.2 1031.17 880.128C1035.95 877.056 1039.53 873.301 1041.92 868.864C1044.31 864.427 1045.85 859.136 1046.53 852.992C1047.21 846.848 1049.26 843.264 1052.67 842.24C1056.09 841.216 1058.13 840.192 1058.82 839.168C1059.5 838.144 1059.84 837.12 1059.84 836.096C1059.84 835.584 1059.84 835.072 1059.84 834.56C1059.5 834.56 1059.16 834.56 1058.82 834.56C1058.13 834.56 1057.62 835.243 1057.28 836.608Z" fill="#000000" fill-rule="evenodd" opacity="1" stroke="#000000" stroke-linecap="round" stroke-linejoin="round" stroke-width="1"/>
</g>
<g id="Layer-2" vectornator:layerName="Layer 2">
<g filter="url(#Filter)" opacity="1">
<path d="M616.928 360.296C614.4 356.082 611.872 351.868 609.343 347.654" fill="#f2b3b3" fill-rule="evenodd" stroke="none"/>
<path d="M609.344 347.656C610.143 350.049 610.948 352.422 611.656 354.844C612.131 356.469 612.5 358.16 613.094 359.75C613.31 360.328 613.855 361.415 614.125 361.969C615.054 363.517 617.076 364.023 618.625 363.094C620.173 362.165 620.648 360.174 619.719 358.625C619.357 358.126 618.658 357.087 618.25 356.625C617.127 355.352 615.804 354.278 614.594 353.094C612.79 351.33 611.079 349.487 609.344 347.656Z" fill="#f2b3b3" stroke="none"/>
</g>
<g filter="url(#Filter_2)" opacity="1">
<path d="M871.032 829.314C866.397 828.892 861.665 827.018 857.126 828.049C851.977 829.22 846.42 831.435 843.22 835.635C839.182 840.934 837.875 848.007 836.899 854.598C836.155 859.617 835.991 865.182 838.163 869.768C840.081 873.816 844.361 876.442 848.277 878.617C852.122 880.754 856.519 882.41 860.919 882.41C869.878 882.41 878.511 873.274 881.146 864.711C883.009 858.656 882.782 852.072 882.41 845.748C881.388 828.372 878.996 816.755 868.504 802.765C865.102 798.23 860.768 794.228 855.862 791.388C852.499 789.441 847.634 786.585 844.484 788.859C838.508 793.175 835.066 800.716 833.106 807.822C831.533 813.524 833.504 819.67 834.37 825.521C836.404 839.245 838.696 845.192 845.748 857.126C848.365 861.554 850.753 866.351 854.598 869.768C858.544 873.276 863.697 879.538 868.504 877.353C875.952 873.967 879.187 864.646 882.41 857.126C884.409 852.462 884.079 847.014 883.674 841.956C882.666 829.35 877.988 818.757 869.768 809.086C866.656 805.426 863.154 800.858 858.39 800.237C852.306 799.443 845.565 801.567 840.691 805.294C837.516 807.722 837.492 812.718 836.899 816.672C836.211 821.256 836.07 826.017 836.899 830.578C839.678 845.863 849.979 858.293 860.919 868.504C863.759 871.155 866.055 877.231 869.768 876.089C874.465 874.644 875.492 867.995 877.353 863.447C881.078 854.342 884.027 844.074 882.41 834.37C881.445 828.581 880.239 822.086 876.089 817.936C873.391 815.238 868.024 814.778 864.711 816.672C860.944 818.824 859.582 823.878 858.39 828.049C856.996 832.928 856.686 838.165 857.126 843.22C858.527 859.335 868.471 869.56 883.674 873.56C887.364 874.532 891.947 877.043 895.052 874.825C899.195 871.865 900.536 865.941 901.373 860.919C902.276 855.499 900.763 849.939 900.109 844.484C899.498 839.394 899.521 834.058 897.58 829.314C895.633 824.553 893.165 819.28 888.731 816.672C885.099 814.535 877.693 812.775 876.089 816.672C873.319 823.398 877.1 831.441 879.881 838.163C884.436 849.17 896.818 858.761 906.43 864.711C909.958 866.896 913.976 871.364 917.807 869.768C921.498 868.23 921.202 862.368 921.6 858.39C922.489 849.495 921.329 840.058 917.807 831.842C915.643 826.792 914.312 819.171 908.958 817.936C904.852 816.988 902.705 824.052 901.373 828.049C899.635 833.262 899.88 838.994 900.109 844.484C900.305 849.191 900.724 854.085 902.637 858.39C904.215 861.94 906.651 865.709 910.222 867.24C916.084 869.752 923.996 873.474 929.185 869.768C935.367 865.352 936.77 855.873 936.77 848.277C936.77 841.858 932.393 836.137 929.185 830.578C926.026 825.103 923.107 818.852 917.807 815.407C913.905 812.871 906.95 810.626 903.901 814.143C899.451 819.278 901.112 827.581 901.373 834.37C901.749 844.157 907.703 851.684 914.015 858.39C917.493 862.085 920.456 867.328 925.393 868.504C930.463 869.711 937.027 868.541 940.563 864.711C943.421 861.615 941.721 856.121 940.563 852.069C939.112 846.992 936.3 842.267 932.978 838.163C929.036 833.294 924.214 829.098 919.072 825.521C914.43 822.292 908.958 820.464 903.901 817.936" fill="#f2b3b3" fill-rule="evenodd" stroke="none"/>
<path d="M847.344 785.031C846.515 785.026 845.692 785.152 844.875 785.406C842.496 786.148 840.499 788.162 838.875 789.969C835.447 793.783 833.104 798.465 831.438 803.281C830.633 805.607 829.904 807.976 829.688 810.438C829.268 815.202 830.503 819.876 831.312 824.531C832.322 830.336 833.171 836.124 835.094 841.719C835.316 842.365 835.599 842.988 835.844 843.625C834.833 847.103 834.214 850.696 833.719 854.125C832.846 860.167 832.679 866.989 835.938 872.406C838.203 876.172 841.977 878.711 845.719 880.844C847.46 881.836 849.234 882.748 851.094 883.5C854.353 884.819 857.972 885.736 861.531 885.594C862.718 885.546 863.906 885.365 865.062 885.062C868.141 884.257 870.951 882.782 873.469 880.844C876.015 878.883 878.149 876.481 879.969 873.844C881.073 874.22 882.152 874.651 883.281 874.969C886.737 875.941 890.636 878.03 894.281 876.812C898.362 875.449 900.624 870.256 901.656 866.469C901.888 865.621 902.106 864.643 902.281 863.781C902.314 863.618 902.341 863.426 902.375 863.25C903.547 864.028 904.701 864.859 905.875 865.594C908.461 867.213 910.708 869.491 913.594 870.594C914.915 871.099 916.308 871.183 917.656 870.781C920.516 871.684 923.6 872.394 926.531 871.656C928.175 871.243 929.554 870.263 930.781 869.125C933.429 868.901 936.05 868.158 938.094 866.938C940.174 865.695 941.816 863.962 942.188 861.5C942.558 859.041 941.952 856.514 941.312 854.156C940.296 850.406 938.92 846.867 936.906 843.531C936.698 843.186 936.405 842.901 936.188 842.562C934.671 838.193 931.933 834.301 929.625 830.344C927.457 826.626 925.53 822.717 922.781 819.375C919.971 815.958 916.253 813.458 911.938 812.375C910.066 811.905 908 811.665 906.125 812.25C903.711 813.003 902.272 815.321 901.469 817.594C900.314 820.86 900.395 824.34 900.625 827.812C900.478 828.271 900.333 828.729 900.219 829.156C899.974 830.074 899.805 830.938 899.656 831.875C899.023 829.566 898.204 827.331 897.156 825.156C896.355 823.494 895.484 821.846 894.406 820.344C891.614 816.451 887.825 814.195 883.125 813.375C881.613 813.111 880.008 813.088 878.5 813.469C876.716 809.725 874.662 806.125 872.25 802.75C867.502 796.107 861.756 790.919 854.469 787.188C852.294 786.074 849.829 785.046 847.344 785.031ZM847.906 791.031C848.342 791.104 848.767 791.245 849.156 791.375C850.687 791.888 852.105 792.7 853.5 793.5C855.902 794.877 858.023 796.487 860 798.219C856.547 797.315 852.651 797.732 849.281 798.625C846.234 799.433 843.305 800.74 840.688 802.5C839.662 803.189 838.657 803.908 837.875 804.875C837.245 805.654 836.781 806.507 836.406 807.406C836.628 806.682 836.719 805.928 836.969 805.219C838.398 801.154 840.366 797.154 843.281 793.938C843.996 793.149 844.758 792.409 845.594 791.75C845.891 791.516 846.239 791.177 846.625 791.062C847.036 790.941 847.471 790.959 847.906 791.031ZM856.75 802.438C857.796 802.495 858.809 802.626 859.781 803.031C862.11 804.004 863.933 805.984 865.562 807.844C867.266 809.787 868.896 811.8 870.438 813.875C869.558 813.812 868.655 813.79 867.781 813.906C866.798 814.037 865.854 814.274 864.938 814.656C860.761 816.401 858.901 820.681 857.625 824.781C855.785 825.045 853.96 825.46 852.188 826.062C848.291 827.388 844.503 829.379 841.688 832.438C841.113 833.061 840.741 833.82 840.25 834.5C839.747 832.718 839.139 830.979 838.875 829.125C838.408 825.845 838.451 822.506 838.812 819.219C839.081 816.776 839.355 814.259 839.812 811.844C840.099 810.331 840.497 808.652 841.594 807.5C842.21 806.852 843.058 806.372 843.812 805.906C845.039 805.149 846.345 804.524 847.688 804C850.556 802.881 853.666 802.267 856.75 802.438ZM909.188 812.75C910.514 812.842 911.845 813.171 913 813.562C918.393 815.392 921.814 819.053 924.781 823.844C926.767 827.05 928.483 830.399 930.438 833.625C931.468 835.326 932.496 837.087 933.438 838.875C934.505 840.904 935.443 842.974 935.906 845.219C936.311 847.179 936.263 849.168 936.156 851.156C936.013 853.822 935.667 856.505 935 859.094C934.293 861.838 933.19 864.55 931.406 866.781C930.819 867.516 930.055 868.09 929.312 868.688C928.894 868.682 928.471 868.719 928.062 868.688C926.374 868.555 924.684 868.226 923.188 867.406C922.615 867.092 922.105 866.675 921.594 866.281C922.245 864.032 922.323 861.471 922.469 859.5C922.606 857.644 922.779 855.799 922.812 853.938C922.904 848.953 922.369 843.932 921.156 839.094C920.149 835.077 918.469 831.287 917.062 827.406C916.711 826.435 916.367 825.454 915.969 824.5C915.81 824.119 915.554 823.761 915.375 823.375C915.798 823.604 916.241 823.789 916.656 824.031C919.718 825.812 922.575 828.063 925.25 830.375C928.119 832.855 930.842 835.591 933.219 838.594C930.826 835.596 928.252 832.767 925.344 830.281C922.651 827.98 919.795 825.736 916.719 823.969C916.266 823.709 915.773 823.526 915.312 823.281C914.134 820.768 912.592 818.276 909.875 817.344C909.24 817.126 908.58 816.974 907.906 817.031C904.587 817.311 902.759 821.696 901.781 824.375C901.6 824.873 901.421 825.373 901.25 825.875C901.169 823.138 901.298 820.405 902.219 817.844C902.815 816.185 903.803 814.317 905.406 813.438C906.546 812.812 907.861 812.658 909.188 812.75ZM881.281 815.594C882.181 815.658 883.053 815.85 883.875 816.062C888.469 817.248 891.316 819.833 893.656 823.969C895.284 826.846 896.718 830.015 897.438 833.25C898.37 837.444 898.355 841.786 898.938 846.031C899.533 850.376 900.522 854.815 900.125 859.219C895.071 855.566 890.333 851.319 886.469 846.5C886.422 844.916 886.359 843.33 886.219 841.75C885.844 837.525 884.934 833.425 883.719 829.438C882.908 825.122 881.738 820.856 880.094 816.781C879.954 816.435 879.74 816.125 879.594 815.781C880.153 815.691 880.703 815.552 881.281 815.594ZM868.25 817.312C869.131 817.201 870.028 817.241 870.906 817.375C871.72 817.499 872.44 817.92 873.188 818.281C873.489 818.772 873.808 819.251 874.094 819.75C874.083 819.836 874.041 819.914 874.031 820C873.525 824.56 874.993 829.159 876.656 833.344C877.296 834.954 877.958 836.544 878.656 838.125C878.746 839.004 878.895 839.869 878.969 840.75C879.253 844.141 879.434 847.564 879.5 850.969C878.484 854.977 877.081 858.9 875.562 862.75C875.238 863.573 874.945 864.414 874.656 865.25C874.372 866.073 874.075 866.961 873.781 867.781C873.778 867.789 873.784 867.804 873.781 867.812C873.405 867.589 872.992 867.425 872.625 867.188C870.552 865.848 868.602 864.295 866.906 862.5C860.437 855.651 858.149 846.164 858.625 836.938C858.709 835.304 858.87 833.674 859.156 832.062C859.215 831.733 859.337 831.42 859.406 831.094C859.761 831.069 860.106 830.988 860.469 831C863.902 831.114 867.25 832.171 870.656 832.562C872.451 832.766 874.078 831.482 874.281 829.688C874.485 827.893 873.2 826.266 871.406 826.062C867.999 825.682 864.647 824.751 861.219 824.562C862.419 821.103 864.219 817.821 868.25 817.312ZM908.906 818.75C909.419 818.872 909.909 819.14 910.344 819.406C911.414 820.062 912.213 821.016 912.875 822.094C910.89 821.145 908.919 820.172 906.906 819.281C908.942 820.196 910.931 821.181 912.938 822.156C913.519 823.118 913.999 824.165 914.406 825.156C914.597 825.62 914.763 826.092 914.938 826.562C915.169 827.186 915.482 828.045 915.719 828.719C916.985 832.322 918.527 835.775 919.438 839.5C920.584 844.188 921.054 849.052 920.938 853.875C920.893 855.702 920.708 857.524 920.562 859.344C920.504 860.08 920.466 860.826 920.406 861.562C920.334 862.458 920.169 863.662 919.938 864.812C918.182 863.052 916.665 860.996 915.062 859.156C912 855.64 908.798 852.322 906.312 848.344C904.912 846.103 903.747 843.738 902.938 841.219C901.845 837.817 901.739 834.377 901.5 830.844C901.499 830.823 901.501 830.802 901.5 830.781C901.588 830.378 901.61 829.961 901.719 829.562C901.919 828.831 902.223 827.977 902.469 827.25C903.237 824.981 904.036 822.57 905.438 820.594C905.808 820.071 906.334 819.655 906.875 819.281C906.884 819.285 906.898 819.277 906.906 819.281C907.085 819.159 907.174 818.924 907.375 818.844C907.876 818.644 908.393 818.628 908.906 818.75ZM855.969 831.719C855.906 832.087 855.77 832.441 855.719 832.812C855.538 834.129 855.403 835.454 855.344 836.781C854.89 846.875 857.578 857.19 864.688 864.625C866.563 866.587 868.682 868.291 870.969 869.75C871.488 870.081 872.062 870.293 872.594 870.594C872.583 870.616 872.573 870.635 872.562 870.656C872.196 871.111 871.875 871.609 871.469 872.031C870.715 872.816 869.793 873.531 868.812 874.156C867.646 874.095 866.428 872.357 865.906 871.656C864.979 870.411 864.149 869.077 863.125 867.906C862.048 866.675 860.786 865.618 859.625 864.469C858.298 863.156 856.984 861.81 855.719 860.438C850.766 855.063 846.35 848.937 843.156 842.281C843.98 840.279 844.996 838.368 846.438 836.812C848.804 834.258 852.189 832.816 855.469 831.844C855.635 831.794 855.802 831.766 855.969 831.719ZM901 833.5C901.152 835.796 901.339 838.039 901.969 840.281C903.547 845.898 906.916 850.789 910.688 855.156C911.976 856.648 913.385 858.021 914.688 859.5C916.365 861.405 917.963 863.591 919.844 865.406C919.455 866.921 918.788 868.289 917.438 868.844C917.037 869.008 916.624 868.866 916.219 868.875C915.621 868.648 914.884 868.502 914.344 868.281C913.49 867.932 912.602 867.592 911.719 867.219C910.584 866.439 909.489 865.589 908.375 864.781C907.886 864.427 907.381 864.105 906.875 863.781C906.673 863.554 906.407 863.394 906.219 863.156C904.743 861.289 903.802 859.195 903.031 857.062C902.98 853.241 902.166 849.436 901.625 845.656C901.325 843.565 901.076 841.479 900.875 839.375C900.861 837.416 900.765 835.446 901 833.5ZM936.344 843.062C937.392 844.764 938.347 846.531 939.125 848.375C939.639 849.594 940.063 850.857 940.438 852.125C940.646 852.83 940.843 853.539 941.031 854.25C941.86 857.375 942.936 861.883 940.438 864.594C938.118 867.109 934.65 868.348 931.219 868.656C931.823 868.038 932.45 867.454 932.938 866.75C935.458 863.11 936.553 858.623 937.031 854.281C937.365 851.247 937.607 848.01 936.969 845C936.826 844.328 936.552 843.711 936.344 843.062ZM886.375 849.938C890.317 854.332 894.951 858.164 899.812 861.562C899.638 862.533 899.48 863.51 899.25 864.469C898.599 867.182 897.667 870.032 895.812 872.188C895.158 872.948 894.353 873.745 893.375 874.062C891.649 874.623 889.673 873.94 888.031 873.406C886.105 872.781 884.154 872.222 882.219 871.625C881.985 871.553 881.764 871.451 881.531 871.375C883.13 868.524 884.341 865.464 884.969 862.25C885.417 859.954 885.509 857.61 885.594 855.281C885.714 854.835 885.948 854.428 886.031 853.969C886.274 852.63 886.309 851.286 886.375 849.938ZM840.406 853.375C842.191 856.645 844.119 859.829 846.031 863C846.969 864.554 847.912 866.108 849 867.562C850.414 869.453 852.063 871.024 853.781 872.625C856.077 874.764 858.896 877.498 862 879.094C858.462 879.489 854.722 878.282 851.625 876.781C850.04 876.013 848.49 875.125 847 874.188C844.883 872.855 842.747 871.277 841.438 869.094C839.397 865.694 839.41 861.251 839.781 857.438C839.914 856.073 840.184 854.733 840.406 853.375ZM902.812 860.094C903.059 860.586 903.278 861.082 903.562 861.562C903.294 861.383 903.018 861.213 902.75 861.031C902.798 860.72 902.778 860.405 902.812 860.094ZM852 862.375C852.253 862.651 852.494 862.945 852.75 863.219C854.503 865.093 856.295 866.889 858.156 868.656C858.798 869.265 859.531 869.89 860.125 870.562C860.719 871.234 861.195 871.985 861.719 872.719C861.354 872.418 861.008 872.128 860.656 871.812C859.556 870.825 858.511 869.766 857.438 868.75C856.541 867.902 855.598 867.116 854.781 866.188C853.738 865.003 852.847 863.706 852 862.375ZM921.375 866.781C922.209 867.406 923.131 867.956 924.125 868.344C925.545 868.897 927.154 869.083 928.812 869.125C928.594 869.278 928.45 869.524 928.219 869.656C925.543 871.19 922.318 870.718 919.219 869.844C920.223 869.061 920.944 868.031 921.375 866.781Z" fill="#f2b3b3" stroke="none"/>
</g>
<g filter="url(#Filter_3)" opacity="1">
<path d="M1123.87 843.22C1122.19 839.427 1122.63 833.477 1118.81 831.842C1114.77 830.109 1109.41 832.65 1106.17 835.635C1103.24 838.346 1099.95 843.837 1102.38 847.012C1106.96 853 1115.38 854.984 1122.61 857.126C1127.05 858.443 1132.78 859.876 1136.51 857.126C1141.98 853.095 1145.78 846.17 1146.63 839.427C1147.21 834.752 1144.23 829.399 1140.31 826.785C1135.69 823.711 1129.4 823.815 1123.87 824.257C1118.56 824.682 1112.35 825.432 1108.7 829.314C1104.77 833.487 1103.42 840.021 1103.64 845.748C1103.87 851.613 1105.16 858.817 1109.97 862.183C1115.16 865.816 1122.64 864.233 1128.93 863.447C1133.05 862.932 1136.93 860.802 1140.31 858.39C1145.89 854.403 1154.19 851.223 1155.48 844.484C1156.49 839.183 1150.19 834.255 1145.36 831.842C1140.84 829.581 1135.25 831.842 1130.19 831.842C1125.98 831.842 1121.02 829.455 1117.55 831.842C1113.2 834.833 1109.7 840.475 1109.97 845.748C1110.21 850.547 1114.38 855.278 1118.81 857.126C1125.44 859.886 1133.17 859.183 1140.31 858.39C1144.82 857.889 1149.64 856.444 1152.95 853.333C1157.21 849.321 1162.63 843.958 1161.8 838.163C1161 832.551 1154.55 828.52 1149.16 826.785C1141.93 824.464 1133.77 825.005 1126.4 826.785C1121.06 828.074 1114.7 830.601 1112.49 835.635C1110.83 839.437 1114.29 844.448 1117.55 847.012C1120.93 849.667 1125.92 849.113 1130.19 849.541C1141.45 850.667 1158.38 848.348 1163.06 835.635C1164.82 830.873 1167.77 824.193 1164.33 820.464C1160.6 816.427 1153.16 817.639 1147.89 819.2C1141.17 821.192 1135.39 825.872 1130.19 830.578C1126.38 834.029 1120.56 838.136 1121.34 843.22C1121.95 847.171 1128.8 846.228 1132.72 847.012C1140.03 848.473 1154.69 848.949 1161.8 847.012C1166.34 845.773 1171.88 844.647 1174.44 840.691C1177.2 836.431 1179.49 828.905 1175.7 825.521C1169.23 819.728 1159.03 820.387 1150.42 819.2C1146.64 818.679 1141.97 818.021 1139.04 820.464C1133.65 824.954 1126.97 831.184 1127.66 838.163C1128.19 843.417 1136.39 844.713 1141.57 845.748C1145.38 846.51 1149.24 844.39 1152.95 843.22C1159.12 841.271 1171.6 836.547 1175.7 830.578C1178.2 826.952 1182.84 820.799 1179.5 817.936C1174.02 813.242 1165.21 815.665 1158 815.407C1149.58 815.106 1140.39 816.855 1132.72 820.464C1129.12 822.157 1124.39 823.229 1122.61 826.785C1120.9 830.198 1120.92 835.747 1123.87 838.163C1127.13 840.831 1132.3 838.363 1136.51 838.163C1143.08 837.85 1156.39 837.606 1161.8 831.842C1165.66 827.717 1171.54 821.899 1169.38 816.672C1167.15 811.244 1158.68 811.597 1152.95 810.351C1148.83 809.455 1144.47 809.726 1140.31 810.351C1135.96 811.003 1130.96 811.232 1127.66 814.143C1123.27 818.017 1118.13 823.499 1118.81 829.314C1119.32 833.622 1126 834.53 1130.19 835.635C1138.67 837.866 1148.99 834.2 1156.74 831.842C1161.84 830.29 1167.3 829.456 1171.91 826.785C1175.52 824.695 1179.3 821.842 1180.76 817.936C1182.1 814.363 1182.52 808.885 1179.5 806.558C1175.47 803.464 1169.4 805.475 1164.33 805.294C1151.93 804.851 1138.15 804.993 1127.66 811.615C1124.38 813.689 1120.27 816.584 1120.08 820.464C1119.79 826.326 1122.13 832.876 1126.4 836.899C1130.2 840.471 1136.42 839.868 1141.57 840.691C1147 841.559 1152.51 841.736 1158 841.956C1163.06 842.158 1168.17 842.671 1173.18 841.956C1177.13 841.39 1181.73 840.99 1184.55 838.163C1188.55 834.165 1193.12 828.56 1192.14 822.993C1191.38 818.72 1184.81 818.216 1180.76 816.672C1169.84 812.51 1160.75 811.87 1149.16 812.879C1144.87 813.251 1139.74 812.564 1136.51 815.407C1131.85 819.524 1125.11 826.168 1127.66 831.842C1130.68 838.553 1140.67 839.248 1147.89 840.691C1153.69 841.851 1159.9 841.052 1165.59 839.427C1176.89 836.199 1188.35 829.155 1193.4 817.936C1195.14 814.074 1197.38 808.547 1194.67 805.294C1191.65 801.674 1185.4 803.608 1180.76 802.765" fill="#f2b3b3" fill-rule="evenodd" stroke="none"/>
<path d="M1187.06 802.969C1187.64 802.967 1188.22 803.037 1188.81 803.062C1188.65 803.055 1188.48 803.004 1188.31 803C1187.89 802.99 1187.48 802.97 1187.06 802.969ZM1188.81 803.062C1189.44 803.091 1190.09 803.135 1190.72 803.25C1190.08 803.135 1189.46 803.09 1188.81 803.062ZM1190.72 803.25C1191.16 803.329 1191.55 803.545 1191.97 803.688C1191.55 803.543 1191.16 803.331 1190.72 803.25ZM1191.97 803.688C1192.44 803.852 1192.95 803.948 1193.38 804.219C1197.44 806.796 1195.66 812.34 1194.22 815.875C1194.02 816.373 1193.58 817.41 1193.34 817.906C1192.84 818.976 1192.53 819.605 1191.94 820.625C1191.84 820.787 1191.73 820.957 1191.62 821.125C1189.8 818.612 1185.68 817.749 1183.06 817C1182.7 816.897 1182.36 816.742 1182 816.625C1182.69 814.094 1182.86 811.294 1182.09 809C1179.95 802.582 1171.98 804.134 1166.88 804.469C1165.5 804.558 1164.15 804.508 1162.78 804.469C1151.8 804.156 1140.04 804.363 1130.03 809.469C1128.49 810.256 1127.02 811.17 1125.59 812.156C1123.43 813.657 1121.2 815.43 1120.06 817.875C1119.5 819.077 1119.42 820.361 1119.44 821.656C1114.97 822.274 1110.38 823.406 1107.03 826.562C1104.41 829.033 1102.84 832.265 1101.84 835.688C1100.85 836.973 1099.97 838.348 1099.31 839.844C1098.79 841.022 1098.41 842.319 1098.31 843.625C1098.21 844.931 1098.38 846.225 1098.91 847.438C1099.37 848.519 1100.2 849.424 1101 850.281C1101.18 851.583 1101.33 852.884 1101.66 854.156C1102.7 858.225 1104.69 862.26 1108.22 864.719C1111.08 866.715 1114.33 867.427 1117.69 867.531C1121.05 867.636 1124.52 867.125 1127.75 866.688C1130.31 866.341 1132.73 865.884 1135.12 864.875C1137.7 863.79 1140.01 862.256 1142.31 860.719C1145.54 860.172 1148.73 859.389 1151.59 857.688C1154.57 855.922 1157.09 853.252 1159.34 850.656C1159.68 850.272 1159.9 849.78 1160.22 849.375C1160.23 849.373 1160.24 849.377 1160.25 849.375C1162.15 849.014 1164.02 848.476 1165.88 847.938C1169.06 847.014 1172.35 845.829 1174.72 843.406C1175.08 843.04 1175.28 842.51 1175.59 842.094C1178.24 841.702 1180.96 841.222 1183.25 839.781C1184.67 838.889 1185.83 837.586 1186.94 836.344C1187.96 835.188 1188.92 834.005 1189.78 832.719C1190.9 831.048 1191.88 829.207 1192.38 827.25C1192.61 826.308 1192.74 825.348 1192.72 824.375C1192.71 823.699 1192.64 822.993 1192.44 822.344C1192.3 821.898 1191.94 821.618 1191.69 821.25C1191.8 821.057 1191.95 820.883 1192.06 820.688C1192.65 819.66 1192.97 819.045 1193.47 817.969C1193.7 817.471 1194.14 816.405 1194.34 815.906C1195.06 814.116 1195.87 811.824 1195.97 809.656C1196.07 807.488 1195.46 805.447 1193.41 804.156C1192.97 803.884 1192.45 803.85 1191.97 803.688ZM1172.75 805.625C1175.98 805.581 1179.43 806.174 1180.53 809.531C1180.98 810.902 1181.03 812.424 1180.88 813.844C1180.79 814.592 1180.47 815.291 1180.28 816.031C1179.62 815.794 1178.95 815.569 1178.28 815.344C1178.17 815.284 1178.08 815.182 1177.97 815.125C1176.05 814.183 1173.96 813.791 1171.84 813.625C1170.41 813.305 1168.96 813.09 1167.5 812.875C1164.32 810.74 1159.69 810.256 1156.16 809.75C1153.7 809.398 1151.3 808.806 1148.81 808.688C1145.15 808.512 1141.56 809.067 1137.94 809.562C1134.86 809.984 1131.69 810.433 1128.94 811.969C1127.33 812.865 1125.98 814.154 1124.69 815.438C1123.53 816.583 1122.43 817.802 1121.44 819.094C1121.26 819.328 1121.15 819.659 1120.97 819.906C1121.03 819.556 1120.96 819.185 1121.09 818.844C1121.78 817.064 1123.26 815.663 1124.72 814.5C1126.95 812.728 1129.44 811.23 1132.03 810.062C1141.57 805.763 1152.49 805.69 1162.75 806.031C1164.17 806.078 1165.55 806.117 1166.97 806.031C1167.82 805.98 1168.84 805.882 1169.69 805.812C1170.62 805.736 1171.67 805.64 1172.75 805.625ZM1148.72 810.938C1151.13 811.065 1153.46 811.645 1155.84 812C1156.25 812.061 1156.65 812.131 1157.06 812.188C1154.42 812.232 1151.77 812.355 1149.12 812.562C1145.51 812.847 1141.53 812.386 1138.16 814C1136.25 814.911 1134.69 816.591 1133.22 818.062C1132.88 818.399 1132.51 818.84 1132.16 819.219C1131.55 819.489 1130.93 819.746 1130.31 820C1129.59 820.298 1128.87 820.599 1128.16 820.906C1126.25 820.93 1124.38 821.065 1122.53 821.25C1123.34 820.131 1124.18 819.024 1125.09 818.062C1126.54 816.537 1128.1 814.873 1129.97 813.844C1132.48 812.458 1135.42 812.119 1138.22 811.75C1141.7 811.291 1145.19 810.751 1148.72 810.938ZM1155.91 812.844C1157.61 812.801 1159.3 812.865 1161 812.938C1162.16 813.155 1163.27 813.281 1164.38 813.719C1158.57 814.076 1152.77 813.723 1147 814.656C1143.32 815.252 1139.69 816.205 1136.19 817.5C1135.25 817.847 1134.35 818.285 1133.44 818.688C1133.73 818.395 1134.03 818.089 1134.25 817.875C1135.51 816.666 1136.81 815.288 1138.41 814.531C1141.7 812.972 1145.65 813.48 1149.19 813.219C1151.43 813.053 1153.66 812.9 1155.91 812.844ZM1170.53 816.469C1172.39 816.543 1174.23 816.835 1175.94 817.531C1176.85 817.903 1178.23 818.577 1178.81 819.562C1177.92 820.939 1176.82 822.117 1175.53 823.156C1175.03 822.788 1174.61 822.354 1174.06 822.031C1173.03 821.428 1171.89 821.108 1170.78 820.688C1171.02 819.478 1171.11 818.247 1170.75 817C1170.69 816.805 1170.6 816.653 1170.53 816.469ZM1167.75 816.562C1167.98 816.937 1168.34 817.202 1168.47 817.656C1168.66 818.342 1168.59 819.05 1168.5 819.75C1167.68 819.522 1166.84 819.417 1166 819.25C1165.08 818.168 1164.01 817.309 1162.72 816.75C1163.37 816.713 1164.03 816.694 1164.69 816.656C1165.68 816.599 1166.72 816.602 1167.75 816.562ZM1181.81 817.406C1182.16 817.521 1182.49 817.679 1182.84 817.781C1185.3 818.496 1189.63 819.309 1191.16 821.844C1190.87 822.293 1190.6 822.752 1190.31 823.156C1189.44 824.38 1188.47 825.528 1187.44 826.625C1186.41 827.724 1185.31 828.781 1184.16 829.75C1182.63 831.035 1181 832.186 1179.31 833.25C1179.59 831.612 1179.71 829.933 1179.34 828.312C1179.32 828.211 1179.28 828.131 1179.25 828.031C1180.8 825.643 1182.5 822.825 1182.16 819.938C1182.08 819.275 1181.83 818.685 1181.53 818.156C1181.63 817.904 1181.73 817.668 1181.81 817.406ZM1136.25 820.5C1135.87 820.849 1135.47 821.19 1135.09 821.531C1135.08 821.541 1135.07 821.553 1135.06 821.562C1134.8 821.509 1134.55 821.389 1134.28 821.344C1134.93 821.058 1135.59 820.764 1136.25 820.5ZM1149.91 820.969C1150 820.981 1150.1 820.988 1150.19 821C1154.28 821.538 1158.42 821.701 1162.5 822.281C1162.61 822.297 1162.73 822.327 1162.84 822.344C1162.91 822.442 1163.03 822.487 1163.09 822.594C1164.08 824.328 1163.56 826.668 1163.09 828.469C1163.06 828.587 1163 828.695 1162.97 828.812C1162.84 828.963 1162.7 829.1 1162.56 829.25C1161.7 829.485 1160.84 829.737 1159.97 829.969C1156.37 826.632 1151.29 824.443 1146.97 823.5C1146.09 823.307 1145.18 823.251 1144.28 823.125C1146.09 822.249 1147.95 821.493 1149.91 820.969ZM1191.22 821.938C1191.27 822.033 1191.39 822.087 1191.44 822.188C1192.1 823.652 1191.89 825.527 1191.5 827.031C1190.89 829.37 1189.61 831.5 1188.16 833.406C1187.25 834.597 1186.25 835.732 1185.22 836.812C1184.45 837.615 1183.7 838.381 1182.75 838.969C1180.84 840.155 1178.6 840.597 1176.38 840.938C1177.59 838.966 1178.57 836.803 1179.09 834.656C1179.19 834.269 1179.21 833.865 1179.28 833.469C1181.45 832.1 1183.55 830.607 1185.44 828.875C1186.92 827.514 1188.29 826.059 1189.53 824.469C1190.15 823.67 1190.67 822.791 1191.22 821.938ZM1178.75 822.5C1178.5 823.186 1178.16 823.852 1177.84 824.438C1177.77 824.583 1177.64 824.7 1177.56 824.844C1177.38 824.632 1177.14 824.478 1176.94 824.281C1177.59 823.728 1178.17 823.132 1178.75 822.5ZM1169.41 824.094C1170.41 824.477 1171.4 824.877 1172.31 825.438C1170.91 826.268 1169.47 826.966 1168 827.531C1168.08 827.048 1168.09 826.576 1168.12 826.094C1168.59 825.44 1169.02 824.804 1169.41 824.094ZM1173.81 826.5C1174.45 827.038 1174.93 827.697 1175.25 828.438C1175.07 828.692 1174.93 828.964 1174.75 829.219C1172.69 832.184 1169.63 834.202 1166.5 835.906C1166.05 836.148 1165.58 836.302 1165.12 836.531C1165.3 836.091 1165.52 835.67 1165.69 835.219C1166.32 833.506 1166.95 831.574 1167.47 829.656C1167.85 829.523 1168.25 829.459 1168.62 829.312C1170.46 828.596 1172.16 827.565 1173.81 826.5ZM1146.69 828.938C1149.13 829.558 1151.47 830.456 1153.62 831.812C1153.01 831.998 1152.39 832.159 1151.78 832.344C1150.55 831.407 1149.28 830.592 1148.06 829.906C1147.73 829.718 1147.37 829.605 1147.03 829.438C1146.92 829.268 1146.8 829.104 1146.69 828.938ZM1175.5 833.062C1175.36 833.723 1175.24 834.404 1175.03 835.031C1174.95 835.278 1174.81 835.529 1174.72 835.781C1172.78 836.723 1170.78 837.515 1168.75 838.219C1170.93 836.979 1173.06 835.601 1174.88 833.875C1175.12 833.638 1175.27 833.314 1175.5 833.062ZM1155.47 833.188C1155.73 833.401 1155.97 833.641 1156.22 833.875C1155.59 834.134 1155 834.454 1154.34 834.656C1154.04 834.348 1153.7 834.072 1153.38 833.781C1154.07 833.568 1154.78 833.398 1155.47 833.188ZM1140.81 833.781C1141.36 833.795 1141.9 833.923 1142.44 834.031C1142.54 834.236 1142.6 834.446 1142.69 834.656C1140.38 835.08 1138.06 835.372 1135.69 835.344C1134.27 835.327 1132.86 835.227 1131.47 834.938C1131.09 834.859 1130.72 834.748 1130.34 834.656C1130.78 834.66 1131.21 834.776 1131.66 834.75C1133.89 834.618 1136.09 834.19 1138.31 833.938C1139.13 833.845 1139.97 833.761 1140.81 833.781ZM1117.94 835.281C1118.68 836.102 1119 837.616 1119.22 838.562C1119.34 839.071 1119.51 839.556 1119.62 840.062C1119.47 840.656 1119.22 841.208 1119.19 841.844C1119.15 842.657 1119.19 843.532 1119.44 844.312C1119.6 844.834 1119.85 845.257 1120.12 845.656C1120.1 845.641 1120.06 845.64 1120.03 845.625C1119.16 845.173 1118.43 844.487 1117.75 843.781C1117.17 843.18 1116.62 842.563 1116.16 841.875C1115.64 841.116 1115.2 840.279 1114.91 839.406C1114.86 839.258 1114.92 839.091 1114.88 838.938C1115.63 837.732 1116.48 836.587 1117.47 835.656C1117.61 835.524 1117.79 835.417 1117.94 835.281ZM1158.06 835.812C1158.52 836.514 1158.82 837.286 1159 838.094C1158.67 838.594 1158.41 839.128 1158 839.594C1157.96 839.644 1157.89 839.669 1157.84 839.719C1157.81 839.732 1157.78 839.768 1157.75 839.781C1157.32 838.679 1156.73 837.664 1156 836.688C1156.71 836.437 1157.38 836.13 1158.06 835.812ZM1174.62 836.062C1174.01 837.737 1173.2 839.45 1171.97 840.688C1171.67 840.992 1171.31 841.214 1170.97 841.469C1168.73 841.614 1166.49 841.725 1164.25 841.656C1164.33 841.252 1164.31 840.819 1164.34 840.406C1165.2 840.005 1166.07 839.626 1166.91 839.188C1166.96 839.172 1167.01 839.172 1167.06 839.156C1169.65 838.338 1172.17 837.259 1174.62 836.062ZM1129.41 836.438C1130.34 836.666 1131.27 836.893 1132.22 837.031C1132.48 837.069 1132.74 837.065 1133 837.094C1133.11 837.149 1133.23 837.197 1133.34 837.25C1132.15 837.485 1130.81 837.744 1129.44 837.906C1129.37 837.416 1129.37 836.934 1129.41 836.438ZM1143.22 836.469C1143.22 836.479 1143.22 836.49 1143.22 836.5C1143.18 836.503 1143.14 836.497 1143.09 836.5C1143.14 836.492 1143.18 836.477 1143.22 836.469ZM1126 837.469C1126 837.552 1125.99 837.636 1126 837.719C1125.93 837.695 1125.85 837.714 1125.78 837.688C1125.85 837.607 1125.93 837.547 1126 837.469ZM1108.97 837.656C1107.71 840.234 1106.94 843.049 1107.09 845.906C1107.12 846.447 1107.34 846.941 1107.44 847.469C1107.23 847.308 1107.07 847.108 1106.88 846.938C1106.85 846.501 1106.76 846.062 1106.75 845.625C1106.68 843.682 1106.9 841.474 1107.34 839.281C1107.85 838.689 1108.37 838.157 1108.97 837.656ZM1149.75 838.469C1150.48 839.153 1151.17 839.971 1151.72 840.875C1150.98 840.817 1150.23 840.791 1149.5 840.688C1149.62 839.951 1149.73 839.213 1149.75 838.469ZM1143.44 839C1143.42 839.23 1143.44 839.459 1143.41 839.688C1142.65 839.551 1141.91 839.401 1141.16 839.25C1141.06 839.231 1140.94 839.207 1140.84 839.188C1141.71 839.134 1142.58 839.065 1143.44 839ZM1139.25 839.281C1140.19 839.492 1141.12 839.671 1142.06 839.844C1142.48 839.92 1142.9 839.99 1143.31 840.062C1143.3 840.158 1143.27 840.249 1143.25 840.344C1143.17 840.332 1143.08 840.324 1143 840.312C1140.75 839.992 1138.52 839.746 1136.25 839.531C1136.36 839.521 1136.49 839.476 1136.59 839.469C1137.48 839.407 1138.36 839.335 1139.25 839.281ZM1132.06 840.188C1133.86 840.547 1135.71 840.694 1137.5 840.844C1139.33 840.997 1141.15 841.266 1142.97 841.5C1142.93 841.654 1142.92 841.816 1142.88 841.969C1142.69 842.679 1142.35 843.341 1142.09 844.031C1141.59 843.954 1141.08 843.949 1140.56 843.844C1137.62 843.249 1134.41 842.678 1131.78 841.125C1131.44 840.922 1131.13 840.639 1130.81 840.375C1131.24 840.303 1131.64 840.27 1132.06 840.188ZM1126.53 840.531C1126.56 840.535 1126.59 840.528 1126.62 840.531C1127.58 842.517 1129.43 843.832 1131.56 844.781C1130.02 844.603 1128.48 844.524 1126.94 844.344C1127.21 843.599 1127.23 842.76 1126.91 841.969C1126.71 841.509 1126.67 841.007 1126.53 840.531ZM1149.34 841.969C1150 842.011 1150.66 842.059 1151.31 842.094C1150.62 842.347 1149.92 842.58 1149.22 842.844C1149.23 842.789 1149.27 842.742 1149.28 842.688C1149.34 842.453 1149.29 842.204 1149.34 841.969ZM1164 842.688C1165.38 842.74 1166.77 842.868 1168.16 842.844C1168.36 842.84 1168.55 842.788 1168.75 842.781C1167.1 843.529 1165.31 844.049 1163.62 844.5C1163.52 844.527 1163.41 844.535 1163.31 844.562C1163.58 843.946 1163.82 843.331 1164 842.688ZM1112.91 845.844C1113.57 846.67 1114.24 847.479 1115.03 848.188C1119.37 852.094 1124.53 851.559 1129.97 852C1132.26 852.186 1134.73 852.175 1137.19 852.094C1136.7 852.612 1136.29 853.191 1135.75 853.656C1134.95 854.353 1134.16 854.965 1133.12 855.25C1130.12 856.077 1126.38 854.875 1123.5 854.031C1121.07 853.321 1118.55 852.614 1116.06 851.781C1115.37 851.095 1114.67 850.369 1114.12 849.469C1113.46 848.375 1113.02 847.13 1112.91 845.844ZM1146.34 850.969C1146.33 850.975 1146.32 850.993 1146.31 851C1146.04 851.179 1145.77 851.328 1145.5 851.5C1145.59 851.346 1145.72 851.218 1145.81 851.062C1145.99 851.025 1146.17 851.008 1146.34 850.969ZM1108.69 855.688C1110.65 856.622 1112.69 857.325 1114.78 858C1115.32 858.36 1115.81 858.798 1116.38 859.094C1118.29 860.102 1120.42 860.699 1122.56 861.125C1121.88 861.197 1121.19 861.303 1120.5 861.344C1117.05 861.549 1113.07 861.355 1110.56 858.656C1109.78 857.816 1109.19 856.823 1108.72 855.781C1108.71 855.751 1108.7 855.718 1108.69 855.688Z" fill="#f2b3b3" stroke="none"/>
</g>
<g filter="url(#Filter_4)" opacity="1">
<path d="M1155.48 815.407C1150.42 814.986 1144.48 811.255 1140.31 814.143C1136.82 816.554 1138.1 822.655 1139.04 826.785C1140.29 832.298 1143.03 837.591 1146.63 841.956C1155.47 852.694 1175.4 851.84 1185.82 844.484C1189.26 842.054 1193.61 838.579 1193.4 834.37C1193.11 828.523 1189.3 822.628 1184.55 819.2C1180.78 816.475 1175.28 817.495 1170.65 817.936C1166.27 818.353 1161.03 818.53 1158 821.728C1153.22 826.8 1147.03 834.048 1149.16 840.691C1151.47 847.927 1161.05 850.556 1168.12 853.333C1173.23 855.342 1179.08 855.054 1184.55 854.598C1189.34 854.199 1194.86 853.984 1198.46 850.805C1202.7 847.064 1209.58 840.049 1206.04 835.635C1199.88 827.932 1187.84 827.739 1178.23 825.521C1171.24 823.907 1163.84 823.205 1156.74 824.257C1152.08 824.947 1145.5 826.081 1144.1 830.578C1142.58 835.438 1145.87 842.207 1150.42 844.484C1156.09 847.317 1163.23 844.712 1169.38 843.22C1177.29 841.302 1185.07 838.408 1192.14 834.37C1197.06 831.558 1200.57 826.785 1204.78 822.993" fill="#f2b3b3" fill-rule="evenodd" stroke="none"/>
<path d="M1145.44 809.875C1144.27 809.762 1143.08 809.778 1141.88 810.031C1140.97 810.221 1140.09 810.555 1139.28 811C1133.64 814.104 1134.53 821.102 1135.69 826.375C1135.87 827.186 1136.1 828.218 1136.31 829C1136.6 830.025 1136.91 830.94 1137.28 831.938C1137.82 833.396 1138.45 834.834 1139.16 836.219C1141.28 840.395 1144.07 844.511 1147.84 847.375C1151.68 850.288 1156.36 851.941 1161.25 852.625C1161.45 852.7 1161.65 852.802 1161.84 852.875C1165.06 854.084 1168.38 855.545 1171.78 856.094C1176.47 856.85 1181.17 856.457 1185.88 856.031C1189.71 855.684 1193.76 855.324 1197.19 853.406C1199.38 852.182 1201.26 850.247 1202.94 848.406C1205.18 845.937 1207.7 842.972 1208.22 839.531C1208.95 834.662 1203.63 831.258 1199.84 829.531C1199.48 829.365 1199.11 829.24 1198.75 829.094C1200.77 827.061 1202.71 824.956 1204.78 823C1202.66 824.933 1200.66 827.022 1198.59 829.031C1198.22 828.882 1197.86 828.701 1197.47 828.562C1196.63 828.265 1195.83 828.021 1194.97 827.781C1194.78 827.729 1194.59 827.706 1194.41 827.656C1192.97 824.235 1190.77 821.124 1188 818.688C1186.63 817.48 1185.13 816.415 1183.41 815.781C1179.61 814.392 1175.46 814.977 1171.56 815.438C1167.98 815.86 1164.25 815.998 1160.84 817.312C1157.77 818.499 1155.99 820.551 1153.91 823C1153.59 823.374 1153.34 823.806 1153.03 824.188C1149.16 825.012 1144.91 826.438 1143.56 830.281C1142.45 827.373 1141.57 824.361 1141.28 821.281C1141.15 819.885 1140.88 817.441 1142.38 816.625C1143.69 815.907 1145.47 816.367 1146.81 816.688C1149.6 817.352 1152.27 818.338 1155.12 818.656C1156.92 818.849 1158.53 817.546 1158.72 815.75C1158.91 813.954 1157.61 812.349 1155.81 812.156C1152.29 811.797 1148.94 810.215 1145.44 809.875ZM1177.31 819.781C1179.11 819.773 1180.88 820.015 1182.41 820.844C1183.96 821.689 1185.3 823.103 1186.44 824.438C1186.92 825.003 1187.33 825.636 1187.75 826.25C1185.46 825.859 1183.16 825.493 1180.88 825.062C1177.67 824.457 1174.5 823.728 1171.25 823.344C1167.38 822.885 1163.51 822.977 1159.66 823.312C1160.04 822.942 1160.4 822.534 1160.88 822.25C1164.03 820.353 1168.5 820.514 1172.06 820.188C1173.69 820.038 1175.52 819.789 1177.31 819.781ZM1163.34 824.625C1165.9 824.619 1168.47 824.777 1171.03 825.125C1174.23 825.561 1177.34 826.345 1180.5 827C1183.4 827.601 1186.29 828.187 1189.19 828.781C1189.88 830.221 1190.44 831.698 1190.66 833.281C1190.73 833.779 1190.75 834.304 1190.72 834.812C1189.35 835.548 1188.02 836.357 1186.62 837C1182.31 838.988 1177.83 840.604 1173.25 841.875C1170.9 842.528 1168.49 843.062 1166.12 843.656C1163.23 844.383 1159.83 845.174 1156.53 845.188C1155.19 844.658 1153.91 844.007 1152.72 843.219C1151.97 842.302 1151.39 841.27 1151.03 840.094C1149.61 835.473 1153.26 830.523 1155.97 827.219C1156.6 826.452 1157.29 825.758 1157.97 825.031C1159.76 824.843 1161.55 824.629 1163.34 824.625ZM1151.66 825.969C1151.19 826.596 1150.67 827.188 1150.25 827.844C1148.52 830.513 1147.04 833.615 1146.78 836.812C1146.54 836.434 1146.26 836.07 1146.03 835.688C1145.38 834.598 1144.97 833.38 1144.44 832.219C1144.92 828.433 1148.21 826.82 1151.66 825.969ZM1195.38 830.375C1195.77 830.506 1196.17 830.636 1196.56 830.781C1196.25 831.054 1195.94 831.331 1195.62 831.594C1195.54 831.187 1195.49 830.772 1195.38 830.375ZM1196.75 830.844C1199.23 831.778 1201.62 832.928 1203.56 834.75C1204.68 835.803 1205.85 836.979 1205.75 838.625C1205.63 840.63 1204.31 842.504 1203.12 844.031C1202.11 845.341 1200.97 846.539 1199.78 847.688C1198.57 848.856 1197.31 850.105 1195.81 850.906C1192.38 852.742 1188.23 852.795 1184.44 853.062C1180.4 853.348 1176.34 853.509 1172.34 852.781C1172.15 852.745 1171.98 852.638 1171.78 852.594C1175.31 852.112 1178.77 851.26 1181.84 849.938C1185.66 848.299 1189.26 845.853 1192.16 842.875C1193.73 841.259 1195.1 839.353 1195.72 837.156C1196.21 835.42 1196.01 833.609 1195.66 831.844C1196.03 831.526 1196.39 831.176 1196.75 830.844ZM1190.62 835.25C1190.27 837.032 1188.83 838.519 1187.53 839.656C1184.76 842.071 1181.6 843.985 1178.12 845.188C1172.42 847.165 1165.3 847.63 1159.06 845.938C1161.58 845.604 1164.09 845.012 1166.34 844.406C1169.36 843.593 1172.39 842.826 1175.38 841.875C1179.61 840.526 1183.74 838.879 1187.72 836.906C1188.71 836.413 1189.64 835.787 1190.62 835.25Z" fill="#f2b3b3" stroke="none"/>
</g>
</g>
</svg>
