<?xml version="1.0" encoding="UTF-8" standalone="no"?>
<!DOCTYPE svg PUBLIC "-//W3C//DTD SVG 1.1//EN" "http://www.w3.org/Graphics/SVG/1.1/DTD/svg11.dtd"
[
<!ATTLIST g
  xmlns:vectornator CDATA #FIXED "http://vectornator.io"
  vectornator:layerName CDATA #IMPLIED >
<!ATTLIST g
  xmlns:vectornator CDATA #FIXED "http://vectornator.io"
  vectornator:mask CDATA #IMPLIED >
<!ATTLIST text
  xmlns:vectornator CDATA #FIXED "http://vectornator.io"
  vectornator:width CDATA #IMPLIED >
<!ATTLIST text
  xmlns:vectornator CDATA #FIXED "http://vectornator.io"
  vectornator:text CDATA #IMPLIED >

<!ATTLIST path
  xmlns:vectornator CDATA #FIXED "http://vectornator.io"
  vectornator:blendMode CDATA #IMPLIED >
<!ATTLIST path
  xmlns:vectornator CDATA #FIXED "http://vectornator.io"
  vectornator:shadowColor CDATA #IMPLIED >
<!ATTLIST path
  xmlns:vectornator CDATA #FIXED "http://vectornator.io"
  vectornator:shadowOpacity CDATA #IMPLIED >
<!ATTLIST path
  xmlns:vectornator CDATA #FIXED "http://vectornator.io"
  vectornator:shadowRadius CDATA #IMPLIED >
<!ATTLIST path
  xmlns:vectornator CDATA #FIXED "http://vectornator.io"
  vectornator:shadowOffset CDATA #IMPLIED >
<!ATTLIST path
  xmlns:vectornator CDATA #FIXED "http://vectornator.io"
  vectornator:shadowAngle CDATA #IMPLIED >

<!ATTLIST image
  xmlns:vectornator CDATA #FIXED "http://vectornator.io"
  vectornator:blendMode CDATA #IMPLIED >
<!ATTLIST image
  xmlns:vectornator CDATA #FIXED "http://vectornator.io"
  vectornator:shadowColor CDATA #IMPLIED >
<!ATTLIST image
  xmlns:vectornator CDATA #FIXED "http://vectornator.io"
  vectornator:shadowOpacity CDATA #IMPLIED >
<!ATTLIST image
  xmlns:vectornator CDATA #FIXED "http://vectornator.io"
  vectornator:shadowRadius CDATA #IMPLIED >
<!ATTLIST image
  xmlns:vectornator CDATA #FIXED "http://vectornator.io"
  vectornator:shadowOffset CDATA #IMPLIED >
<!ATTLIST image
  xmlns:vectornator CDATA #FIXED "http://vectornator.io"
  vectornator:shadowAngle CDATA #IMPLIED >

<!ATTLIST g
  xmlns:vectornator CDATA #FIXED "http://vectornator.io"
  vectornator:blendMode CDATA #IMPLIED >
<!ATTLIST g
  xmlns:vectornator CDATA #FIXED "http://vectornator.io"
  vectornator:shadowColor CDATA #IMPLIED >
<!ATTLIST g
  xmlns:vectornator CDATA #FIXED "http://vectornator.io"
  vectornator:shadowOpacity CDATA #IMPLIED >
<!ATTLIST g
  xmlns:vectornator CDATA #FIXED "http://vectornator.io"
  vectornator:shadowRadius CDATA #IMPLIED >
<!ATTLIST g
  xmlns:vectornator CDATA #FIXED "http://vectornator.io"
  vectornator:shadowOffset CDATA #IMPLIED >
<!ATTLIST g
  xmlns:vectornator CDATA #FIXED "http://vectornator.io"
  vectornator:shadowAngle CDATA #IMPLIED >

<!ENTITY % SVG.filter.extra.content  "| feDropShadow" >
<!ELEMENT feDropShadow EMPTY>
<!ATTLIST feDropShadow
  xmlns:svg CDATA #FIXED "http://www.w3.org/Graphics/SVG/1.1/DTD/svg11.dtd"
  dx CDATA #IMPLIED>
<!ATTLIST feDropShadow
  xmlns:svg CDATA #FIXED "http://www.w3.org/Graphics/SVG/1.1/DTD/svg11.dtd"
  dy CDATA #IMPLIED>
<!ATTLIST feDropShadow
  xmlns:svg CDATA #FIXED "http://www.w3.org/Graphics/SVG/1.1/DTD/svg11.dtd"
  stdDeviation CDATA #IMPLIED>
<!ATTLIST feDropShadow
  xmlns:svg CDATA #FIXED "http://www.w3.org/Graphics/SVG/1.1/DTD/svg11.dtd"
  flood-opacity CDATA #IMPLIED>
<!ATTLIST feDropShadow
  xmlns:svg CDATA #FIXED "http://www.w3.org/Graphics/SVG/1.1/DTD/svg11.dtd"
  in CDATA #IMPLIED>
<!ATTLIST feDropShadow
  xmlns:svg CDATA #FIXED "http://www.w3.org/Graphics/SVG/1.1/DTD/svg11.dtd"
  result CDATA #IMPLIED>
<!ATTLIST feDropShadow
  xmlns:svg CDATA #FIXED "http://www.w3.org/Graphics/SVG/1.1/DTD/svg11.dtd"
  flood-color CDATA #IMPLIED>
]
>
<!-- Created with Vectornator (http://vectornator.io/) -->
<svg height="100%" stroke-miterlimit="10" style="fill-rule:nonzero;clip-rule:evenodd;stroke-linecap:round;stroke-linejoin:round;" version="1.1" viewBox="0 0 2048 2048" width="100%" xml:space="preserve" xmlns="http://www.w3.org/2000/svg" xmlns:vectornator="http://vectornator.io" xmlns:xlink="http://www.w3.org/1999/xlink">
<defs>
<filter color-interpolation-filters="sRGB" filterUnits="userSpaceOnUse" height="258.585" id="Filter" width="251" x="334.668" y="1547.03">
<feGaussianBlur in="SourceGraphic" result="Blur" stdDeviation="50"/>
</filter>
</defs>
<g id="Layer-1" vectornator:layerName="Layer 1">
<path d="M1022.98 545.28C982.699 545.621 953.856 546.304 936.448 547.328C919.04 548.352 897.536 550.229 871.936 552.96C846.336 555.691 819.541 559.616 791.552 564.736C763.563 569.856 741.205 575.147 724.48 580.608C707.755 586.069 694.272 591.019 684.032 595.456C673.792 599.893 656.896 608.597 633.344 621.568C609.792 634.539 590.848 645.632 576.512 654.848C562.176 664.064 548.523 671.915 535.552 678.4C522.581 684.885 509.781 689.323 497.152 691.712C484.523 694.101 474.453 696.491 466.944 698.88C459.435 701.269 441.173 708.437 412.16 720.384C383.147 732.331 361.984 739.669 348.672 742.4C335.36 745.131 323.925 746.667 314.368 747.008C304.811 747.349 295.083 749.227 285.184 752.64C275.285 756.053 266.752 760.149 259.584 764.928C252.416 769.707 246.784 774.144 242.688 778.24C238.592 782.336 234.325 787.797 229.888 794.624C225.451 801.451 221.696 809.301 218.624 818.176C215.552 827.051 213.333 835.755 211.968 844.288C210.603 852.821 209.92 863.915 209.92 877.568C209.92 891.221 210.603 901.461 211.968 908.288C213.333 915.115 215.723 923.477 219.136 933.376C222.549 943.275 228.352 955.051 236.544 968.704C244.736 982.357 253.781 994.816 263.68 1006.08C273.579 1017.34 286.037 1029.29 301.056 1041.92C316.075 1054.55 328.533 1063.59 338.432 1069.06C348.331 1074.52 361.643 1079.98 378.368 1085.44C395.093 1090.9 412.501 1095.68 430.592 1099.78C448.683 1103.87 471.211 1108.14 498.176 1112.58C525.141 1117.01 556.203 1121.28 591.36 1125.38C626.517 1129.47 676.352 1132.54 740.864 1134.59C805.376 1136.64 890.368 1137.66 995.84 1137.66C1101.31 1137.66 1170.94 1136.81 1204.74 1135.1C1238.53 1133.4 1283.41 1132.03 1339.39 1131.01C1395.37 1129.98 1451.52 1126.91 1507.84 1121.79C1564.16 1116.67 1599.83 1113.09 1614.85 1111.04C1629.87 1108.99 1646.93 1106.09 1666.05 1102.34C1685.16 1098.58 1703.59 1093.63 1721.34 1087.49C1739.09 1081.34 1753.26 1075.03 1763.84 1068.54C1774.42 1062.06 1782.78 1055.06 1788.93 1047.55C1795.07 1040.04 1801.39 1029.63 1807.87 1016.32C1814.36 1003.01 1817.6 991.232 1817.6 980.992C1817.6 970.752 1816.58 962.219 1814.53 955.392C1812.48 948.565 1809.07 939.861 1804.29 929.28C1799.51 918.699 1790.29 906.923 1776.64 893.952C1762.99 880.981 1753.94 871.083 1749.5 864.256C1745.07 857.429 1740.46 849.237 1735.68 839.68C1730.9 830.123 1725.61 821.76 1719.81 814.592C1714.01 807.424 1707.86 798.379 1701.38 787.456C1694.89 776.533 1688.06 767.317 1680.9 759.808C1673.73 752.299 1660.59 741.547 1641.47 727.552C1622.36 713.557 1603.75 700.928 1585.66 689.664C1567.57 678.4 1545.05 665.771 1518.08 651.776C1491.11 637.781 1462.27 624.299 1431.55 611.328C1400.83 598.357 1371.48 587.605 1343.49 579.072C1315.5 570.539 1288.19 563.541 1261.57 558.08C1234.94 552.619 1214.81 549.205 1201.15 547.84C1187.5 546.475 1164.46 545.621 1132.03 545.28C1099.61 544.939 1063.25 544.939 1022.98 545.28Z" fill="#000000" fill-rule="evenodd" opacity="1" stroke="#000000" stroke-linecap="round" stroke-linejoin="round" stroke-width="1"/>
<path d="M963.072 548.352C938.155 549.376 914.261 550.912 891.392 552.96C868.523 555.008 843.605 558.08 816.64 562.176C789.675 566.272 769.536 569.856 756.224 572.928C742.912 576 728.917 580.267 714.24 585.728C699.563 591.189 685.568 596.992 672.256 603.136C658.944 609.28 636.928 621.568 606.208 640C575.488 658.432 554.837 670.208 544.256 675.328C533.675 680.448 528.384 683.349 528.384 684.032C528.384 684.715 527.019 685.909 524.288 687.616C521.557 689.323 512.341 691.541 496.64 694.272C480.939 697.003 463.872 701.781 445.44 708.608C427.008 715.435 410.795 722.091 396.8 728.576C382.805 735.061 368.64 739.84 354.304 742.912C339.968 745.984 326.997 747.861 315.392 748.544C303.787 749.227 294.229 750.933 286.72 753.664C279.211 756.395 271.872 759.979 264.704 764.416C257.536 768.853 251.221 773.632 245.76 778.752C240.299 783.872 236.373 788.139 233.984 791.552C231.595 794.965 228.864 799.915 225.792 806.4C222.72 812.885 220.331 819.2 218.624 825.344C216.917 831.488 215.381 839.68 214.016 849.92C212.651 860.16 211.968 869.547 211.968 878.08C211.968 886.613 212.821 895.659 214.528 905.216C216.235 914.773 219.819 926.549 225.28 940.544C230.741 954.539 237.056 966.827 244.224 977.408C251.392 987.989 260.608 999.253 271.872 1011.2C283.136 1023.15 295.936 1034.75 310.272 1046.02C324.608 1057.28 337.92 1065.81 350.208 1071.62C362.496 1077.42 378.88 1083.22 399.36 1089.02C419.84 1094.83 444.416 1100.29 473.088 1105.41C501.76 1110.53 539.648 1115.99 586.752 1121.79C633.856 1127.59 688.128 1131.35 749.568 1133.06C811.008 1134.76 893.781 1135.62 997.888 1135.62C1101.99 1135.62 1171.8 1134.76 1207.3 1133.06C1242.79 1131.35 1288.53 1129.98 1344.51 1128.96C1400.49 1127.94 1462.95 1123.84 1531.9 1116.67C1600.85 1109.5 1645.4 1104.04 1665.54 1100.29C1685.67 1096.53 1704.79 1091.41 1722.88 1084.93C1740.97 1078.44 1754.45 1072.47 1763.33 1067.01C1772.2 1061.55 1779.71 1055.23 1785.86 1048.06C1792 1040.9 1797.97 1032.19 1803.78 1021.95C1809.58 1011.71 1813.33 1003.35 1815.04 996.864C1816.75 990.379 1817.6 985.088 1817.6 980.992C1817.6 976.896 1816.92 971.776 1815.55 965.632C1814.19 959.488 1810.94 950.101 1805.82 937.472C1800.7 924.843 1790.46 910.848 1775.1 895.488C1759.74 880.128 1749.85 868.864 1745.41 861.696C1740.97 854.528 1737.05 847.189 1733.63 839.68C1730.22 832.171 1725.44 824.661 1719.3 817.152C1713.15 809.643 1707.35 801.109 1701.89 791.552C1696.43 781.995 1691.65 774.485 1687.55 769.024C1683.46 763.563 1676.12 756.565 1665.54 748.032C1654.95 739.499 1640.45 728.747 1622.02 715.776C1603.58 702.805 1582.08 689.323 1557.5 675.328C1532.93 661.333 1508.35 648.363 1483.78 636.416C1459.2 624.469 1435.31 613.888 1412.1 604.672C1388.89 595.456 1364.31 586.923 1338.37 579.072C1312.43 571.221 1286.49 564.736 1260.54 559.616C1234.6 554.496 1214.98 551.253 1201.66 549.888C1188.35 548.523 1151.49 547.669 1091.07 547.328C1030.66 546.987 987.989 547.328 963.072 548.352Z" fill="#908e8e" fill-rule="evenodd" opacity="1" stroke="#ffffff" stroke-linecap="round" stroke-linejoin="round" stroke-width="1"/>
<path d="M1045.5 660.992C1045.5 664.747 1044.65 668.672 1042.94 672.768C1041.24 676.864 1039.02 680.277 1036.29 683.008C1033.56 685.739 1030.31 687.957 1026.56 689.664C1022.81 691.371 1020.76 692.907 1020.42 694.272C1020.25 694.955 1020.07 695.637 1019.9 696.32C1022.46 695.125 1025.02 693.931 1027.58 692.736C1032.7 690.347 1036.8 687.445 1039.87 684.032C1042.94 680.619 1045.16 677.205 1046.53 673.792C1047.89 670.379 1048.58 666.624 1048.58 662.528C1048.58 658.432 1048.06 656.213 1047.04 655.872C1046.53 655.701 1046.02 655.531 1045.5 655.36C1045.5 657.237 1045.5 659.115 1045.5 660.992Z" fill="#000000" fill-rule="evenodd" opacity="1" stroke="#000000" stroke-linecap="round" stroke-linejoin="round" stroke-width="1"/>
<path d="M1100.29 663.04C1099.95 666.112 1100.8 670.379 1102.85 675.84C1104.9 681.301 1107.8 685.739 1111.55 689.152C1115.31 692.565 1119.23 695.125 1123.33 696.832C1125.38 697.685 1127.42 698.539 1129.47 699.392C1129.3 698.709 1129.13 698.027 1128.96 697.344C1128.62 695.979 1126.57 694.443 1122.82 692.736C1119.06 691.029 1115.82 688.811 1113.09 686.08C1110.36 683.349 1108.14 679.936 1106.43 675.84C1104.73 671.744 1103.87 667.819 1103.87 664.064C1103.87 662.187 1103.87 660.309 1103.87 658.432C1103.36 658.432 1102.85 658.432 1102.34 658.432C1101.31 658.432 1100.63 659.968 1100.29 663.04Z" fill="#000000" fill-rule="evenodd" opacity="1" stroke="#000000" stroke-linecap="round" stroke-linejoin="round" stroke-width="1"/>
<path d="M1003.01 709.12C998.571 710.827 994.304 713.557 990.208 717.312C986.112 721.067 982.528 726.699 979.456 734.208C976.384 741.717 974.848 748.203 974.848 753.664C974.848 759.125 975.531 764.075 976.896 768.512C978.261 772.949 980.139 777.045 982.528 780.8C984.917 784.555 987.819 787.797 991.232 790.528C994.645 793.259 997.547 793.941 999.936 792.576C1002.33 791.211 1006.59 789.845 1012.74 788.48C1018.88 787.115 1025.88 786.603 1033.73 786.944C1041.58 787.285 1047.38 783.701 1051.14 776.192C1054.89 768.683 1056.77 761.173 1056.77 753.664C1056.77 746.155 1056.09 740.352 1054.72 736.256C1053.35 732.16 1051.65 728.576 1049.6 725.504C1047.55 722.432 1044.48 719.189 1040.38 715.776C1036.29 712.363 1032.53 709.973 1029.12 708.608C1025.71 707.243 1021.61 706.56 1016.83 706.56C1012.05 706.56 1007.45 707.413 1003.01 709.12Z" fill="#000000" fill-rule="evenodd" opacity="1" stroke="#000000" stroke-linecap="round" stroke-linejoin="round" stroke-width="1"/>
<path d="M1120.77 710.144C1117.7 710.485 1114.28 711.509 1110.53 713.216C1106.77 714.923 1103.02 717.483 1099.26 720.896C1095.51 724.309 1092.27 729.088 1089.54 735.232C1086.81 741.376 1085.27 747.861 1084.93 754.688C1084.59 761.515 1085.1 767.317 1086.46 772.096C1087.83 776.875 1089.71 781.141 1092.1 784.896C1093.29 786.773 1094.49 788.651 1095.68 790.528C1096.7 789.675 1097.73 788.821 1098.75 787.968C1100.8 786.261 1103.53 785.408 1106.94 785.408C1110.36 785.408 1114.45 786.091 1119.23 787.456C1124.01 788.821 1129.13 791.211 1134.59 794.624C1140.05 798.037 1144.15 798.891 1146.88 797.184C1149.61 795.477 1152.85 792.235 1156.61 787.456C1160.36 782.677 1162.92 778.24 1164.29 774.144C1165.65 770.048 1166.34 764.416 1166.34 757.248C1166.34 750.08 1164.97 743.253 1162.24 736.768C1159.51 730.283 1156.61 725.504 1153.54 722.432C1150.46 719.36 1147.05 716.8 1143.3 714.752C1139.54 712.704 1135.62 711.339 1131.52 710.656C1127.42 709.973 1123.84 709.803 1120.77 710.144Z" fill="#000000" fill-rule="evenodd" opacity="1" stroke="#000000" stroke-linecap="round" stroke-linejoin="round" stroke-width="1"/>
<path d="M998.912 714.24C996.523 715.264 994.304 717.141 992.256 719.872C990.208 722.603 989.013 727.04 988.672 733.184C988.331 739.328 989.525 744.277 992.256 748.032C994.987 751.787 997.547 754.176 999.936 755.2C1002.33 756.224 1004.89 756.736 1007.62 756.736C1010.35 756.736 1012.74 756.224 1014.78 755.2C1016.83 754.176 1019.05 752.299 1021.44 749.568C1023.83 746.837 1025.37 743.936 1026.05 740.864C1026.73 737.792 1026.9 734.549 1026.56 731.136C1026.22 727.723 1024.85 724.309 1022.46 720.896C1020.07 717.483 1017.86 715.264 1015.81 714.24C1013.76 713.216 1011.03 712.704 1007.62 712.704C1004.2 712.704 1001.3 713.216 998.912 714.24Z" fill="#ffffff" fill-rule="evenodd" opacity="1" stroke="#ffffff" stroke-linecap="round" stroke-linejoin="round" stroke-width="1"/>
<path d="M1109.5 718.848C1107.8 719.531 1105.75 721.579 1103.36 724.992C1100.97 728.405 1099.78 732.331 1099.78 736.768C1099.78 741.205 1101.14 745.131 1103.87 748.544C1106.6 751.957 1109.85 754.005 1113.6 754.688C1117.35 755.371 1121.11 754.347 1124.86 751.616C1128.62 748.885 1130.84 744.789 1131.52 739.328C1132.2 733.867 1132.03 729.941 1131.01 727.552C1129.98 725.163 1128.45 723.115 1126.4 721.408C1124.35 719.701 1121.45 718.677 1117.7 718.336C1113.94 717.995 1111.21 718.165 1109.5 718.848Z" fill="#ffffff" fill-rule="evenodd" opacity="1" stroke="#ffffff" stroke-linecap="round" stroke-linejoin="round" stroke-width="1"/>
<path d="M1031.68 754.176C1029.29 755.883 1027.93 758.784 1027.58 762.88C1027.24 766.976 1027.75 770.048 1029.12 772.096C1030.49 774.144 1032.53 775.339 1035.26 775.68C1037.99 776.021 1040.55 775.339 1042.94 773.632C1045.33 771.925 1047.04 769.195 1048.06 765.44C1049.09 761.685 1048.92 758.613 1047.55 756.224C1046.19 753.835 1043.8 752.469 1040.38 752.128C1036.97 751.787 1034.07 752.469 1031.68 754.176Z" fill="#ffffff" fill-rule="evenodd" opacity="1" stroke="#ffffff" stroke-linecap="round" stroke-linejoin="round" stroke-width="1"/>
<path d="M1137.66 761.856C1135.62 763.904 1134.59 767.317 1134.59 772.096C1134.59 776.875 1135.27 780.117 1136.64 781.824C1138.01 783.531 1140.05 784.555 1142.78 784.896C1145.51 785.237 1148.25 784.043 1150.98 781.312C1153.71 778.581 1155.07 775.339 1155.07 771.584C1155.07 767.829 1154.56 765.269 1153.54 763.904C1152.51 762.539 1150.12 761.344 1146.37 760.32C1142.61 759.296 1139.71 759.808 1137.66 761.856Z" fill="#ffffff" fill-rule="evenodd" opacity="1" stroke="#ffffff" stroke-linecap="round" stroke-linejoin="round" stroke-width="1"/>
<path d="M1054.21 831.488C1049.77 833.536 1045.85 836.267 1042.43 839.68C1039.02 843.093 1035.95 847.189 1033.22 851.968C1030.49 856.747 1028.61 861.184 1027.58 865.28C1026.56 869.376 1024.17 871.936 1020.42 872.96C1016.66 873.984 1013.93 875.349 1012.22 877.056C1011.37 877.909 1010.52 878.763 1009.66 879.616C1010.35 879.957 1011.03 880.299 1011.71 880.64C1013.08 881.323 1014.27 881.152 1015.3 880.128C1016.32 879.104 1019.22 878.08 1024 877.056C1028.78 876.032 1032.87 876.203 1036.29 877.568C1039.7 878.933 1042.09 880.64 1043.46 882.688C1044.82 884.736 1046.19 885.76 1047.55 885.76C1048.23 885.76 1048.92 885.76 1049.6 885.76C1049.6 885.077 1049.6 884.395 1049.6 883.712C1049.6 882.347 1048.75 880.64 1047.04 878.592C1045.33 876.544 1042.6 874.837 1038.85 873.472C1035.09 872.107 1033.22 870.4 1033.22 868.352C1033.22 866.304 1034.07 863.403 1035.78 859.648C1037.48 855.893 1040.73 851.285 1045.5 845.824C1050.28 840.363 1054.21 836.949 1057.28 835.584C1060.35 834.219 1064.45 833.536 1069.57 833.536C1074.69 833.536 1078.61 834.219 1081.34 835.584C1084.07 836.949 1086.63 838.827 1089.02 841.216C1091.41 843.605 1094.14 847.872 1097.22 854.016C1100.29 860.16 1102.17 865.621 1102.85 870.4C1103.53 875.179 1102.17 878.08 1098.75 879.104C1095.34 880.128 1093.29 880.981 1092.61 881.664C1091.93 882.347 1091.75 883.2 1092.1 884.224C1092.44 885.248 1095.51 885.419 1101.31 884.736C1107.11 884.053 1110.87 884.565 1112.58 886.272C1114.28 887.979 1115.82 888.832 1117.18 888.832C1117.87 888.832 1118.55 888.832 1119.23 888.832C1119.23 887.979 1119.23 887.125 1119.23 886.272C1119.23 884.565 1117.7 882.859 1114.62 881.152C1111.55 879.445 1109.5 875.349 1108.48 868.864C1107.46 862.379 1105.41 856.235 1102.34 850.432C1099.26 844.629 1095.34 839.851 1090.56 836.096C1085.78 832.341 1079.64 830.123 1072.13 829.44C1064.62 828.757 1058.65 829.44 1054.21 831.488Z" fill="#000000" fill-rule="evenodd" opacity="1" stroke="#000000" stroke-linecap="round" stroke-linejoin="round" stroke-width="1"/>
<path d="M1093.11 792.33C1093.11 771.705 1156.19 793.471 1153.47 807.027C1150.19 823.448 1075.09 809.076 1095.16 789.011" fill="#429fc2" fill-rule="evenodd" opacity="1" stroke="#429fc2" stroke-linecap="round" stroke-linejoin="round" stroke-width="1"/>
<path d="M1041.85 781.158C1041.69 781.684 1028.77 782.738 1025.69 783.398C1017.8 785.089 989.503 790.293 991.447 801.96C992.632 809.067 1038.94 802.474 1045.85 795.559C1055.88 785.536 1042.44 779.3 1041.85 781.158Z" fill="#429fc2" fill-rule="evenodd" opacity="1" stroke="#429fc2" stroke-linecap="round" stroke-linejoin="round" stroke-width="1"/>
</g>
<g id="Layer-2" vectornator:layerName="Layer 2">
<path d="M460.168 1680.12C460.168 1677.59 460.168 1675.06 460.168 1672.53" fill="#908e8e" fill-rule="evenodd" filter="url(#Filter)" opacity="1" stroke="#ffffff" stroke-linecap="round" stroke-linejoin="round" stroke-width="1"/>
</g>
</svg>
