<?xml version="1.0" encoding="UTF-8" standalone="no"?>
<!DOCTYPE svg PUBLIC "-//W3C//DTD SVG 1.1//EN" "http://www.w3.org/Graphics/SVG/1.1/DTD/svg11.dtd"
[
<!ATTLIST g
  xmlns:vectornator CDATA #FIXED "http://vectornator.io"
  vectornator:layerName CDATA #IMPLIED >
<!ATTLIST g
  xmlns:vectornator CDATA #FIXED "http://vectornator.io"
  vectornator:mask CDATA #IMPLIED >
<!ATTLIST text
  xmlns:vectornator CDATA #FIXED "http://vectornator.io"
  vectornator:width CDATA #IMPLIED >
<!ATTLIST text
  xmlns:vectornator CDATA #FIXED "http://vectornator.io"
  vectornator:text CDATA #IMPLIED >

<!ATTLIST path
  xmlns:vectornator CDATA #FIXED "http://vectornator.io"
  vectornator:blendMode CDATA #IMPLIED >
<!ATTLIST path
  xmlns:vectornator CDATA #FIXED "http://vectornator.io"
  vectornator:shadowColor CDATA #IMPLIED >
<!ATTLIST path
  xmlns:vectornator CDATA #FIXED "http://vectornator.io"
  vectornator:shadowOpacity CDATA #IMPLIED >
<!ATTLIST path
  xmlns:vectornator CDATA #FIXED "http://vectornator.io"
  vectornator:shadowRadius CDATA #IMPLIED >
<!ATTLIST path
  xmlns:vectornator CDATA #FIXED "http://vectornator.io"
  vectornator:shadowOffset CDATA #IMPLIED >
<!ATTLIST path
  xmlns:vectornator CDATA #FIXED "http://vectornator.io"
  vectornator:shadowAngle CDATA #IMPLIED >

<!ATTLIST image
  xmlns:vectornator CDATA #FIXED "http://vectornator.io"
  vectornator:blendMode CDATA #IMPLIED >
<!ATTLIST image
  xmlns:vectornator CDATA #FIXED "http://vectornator.io"
  vectornator:shadowColor CDATA #IMPLIED >
<!ATTLIST image
  xmlns:vectornator CDATA #FIXED "http://vectornator.io"
  vectornator:shadowOpacity CDATA #IMPLIED >
<!ATTLIST image
  xmlns:vectornator CDATA #FIXED "http://vectornator.io"
  vectornator:shadowRadius CDATA #IMPLIED >
<!ATTLIST image
  xmlns:vectornator CDATA #FIXED "http://vectornator.io"
  vectornator:shadowOffset CDATA #IMPLIED >
<!ATTLIST image
  xmlns:vectornator CDATA #FIXED "http://vectornator.io"
  vectornator:shadowAngle CDATA #IMPLIED >

<!ATTLIST g
  xmlns:vectornator CDATA #FIXED "http://vectornator.io"
  vectornator:blendMode CDATA #IMPLIED >
<!ATTLIST g
  xmlns:vectornator CDATA #FIXED "http://vectornator.io"
  vectornator:shadowColor CDATA #IMPLIED >
<!ATTLIST g
  xmlns:vectornator CDATA #FIXED "http://vectornator.io"
  vectornator:shadowOpacity CDATA #IMPLIED >
<!ATTLIST g
  xmlns:vectornator CDATA #FIXED "http://vectornator.io"
  vectornator:shadowRadius CDATA #IMPLIED >
<!ATTLIST g
  xmlns:vectornator CDATA #FIXED "http://vectornator.io"
  vectornator:shadowOffset CDATA #IMPLIED >
<!ATTLIST g
  xmlns:vectornator CDATA #FIXED "http://vectornator.io"
  vectornator:shadowAngle CDATA #IMPLIED >

<!ENTITY % SVG.filter.extra.content  "| feDropShadow" >
<!ELEMENT feDropShadow EMPTY>
<!ATTLIST feDropShadow
  xmlns:svg CDATA #FIXED "http://www.w3.org/Graphics/SVG/1.1/DTD/svg11.dtd"
  dx CDATA #IMPLIED>
<!ATTLIST feDropShadow
  xmlns:svg CDATA #FIXED "http://www.w3.org/Graphics/SVG/1.1/DTD/svg11.dtd"
  dy CDATA #IMPLIED>
<!ATTLIST feDropShadow
  xmlns:svg CDATA #FIXED "http://www.w3.org/Graphics/SVG/1.1/DTD/svg11.dtd"
  stdDeviation CDATA #IMPLIED>
<!ATTLIST feDropShadow
  xmlns:svg CDATA #FIXED "http://www.w3.org/Graphics/SVG/1.1/DTD/svg11.dtd"
  flood-opacity CDATA #IMPLIED>
<!ATTLIST feDropShadow
  xmlns:svg CDATA #FIXED "http://www.w3.org/Graphics/SVG/1.1/DTD/svg11.dtd"
  in CDATA #IMPLIED>
<!ATTLIST feDropShadow
  xmlns:svg CDATA #FIXED "http://www.w3.org/Graphics/SVG/1.1/DTD/svg11.dtd"
  result CDATA #IMPLIED>
<!ATTLIST feDropShadow
  xmlns:svg CDATA #FIXED "http://www.w3.org/Graphics/SVG/1.1/DTD/svg11.dtd"
  flood-color CDATA #IMPLIED>
]
>
<!-- Created with Vectornator (http://vectornator.io/) -->
<svg height="100%" stroke-miterlimit="10" style="fill-rule:nonzero;clip-rule:evenodd;stroke-linecap:round;stroke-linejoin:round;" version="1.1" viewBox="0 0 1620 2160" width="100%" xml:space="preserve" xmlns="http://www.w3.org/2000/svg" xmlns:vectornator="http://vectornator.io" xmlns:xlink="http://www.w3.org/1999/xlink">
<defs>
<filter color-interpolation-filters="sRGB" filterUnits="userSpaceOnUse" height="106.199" id="Filter" width="107.239" x="687.191" y="825.166">
<feGaussianBlur in="SourceGraphic" result="Blur" stdDeviation="16.7636"/>
</filter>
<filter color-interpolation-filters="sRGB" filterUnits="userSpaceOnUse" height="101.751" id="Filter_2" width="101.906" x="845.893" y="817.364">
<feGaussianBlur in="SourceGraphic" result="Blur" stdDeviation="16.7636"/>
</filter>
<filter color-interpolation-filters="sRGB" filterUnits="userSpaceOnUse" height="92.7833" id="Filter_3" width="92.4622" x="849.91" y="814.878">
<feGaussianBlur in="SourceGraphic" result="Blur" stdDeviation="16.7636"/>
</filter>
</defs>
<g id="Layer-1" vectornator:layerName="Layer 1">
<path d="M999 453.06C997.56 454.14 966.24 538.02 905.04 704.7C843.84 871.38 813.06 955.62 812.7 957.42C812.34 959.22 812.52 960.48 813.24 961.2C813.6 961.56 813.96 961.92 814.32 962.28C813.6 962.28 812.88 962.28 812.16 962.28C810.72 962.28 808.2 957.6 804.6 948.24C801 938.88 770.22 854.1 712.26 693.9C654.3 533.7 623.88 453.6 621 453.6C618.12 453.6 615.42 455.4 612.9 459C610.38 462.6 606.78 472.14 602.1 487.62C597.42 503.1 594.54 516.6 593.46 528.12C592.38 539.64 591.84 551.52 591.84 563.76C591.84 576 592.56 589.68 594 604.8C595.44 619.92 598.5 639.54 603.18 663.66C607.86 687.78 614.16 711.54 622.08 734.94C630 758.34 640.98 784.98 655.02 814.86C669.06 844.74 682.02 869.22 693.9 888.3C705.78 907.38 720 926.64 736.56 946.08C753.12 965.52 760.68 977.94 759.24 983.34C757.8 988.74 756.36 1002.78 754.92 1025.46C753.48 1048.14 751.14 1067.76 747.9 1084.32C744.66 1100.88 737.64 1121.94 726.84 1147.5C716.04 1173.06 705.96 1192.86 696.6 1206.9C687.24 1220.94 679.5 1230.48 673.38 1235.52C667.26 1240.56 662.58 1242.9 659.34 1242.54C656.1 1242.18 653.94 1241.28 652.86 1239.84C651.78 1238.4 648.54 1236.6 643.14 1234.44C637.74 1232.28 630.36 1230.48 621 1229.04C611.64 1227.6 603.54 1227.06 596.7 1227.42C589.86 1227.78 582.12 1229.04 573.48 1231.2C564.84 1233.36 555.66 1237.14 545.94 1242.54C536.22 1247.94 527.58 1254.06 520.02 1260.9C512.46 1267.74 505.62 1275.3 499.5 1283.58C493.38 1291.86 487.8 1301.22 482.76 1311.66C477.72 1322.1 473.76 1332.72 470.88 1343.52C468 1354.32 466.02 1363.86 464.94 1372.14C463.86 1380.42 463.5 1390.68 463.86 1402.92C464.22 1415.16 466.02 1428.3 469.26 1442.34C472.5 1456.38 476.46 1468.44 481.14 1478.52C485.82 1488.6 491.04 1497.6 496.8 1505.52C502.56 1513.44 508.5 1520.28 514.62 1526.04C520.74 1531.8 527.94 1537.2 536.22 1542.24C544.5 1547.28 554.76 1551.42 567 1554.66C579.24 1557.9 588.6 1559.34 595.08 1558.98C601.56 1558.62 608.04 1557.54 614.52 1555.74C621 1553.94 629.1 1550.16 638.82 1544.4C648.54 1538.64 657.54 1531.44 665.82 1522.8C674.1 1514.16 681.66 1504.98 688.5 1495.26C695.34 1485.54 701.28 1474.2 706.32 1461.24C711.36 1448.28 715.5 1434.06 718.74 1418.58C721.98 1403.1 724.32 1388.16 725.76 1373.76C727.2 1359.36 727.56 1343.88 726.84 1327.32C726.12 1310.76 726.48 1301.22 727.92 1298.7C729.36 1296.18 730.44 1292.22 731.16 1286.82C731.88 1281.42 745.2 1240.92 771.12 1165.32C797.04 1089.72 810.36 1051.92 811.08 1051.92C811.8 1051.92 813.6 1055.88 816.48 1063.8C819.36 1071.72 828.54 1099.26 844.02 1146.42C859.5 1193.58 871.02 1227.42 878.58 1247.94C886.14 1268.46 890.28 1281.42 891 1286.82C891.72 1292.22 892.8 1296.18 894.24 1298.7C895.68 1301.22 896.04 1306.44 895.32 1314.36C894.6 1322.28 894.42 1333.44 894.78 1347.84C895.14 1362.24 897.12 1380.06 900.72 1401.3C904.32 1422.54 908.28 1439.64 912.6 1452.6C916.92 1465.56 922.5 1477.44 929.34 1488.24C936.18 1499.04 944.46 1509.66 954.18 1520.1C963.9 1530.54 971.1 1537.38 975.78 1540.62C980.46 1543.86 985.32 1546.74 990.36 1549.26C995.4 1551.78 1001.16 1553.94 1007.64 1555.74C1014.12 1557.54 1021.86 1558.44 1030.86 1558.44C1039.86 1558.44 1049.22 1557 1058.94 1554.12C1068.66 1551.24 1078.74 1546.38 1089.18 1539.54C1099.62 1532.7 1108.8 1524.78 1116.72 1515.78C1124.64 1506.78 1131.3 1497.24 1136.7 1487.16C1142.1 1477.08 1146.78 1464.84 1150.74 1450.44C1154.7 1436.04 1157.04 1421.46 1157.76 1406.7C1158.48 1391.94 1158.3 1380.42 1157.22 1372.14C1156.14 1363.86 1154.34 1354.86 1151.82 1345.14C1149.3 1335.42 1144.62 1323.72 1137.78 1310.04C1130.94 1296.36 1125.18 1286.46 1120.5 1280.34C1115.82 1274.22 1109.7 1267.74 1102.14 1260.9C1094.58 1254.06 1085.94 1247.94 1076.22 1242.54C1066.5 1237.14 1059.48 1233.72 1055.16 1232.28C1050.84 1230.84 1044.54 1229.58 1036.26 1228.5C1027.98 1227.42 1020.6 1227.06 1014.12 1227.42C1007.64 1227.78 1000.98 1228.68 994.14 1230.12C987.3 1231.56 980.64 1234.08 974.16 1237.68C967.68 1241.28 963.36 1243.08 961.2 1243.08C959.04 1243.08 956.52 1242.18 953.64 1240.38C950.76 1238.58 946.98 1235.16 942.3 1230.12C937.62 1225.08 932.58 1218.6 927.18 1210.68C921.78 1202.76 915.66 1192.14 908.82 1178.82C901.98 1165.5 895.32 1150.56 888.84 1134C882.36 1117.44 877.5 1100.88 874.26 1084.32C871.02 1067.76 868.68 1048.14 867.24 1025.46C865.8 1002.78 864.36 988.38 862.92 982.26C861.48 976.14 863.64 970.38 869.4 964.98C875.16 959.58 882.36 951.66 891 941.22C899.64 930.78 910.98 914.58 925.02 892.62C939.06 870.66 953.1 844.74 967.14 814.86C981.18 784.98 992.7 756.18 1001.7 728.46C1010.7 700.74 1017.18 675.54 1021.14 652.86C1025.1 630.18 1027.62 606.6 1028.7 582.12C1029.78 557.64 1029.78 539.64 1028.7 528.12C1027.62 516.6 1026 506.34 1023.84 497.34C1021.68 488.34 1019.52 481.68 1017.36 477.36C1015.2 473.04 1013.76 469.08 1013.04 465.48C1012.32 461.88 1010.7 458.64 1008.18 455.76C1005.66 452.88 1003.86 451.44 1002.78 451.44C1001.7 451.44 1000.44 451.98 999 453.06Z" fill="#000000" fill-rule="evenodd" opacity="1" stroke="#000000" stroke-linecap="round" stroke-linejoin="round" stroke-width="1"/>
<path d="M908.82 708.48C877.68 793.08 846.54 877.68 815.4 962.28C820.08 962.1 824.76 961.92 829.44 961.74C838.8 961.38 844.56 961.38 846.72 961.74C848.88 962.1 851.04 963.36 853.2 965.52C855.36 967.68 856.98 968.76 858.06 968.76C859.14 968.76 864.36 963.9 873.72 954.18C883.08 944.46 892.8 932.76 902.88 919.08C912.96 905.4 918 898.02 918 896.94C918 895.86 922.32 888.66 930.96 875.34C939.6 862.02 950.76 840.42 964.44 810.54C978.12 780.66 989.64 750.42 999 719.82C1008.36 689.22 1015.2 660.06 1019.52 632.34C1023.84 604.62 1026.18 583.92 1026.54 570.24C1026.9 556.56 1026.54 543.96 1025.46 532.44C1024.38 520.92 1021.5 506.7 1016.82 489.78C1012.14 472.86 1008.54 462.78 1006.02 459.54C1004.76 457.92 1003.5 456.3 1002.24 454.68C971.1 539.28 939.96 623.88 908.82 708.48Z" fill="#dfdbdb" fill-rule="evenodd" opacity="1" stroke="#ffffff" stroke-linecap="round" stroke-linejoin="round" stroke-width="1"/>
<path d="M619.38 456.84C619.56 457.2 619.74 457.56 619.92 457.92C619.2 458.28 618.48 458.64 617.76 459C616.32 459.72 614.7 461.88 612.9 465.48C611.1 469.08 608.22 478.26 604.26 493.02C600.3 507.78 597.78 520.92 596.7 532.44C595.62 543.96 595.26 556.56 595.62 570.24C595.98 583.92 598.32 604.62 602.64 632.34C606.96 660.06 613.8 689.22 623.16 719.82C632.52 750.42 644.04 780.66 657.72 810.54C671.4 840.42 682.56 862.02 691.2 875.34C699.84 888.66 704.16 895.86 704.16 896.94C704.16 898.02 709.2 905.4 719.28 919.08C729.36 932.76 739.08 944.46 748.44 954.18C757.8 963.9 763.02 968.76 764.1 968.76C765.18 968.76 766.8 967.68 768.96 965.52C771.12 963.36 777.78 962.28 788.94 962.28C794.52 962.28 800.1 962.28 805.68 962.28C778.32 886.68 750.96 811.08 723.6 735.48C668.88 584.28 638.64 500.94 632.88 485.46C627.12 469.98 623.7 461.16 622.62 459C621.54 456.84 620.64 455.76 619.92 455.76C619.56 455.76 619.2 455.76 618.84 455.76C619.02 456.12 619.2 456.48 619.38 456.84Z" fill="#dfdbdb" fill-rule="evenodd" opacity="1" stroke="#ffffff" stroke-linecap="round" stroke-linejoin="round" stroke-width="1"/>
<path d="M966.06 751.14C964.98 759.42 963.36 765.54 961.2 769.5C959.04 773.46 956.34 777.06 953.1 780.3C949.86 783.54 947.7 785.34 946.62 785.7C945.54 786.06 943.92 783.72 941.76 778.68C939.6 773.64 936.54 769.5 932.58 766.26C928.62 763.02 924.84 761.4 921.24 761.4C917.64 761.4 914.04 762.84 910.44 765.72C906.84 768.6 904.14 772.74 902.34 778.14C900.54 783.54 899.64 789.66 899.64 796.5C899.64 803.34 900.36 809.46 901.8 814.86C903.24 820.26 905.04 824.58 907.2 827.82C909.36 831.06 912.42 832.5 916.38 832.14C920.34 831.78 925.02 832.32 930.42 833.76C935.82 835.2 939.24 835.02 940.68 833.22C942.12 831.42 943.56 828.72 945 825.12C946.44 821.52 947.34 817.38 947.7 812.7C948.06 808.02 950.04 803.88 953.64 800.28C957.24 796.68 960.3 791.64 962.82 785.16C965.34 778.68 967.14 772.74 968.22 767.34C969.3 761.94 969.48 755.82 968.76 748.98C968.4 745.56 968.04 742.14 967.68 738.72C967.14 742.86 966.6 747 966.06 751.14Z" fill="#000000" fill-rule="evenodd" opacity="1" stroke="#000000" stroke-linecap="round" stroke-linejoin="round" stroke-width="1"/>
<path d="M653.4 756.54C653.4 766.26 654.12 773.82 655.56 779.22C657 784.62 658.98 789.66 661.5 794.34C664.02 799.02 667.08 803.34 670.68 807.3C674.28 811.26 677.16 813.6 679.32 814.32C681.48 815.04 683.46 818.1 685.26 823.5C687.06 828.9 689.22 833.04 691.74 835.92C694.26 838.8 697.14 840.78 700.38 841.86C703.62 842.94 705.96 842.76 707.4 841.32C708.84 839.88 710.64 838.98 712.8 838.62C714.96 838.26 716.76 837 718.2 834.84C719.64 832.68 721.26 831.24 723.06 830.52C724.86 829.8 726.3 827.46 727.38 823.5C728.46 819.54 729 814.5 729 808.38C729 802.26 727.92 795.78 725.76 788.94C723.6 782.1 720.18 776.34 715.5 771.66C710.82 766.98 706.5 764.64 702.54 764.64C698.58 764.64 694.98 765.9 691.74 768.42C688.5 770.94 686.16 773.64 684.72 776.52C683.28 779.4 682.2 783 681.48 787.32C680.76 791.64 679.86 793.8 678.78 793.8C677.7 793.8 674.28 790.56 668.52 784.08C662.76 777.6 658.8 768.96 656.64 758.16C655.56 752.76 654.48 747.36 653.4 741.96C653.4 746.82 653.4 751.68 653.4 756.54Z" fill="#000000" fill-rule="evenodd" opacity="1" stroke="#000000" stroke-linecap="round" stroke-linejoin="round" stroke-width="1"/>
<path d="M916.38 773.82C913.86 775.62 911.7 778.14 909.9 781.38C908.1 784.62 906.84 788.22 906.12 792.18C905.4 796.14 905.76 799.02 907.2 800.82C908.64 802.62 910.44 803.52 912.6 803.52C914.76 803.52 916.74 802.98 918.54 801.9C920.34 800.82 922.5 798.48 925.02 794.88C927.54 791.28 928.8 786.96 928.8 781.92C928.8 776.88 928.26 773.82 927.18 772.74C926.1 771.66 924.66 771.12 922.86 771.12C921.06 771.12 918.9 772.02 916.38 773.82Z" fill="#ffffff" fill-rule="evenodd" opacity="1" stroke="#ffffff" stroke-linecap="round" stroke-linejoin="round" stroke-width="1"/>
<path d="M695.52 778.68C692.64 781.56 690.3 785.34 688.5 790.02C686.7 794.7 686.16 798.3 686.88 800.82C687.6 803.34 688.5 804.96 689.58 805.68C690.66 806.4 692.82 806.4 696.06 805.68C699.3 804.96 701.82 803.7 703.62 801.9C705.42 800.1 707.04 797.58 708.48 794.34C709.92 791.1 710.28 787.14 709.56 782.46C708.84 777.78 707.04 775.26 704.16 774.9C701.28 774.54 698.4 775.8 695.52 778.68Z" fill="#ffffff" fill-rule="evenodd" opacity="1" stroke="#ffffff" stroke-linecap="round" stroke-linejoin="round" stroke-width="1"/>
<path d="M927.72 798.66C927.36 799.56 927 800.46 926.64 801.36C927.54 801.54 928.44 801.72 929.34 801.9C931.14 802.26 932.4 801.9 933.12 800.82C933.84 799.74 933.84 798.66 933.12 797.58C932.4 796.5 931.5 795.96 930.42 795.96C929.34 795.96 928.44 796.86 927.72 798.66Z" fill="#ffffff" fill-rule="evenodd" opacity="1" stroke="#ffffff" stroke-linecap="round" stroke-linejoin="round" stroke-width="1"/>
<path d="M708.48 801.36C707.76 802.8 707.76 803.88 708.48 804.6C709.2 805.32 710.46 805.5 712.26 805.14C713.16 804.96 714.06 804.78 714.96 804.6C714.78 803.7 714.6 802.8 714.42 801.9C714.06 800.1 713.16 799.2 711.72 799.2C710.28 799.2 709.2 799.92 708.48 801.36Z" fill="#ffffff" fill-rule="evenodd" opacity="1" stroke="#ffffff" stroke-linecap="round" stroke-linejoin="round" stroke-width="1"/>
<path d="M771.12 968.76C768.96 970.2 767.88 971.64 767.88 973.08C767.88 974.52 767.16 975.78 765.72 976.86C764.28 977.94 762.48 991.8 760.32 1018.44C758.16 1045.08 754.74 1069.02 750.06 1090.26C745.38 1111.5 740.34 1128.42 734.94 1141.02C729.54 1153.62 726.84 1160.82 726.84 1162.62C726.84 1164.42 724.68 1169.28 720.36 1177.2C716.04 1185.12 709.38 1195.74 700.38 1209.06C691.38 1222.38 684.54 1231.38 679.86 1236.06C675.18 1240.74 670.86 1243.62 666.9 1244.7C662.94 1245.78 657.18 1244.7 649.62 1241.46C642.06 1238.22 634.68 1235.7 627.48 1233.9C620.28 1232.1 612 1231.2 602.64 1231.2C593.28 1231.2 584.46 1232.28 576.18 1234.44C567.9 1236.6 561.24 1238.76 556.2 1240.92C551.16 1243.08 545.22 1246.5 538.38 1251.18C531.54 1255.86 524.7 1261.62 517.86 1268.46C511.02 1275.3 504.9 1282.68 499.5 1290.6C494.1 1298.52 488.7 1308.78 483.3 1321.38C477.9 1333.98 473.94 1347.3 471.42 1361.34C468.9 1375.38 467.64 1387.26 467.64 1396.98C467.64 1406.7 468.36 1416.42 469.8 1426.14C471.24 1435.86 472.68 1443.6 474.12 1449.36C475.56 1455.12 478.62 1463.22 483.3 1473.66C487.98 1484.1 492.66 1492.74 497.34 1499.58C502.02 1506.42 508.5 1513.8 516.78 1521.72C525.06 1529.64 534.24 1536.3 544.32 1541.7C554.4 1547.1 564.3 1550.7 574.02 1552.5C583.74 1554.3 592.2 1554.84 599.4 1554.12C606.6 1553.4 614.16 1551.24 622.08 1547.64C630 1544.04 637.2 1539.9 643.68 1535.22C650.16 1530.54 657 1524.42 664.2 1516.86C671.4 1509.3 679.68 1497.78 689.04 1482.3C698.4 1466.82 705.06 1452.78 709.02 1440.18C712.98 1427.58 716.4 1410.12 719.28 1387.8C722.16 1365.48 723.42 1347.66 723.06 1334.34C722.7 1321.02 722.16 1314.18 721.44 1313.82C720.72 1313.46 720.54 1312.56 720.9 1311.12C721.08 1310.4 721.26 1309.68 721.44 1308.96C721.08 1309.32 720.72 1309.68 720.36 1310.04C720 1310.4 719.64 1310.76 719.28 1311.12C719.1 1310.58 718.92 1310.04 718.74 1309.5C718.38 1308.42 731.16 1270.62 757.08 1196.1C783 1121.58 797.04 1080.18 799.2 1071.9C801.36 1063.62 803.16 1058.58 804.6 1056.78C806.04 1054.98 807.12 1052.28 807.84 1048.68C808.56 1045.08 809.46 1043.1 810.54 1042.74C811.08 1042.56 811.62 1042.38 812.16 1042.2C827.46 1086.48 842.76 1130.76 858.06 1175.04C888.66 1263.6 903.78 1308.42 903.42 1309.5C903.24 1310.04 903.06 1310.58 902.88 1311.12C902.52 1310.76 902.16 1310.4 901.8 1310.04C901.44 1309.68 901.08 1309.32 900.72 1308.96C900.9 1309.68 901.08 1310.4 901.26 1311.12C901.62 1312.56 901.44 1313.46 900.72 1313.82C900 1314.18 899.46 1315.98 899.1 1319.22C898.74 1322.46 899.1 1334.7 900.18 1355.94C901.26 1377.18 902.88 1394.1 905.04 1406.7C907.2 1419.3 911.16 1433.34 916.92 1448.82C922.68 1464.3 929.16 1477.62 936.36 1488.78C943.56 1499.94 950.76 1509.3 957.96 1516.86C965.16 1524.42 971.1 1530 975.78 1533.6C980.46 1537.2 986.58 1540.98 994.14 1544.94C1001.7 1548.9 1009.08 1551.6 1016.28 1553.04C1023.48 1554.48 1029.96 1555.02 1035.72 1554.66C1041.48 1554.3 1047.42 1553.4 1053.54 1551.96C1059.66 1550.52 1066.14 1548.18 1072.98 1544.94C1079.82 1541.7 1085.76 1538.28 1090.8 1534.68C1095.84 1531.08 1103.04 1524.06 1112.4 1513.62C1121.76 1503.18 1128.96 1493.1 1134 1483.38C1139.04 1473.66 1143 1464.12 1145.88 1454.76C1148.76 1445.4 1150.92 1435.86 1152.36 1426.14C1153.8 1416.42 1154.34 1405.08 1153.98 1392.12C1153.62 1379.16 1152.36 1367.28 1150.2 1356.48C1148.04 1345.68 1144.26 1333.98 1138.86 1321.38C1133.46 1308.78 1128.06 1298.52 1122.66 1290.6C1117.26 1282.68 1111.14 1275.3 1104.3 1268.46C1097.46 1261.62 1090.62 1255.86 1083.78 1251.18C1076.94 1246.5 1069.38 1242.54 1061.1 1239.3C1052.82 1236.06 1046.16 1233.9 1041.12 1232.82C1036.08 1231.74 1028.88 1231.2 1019.52 1231.2C1010.16 1231.2 1001.88 1232.1 994.68 1233.9C987.48 1235.7 980.64 1238.22 974.16 1241.46C967.68 1244.7 961.92 1245.78 956.88 1244.7C951.84 1243.62 946.98 1240.74 942.3 1236.06C937.62 1231.38 930.78 1222.38 921.78 1209.06C912.78 1195.74 905.94 1184.76 901.26 1176.12C896.58 1167.48 894.42 1162.62 894.78 1161.54C895.14 1160.46 892.98 1154.7 888.3 1144.26C883.62 1133.82 879.12 1120.32 874.8 1103.76C870.48 1087.2 867.06 1064.16 864.54 1034.64C862.02 1005.12 860.4 988.38 859.68 984.42C858.96 980.46 857.88 977.94 856.44 976.86C855 975.78 854.28 974.52 854.28 973.08C854.28 971.64 853.38 970.2 851.58 968.76C849.78 967.32 842.94 966.96 831.06 967.68C819.18 968.4 811.98 968.4 809.46 967.68C806.94 966.96 800.46 966.6 790.02 966.6C779.58 966.6 773.28 967.32 771.12 968.76Z" fill="#faaa94" fill-rule="evenodd" opacity="1" stroke="#ffffff" stroke-linecap="round" stroke-linejoin="round" stroke-width="1"/>
<path d="M800.82 985.5C796.86 988.02 793.8 991.44 791.64 995.76C789.48 1000.08 788.22 1004.04 787.86 1007.64C787.5 1011.24 786.42 1013.22 784.62 1013.58C782.82 1013.94 781.56 1014.84 780.84 1016.28C780.48 1017 780.12 1017.72 779.76 1018.44C781.92 1018.08 784.08 1017.72 786.24 1017.36C790.56 1016.64 793.44 1016.82 794.88 1017.9C795.6 1018.44 796.32 1018.98 797.04 1019.52C797.22 1018.98 797.4 1018.44 797.58 1017.9C797.94 1016.82 796.86 1015.74 794.34 1014.66C791.82 1013.58 791.28 1010.16 792.72 1004.4C794.16 998.64 795.96 994.5 798.12 991.98C800.28 989.46 802.44 987.66 804.6 986.58C806.76 985.5 809.46 984.96 812.7 984.96C815.94 984.96 819 985.68 821.88 987.12C824.76 988.56 827.46 991.08 829.98 994.68C832.5 998.28 834.12 1002.6 834.84 1007.64C835.56 1012.68 835.2 1015.38 833.76 1015.74C832.32 1016.1 831.42 1016.82 831.06 1017.9C830.88 1018.44 830.7 1018.98 830.52 1019.52C832.14 1019.34 833.76 1019.16 835.38 1018.98C838.62 1018.62 841.32 1018.98 843.48 1020.06C844.56 1020.6 845.64 1021.14 846.72 1021.68C846.72 1021.14 846.72 1020.6 846.72 1020.06C846.72 1018.98 845.64 1017.9 843.48 1016.82C841.32 1015.74 840.06 1013.4 839.7 1009.8C839.34 1006.2 838.26 1002.42 836.46 998.46C834.66 994.5 831.42 990.72 826.74 987.12C822.06 983.52 817.56 981.72 813.24 981.72C808.92 981.72 804.78 982.98 800.82 985.5Z" fill="#000000" fill-rule="evenodd" opacity="1" stroke="#000000" stroke-linecap="round" stroke-linejoin="round" stroke-width="1"/>
<path d="M583.74 1268.46C573.3 1271.7 565.2 1275.3 559.44 1279.26C553.68 1283.22 548.1 1287.9 542.7 1293.3C537.3 1298.7 531.18 1306.8 524.34 1317.6C517.5 1328.4 512.1 1339.56 508.14 1351.08C504.18 1362.6 501.84 1376.28 501.12 1392.12C500.4 1407.96 500.4 1418.58 501.12 1423.98C501.84 1429.38 503.28 1435.14 505.44 1441.26C507.6 1447.38 510.12 1452.96 513 1458C515.88 1463.04 519.3 1467.72 523.26 1472.04C527.22 1476.36 531 1479.78 534.6 1482.3C538.2 1484.82 543.06 1487.16 549.18 1489.32C555.3 1491.48 561.24 1492.74 567 1493.1C572.76 1493.46 578.34 1493.1 583.74 1492.02C589.14 1490.94 594.54 1489.32 599.94 1487.16C605.34 1485 611.1 1481.76 617.22 1477.44C623.34 1473.12 629.46 1467.72 635.58 1461.24C641.7 1454.76 647.1 1447.92 651.78 1440.72C656.46 1433.52 661.5 1422 666.9 1406.16C672.3 1390.32 675.18 1374.84 675.54 1359.72C675.9 1344.6 675.36 1333.8 673.92 1327.32C672.48 1320.84 670.32 1314.36 667.44 1307.88C664.56 1301.4 661.86 1296.36 659.34 1292.76C656.82 1289.16 652.68 1284.84 646.92 1279.8C641.16 1274.76 634.86 1270.98 628.02 1268.46C621.18 1265.94 614.7 1264.5 608.58 1264.14C602.46 1263.78 594.18 1265.22 583.74 1268.46Z" fill="#000000" fill-rule="evenodd" opacity="1" stroke="#000000" stroke-linecap="round" stroke-linejoin="round" stroke-width="1"/>
<path d="M997.92 1267.92C988.56 1270.8 981 1274.76 975.24 1279.8C969.48 1284.84 965.34 1289.16 962.82 1292.76C960.3 1296.36 957.6 1301.4 954.72 1307.88C951.84 1314.36 949.68 1320.84 948.24 1327.32C946.8 1333.8 946.44 1345.5 947.16 1362.42C947.88 1379.34 950.76 1394.82 955.8 1408.86C960.84 1422.9 965.7 1433.52 970.38 1440.72C975.06 1447.92 980.46 1454.76 986.58 1461.24C992.7 1467.72 998.82 1473.12 1004.94 1477.44C1011.06 1481.76 1016.82 1485 1022.22 1487.16C1027.62 1489.32 1033.02 1490.94 1038.42 1492.02C1043.82 1493.1 1049.4 1493.46 1055.16 1493.1C1060.92 1492.74 1066.86 1491.48 1072.98 1489.32C1079.1 1487.16 1083.96 1484.82 1087.56 1482.3C1091.16 1479.78 1094.94 1476.36 1098.9 1472.04C1102.86 1467.72 1106.28 1463.04 1109.16 1458C1112.04 1452.96 1114.56 1447.38 1116.72 1441.26C1118.88 1435.14 1120.32 1429.38 1121.04 1423.98C1121.76 1418.58 1121.76 1407.96 1121.04 1392.12C1120.32 1376.28 1117.26 1361.16 1111.86 1346.76C1106.46 1332.36 1101.06 1321.2 1095.66 1313.28C1090.26 1305.36 1084.86 1298.7 1079.46 1293.3C1074.06 1287.9 1067.4 1282.68 1059.48 1277.64C1051.56 1272.6 1044.54 1269.18 1038.42 1267.38C1032.3 1265.58 1026.36 1264.5 1020.6 1264.14C1014.84 1263.78 1007.28 1265.04 997.92 1267.92Z" fill="#000000" fill-rule="evenodd" opacity="1" stroke="#000000" stroke-linecap="round" stroke-linejoin="round" stroke-width="1"/>
<path d="M593.46 1269C588.78 1269.72 583.56 1271.34 577.8 1273.86C572.04 1276.38 564.48 1281.42 555.12 1288.98C545.76 1296.54 538.92 1303.2 534.6 1308.96C530.28 1314.72 525.96 1321.56 521.64 1329.48C517.32 1337.4 513.36 1347.84 509.76 1360.8C506.16 1373.76 504.18 1385.64 503.82 1396.44C503.46 1407.24 504.72 1418.4 507.6 1429.92C510.48 1441.44 514.8 1451.52 520.56 1460.16C526.32 1468.8 530.82 1474.38 534.06 1476.9C537.3 1479.42 542.16 1481.94 548.64 1484.46C555.12 1486.98 561.06 1488.42 566.46 1488.78C571.86 1489.14 578.16 1488.6 585.36 1487.16C592.56 1485.72 601.38 1481.58 611.82 1474.74C622.26 1467.9 629.46 1462.32 633.42 1458C637.38 1453.68 641.88 1447.74 646.92 1440.18C651.96 1432.62 655.56 1426.68 657.72 1422.36C659.88 1418.04 662.58 1410.3 665.82 1399.14C669.06 1387.98 671.04 1379.7 671.76 1374.3C672.48 1368.9 672.66 1361.34 672.3 1351.62C671.94 1341.9 671.04 1333.98 669.6 1327.86C668.16 1321.74 666 1315.44 663.12 1308.96C660.24 1302.48 655.92 1296 650.16 1289.52C644.4 1283.04 639.9 1278.72 636.66 1276.56C633.42 1274.4 629.64 1272.6 625.32 1271.16C621 1269.72 615.78 1268.82 609.66 1268.46C603.54 1268.1 598.14 1268.28 593.46 1269Z" fill="#eaf8d3" fill-rule="evenodd" opacity="1" stroke="#eaf8d3" stroke-linecap="round" stroke-linejoin="round" stroke-width="1"/>
<path d="M1004.4 1269C1000.08 1269.72 995.76 1271.16 991.44 1273.32C987.12 1275.48 982.08 1279.26 976.32 1284.66C970.56 1290.06 966.42 1294.74 963.9 1298.7C961.38 1302.66 959.04 1307.52 956.88 1313.28C954.72 1319.04 952.92 1325.88 951.48 1333.8C950.04 1341.72 949.32 1349.1 949.32 1355.94C949.32 1362.78 950.04 1370.52 951.48 1379.16C952.92 1387.8 954.9 1396.08 957.42 1404C959.94 1411.92 963.18 1419.66 967.14 1427.22C971.1 1434.78 975.6 1441.8 980.64 1448.28C985.68 1454.76 990.54 1460.16 995.22 1464.48C999.9 1468.8 1006.2 1473.3 1014.12 1477.98C1022.04 1482.66 1028.16 1485.54 1032.48 1486.62C1036.8 1487.7 1041.66 1488.42 1047.06 1488.78C1052.46 1489.14 1058.04 1488.78 1063.8 1487.7C1069.56 1486.62 1074.96 1484.64 1080 1481.76C1085.04 1478.88 1089.72 1475.28 1094.04 1470.96C1098.36 1466.64 1102.86 1459.62 1107.54 1449.9C1112.22 1440.18 1115.28 1431.54 1116.72 1423.98C1118.16 1416.42 1118.88 1408.86 1118.88 1401.3C1118.88 1393.74 1117.98 1385.1 1116.18 1375.38C1114.38 1365.66 1111.32 1355.4 1107 1344.6C1102.68 1333.8 1098.18 1324.8 1093.5 1317.6C1088.82 1310.4 1083.96 1304.1 1078.92 1298.7C1073.88 1293.3 1066.5 1287.54 1056.78 1281.42C1047.06 1275.3 1036.98 1271.52 1026.54 1270.08C1016.1 1268.64 1008.72 1268.28 1004.4 1269Z" fill="#eaf8d3" fill-rule="evenodd" opacity="1" stroke="#ffffff" stroke-linecap="round" stroke-linejoin="round" stroke-width="1"/>
<g opacity="1">
<path d="M942.853 838.458C940.259 832.622 932.764 833.98 927.339 833.98C919.599 833.98 911.939 829.032 905.267 835.26C903.585 836.829 902.41 837.987 902.069 840.378C901.121 847.007 909.03 851.056 914.864 849.014C918.04 847.903 920.658 845.519 924.14 845.336C926.541 845.209 928.099 846.478 930.378 846.775C934.435 847.304 940.42 845.697 942.693 841.977C945.737 836.996 939.845 832.739 935.656 831.901C931.707 831.111 927.66 830.692 923.66 831.581C921.305 832.104 918.771 833.477 916.303 833.34C914.833 833.259 913.437 832.463 911.985 832.221C909.473 831.802 906.693 833.569 905.107 835.419" fill="#8fd2d5" fill-rule="evenodd" stroke="none"/>
<path d="M930.188 831.062C928.34 830.951 926.486 830.995 924.656 831.312C923.114 831.58 921.619 832.122 920.125 832.594C916.845 831.932 913.566 831.481 910.375 832.25C910.039 832.301 909.699 832.363 909.375 832.469C909.096 832.563 908.808 832.537 908.531 832.656C906.865 833.374 905.498 834.486 904.219 835.75C903.082 836.874 902.18 838.127 901.844 839.719C900.565 845.775 906.349 849.937 911.875 849.812C912.664 849.795 913.43 849.699 914.188 849.5C916.627 848.858 918.657 847.289 920.969 846.344C921.981 845.93 923.071 845.69 924.156 845.562C926.25 845.317 928.336 846.637 930.344 846.969C931.634 847.182 933.029 847.074 934.312 846.875C937.539 846.374 941.018 844.936 942.812 842.062C945.891 837.132 940.09 832.673 935.688 831.812C933.879 831.459 932.035 831.174 930.188 831.062ZM930.188 831.219C932.024 831.342 933.829 831.637 935.625 832C938.694 832.62 942.559 835.11 943.25 838.25C943.503 839.4 943.367 840.638 942.562 841.906C940.698 844.847 937.007 846.223 933.688 846.594C932.625 846.712 931.466 846.777 930.406 846.594C928.341 846.238 926.284 844.89 924.125 845.125C922.997 845.248 921.866 845.486 920.812 845.906C918.517 846.821 916.48 848.352 914.062 848.969C908.451 850.4 901.072 846.337 902.5 839.875C902.863 838.232 903.905 837.034 905.094 835.906C906.204 834.853 907.392 833.941 908.812 833.344C910.138 832.786 911.513 832.55 912.906 832.5C914.416 832.905 915.748 833.536 917.531 833.344C917.882 833.306 918.219 833.166 918.562 833.094C921.198 833.605 923.831 834.25 926.344 834.375C931.751 834.643 939.431 832.618 942.438 838.656C942.55 838.881 942.838 838.988 943.062 838.875C943.287 838.763 943.363 838.475 943.25 838.25C942.892 837.538 942.533 836.881 942 836.281C938.272 832.091 931.267 833.756 926.406 833.531C924.416 833.439 922.376 833.036 920.344 832.625C921.774 832.173 923.21 831.684 924.688 831.438C926.509 831.133 928.351 831.095 930.188 831.219ZM910.156 832.312C909.95 832.367 909.737 832.371 909.531 832.438C909.736 832.377 909.947 832.351 910.156 832.312ZM913.094 832.469C914.817 832.429 916.584 832.696 918.344 833.031C918.069 833.086 917.811 833.218 917.531 833.25C915.792 833.449 914.472 832.897 913 832.5C913.033 832.499 913.061 832.47 913.094 832.469Z" fill="#8fd2d5" stroke="none"/>
</g>
<g opacity="1">
<path d="M729.048 829.277C725.533 826.934 720.878 830.466 718.775 833.334C717.808 834.653 717.576 836.21 716.288 837.326C715.692 837.842 715.29 837.785 714.587 837.98C711.737 838.772 707.888 839.7 706.146 842.233C705.655 842.947 705.38 843.649 705.622 844.523C706.049 846.059 707.654 846.73 708.24 848.122C708.713 849.247 708.243 850.948 709.091 851.852C710.161 852.994 712.916 852.358 714.26 852.114C717.065 851.604 719.758 849.211 720.738 846.552C721.977 843.187 721.043 841.088 723.748 838.045C725.936 835.584 730.035 834.812 731.142 831.306C732.185 828.001 727.427 827.489 725.318 828.426" fill="#8fd2d5" fill-rule="evenodd" stroke="none"/>
<path d="M726.562 828.062C726.413 828.086 726.269 828.152 726.125 828.188C726.271 828.154 726.414 828.115 726.562 828.094C726.801 828.06 727.038 828.135 727.281 828.125C727.884 828.101 728.483 828.042 729.062 828.188C731.149 828.712 731.734 830.194 730.75 832.094C729.202 835.083 725.424 835.819 723.344 838.344C722.582 839.268 722.029 840.339 721.719 841.5C721.312 843.021 721.253 844.594 720.75 846.094C720.005 848.314 718.31 850.17 716.219 851.219C715.332 851.663 714.406 851.863 713.438 852.031C712.236 852.239 710.428 852.672 709.375 851.812C708.371 850.993 709.037 849.105 708.5 848C707.863 846.69 706.278 845.88 705.906 844.438C705.525 842.957 706.906 841.662 708 840.906C709.551 839.835 711.389 839.246 713.188 838.75C714.1 838.498 715.583 838.349 716.375 837.75C717.566 836.849 718.015 835.462 718.719 834.219C719.146 833.463 719.704 832.802 720.312 832.188C721.69 830.798 723.429 829.517 725.375 829.094C726.093 828.937 726.849 828.905 727.562 829.094C727.704 829.131 727.864 829.166 728 829.219C728.139 829.272 728.552 829.436 728.406 829.406C727.956 829.316 728.391 829.403 728.812 829.656C729.028 829.785 729.309 829.716 729.438 829.5C729.566 829.284 729.497 829.003 729.281 828.875C727.3 828.645 726.826 828.591 727.312 828.656C727.813 828.723 728.325 828.756 728.812 828.625C728.99 828.577 728.484 828.44 728.312 828.375C727.994 828.254 727.618 828.175 727.281 828.125C726.899 828.068 726.511 828.16 726.125 828.188C726.106 828.192 726.074 828.181 726.062 828.188C725.771 828.211 725.472 828.156 725.188 828.219C722.76 828.756 720.606 830.487 719.031 832.344C718.544 832.918 718.121 833.488 717.781 834.156C717.242 835.218 716.83 836.507 715.781 837.188C715.396 837.437 714.932 837.475 714.5 837.594C714 837.731 713.498 837.885 713 838.031C710.659 838.721 708.052 839.519 706.375 841.406C705.824 842.027 705.287 842.803 705.219 843.656C705.056 845.693 707.193 846.661 708 848.25C708.637 849.504 707.824 851.144 709.062 852.188C709.691 852.718 710.558 852.825 711.438 852.781C712.317 852.737 713.222 852.545 713.938 852.406C715.062 852.189 716.086 851.799 717.062 851.188C719.049 849.942 720.518 848.033 721.156 845.781C721.549 844.394 721.614 842.956 721.969 841.562C722.257 840.431 722.77 839.407 723.5 838.5C725.554 835.949 729.325 835.173 730.844 832.156C731.825 830.207 731.234 828.669 729.094 828.156C728.275 827.96 727.393 827.934 726.562 828.062Z" fill="#8fd2d5" stroke="none"/>
</g>
<g opacity="1">
<path d="M718.322 837.066C718.206 837.251 717.253 838.794 717.139 838.893C716.28 839.638 714.929 839.325 713.915 839.645C712.19 840.19 710.195 840.596 708.54 841.258C705.72 842.386 703.533 844.694 702.414 847.492C700.707 851.757 701.825 859.585 706.821 861.251C709.448 862.126 712.693 860.564 714.882 859.208C720.134 855.957 715.967 852.957 718.107 849.104" fill="#8fd2d5" fill-rule="evenodd" stroke="none"/>
<path d="M718.562 836.688C718.349 836.555 718.07 836.599 717.938 836.812C717.605 837.351 717.298 838.139 716.844 838.562C716.234 839.131 715.113 838.974 714.375 839.094C712.971 839.322 711.518 839.837 710.156 840.25C706.406 841.388 703.574 843.657 702.125 847.375C700.842 850.667 701.214 854.92 702.906 858C703.864 859.744 705.45 861.219 707.469 861.562C710.266 862.039 713.339 860.48 715.531 858.875C716.507 858.161 717.361 857.214 717.625 856C717.922 854.631 717.52 853.216 717.469 851.844C717.432 850.863 717.668 849.966 718.094 849.094C717.652 849.963 717.386 850.859 717.406 851.844C717.435 853.206 717.848 854.646 717.531 856C717.256 857.176 716.397 858.04 715.438 858.719C713.281 860.244 710.248 861.761 707.531 861.25C705.392 860.848 703.816 859.099 702.969 857.188C701.691 854.306 701.491 850.564 702.719 847.625C704.18 844.128 706.836 842.101 710.406 841.062C711.318 840.798 712.243 840.57 713.156 840.312C713.558 840.199 714.062 840.035 714.5 839.969C715.386 839.835 716.362 839.939 717.156 839.438C717.867 838.989 718.278 838.017 718.719 837.312C718.852 837.099 718.776 836.82 718.562 836.688Z" fill="#8fd2d5" stroke="none"/>
</g>
<g opacity="1">
<path d="M711.436 858.611C717.384 861.255 719.046 851.357 717.906 847.557" fill="#8fd2d5" fill-rule="evenodd" stroke="none"/>
<path d="M717.906 847.562C718.523 850.303 718.106 853.534 716.812 856.031C715.667 858.243 713.967 859.193 711.594 858.188C711.361 858.092 711.095 858.205 711 858.438C710.905 858.67 711.018 858.936 711.25 859.031C711.957 859.311 712.642 859.435 713.25 859.438C715.074 859.446 716.442 858.273 717.312 856.25C718.446 853.615 718.698 850.325 717.906 847.562Z" fill="#8fd2d5" stroke="none"/>
</g>
<g opacity="1">
<path d="M718.445 843.063C719.32 846.27 719.191 854.212 717.097 856.904C716.307 857.92 715.058 858.785 713.862 859.24C713.277 859.463 712.134 859.158 712.065 859.779C711.963 860.694 713.576 860.181 713.682 860.139C714.875 859.662 716.112 858.489 716.828 857.443C718.811 854.544 719.343 850.129 718.356 846.838" fill="#8fd2d5" fill-rule="evenodd" stroke="none"/>
<path d="M718.344 842.625C718.1 842.685 717.94 842.944 718 843.188C718.176 845.02 718.37 846.445 718.188 845C718.128 844.53 718.084 844.068 718.094 843.594C718.097 843.44 718.16 843.88 718.188 844.031C718.247 844.354 718.305 844.738 718.344 845.062C718.389 845.444 718.411 845.836 718.438 846.219C718.528 845.528 718.66 844.558 718.625 844.906C718.532 845.831 718.542 846.758 718.562 847.688C718.567 847.886 718.605 848.084 718.625 848.281C718.583 848.087 718.567 847.919 718.531 847.781C718.578 850.217 718.427 852.745 717.656 855.062C717.024 856.964 715.606 858.224 713.781 859C713.249 859.227 712.477 858.92 712.031 859.375C711.647 859.767 711.905 860.38 712.375 860.5C714.036 860.925 716.178 858.692 716.938 857.531C716.994 857.445 717.009 857.338 717.062 857.25C717.453 856.797 717.845 856.342 718.094 855.781C719.226 853.225 719.408 850.234 719.375 847.469C719.363 846.444 719.297 845.421 719.156 844.406C719.132 844.23 719.124 844.05 719.094 843.875C719.065 843.711 719.069 843.224 719 843.375C718.785 843.846 718.98 843.403 718.875 842.969C718.815 842.725 718.588 842.565 718.344 842.625ZM718.531 847.781C718.529 847.688 718.534 847.593 718.531 847.5C718.521 847.075 718.467 846.643 718.438 846.219C718.394 846.548 718.344 846.844 718.344 846.844C718.344 846.844 718.464 847.523 718.531 847.781ZM718.781 850.188C718.783 850.262 718.814 850.331 718.812 850.406C718.81 850.56 718.757 850.72 718.75 850.875C718.755 850.645 718.787 850.416 718.781 850.188ZM715.656 858.5C714.78 859.364 713.508 860.389 712.469 860.094C712.21 860.02 712.207 859.69 712.5 859.625C713.315 859.445 713.723 859.613 714.562 859.219C714.959 859.033 715.296 858.743 715.656 858.5Z" fill="#8fd2d5" stroke="none"/>
</g>
<g opacity="1">
<path d="M713.053 859.689C716.426 860.701 718.957 855.281 719.074 852.59C719.151 850.83 718.731 849.35 718.086 847.737" fill="#8fd2d5" fill-rule="evenodd" stroke="none"/>
<path d="M718.094 847.75C719.303 851.229 719.309 854.264 717 857.344C716.058 858.6 714.802 859.654 713.156 859.25C712.911 859.194 712.681 859.349 712.625 859.594C712.569 859.839 712.693 860.069 712.938 860.125C715.144 860.6 716.795 859.105 717.812 857.281C718.738 855.623 719.175 854.082 719.188 852.531C719.2 850.98 718.797 849.445 718.094 847.75Z" fill="#8fd2d5" stroke="none"/>
</g>
<g opacity="1">
<path d="M718.895 845.041C719.986 849.95 718.357 857.927 714.042 860.948C710.456 863.458 705.391 861.878 703.347 858.162C702.483 856.59 702.448 854.518 702.448 852.769" fill="#8fd2d5" fill-rule="evenodd" stroke="none"/>
<path d="M718.812 844.594C718.566 844.642 718.389 844.878 718.438 845.125C719.406 849.934 718.304 856.992 714.406 860.344C710.973 863.296 705.573 861.951 703.406 858.125C702.495 856.516 702.472 854.574 702.438 852.781C702.426 854.593 702.403 856.539 703.281 858.188C705.454 862.266 711.059 863.706 714.719 860.75C718.969 857.317 720.321 850.091 719.344 844.969C719.295 844.722 719.059 844.546 718.812 844.594Z" fill="#8fd2d5" stroke="none"/>
</g>
<g opacity="1">
<path d="M718.356 850.073C724.033 848.812 722.988 842.207 722.04 837.941" fill="#8fd2d5" fill-rule="evenodd" stroke="none"/>
<path d="M722.031 837.938C722.633 841.291 723.619 846.902 719.969 849C719.419 849.316 718.86 849.469 718.25 849.625C718.007 849.691 717.841 849.945 717.906 850.188C717.972 850.43 718.226 850.566 718.469 850.5C719.154 850.305 719.798 850.1 720.406 849.719C722.322 848.519 722.961 846.485 723 844.281C723.039 842.077 722.467 839.711 722.031 837.938Z" fill="#8fd2d5" stroke="none"/>
</g>
<g opacity="1">
<path d="M729.32 829.942C733.472 829.565 730.304 835.251 729.23 836.773C726.619 840.472 723.467 841.176 719.164 841.176" fill="#8fd2d5" fill-rule="evenodd" stroke="none"/>
<path d="M729.281 829.5C729.03 829.516 728.859 829.718 728.875 829.969C728.891 830.22 729.093 830.423 729.344 830.406C729.786 830.373 730.387 830.321 730.719 830.688C731.067 831.071 730.986 831.723 730.906 832.188C730.703 833.376 730.185 834.505 729.625 835.562C729.518 835.765 729.398 835.958 729.281 836.156C729.099 836.465 728.898 836.772 728.688 837.062C726.297 840.359 723.095 841.044 719.156 841.188C720.483 841.198 721.814 841.171 723.125 840.938C725.939 840.436 728.197 838.822 729.781 836.469C730.1 835.996 730.307 835.658 730.594 835.156C731.433 833.688 733.012 830.062 730.281 829.531C729.948 829.467 729.618 829.481 729.281 829.5Z" fill="#8fd2d5" stroke="none"/>
</g>
<g filter="url(#Filter)" opacity="1">
<path d="M738.718 877.776C736.251 877.249 737.23 883.504 734.825 884.263C733.612 884.646 731.99 883.579 731.489 882.41C730.71 880.592 730.631 878.26 731.489 876.478C732.402 874.582 734.365 873.21 736.308 872.4C737.568 871.875 739.492 871.74 740.386 872.771C741.53 874.092 741.415 876.237 741.127 877.961C740.813 879.845 736.784 884.453 735.196 885.005C733.674 885.534 731.635 885.641 730.376 884.634C728.865 883.425 729.954 877.188 730.376 876.108C731.473 873.304 735.957 867.364 739.644 867.581C740.808 867.649 742.363 868.295 742.61 869.435C743.089 871.638 742.188 873.961 741.498 876.108C741.306 876.706 738.034 882.325 736.679 882.41C735.345 882.493 733.54 881.507 733.342 880.185C733.063 878.324 734.522 876.561 735.567 874.995C736.178 874.078 740.591 870.602 741.869 870.547C743.666 870.469 746.105 870.504 747.059 872.03C748.37 874.128 747.872 877.009 747.43 879.444C746.902 882.347 743.589 886.123 741.127 887.6C740.021 888.264 738.461 889.475 737.42 888.712C735.939 887.626 735.707 885.354 735.567 883.522C735.091 877.335 742.608 870.3 747.8 868.322C748.846 867.924 750.346 867.16 751.137 867.952C752.2 869.015 752.099 870.913 751.878 872.4C751.393 875.675 748.121 880.873 745.947 883.151C744.786 884.367 743.218 887.12 741.869 886.117C739.484 884.343 741.624 878.397 738.718 877.776Z" fill="#f45080" fill-rule="evenodd" stroke="none"/>
<path d="M739.781 867.281C737.928 867.184 736.1 868.319 734.688 869.594C732.781 871.314 730.989 873.564 730.031 875.969C729.615 877.013 729.5 878.279 729.375 879.375C729.294 880.086 729.167 881.199 729.219 882.281C729.271 883.364 729.488 884.416 730.125 884.938C731.532 886.087 734.068 886.015 735.656 885.156C735.784 885.918 735.892 886.702 736.188 887.344C736.481 887.982 736.948 888.719 737.625 889C738.83 889.5 740.898 887.981 741.844 887.312C742.071 887.152 742.284 886.988 742.5 886.812C742.745 886.613 742.948 886.34 743.188 886.125C743.916 885.724 744.552 884.924 745.094 884.219C745.184 884.109 745.288 884.018 745.375 883.906C745.468 883.787 745.609 883.591 745.688 883.5C746.332 882.754 746.881 881.964 747.469 881.188C746.975 881.853 746.461 882.507 745.906 883.125C745.813 883.229 745.715 883.33 745.625 883.438C746.268 882.549 746.9 881.623 747.281 880.625C747.869 879.087 748.072 877.26 748.094 875.625C748.119 873.762 747.69 871.531 745.781 870.75C745.387 870.589 744.788 870.497 744.219 870.406C744.282 870.363 744.343 870.293 744.406 870.25C744.875 869.934 745.321 869.653 745.812 869.375C746.264 869.12 746.714 868.868 747.188 868.656C748.033 868.279 749.935 867.322 750.844 867.844C750.696 867.756 750.624 867.556 750.438 867.531C749.718 867.436 748.966 867.773 748.312 868.031C747.163 868.486 746.058 868.978 745 869.625C744.667 869.829 744.335 870.115 744 870.344C743.614 870.292 743.307 870.316 742.938 870.312C742.869 869.313 742.62 868.4 741.625 867.844C741.01 867.5 740.399 867.314 739.781 867.281ZM739.938 867.938C740.397 867.986 740.857 868.125 741.312 868.375C742.092 868.803 742.344 869.549 742.406 870.344C742.218 870.358 741.969 870.31 741.812 870.344C740.843 870.555 740.027 871.087 739.219 871.656C737.865 871.342 736.31 871.87 735.156 872.469C731.773 874.224 729.798 877.183 730.594 881.062C730.724 881.698 730.919 882.374 731.25 882.938C731.805 883.883 732.998 884.691 734.156 884.75C732.916 885.097 731.646 885.139 730.625 884.344C730.222 884.03 730.127 883.373 730.062 882.906C729.866 881.489 730.012 879.998 730.219 878.594C730.33 877.837 730.431 876.971 730.719 876.25C731.764 873.633 733.838 871.035 736.062 869.344C737.215 868.467 738.559 867.791 739.938 867.938ZM750.938 867.938C751.677 868.47 751.903 869.571 751.938 870.406C752.037 872.785 751.149 875.057 750.062 877.125C750.242 876.789 750.491 876.503 750.656 876.156C751.161 875.097 751.634 873.998 751.875 872.844C752.016 872.167 752.131 871.377 752.125 870.625C752.119 869.873 751.996 869.133 751.656 868.5C751.504 868.215 751.184 868.117 750.938 867.938ZM741.906 870.75C742.047 870.719 742.213 870.753 742.375 870.75C742.373 871.024 742.378 871.29 742.344 871.562C741.814 871.99 741.317 872.459 740.812 872.938C740.654 872.708 740.63 872.4 740.406 872.219C740.19 872.044 739.93 871.976 739.688 871.875C739.774 871.818 739.851 871.743 739.938 871.688C740.686 871.205 741.084 870.931 741.906 870.75ZM742.969 870.75C743.074 870.756 743.186 870.747 743.281 870.75C743.324 870.751 743.364 870.78 743.406 870.781C743.26 870.887 743.114 870.984 742.969 871.094C742.975 870.975 742.968 870.867 742.969 870.75ZM743.688 870.844C744.475 870.892 745.308 870.93 746 871.312C747.646 872.223 747.785 874.594 747.688 876.25C747.612 877.526 747.451 878.902 747.062 880.125C746.316 882.477 744.549 884.542 742.688 886.156C742.572 886.184 742.496 886.325 742.375 886.312C741.836 886.256 741.479 885.841 741.219 885.344C741.479 885.825 741.835 886.284 742.375 886.344C742.448 886.352 742.52 886.288 742.594 886.281C742.495 886.365 742.411 886.481 742.312 886.562C741.784 886.996 741.593 887.106 741.031 887.469C740.204 888.003 738.493 889.316 737.5 888.594C736.42 887.809 736.088 886.426 735.906 885.062C737.076 884.339 738.044 883.271 738.938 882.25C739.237 881.908 739.541 881.508 739.844 881.125C739.682 880.665 739.649 880.495 739.5 880.094C738.574 881.453 737.425 882.747 736.469 883.625C736.322 883.76 736.075 883.786 735.906 883.906C736.237 883.517 736.485 883.066 736.656 882.562C737.671 882.371 738.383 881.484 739.219 880.344C739.306 880.225 739.353 880.088 739.438 879.969C739.341 879.711 739.296 879.482 739.219 879.281C739.052 879.526 738.959 879.785 738.781 880.031C738.152 880.899 737.639 881.639 736.906 881.938C737.083 881.234 737.209 880.502 737.375 879.875C737.499 879.404 737.363 879.867 738.656 878.219C738.734 878.228 738.745 878.121 738.812 878.094C738.804 878.071 738.719 877.781 738.719 877.781C738.719 877.781 738.934 877.868 739.062 877.875C739.079 877.837 739.151 877.856 739.156 877.812C739.185 877.563 739.031 877.341 738.781 877.312C736.731 878.891 737.001 878.11 736.719 878.906C736.481 879.578 736.289 880.837 735.969 881.906C736.105 880.883 736.29 879.876 736.719 878.906C737.569 876.982 738.883 875.21 740.406 873.656C740.79 874.412 740.928 875.293 740.906 876.125C740.902 876.287 740.852 876.457 740.844 876.625C740.533 877.26 740.107 877.884 739.719 878.5C739.849 878.704 739.944 878.803 740.031 879.031C740.265 878.673 740.474 878.305 740.688 877.938C740.675 877.988 740.67 878.044 740.656 878.094C740.56 878.427 740.241 878.78 740.062 879.125C740.154 879.38 740.252 879.668 740.281 879.812C740.324 880.024 740.318 880.253 740.344 880.469C740.822 879.788 741.25 879.067 741.469 878.312C741.625 877.775 741.678 877.181 741.719 876.625C741.727 876.516 741.683 876.394 741.688 876.281C742.342 874.849 742.809 873.31 743 871.688C743.013 871.579 742.99 871.483 743 871.375C743.229 871.197 743.459 871.009 743.688 870.844ZM740.344 880.469C740.182 880.698 740.017 880.906 739.844 881.125C740.252 882.283 740.6 883.016 740.719 883.719C740.742 883.858 740.837 884.054 740.875 884.219C740.575 882.998 740.495 881.718 740.344 880.469ZM740.875 884.219C740.933 884.455 740.909 884.708 741 884.938C741.039 885.036 741.104 885.146 741.156 885.25C740.995 884.912 740.953 884.556 740.875 884.219ZM740.062 879.125C740.05 879.09 740.045 879.067 740.031 879.031C739.828 879.343 739.655 879.664 739.438 879.969C739.456 880.018 739.481 880.043 739.5 880.094C739.721 879.769 739.894 879.45 740.062 879.125ZM739.719 878.5C739.53 878.205 739.331 877.889 739.062 877.875C739.015 877.989 738.925 878.049 738.812 878.094C738.847 878.181 739.085 878.932 739.219 879.281C739.397 879.02 739.554 878.761 739.719 878.5ZM742.312 871.906C742.298 871.999 742.328 872.098 742.312 872.188C742.165 873.05 741.851 873.762 741.594 874.531C741.498 873.988 741.181 873.582 740.906 873.125C741.371 872.678 741.831 872.306 742.312 871.906ZM737.781 872.438C737.89 872.42 737.986 872.446 738.094 872.438C736.645 873.49 735.549 874.556 734.531 876.062C733.496 877.596 732.192 879.957 733.812 881.562C734.097 881.844 734.456 882.07 734.812 882.25C735.102 882.396 735.312 882.4 735.562 882.469C735.553 882.584 735.537 882.695 735.531 882.812C735.091 883.632 734.503 884.192 733.406 883.688C733.226 883.604 733.005 883.491 732.844 883.375C732.592 883.193 732.376 882.966 732.188 882.719C731.701 882.082 731.485 881.182 731.375 880.406C730.946 877.385 732.532 874.984 735.094 873.5C735.793 873.095 736.798 872.592 737.781 872.438ZM738.844 872.5C739.411 872.591 739.919 872.793 740.281 873.344C740.299 873.371 740.295 873.409 740.312 873.438C738.094 875.668 736.245 878.309 735.625 881.156C735.571 881.404 735.597 881.704 735.562 881.969C735.483 881.945 735.428 881.97 735.344 881.938C735.117 881.851 734.925 881.721 734.719 881.594C734.431 881.415 734.18 881.204 733.969 880.938C732.759 879.407 734.35 877.211 735.219 875.938C736.167 874.548 737.474 873.473 738.844 872.5ZM748.906 879.125C748.534 879.727 748.159 880.27 747.75 880.844C748.16 880.288 748.532 879.705 748.906 879.125ZM744 885.312C743.856 885.46 743.751 885.648 743.594 885.781C743.559 885.811 743.506 885.814 743.469 885.844C743.652 885.673 743.823 885.492 744 885.312Z" fill="#f45080" stroke="none"/>
</g>
<g filter="url(#Filter_2)" opacity="1">
<path d="M899.054 869.805C898.436 870.794 898.367 872.771 897.201 872.771C894.377 872.771 891.933 867.046 893.864 864.986C895.074 863.695 897.303 863.624 899.054 863.874C900.182 864.035 901.006 865.158 901.649 866.098C902.649 867.558 904.124 869.166 903.874 870.917C903.663 872.39 901.868 873.218 900.537 873.883C897.836 875.234 893.781 873.429 892.011 871.659C890.875 870.523 889.165 868.473 890.157 867.21C891.388 865.643 894.109 866.24 896.089 866.469C897.895 866.677 901.929 869.795 903.132 870.917C903.965 871.695 905.65 872.412 905.357 873.512C904.949 875.042 903.157 875.998 901.649 876.478C898.488 877.484 891.781 875.007 890.157 872.03C889.238 870.345 887.909 868.228 888.674 866.469C889.469 864.641 891.924 863.956 893.864 863.503C895.793 863.053 897.932 863.203 899.796 863.874C901.196 864.378 902.958 865.362 903.132 866.839C903.297 868.239 901.729 869.424 900.537 870.176C899.245 870.992 897.604 871.09 896.089 871.288C891.931 871.83 888.303 870.526 888.303 865.727C888.303 864.588 888.239 863.196 889.045 862.391C890.413 861.023 892.305 859.924 894.235 859.796C896.302 859.658 898.773 860.117 900.167 861.649C901.618 863.246 901.736 865.795 901.649 867.952C901.5 871.679 895.826 873.461 893.123 871.659C890.735 870.067 890.446 867.033 889.786 864.615" fill="#f45080" fill-rule="evenodd" stroke="none"/>
<path d="M894.438 859.688C892.882 859.831 891.352 860.414 890.094 861.344C889.384 861.868 888.676 862.469 888.406 863.344C888.17 864.108 888.177 864.929 888.188 865.719C888.194 866.163 888.307 866.596 888.375 867.031C888.35 867.151 888.229 867.217 888.219 867.344C888.11 868.732 888.832 870.099 889.469 871.281C889.775 871.849 890.053 872.409 890.469 872.906C892.433 875.26 896.252 876.733 899.281 876.969C901.434 877.136 904.561 876.16 905.5 874C906.037 872.765 905.086 872.063 904.188 871.406C904.634 870.058 903.945 868.8 903.188 867.656C903.199 867.62 903.24 867.599 903.25 867.562C903.621 866.184 902.548 865.264 901.375 864.562C901.33 864.332 901.314 864.098 901.25 863.875C901.31 864.089 901.302 864.312 901.344 864.531C900.936 864.291 900.545 864.029 900.156 863.875C900.119 863.851 900.101 863.803 900.062 863.781C900.034 863.765 899.998 863.765 899.969 863.75C899.93 863.736 899.881 863.701 899.844 863.688C899.604 863.602 899.339 863.662 899.094 863.594C898.619 863.498 898.163 863.321 897.688 863.312C897.567 863.31 897.437 863.373 897.312 863.375C895.068 863.133 892.787 863.311 890.75 864.281C890.42 864.438 890.173 864.723 889.875 864.938C889.849 864.834 889.808 864.727 889.781 864.625C889.807 864.725 889.819 864.836 889.844 864.938C889.255 865.365 888.827 865.896 888.562 866.562C888.516 866.092 888.403 865.633 888.406 865.156C888.412 864.413 888.402 863.543 888.781 862.875C889.243 862.061 890.247 861.436 891.031 860.969C893.549 859.468 897.436 859.333 899.75 861.344C900.529 862.02 900.981 862.91 901.25 863.875C900.876 862.563 900.26 861.351 898.969 860.625C897.574 859.84 895.993 859.544 894.438 859.688ZM895.531 863.469C895.679 863.46 895.821 863.534 895.969 863.531C894.908 863.731 893.893 864.098 893.281 865C893.115 865.245 893.091 865.562 893 865.844C891.726 865.846 890.161 866.113 889.625 867.406C889.308 868.171 889.58 869.056 890.062 869.875C890.107 869.95 890.171 869.989 890.219 870.062C890.156 870.013 890.123 869.928 890.062 869.875C889.503 869.382 889.031 868.749 888.75 867.875C888.738 867.717 888.676 867.565 888.688 867.406C888.792 865.897 890.131 864.961 891.406 864.438C892.732 863.893 894.122 863.553 895.531 863.469ZM897.656 864.188C898.218 864.196 898.88 864.208 899.406 864.438C900.254 864.808 900.974 865.758 901.594 866.688C901.595 866.74 901.624 866.792 901.625 866.844C901.632 867.5 901.657 868.207 901.469 868.844C901.445 868.924 901.341 868.954 901.312 869.031C899.886 867.899 898.323 866.759 896.688 866.25C895.819 865.98 894.812 865.923 893.875 865.875C893.928 865.756 893.927 865.609 894 865.5C894.505 864.749 895.46 864.419 896.312 864.281C896.756 864.209 897.207 864.181 897.656 864.188ZM901.219 864.875C901.274 864.907 901.32 864.935 901.375 864.969C901.378 864.991 901.403 865.009 901.406 865.031C901.355 864.967 901.272 864.938 901.219 864.875ZM901.469 865C902.317 865.549 902.948 866.212 902.875 867.156C902.75 866.979 902.65 866.76 902.531 866.594C902.198 866.127 901.863 865.63 901.5 865.156C901.493 865.103 901.477 865.053 901.469 865ZM893.656 866.562C893.732 866.568 893.837 866.557 893.906 866.562C894.738 866.631 895.666 866.662 896.469 866.906C897.612 867.254 898.678 867.964 899.656 868.625C900.106 868.929 900.501 869.3 900.938 869.625C900.425 869.968 899.878 870.266 899.312 870.469C899.367 870.331 899.404 870.149 899.469 870.031C899.589 869.811 899.502 869.527 899.281 869.406C899.061 869.286 898.777 869.373 898.656 869.594C898.449 869.976 898.325 870.375 898.188 870.781C897.985 870.824 897.805 870.905 897.594 870.938C896.858 871.049 896.056 871.143 895.25 871.188C895.178 871.104 895.057 871.012 895 870.938C894.218 869.918 893.441 868.05 893.656 866.562ZM891.906 866.594C892.211 866.537 892.473 866.598 892.781 866.594C892.615 868.144 893.261 869.867 894.156 871.156C893.574 871.143 892.986 871.144 892.438 871.031C891.426 870.051 890.913 868.763 890.531 867.406C890.855 866.983 891.34 866.698 891.906 866.594ZM901.688 866.812C901.922 867.169 902.186 867.564 902.375 867.844C902.418 867.908 902.456 867.996 902.5 868.062C902.249 868.454 902.032 868.864 901.688 869.156C901.65 869.188 901.6 869.188 901.562 869.219C901.505 869.172 901.433 869.14 901.375 869.094C901.413 868.997 901.532 868.945 901.562 868.844C901.757 868.199 901.708 867.499 901.688 866.812ZM890.5 867.438C890.871 868.775 891.393 870.053 892.375 871.031C892.13 870.979 891.951 870.828 891.719 870.75C890.91 869.878 889.889 868.605 890.281 867.688C890.327 867.58 890.436 867.527 890.5 867.438ZM888.844 868.469C889.256 869.363 889.834 870.024 890.562 870.469C890.967 871.009 891.389 871.59 891.75 871.938C893.689 873.8 896.814 875.215 899.562 874.656C900.361 874.494 901.07 874.103 901.781 873.719C902.578 873.288 903.36 872.671 903.844 871.875C904.517 872.342 905.355 872.846 904.969 873.75C904.67 874.448 904.036 874.983 903.406 875.375C901.803 876.373 900.094 876.59 898.25 876.281C895.666 875.849 892.565 874.626 890.844 872.594C890.342 872.001 889.984 871.278 889.625 870.594C889.279 869.935 889.012 869.216 888.844 868.469ZM902.719 868.469C903.139 869.15 903.437 869.906 903.375 870.688C903.094 870.445 902.817 870.206 902.531 869.969C902.325 869.798 902.062 869.616 901.844 869.438C902.2 869.149 902.476 868.826 902.719 868.469ZM901.281 869.875C901.708 870.202 902.156 870.494 902.562 870.844C902.778 871.029 903.002 871.199 903.219 871.375C902.792 872.216 901.816 872.749 901.031 873.156C900.496 873.434 899.97 873.72 899.375 873.844C896.886 874.363 894.044 873.042 892.281 871.375C892.252 871.347 892.188 871.281 892.156 871.25C892.336 871.294 892.534 871.281 892.719 871.312C893.392 871.861 894.218 872.198 895.125 872.312C895.791 872.885 896.719 873.421 897.594 873.156C898.307 872.94 898.621 872.264 898.875 871.531C899.563 871.191 900.123 870.775 900.594 870.219C900.836 870.097 901.055 870.019 901.281 869.875ZM900.438 870.281C900.011 870.759 899.533 871.128 898.938 871.438C899.024 871.18 899.134 870.962 899.219 870.719C899.639 870.584 900.023 870.479 900.438 870.281ZM898.062 871.094C897.984 871.316 897.914 871.535 897.812 871.75C897.759 871.864 897.631 871.978 897.531 872.094C897.272 872.158 897.015 872.122 896.75 872.156C896.282 872.036 895.891 871.804 895.531 871.438C896.258 871.393 896.984 871.348 897.656 871.25C897.779 871.232 897.933 871.119 898.062 871.094ZM892.844 871.344C893.341 871.421 893.857 871.431 894.375 871.438C894.56 871.676 894.711 871.969 894.906 872.156C894.941 872.189 894.995 872.217 895.031 872.25C894.208 872.136 893.471 871.82 892.844 871.344ZM897.469 872.156C897.419 872.201 897.405 872.295 897.344 872.312C897.206 872.351 897.078 872.203 896.938 872.188C897.117 872.16 897.292 872.198 897.469 872.156Z" fill="#f45080" stroke="none"/>
</g>
<g filter="url(#Filter_3)" opacity="1">
<path d="M892.567 863.503C891.632 861.53 893.515 858.76 895.347 857.571C896.561 856.784 898.806 857.747 899.425 859.054C900.226 860.744 900.253 863.598 898.684 864.615C896.945 865.743 893.454 865.376 892.567 863.503Z" fill="#f45080" fill-rule="evenodd" stroke="none"/>
<path d="M896.719 857C894.981 856.881 893.477 858.299 892.531 860.031C892.029 860.951 891.701 862.046 891.938 863.094C891.961 863.197 891.96 863.107 892.156 863.688C892.252 863.92 892.518 864.033 892.75 863.938C892.811 863.912 892.77 863.826 892.812 863.781C892.997 864.031 893.261 864.433 893.625 864.656C893.908 864.83 894.297 864.827 894.625 864.938C894.083 864.736 893.147 863.944 892.844 863.688C892.912 863.569 893.056 863.48 893 863.344C892.78 862.459 892.799 862.833 892.781 862.438C892.767 862.11 892.792 861.784 892.875 861.469C893.244 860.067 894.325 858.665 895.531 857.875C896.217 857.426 897.187 857.641 897.875 857.969C899.672 858.826 900.116 861.283 899.594 863.062C899.005 865.069 896.649 865.408 894.844 865C895.252 865.117 895.63 865.324 896.062 865.344C896.927 865.383 897.772 865.218 898.5 864.844C899.702 864.225 900.23 862.807 900.188 861.344C900.145 859.88 899.557 858.396 898.531 857.688C897.905 857.255 897.298 857.04 896.719 857ZM894.844 865C894.77 864.979 894.697 864.962 894.625 864.938C894.653 864.948 894.694 864.994 894.719 865C894.758 865.01 894.804 864.991 894.844 865Z" fill="#f45080" stroke="none"/>
</g>
</g>
</svg>
